<svg width="471" height="212" viewBox="0 0 471 212" fill="none" xmlns="http://www.w3.org/2000/svg">
<path d="M58.1692 1.48C57.3426 1.48 56.6959 1.71333 56.2292 2.18C55.7626 2.63333 55.4159 3.36667 55.1892 4.38C55.1759 4.40667 55.1292 4.42 55.0492 4.42C54.9826 4.42 54.9492 4.4 54.9492 4.36C54.9759 4.18667 55.0026 3.94 55.0292 3.62C55.0692 3.3 55.1026 2.95333 55.1292 2.58C55.1559 2.20667 55.1759 1.84667 55.1892 1.5C55.2159 1.15333 55.2292 0.866667 55.2292 0.640001C55.2292 0.573334 55.2692 0.540001 55.3492 0.540001C55.4292 0.540001 55.4692 0.573334 55.4692 0.640001C55.4692 0.773334 55.5359 0.873334 55.6692 0.94C55.8026 0.993334 55.9559 1.03333 56.1292 1.06C56.3026 1.07333 56.4492 1.08 56.5692 1.08C57.7159 1.12 59.0559 1.14 60.5892 1.14C61.5226 1.14 62.2692 1.13333 62.8292 1.12C63.3892 1.09333 63.9292 1.08 64.4492 1.08C64.9026 1.08 65.2492 1.05333 65.4892 1C65.7426 0.933334 65.9026 0.793334 65.9692 0.58C65.9826 0.526667 66.0226 0.5 66.0892 0.5C66.1692 0.5 66.2092 0.526667 66.2092 0.58C66.1826 0.78 66.1559 1.06 66.1292 1.42C66.1159 1.78 66.0959 2.15333 66.0692 2.54C66.0559 2.92667 66.0426 3.28667 66.0292 3.62C66.0159 3.95333 66.0092 4.2 66.0092 4.36C66.0092 4.4 65.9692 4.42 65.8892 4.42C65.8226 4.42 65.7892 4.4 65.7892 4.36C65.6959 3.32 65.4292 2.58 64.9892 2.14C64.5492 1.7 63.8959 1.48 63.0292 1.48C62.5626 1.48 62.2092 1.51333 61.9692 1.58C61.7426 1.63333 61.5892 1.74667 61.5092 1.92C61.4426 2.09333 61.4092 2.36667 61.4092 2.74V11.96C61.4092 12.3467 61.4492 12.64 61.5292 12.84C61.6226 13.04 61.7959 13.1733 62.0492 13.24C62.3159 13.3067 62.7226 13.34 63.2692 13.34C63.2959 13.34 63.3092 13.38 63.3092 13.46C63.3092 13.54 63.2959 13.58 63.2692 13.58C62.9092 13.58 62.5026 13.5733 62.0492 13.56C61.6092 13.5467 61.1226 13.54 60.5892 13.54C60.0826 13.54 59.6026 13.5467 59.1492 13.56C58.7092 13.5733 58.3026 13.58 57.9292 13.58C57.8892 13.58 57.8692 13.54 57.8692 13.46C57.8692 13.38 57.8892 13.34 57.9292 13.34C58.4492 13.34 58.8426 13.3067 59.1092 13.24C59.3892 13.1733 59.5759 13.04 59.6692 12.84C59.7626 12.64 59.8092 12.3467 59.8092 11.96V2.7C59.8092 2.34 59.7692 2.07333 59.6892 1.9C59.6092 1.71333 59.4492 1.6 59.2092 1.56C58.9692 1.50667 58.6226 1.48 58.1692 1.48Z" fill="#333333"/>
<path d="M41.6198 11.3001V1.54008L42.1398 1.58008V11.3001C42.1398 11.9934 42.2665 12.5067 42.5198 12.8401C42.7732 13.1734 43.1732 13.3401 43.7198 13.3401C43.7465 13.3401 43.7598 13.3801 43.7598 13.4601C43.7598 13.5401 43.7465 13.5801 43.7198 13.5801C43.4398 13.5801 43.1532 13.5734 42.8598 13.5601C42.5798 13.5467 42.2598 13.5401 41.8998 13.5401C41.5532 13.5401 41.2132 13.5467 40.8798 13.5601C40.5465 13.5734 40.2332 13.5801 39.9398 13.5801C39.9132 13.5801 39.8998 13.5401 39.8998 13.4601C39.8998 13.3801 39.9132 13.3401 39.9398 13.3401C40.5265 13.3401 40.9532 13.1734 41.2198 12.8401C41.4865 12.5067 41.6198 11.9934 41.6198 11.3001ZM51.7398 13.8401C51.7398 13.8667 51.7065 13.8801 51.6398 13.8801C51.5865 13.8934 51.5465 13.8934 51.5198 13.8801L42.0998 2.72008C41.6332 2.17341 41.2265 1.80674 40.8798 1.62008C40.5465 1.42008 40.2132 1.32008 39.8798 1.32008C39.8532 1.32008 39.8398 1.28008 39.8398 1.20008C39.8398 1.12008 39.8532 1.08008 39.8798 1.08008C40.1332 1.08008 40.3865 1.08674 40.6398 1.10008C40.8932 1.11341 41.1265 1.12008 41.3398 1.12008C41.6598 1.12008 41.9532 1.11341 42.2198 1.10008C42.4865 1.08674 42.6865 1.08008 42.8198 1.08008C42.9932 1.08008 43.1198 1.16008 43.1998 1.32008C43.2798 1.46674 43.4732 1.73341 43.7798 2.12008L51.5798 11.5201L51.7398 13.8401ZM51.7398 3.38008V13.8401L51.2398 13.2201V3.38008C51.2398 2.68674 51.1132 2.17341 50.8598 1.84008C50.6198 1.49341 50.2265 1.32008 49.6798 1.32008C49.6532 1.32008 49.6398 1.28008 49.6398 1.20008C49.6398 1.12008 49.6532 1.08008 49.6798 1.08008C49.9598 1.08008 50.2465 1.09341 50.5398 1.12008C50.8332 1.13341 51.1532 1.14008 51.4998 1.14008C51.8332 1.14008 52.1598 1.13341 52.4798 1.12008C52.7998 1.09341 53.0998 1.08008 53.3798 1.08008C53.4065 1.08008 53.4198 1.12008 53.4198 1.20008C53.4198 1.28008 53.4065 1.32008 53.3798 1.32008C52.8198 1.32008 52.4065 1.49341 52.1398 1.84008C51.8732 2.17341 51.7398 2.68674 51.7398 3.38008Z" fill="#333333"/>
<path d="M36.2414 11.9601C36.2414 12.3467 36.2747 12.6401 36.3414 12.8401C36.4214 13.0401 36.5747 13.1734 36.8014 13.2401C37.0414 13.3067 37.3947 13.3401 37.8614 13.3401C37.8881 13.3401 37.9014 13.3801 37.9014 13.4601C37.9014 13.5401 37.8881 13.5801 37.8614 13.5801C37.5281 13.5801 37.1547 13.5734 36.7414 13.5601C36.3414 13.5467 35.9014 13.5401 35.4214 13.5401C34.9547 13.5401 34.5147 13.5467 34.1014 13.5601C33.6881 13.5734 33.3147 13.5801 32.9814 13.5801C32.9547 13.5801 32.9414 13.5401 32.9414 13.4601C32.9414 13.3801 32.9547 13.3401 32.9814 13.3401C33.4481 13.3401 33.8014 13.3067 34.0414 13.2401C34.2814 13.1734 34.4414 13.0401 34.5214 12.8401C34.6014 12.6401 34.6414 12.3467 34.6414 11.9601V2.70008C34.6414 2.31341 34.6014 2.02674 34.5214 1.84008C34.4414 1.64008 34.2814 1.50674 34.0414 1.44008C33.8014 1.36008 33.4481 1.32008 32.9814 1.32008C32.9547 1.32008 32.9414 1.28008 32.9414 1.20008C32.9414 1.12008 32.9547 1.08008 32.9814 1.08008C33.3147 1.08008 33.6881 1.09341 34.1014 1.12008C34.5147 1.13341 34.9547 1.14008 35.4214 1.14008C35.9014 1.14008 36.3481 1.13341 36.7614 1.12008C37.1747 1.09341 37.5414 1.08008 37.8614 1.08008C37.8881 1.08008 37.9014 1.12008 37.9014 1.20008C37.9014 1.28008 37.8881 1.32008 37.8614 1.32008C37.3947 1.32008 37.0481 1.36008 36.8214 1.44008C36.5947 1.52008 36.4414 1.66008 36.3614 1.86008C36.2814 2.06008 36.2414 2.35341 36.2414 2.74008V11.9601Z" fill="#333333"/>
<path d="M23.6877 13.8199C22.7277 13.8199 21.8543 13.6532 21.0677 13.3199C20.2943 12.9732 19.6277 12.4999 19.0677 11.8999C18.521 11.2999 18.0943 10.6132 17.7877 9.83986C17.4943 9.0532 17.3477 8.21986 17.3477 7.33986C17.3477 6.25986 17.5543 5.3132 17.9677 4.49986C18.3943 3.68653 18.9543 3.0132 19.6477 2.47986C20.341 1.9332 21.101 1.52653 21.9277 1.25986C22.7543 0.993196 23.5743 0.859863 24.3877 0.859863C25.3743 0.859863 26.2543 1.03986 27.0277 1.39986C27.8143 1.74653 28.481 2.21986 29.0277 2.81986C29.5743 3.41986 29.9877 4.09986 30.2677 4.85986C30.561 5.61986 30.7077 6.39986 30.7077 7.19986C30.7077 8.1332 30.521 8.99986 30.1477 9.79986C29.7743 10.5999 29.261 11.2999 28.6077 11.8999C27.9677 12.4999 27.221 12.9732 26.3677 13.3199C25.5277 13.6532 24.6343 13.8199 23.6877 13.8199ZM24.3877 13.3799C25.2277 13.3799 25.9877 13.1665 26.6677 12.7399C27.361 12.2999 27.901 11.6665 28.2877 10.8399C28.6877 9.99986 28.8877 8.9732 28.8877 7.75986C28.8877 6.51986 28.6677 5.41986 28.2277 4.45986C27.801 3.48653 27.1877 2.72653 26.3877 2.17986C25.601 1.61986 24.661 1.33986 23.5677 1.33986C22.1677 1.33986 21.081 1.8132 20.3077 2.75986C19.5477 3.70653 19.1677 4.99986 19.1677 6.63986C19.1677 7.58653 19.2877 8.4732 19.5277 9.29986C19.781 10.1132 20.141 10.8265 20.6077 11.4399C21.0743 12.0532 21.6277 12.5332 22.2677 12.8799C22.9077 13.2132 23.6143 13.3799 24.3877 13.3799Z" fill="#333333"/>
<path d="M9.05297 11.88C9.05297 12.28 9.09964 12.5867 9.19297 12.8C9.29964 13 9.51297 13.14 9.83297 13.22C10.153 13.3 10.633 13.34 11.273 13.34C11.313 13.34 11.333 13.38 11.333 13.46C11.333 13.54 11.313 13.58 11.273 13.58C10.8463 13.58 10.3796 13.5734 9.87297 13.56C9.37964 13.5467 8.83964 13.54 8.25297 13.54C7.81297 13.54 7.37964 13.5467 6.95297 13.56C6.53964 13.5734 6.1663 13.58 5.83297 13.58C5.8063 13.58 5.79297 13.54 5.79297 13.46C5.79297 13.38 5.8063 13.34 5.83297 13.34C6.29964 13.34 6.6463 13.3067 6.87297 13.24C7.11297 13.1734 7.2663 13.04 7.33297 12.84C7.41297 12.64 7.45297 12.3467 7.45297 11.96L7.45297 2.70002C7.45297 2.31335 7.41297 2.02669 7.33297 1.84002C7.2663 1.64002 7.11297 1.50669 6.87297 1.44002C6.6463 1.36002 6.29964 1.32002 5.83297 1.32002C5.8063 1.32002 5.79297 1.28002 5.79297 1.20002C5.79297 1.12002 5.8063 1.08002 5.83297 1.08002C6.1663 1.08002 6.53964 1.09335 6.95297 1.12002C7.3663 1.13335 7.79297 1.14002 8.23297 1.14002C8.57964 1.14002 8.99964 1.12002 9.49297 1.08002C9.99964 1.04002 10.5063 1.02002 11.013 1.02002C11.7863 1.02002 12.4796 1.13335 13.093 1.36002C13.7196 1.58669 14.2196 1.94002 14.593 2.42002C14.9663 2.90002 15.1596 3.52669 15.173 4.30002C15.173 4.99335 15.0463 5.59335 14.793 6.10002C14.5396 6.60669 14.193 7.02669 13.753 7.36002C13.3263 7.69335 12.8463 7.94002 12.313 8.10002C11.793 8.26002 11.2796 8.34002 10.773 8.34002C10.613 8.34002 10.4463 8.33335 10.273 8.32002C10.113 8.30669 9.95964 8.28002 9.81297 8.24002C9.75964 8.22669 9.73964 8.18002 9.75297 8.10002C9.77964 8.00669 9.81297 7.96669 9.85297 7.98002C9.97297 8.00669 10.093 8.02669 10.213 8.04002C10.3463 8.05335 10.4596 8.06002 10.553 8.06002C11.0596 8.06002 11.5263 7.94002 11.953 7.70002C12.3796 7.46002 12.7263 7.09335 12.993 6.60002C13.2596 6.09335 13.393 5.46669 13.393 4.72002C13.393 4.00002 13.2663 3.39335 13.013 2.90002C12.773 2.40669 12.433 2.02669 11.993 1.76002C11.553 1.49335 11.0463 1.36002 10.473 1.36002C10.0996 1.36002 9.8063 1.38669 9.59297 1.44002C9.39297 1.49335 9.25297 1.62002 9.17297 1.82002C9.09297 2.02002 9.05297 2.32669 9.05297 2.74002L9.05297 11.88Z" fill="#333333"/>
<path d="M59.0693 53.9968C61.9707 53.9968 64.1467 54.7861 65.5973 56.3648C67.048 57.9435 67.7733 59.8848 67.7733 62.1888C67.7733 64.2368 67.176 66.1355 65.9813 67.8848C64.7867 69.6341 63.144 71.0421 61.0533 72.1088C59.0053 73.1328 56.7867 73.6448 54.3973 73.6448C51.9227 73.6448 49.6827 72.9621 47.6773 71.5968C45.672 70.2315 44.0933 68.3115 42.9413 65.8368C41.832 63.3621 41.2773 60.5675 41.2773 57.4528C41.2773 53.6981 42.1307 50.1568 43.8373 46.8288C45.544 43.4581 48.0613 40.6208 51.3893 38.3168C54.7173 35.9701 58.6853 34.4981 63.2933 33.9008C63.464 33.8581 63.5707 33.9435 63.6133 34.1568C63.656 34.3701 63.6133 34.4981 63.4853 34.5408C59.6027 35.3088 56.3387 36.7808 53.6933 38.9568C51.048 41.1328 49.064 43.7355 47.7413 46.7648C46.4187 49.7515 45.7573 52.8875 45.7573 56.1728C45.7573 58.9888 46.184 61.6555 47.0373 64.1728C47.9333 66.6475 49.1707 68.6528 50.7493 70.1888C52.3707 71.6821 54.2053 72.4288 56.2533 72.4288C58.4293 72.4288 60.136 71.6608 61.3733 70.1248C62.6533 68.5461 63.2933 66.4555 63.2933 63.8528C63.2933 61.3355 62.7387 59.3728 61.6293 57.9648C60.52 56.5141 58.8987 55.7888 56.7653 55.7888C55.6133 55.7888 54.5467 56.0235 53.5653 56.4928C52.584 56.9195 51.5173 57.6661 50.3653 58.7328C50.3227 58.7755 50.2587 58.7968 50.1733 58.7968C50.0453 58.7968 49.9173 58.7328 49.7893 58.6048C49.6613 58.4768 49.6187 58.3701 49.6613 58.2848C50.728 56.8768 52.072 55.8101 53.6933 55.0848C55.3573 54.3595 57.1493 53.9968 59.0693 53.9968Z" fill="#333333"/>
<path d="M19.4586 73.6452C16.5146 73.6452 13.8906 72.9839 11.5866 71.6612C9.28256 70.2959 7.46923 68.4185 6.14656 66.0292C4.86656 63.5972 4.22656 60.8239 4.22656 57.7092C4.22656 54.6799 4.86656 51.9919 6.14656 49.6452C7.46923 47.2985 9.28256 45.4852 11.5866 44.2052C13.9332 42.8825 16.5786 42.2212 19.5226 42.2212C22.4239 42.2212 25.0052 42.8825 27.2666 44.2052C29.5706 45.5279 31.3412 47.3839 32.5786 49.7732C33.8586 52.1199 34.4986 54.8292 34.4986 57.9012C34.4986 60.9732 33.8586 63.7039 32.5786 66.0932C31.2986 68.4825 29.5066 70.3385 27.2026 71.6612C24.9412 72.9839 22.3599 73.6452 19.4586 73.6452ZM20.2266 72.7492C23.4692 72.7492 25.8799 71.5119 27.4586 69.0372C29.0372 66.5199 29.8266 63.0639 29.8266 58.6692C29.8266 55.2132 29.3359 52.3119 28.3546 49.9652C27.3732 47.6185 26.0506 45.8905 24.3866 44.7812C22.7226 43.6292 20.8666 43.0532 18.8186 43.0532C15.6612 43.0532 13.1866 44.3759 11.3946 47.0212C9.60256 49.6239 8.70656 53.0372 8.70656 57.2612C8.70656 60.2479 9.1759 62.9145 10.1146 65.2612C11.0532 67.6079 12.3972 69.4425 14.1466 70.7652C15.8959 72.0879 17.9226 72.7492 20.2266 72.7492Z" fill="#333333"/>
<path d="M181.12 210.449C177.95 193.627 176.419 177.836 173.923 160.903C171.662 145.552 170.28 126.243 168.893 110.775C167.632 96.7337 165.897 78.5605 171.512 65.2677C180.347 44.3593 205.653 53.7694 203.697 74.8336C201.354 100.041 183.208 133.353 181.12 210.449Z" fill="white"/>
<path d="M181.121 210.449C183.026 205.985 181.442 195.029 181.684 189.888C182.089 181.326 182.82 172.776 183.871 164.267C187.218 137.148 192.044 101.782 212.225 81.227C226.785 66.3943 245.17 82.9257 236.413 100.209C225.934 120.887 208.854 145.498 181.124 210.449H181.121Z" fill="white" stroke="#333333" stroke-linecap="round" stroke-linejoin="round"/>
<path d="M181.121 210.449C179.497 194.859 179.224 173.783 176.977 158.27C174.94 144.207 173.415 130.057 170.581 116.12C168.007 103.469 164.772 87.0692 156.359 76.8771C143.13 60.8461 123.39 75.7327 130.628 93.7021C139.286 115.207 155.817 145.462 181.118 210.446L181.121 210.449Z" fill="white"/>
<path d="M181.12 210.914C180.883 210.914 180.683 210.734 180.662 210.497C177.15 174.9 170.122 128.439 146.742 84.7891C146.622 84.5644 146.706 84.2858 146.931 84.163C147.156 84.0432 147.437 84.127 147.557 84.3517C157.662 103.22 165.353 123.478 171.063 146.286C175.494 163.983 178.708 182.998 181.114 205.803C183.637 181.158 187.606 160.535 193.215 142.877C199.832 122.043 208.724 105.236 220.396 91.494C220.561 91.2992 220.852 91.2753 221.046 91.44C221.241 91.6048 221.265 91.8954 221.1 92.0901C199.281 117.777 186.725 155.4 181.581 210.491C181.56 210.728 181.36 210.911 181.123 210.911L181.12 210.914Z" fill="#333333"/>
<path d="M181.123 210.914C180.871 210.914 180.668 210.713 180.662 210.461C178.409 114.422 185.188 73.9469 185.257 73.5485C185.302 73.2968 185.539 73.129 185.791 73.171C186.042 73.2129 186.21 73.4526 186.168 73.7042C186.099 74.1027 179.334 114.508 181.584 210.437C181.59 210.692 181.39 210.905 181.132 210.911C181.129 210.911 181.126 210.911 181.12 210.911L181.123 210.914Z" fill="white" stroke="#333333" stroke-linecap="round" stroke-linejoin="round"/>
<path d="M181.12 211.243C180.539 204.973 181.411 190.391 176.899 177.905C170.161 159.255 161.072 137.565 146.578 123.55C138.761 115.991 120.726 102.92 112.128 116.791C106.804 125.38 112.385 136.291 118.823 141.148C173.52 182.401 163.879 210.449 181.12 211.243Z" fill="white"/>
<path d="M181.122 211.242C180.427 194.654 181.631 181.032 187.482 165.055C193.606 148.34 202.387 130.164 218.694 122.231C226.039 118.657 237.906 115.613 242.999 125.931C248.587 137.256 238.128 144.889 230.512 151.276C221.03 159.23 212.381 168.176 204.757 177.928C198.411 186.041 195.017 194.87 190.601 204.061C189.097 207.195 185.208 210.814 181.122 211.242Z" fill="white" stroke="#333333" stroke-linecap="round" stroke-linejoin="round"/>
<path d="M181.118 210.913C181.118 210.913 181.112 210.913 181.106 210.913C180.882 210.907 180.69 210.739 180.66 210.515C176.96 184.307 164.908 164.459 155.447 152.421C145.189 139.371 135.683 132.433 135.587 132.367C135.38 132.217 135.332 131.929 135.482 131.722C135.632 131.516 135.919 131.468 136.126 131.618C136.222 131.687 145.815 138.682 156.151 151.825C165.381 163.563 177.062 182.68 181.187 207.854C182.278 202.908 185.115 191.269 190.154 178.372C196.302 162.634 207.078 141.747 223.51 131.6C223.726 131.465 224.011 131.534 224.146 131.749C224.28 131.965 224.212 132.25 223.996 132.385C207.785 142.397 197.117 163.093 191.023 178.692C184.405 195.634 181.601 210.389 181.574 210.536C181.532 210.754 181.343 210.913 181.118 210.913Z" fill="#333333"/>
<path d="M306.835 36.7371V211.051C306.661 210.835 306.481 210.619 306.301 210.407C304.645 208.423 302.907 206.569 301.079 204.84C299.707 203.537 298.281 202.303 296.804 201.14C277.175 185.654 248.453 182.353 204.477 186.355V12.0449C256.611 7.3054 287.304 12.8239 306.835 36.7401V36.7371Z" fill="white" stroke="#F2F2F2" stroke-linecap="round" stroke-linejoin="round"/>
<path d="M306.607 211.072V211.243H182.547V36.9296C186.912 36.0488 193.134 35.2998 197.955 34.6797C194.926 35.5155 192.904 36.4712 192.904 36.4712V207.747C251.351 203.637 282.742 206.6 297.11 209.005C298.752 209.281 300.172 209.551 301.385 209.799C304.142 210.365 305.822 210.833 306.607 211.072Z" fill="#333333" stroke="#333333" stroke-linecap="round" stroke-linejoin="round"/>
<path d="M182.546 36.9297H179.895V211.243H182.546V36.9297Z" fill="#333333" stroke="white" stroke-linecap="round" stroke-linejoin="round"/>
<path d="M436.911 36.9297H434.832V211.243H436.911V36.9297Z" fill="white" stroke="#333333" stroke-linecap="round" stroke-linejoin="round"/>
<path d="M429.577 36.9298V211.243H307.141V36.9298C337.199 30.8841 378.009 30.8841 429.577 36.9298Z" fill="white" stroke="#F2F2F2" stroke-linecap="round" stroke-linejoin="round"/>
<path d="M434.829 36.9297H429.574V211.243H434.829V36.9297Z" fill="white" stroke="#333333" stroke-linecap="round" stroke-linejoin="round"/>
<path d="M306.606 210.602V211.075C305.821 210.835 304.14 210.368 301.384 209.802C300.171 209.553 298.751 209.284 297.109 209.008C282.743 206.602 251.349 203.639 192.902 207.75V36.4709C192.902 36.4709 194.925 35.5152 197.953 34.6794H197.965C200.188 34.3918 202.459 34.1311 204.781 33.8975V186.548C248.755 182.545 277.477 185.847 297.109 201.332C298.586 202.498 300.012 203.729 301.384 205.032C303.211 206.758 304.949 208.615 306.606 210.599V210.602Z" fill="#F2F2F2" stroke="#F2F2F2" stroke-linecap="round" stroke-linejoin="round"/>
<path d="M330.664 131.958H438.576C444.958 131.958 450.135 137.131 450.135 143.516C450.135 149.897 444.961 155.074 438.576 155.074H330.664C333.555 147.368 333.555 139.666 330.664 131.961V131.958Z" fill="white" stroke="#333333" stroke-linecap="round" stroke-linejoin="round"/>
<path d="M400.718 146.565H353.275C353.086 146.565 352.934 146.413 352.934 146.224C352.934 146.035 353.086 145.882 353.275 145.882H400.718C400.907 145.882 401.06 146.035 401.06 146.224C401.06 146.413 400.907 146.565 400.718 146.565Z" fill="#333333"/>
<path d="M438.581 157.644H323.844V152.503H438.581C443.536 152.503 447.566 148.473 447.566 143.518C447.566 138.563 443.536 134.534 438.581 134.534H323.844V129.393H438.581C446.37 129.393 452.709 135.729 452.709 143.521C452.709 151.314 446.373 157.65 438.581 157.65V157.644Z" fill="#333333" stroke="#F2F2F2" stroke-linecap="round" stroke-linejoin="round"/>
<path d="M457.041 208.814H349.129C342.747 208.814 337.57 203.64 337.57 197.255C337.57 190.874 342.744 185.697 349.129 185.697H457.041C454.15 193.403 454.15 201.105 457.041 208.811V208.814Z" fill="white" stroke="#F2F2F2" stroke-linecap="round" stroke-linejoin="round"/>
<path d="M449.166 203.538H412.232C412.043 203.538 411.891 203.385 411.891 203.197C411.891 203.008 412.043 202.855 412.232 202.855H449.166C449.354 202.855 449.507 203.008 449.507 203.197C449.507 203.385 449.354 203.538 449.166 203.538Z" fill="#333333"/>
<path d="M434.433 194.892H386.99C386.801 194.892 386.648 194.739 386.648 194.55C386.648 194.361 386.801 194.208 386.99 194.208H434.433C434.622 194.208 434.775 194.361 434.775 194.55C434.775 194.739 434.622 194.892 434.433 194.892Z" fill="#333333"/>
<path d="M463.866 211.385H349.129C341.339 211.385 335 205.048 335 197.256C335 189.464 341.336 183.127 349.129 183.127H463.866V188.268H349.129C344.173 188.268 340.144 192.298 340.144 197.253C340.144 202.208 344.173 206.238 349.129 206.238H463.866V211.379V211.385Z" fill="#333333" stroke="#F2F2F2" stroke-linecap="round" stroke-linejoin="round"/>
<path d="M457.041 126.8H349.129C342.747 126.8 337.57 121.627 337.57 115.242C337.57 108.861 342.744 103.684 349.129 103.684H457.041C454.15 111.39 454.15 119.092 457.041 126.797V126.8Z" fill="white" stroke="#333333" stroke-linecap="round" stroke-linejoin="round"/>
<path d="M449.166 121.522H412.232C412.043 121.522 411.891 121.37 411.891 121.181C411.891 120.992 412.043 120.839 412.232 120.839H449.166C449.354 120.839 449.507 120.992 449.507 121.181C449.507 121.37 449.354 121.522 449.166 121.522Z" fill="#333333"/>
<path d="M425.593 117.202H357.72C357.532 117.202 357.379 117.049 357.379 116.861C357.379 116.672 357.532 116.519 357.72 116.519H425.593C425.781 116.519 425.934 116.672 425.934 116.861C425.934 117.049 425.781 117.202 425.593 117.202Z" fill="#333333"/>
<path d="M434.433 112.879H386.99C386.801 112.879 386.648 112.726 386.648 112.537C386.648 112.349 386.801 112.196 386.99 112.196H434.433C434.622 112.196 434.775 112.349 434.775 112.537C434.775 112.726 434.622 112.879 434.433 112.879Z" fill="#333333"/>
<path d="M463.866 129.372H349.129C341.339 129.372 335 123.035 335 115.243C335 107.451 341.336 101.114 349.129 101.114H463.866V106.255H349.129C344.173 106.255 340.144 110.285 340.144 115.24C340.144 120.195 344.173 124.225 349.129 124.225H463.866V129.366V129.372Z" fill="#333333" stroke="#F2F2F2" stroke-linecap="round" stroke-linejoin="round"/>
<path d="M349.348 158.842H457.26C463.641 158.842 466.82 164.016 466.82 170.4C466.82 176.782 463.641 181.959 457.26 181.959H349.348C352.239 174.253 352.239 166.551 349.348 158.845V158.842Z" fill="white" stroke="#333333" stroke-linecap="round" stroke-linejoin="round"/>
<path d="M448.667 169.127H380.795C380.606 169.127 380.453 168.975 380.453 168.786C380.453 168.597 380.606 168.444 380.795 168.444H448.667C448.856 168.444 449.008 168.597 449.008 168.786C449.008 168.975 448.856 169.127 448.667 169.127Z" fill="#333333"/>
<path d="M458.394 157.893C457.588 157.728 456.749 157.644 455.886 157.644H410.151H344.969V160.044H410.166C415.708 160.05 419.884 164.502 419.884 170.401C419.884 173.226 418.908 175.838 417.131 177.759C415.34 179.694 412.862 180.757 410.151 180.757H344.969V183.157H455.889C462.807 183.157 468.022 177.672 468.022 170.401C468.022 164.037 464.029 159.043 458.397 157.893H458.394Z" fill="#333333" stroke="#F2F2F2" stroke-linecap="round" stroke-linejoin="round"/>
<path d="M334.418 76.853H459.239C465.62 76.853 468.799 82.027 468.799 88.4112C468.799 94.7925 465.62 99.9694 459.239 99.9694H334.418C337.309 92.264 337.309 84.5615 334.418 76.856V76.853Z" fill="white" stroke="#333333" stroke-linecap="round" stroke-linejoin="round"/>
<path d="M450.646 87.1381H365.865C365.676 87.1381 365.523 86.9853 365.523 86.7966C365.523 86.6079 365.676 86.4551 365.865 86.4551H450.646C450.835 86.4551 450.988 86.6079 450.988 86.7966C450.988 86.9853 450.835 87.1381 450.646 87.1381Z" fill="#333333"/>
<path d="M460.373 75.903C459.567 75.7382 458.728 75.6543 457.865 75.6543H412.13H330.039V78.054H412.145C417.687 78.06 421.863 82.5119 421.863 88.4109C421.863 91.236 420.887 93.8484 419.11 95.7688C417.319 97.7011 414.841 98.7677 412.13 98.7677H330.039V101.167H457.868C464.786 101.167 470.002 95.6819 470.002 88.4109C470.002 82.0476 466.008 77.0534 460.376 75.903H460.373Z" fill="#333333" stroke="#F2F2F2" stroke-linecap="round" stroke-linejoin="round"/>
<path d="M416.203 107.232V112.846L414.559 115.647L418.945 117.546L420.017 112.507L420.08 106.078L416.203 107.232Z" fill="white" stroke="#333333" stroke-linecap="round" stroke-linejoin="round"/>
<path d="M435.459 107.232V112.846L437.104 115.647L432.718 117.546L431.121 116.004L431.645 112.507L431.582 106.078L435.459 107.232Z" fill="white" stroke="#333333" stroke-linecap="round" stroke-linejoin="round"/>
<path d="M442.857 75.0496C440.717 66.8258 437.107 64.546 437.107 64.546L433.734 66.5263V66.4574H418.05L414.794 64.543C414.794 64.543 411.184 66.8228 409.045 75.0466C406.906 83.2704 415.396 108.927 415.396 108.927C415.396 108.927 419.521 109.29 420.995 108.244C420.995 108.244 422.191 92.0124 419.438 79.2708C419.438 79.2708 420.058 78.0845 422.017 76.0053H429.887C431.847 78.0845 432.467 79.2708 432.467 79.2708C429.714 92.0124 430.909 108.244 430.909 108.244C432.383 109.29 436.508 108.927 436.508 108.927C436.508 108.927 444.999 83.2704 442.86 75.0466L442.857 75.0496Z" fill="#333333" stroke="#F2F2F2" stroke-linecap="round" stroke-linejoin="round"/>
<path d="M415.51 113.007C415.51 113.007 418.311 114.94 420.303 112.941C420.303 112.941 420.528 114.499 420.855 115.686C421.208 116.974 420.01 118.789 419.477 119.844C418.386 121.995 418.449 123.487 417.11 125.485C416.544 126.333 415.935 127.304 415.007 127.747C414.12 128.17 412.202 128.421 411.373 127.981C409.782 127.133 407.472 125.401 410.198 121.066C412.005 118.193 413.841 117.067 415.513 113.007H415.51Z" fill="white" stroke="#333333" stroke-linecap="round" stroke-linejoin="round"/>
<path d="M436.147 113.007C436.147 113.007 433.346 114.94 431.354 112.941C431.354 112.941 431.129 114.499 430.802 115.686C430.449 116.974 431.647 118.789 432.181 119.844C433.271 121.995 433.208 123.487 434.547 125.485C435.728 127.25 436.956 128.28 439.188 127.921C440.29 127.744 441.102 127.516 441.729 126.552C443.211 124.269 441.848 121.447 440.41 119.559C439.688 118.613 438.9 117.72 438.205 116.749C437.954 116.399 435.881 113.193 436.15 113.007H436.147Z" fill="white" stroke="#333333" stroke-linecap="round" stroke-linejoin="round"/>
<path d="M433.885 5.563C433.885 6.25205 433.801 6.94111 433.627 7.6062C433.363 8.59785 433.199 9.61046 433.016 10.6171C432.995 10.7249 432.974 10.8358 432.953 10.9436C432.908 11.1683 432.86 11.39 432.809 11.6117C432.731 11.7495 432.617 11.7945 432.461 11.7046C432.449 11.6686 432.432 11.6327 432.414 11.5967C432.207 11.2282 431.955 11.1563 431.739 11.1893C431.584 11.2103 431.446 11.2882 431.356 11.3511C430.931 10.3145 430.811 8.88545 430.778 7.9028C430.763 7.37851 430.274 6.99504 429.762 7.11188C427.887 7.5343 424.265 7.83389 422.44 7.96571C421.787 8.01365 421.233 8.46902 421.062 9.10416C420.751 10.2576 420.505 10.9586 420.313 11.3601C420.259 11.3181 420.184 11.2732 420.1 11.2372C419.969 11.1833 419.81 11.1534 419.651 11.2133C419.51 11.2582 419.369 11.375 419.247 11.5967C418.914 12.1899 419.489 13.3074 420.193 14.1373C420.313 14.8563 420.553 15.5753 420.888 16.2494C420.379 15.6921 419.927 14.9042 419.738 14.308C419.315 12.9749 418.207 10.0688 418.111 8.65177C418.009 7.11787 417.976 5.61992 418.779 4.25679C419.72 2.66596 421.299 1.94095 422.979 1.37473C424.202 0.964289 425.478 0.709638 426.76 0.586806C427.036 0.556847 427.315 0.535875 427.59 0.520896C428.522 0.469966 429.493 0.484945 430.334 0.8834C431.176 1.28485 431.859 2.15666 431.766 3.08539C432.381 3.01049 433.025 3.28012 433.402 3.77145C433.408 3.77744 433.411 3.78343 433.417 3.78942C433.789 4.28674 433.882 4.93985 433.885 5.563Z" fill="#333333" stroke="#333333" stroke-linecap="round" stroke-linejoin="round"/>
<path d="M432.809 11.6118C432.659 12.2589 432.485 12.8971 432.329 13.5412C432.182 14.1464 431.637 15.4106 431.239 15.8241C431.191 15.875 431.14 15.9199 431.086 15.9589C431.389 15.2848 431.598 14.5718 431.685 13.8617C432.242 13.1247 432.653 12.2499 432.461 11.7047C432.617 11.7946 432.731 11.7496 432.809 11.6118Z" fill="white" stroke="#333333" stroke-linecap="round" stroke-linejoin="round"/>
<path d="M429.294 18.4722V23.751H422.703V18.61C423.623 19.3979 424.728 19.8922 425.921 19.8922C427.179 19.8922 428.344 19.341 429.294 18.4722Z" fill="white" stroke="#333333" stroke-linecap="round" stroke-linejoin="round"/>
<path d="M431.684 13.8617C431.597 14.5717 431.388 15.2847 431.085 15.9588C430.66 16.9145 430.043 17.7923 429.291 18.4724C428.341 19.3412 427.175 19.8924 425.917 19.8924C424.725 19.8924 423.619 19.3981 422.7 18.6102C421.957 17.978 421.336 17.1542 420.887 16.2494C420.551 15.5753 420.312 14.8563 420.192 14.1373C419.488 13.3074 418.913 12.1899 419.245 11.5968C419.368 11.3751 419.509 11.2582 419.65 11.2133C419.808 11.1534 419.967 11.1833 420.099 11.2373C420.183 11.2732 420.258 11.3181 420.312 11.3601C420.504 10.9586 420.749 10.2576 421.061 9.10417C421.232 8.46904 421.786 8.01366 422.439 7.96573C424.263 7.83391 427.885 7.53432 429.761 7.1119C430.273 6.99506 430.762 7.37853 430.776 7.90281C430.809 8.88547 430.929 10.3145 431.355 11.3511C431.445 11.2882 431.582 11.2103 431.738 11.1893C431.954 11.1564 432.206 11.2283 432.412 11.5968C432.43 11.6327 432.448 11.6687 432.46 11.7046C432.652 12.2499 432.241 13.1247 431.684 13.8617Z" fill="white" stroke="#333333" stroke-linecap="round" stroke-linejoin="round"/>
<path d="M432.956 10.9438C432.935 11.2315 432.893 11.4711 432.812 11.6119C432.863 11.3902 432.911 11.1685 432.956 10.9438Z" fill="white" stroke="#333333" stroke-linecap="round" stroke-linejoin="round"/>
<path d="M414.555 58.1982H412.629C412.674 56.841 412.764 55.442 412.893 54.0249C413.45 55.415 413.989 56.8141 414.555 58.1982Z" fill="white" stroke="#333333" stroke-linecap="round" stroke-linejoin="round"/>
<path d="M439.283 58.198H437.656C438.145 57.0686 438.615 55.9271 439.082 54.7827C439.172 55.9242 439.241 57.0656 439.283 58.198Z" fill="white" stroke="#333333" stroke-linecap="round" stroke-linejoin="round"/>
<path d="M447.759 49.1442C446.558 43.2512 444.599 37.7148 441.549 32.49C439.008 28.1399 435.943 24.0325 430.578 23.0499C429.391 22.8312 427.342 22.8461 426.024 22.8042H425.907C424.589 22.8342 422.54 22.8192 421.347 23.0319C415.979 23.9966 412.917 28.1189 410.403 32.481C407.389 37.7178 405.553 43.2812 404.444 49.1711C404.205 50.4414 404.118 51.499 404.418 52.8531C405.748 58.8449 410.442 63.9889 415.269 67.569C415.631 67.6559 416.149 67.2334 416.455 67.0776C416.602 65.7954 416.752 64.5132 416.863 63.2279C415.994 61.5892 415.254 59.9025 414.556 58.1978H437.654C436.899 59.9474 436.093 61.679 435.176 63.3687C435.287 64.6719 435.416 65.9722 435.563 67.2724C435.865 67.4312 436.378 67.8596 436.737 67.7727C441.687 64.1417 446.483 58.9647 447.846 52.8471C448.155 51.463 448.02 50.4144 447.759 49.1442ZM412.893 54.0245C412.491 53.0209 412.081 52.0172 411.641 51.0256C411.832 47.814 412.896 44.9919 414.556 42.3495C413.9 45.8906 413.255 50.016 412.893 54.0245ZM439.08 54.7825C438.727 50.3306 438.044 45.8876 437.354 42.1637C439.158 44.869 440.323 47.7601 440.611 51.0855C440.087 52.3168 439.583 53.5511 439.08 54.7825Z" fill="#F2F2F2" stroke="#333333" stroke-linecap="round" stroke-linejoin="round"/>
<path d="M437.679 73.3242H414.23C413.502 73.3242 412.882 72.8359 412.774 72.1768L410.509 58.5275C410.374 57.7126 411.063 56.9756 411.965 56.9756H439.941C440.843 56.9756 441.532 57.7096 441.397 58.5275L439.132 72.1768C439.024 72.8359 438.404 73.3242 437.676 73.3242H437.679Z" fill="white" stroke="#333333" stroke-linecap="round" stroke-linejoin="round"/>
<path d="M412.895 54.0249L414.063 56.9789" stroke="#333333" stroke-linecap="round" stroke-linejoin="round"/>
<path d="M439.08 54.7827L438.172 56.9787" stroke="#333333" stroke-linecap="round" stroke-linejoin="round"/>
<path d="M378.085 211.384V201.201H354.996V211.384H349.48V75.6519H354.996V86.494H378.085V75.6519H383.601V211.384H378.085ZM378.085 195.686V183.001H354.996V195.686H378.085ZM378.085 177.486V164.804H354.996V177.486H378.085ZM378.085 159.288V146.604H354.996V159.288H378.085ZM378.085 141.088V128.407H354.996V141.088H378.085ZM378.085 122.891V110.207H354.996V122.891H378.085ZM378.085 104.691V92.0095H354.996V104.691H378.085Z" fill="white" stroke="#333333" stroke-linecap="round" stroke-linejoin="round"/>
</svg>
