<svg width="350" height="314" viewBox="0 0 350 314" fill="none" xmlns="http://www.w3.org/2000/svg">
<path d="M4 11.3801C4 11.7801 4.04667 12.0867 4.14 12.3001C4.24667 12.5001 4.46 12.6401 4.78 12.7201C5.1 12.8001 5.58 12.8401 6.22 12.8401C6.26 12.8401 6.28 12.8801 6.28 12.9601C6.28 13.0401 6.26 13.0801 6.22 13.0801C5.79333 13.0801 5.32667 13.0734 4.82 13.0601C4.32667 13.0467 3.78667 13.0401 3.2 13.0401C2.76 13.0401 2.32667 13.0467 1.9 13.0601C1.48667 13.0734 1.11333 13.0801 0.78 13.0801C0.753333 13.0801 0.74 13.0401 0.74 12.9601C0.74 12.8801 0.753333 12.8401 0.78 12.8401C1.24667 12.8401 1.59333 12.8067 1.82 12.7401C2.06 12.6734 2.21333 12.5401 2.28 12.3401C2.36 12.1401 2.4 11.8467 2.4 11.4601L2.4 2.20008C2.4 1.81341 2.36 1.52674 2.28 1.34008C2.21333 1.14008 2.06 1.00674 1.82 0.940077C1.59333 0.860077 1.24667 0.820077 0.78 0.820077C0.753333 0.820077 0.74 0.780078 0.74 0.700078C0.74 0.620078 0.753333 0.580078 0.78 0.580078C1.11333 0.580078 1.48667 0.593411 1.9 0.620078C2.31333 0.633411 2.74 0.640077 3.18 0.640077C3.52667 0.640077 3.94667 0.620078 4.44 0.580078C4.94667 0.540078 5.45333 0.520078 5.96 0.520078C6.73333 0.520078 7.42667 0.633411 8.04 0.860078C8.66667 1.08674 9.16667 1.44008 9.54 1.92008C9.91333 2.40008 10.1067 3.02674 10.12 3.80008C10.12 4.49341 9.99333 5.09341 9.74 5.60008C9.48667 6.10674 9.14 6.52674 8.7 6.86008C8.27333 7.19341 7.79333 7.44008 7.26 7.60008C6.74 7.76008 6.22667 7.84008 5.72 7.84008C5.56 7.84008 5.39333 7.83341 5.22 7.82008C5.06 7.80674 4.90667 7.78008 4.76 7.74008C4.70667 7.72674 4.68667 7.68008 4.7 7.60008C4.72667 7.50674 4.76 7.46674 4.8 7.48008C4.92 7.50674 5.04 7.52674 5.16 7.54008C5.29333 7.55341 5.40667 7.56008 5.5 7.56008C6.00667 7.56008 6.47333 7.44008 6.9 7.20008C7.32667 6.96008 7.67333 6.59341 7.94 6.10008C8.20667 5.59341 8.34 4.96674 8.34 4.22008C8.34 3.50008 8.21333 2.89341 7.96 2.40008C7.72 1.90674 7.38 1.52674 6.94 1.26008C6.5 0.993411 5.99333 0.860078 5.42 0.860078C5.04667 0.860078 4.75333 0.886744 4.54 0.940077C4.34 0.993411 4.2 1.12008 4.12 1.32008C4.04 1.52008 4 1.82674 4 2.24008L4 11.3801ZM18.638 13.3201C17.678 13.3201 16.8046 13.1534 16.018 12.8201C15.2446 12.4734 14.578 12.0001 14.018 11.4001C13.4713 10.8001 13.0446 10.1134 12.738 9.34008C12.4446 8.55341 12.298 7.72008 12.298 6.84008C12.298 5.76008 12.5046 4.81341 12.918 4.00008C13.3446 3.18674 13.9046 2.51341 14.598 1.98008C15.2913 1.43341 16.0513 1.02674 16.878 0.760077C17.7046 0.493411 18.5246 0.360077 19.338 0.360077C20.3246 0.360077 21.2046 0.540077 21.978 0.900078C22.7646 1.24674 23.4313 1.72008 23.978 2.32008C24.5246 2.92008 24.938 3.60008 25.218 4.36008C25.5113 5.12008 25.658 5.90008 25.658 6.70008C25.658 7.63341 25.4713 8.50008 25.098 9.30008C24.7246 10.1001 24.2113 10.8001 23.558 11.4001C22.918 12.0001 22.1713 12.4734 21.318 12.8201C20.478 13.1534 19.5846 13.3201 18.638 13.3201ZM19.338 12.8801C20.178 12.8801 20.938 12.6667 21.618 12.2401C22.3113 11.8001 22.8513 11.1667 23.238 10.3401C23.638 9.50008 23.838 8.47341 23.838 7.26008C23.838 6.02008 23.618 4.92008 23.178 3.96008C22.7513 2.98674 22.138 2.22674 21.338 1.68008C20.5513 1.12008 19.6113 0.840077 18.518 0.840077C17.118 0.840077 16.0313 1.31341 15.258 2.26008C14.498 3.20674 14.118 4.50008 14.118 6.14008C14.118 7.08674 14.238 7.97341 14.478 8.80008C14.7313 9.61341 15.0913 10.3267 15.558 10.9401C16.0246 11.5534 16.578 12.0334 17.218 12.3801C17.858 12.7134 18.5646 12.8801 19.338 12.8801ZM31.1905 11.4601C31.1905 11.8467 31.2238 12.1401 31.2905 12.3401C31.3705 12.5401 31.5238 12.6734 31.7505 12.7401C31.9905 12.8067 32.3438 12.8401 32.8105 12.8401C32.8371 12.8401 32.8505 12.8801 32.8505 12.9601C32.8505 13.0401 32.8371 13.0801 32.8105 13.0801C32.4771 13.0801 32.1038 13.0734 31.6905 13.0601C31.2905 13.0467 30.8505 13.0401 30.3705 13.0401C29.9038 13.0401 29.4638 13.0467 29.0505 13.0601C28.6371 13.0734 28.2638 13.0801 27.9305 13.0801C27.9038 13.0801 27.8905 13.0401 27.8905 12.9601C27.8905 12.8801 27.9038 12.8401 27.9305 12.8401C28.3971 12.8401 28.7505 12.8067 28.9905 12.7401C29.2305 12.6734 29.3905 12.5401 29.4705 12.3401C29.5505 12.1401 29.5905 11.8467 29.5905 11.4601L29.5905 2.20008C29.5905 1.81341 29.5505 1.52674 29.4705 1.34008C29.3905 1.14008 29.2305 1.00674 28.9905 0.940077C28.7505 0.860077 28.3971 0.820077 27.9305 0.820077C27.9038 0.820077 27.8905 0.780078 27.8905 0.700078C27.8905 0.620078 27.9038 0.580078 27.9305 0.580078C28.2638 0.580078 28.6371 0.593411 29.0505 0.620078C29.4638 0.633411 29.9038 0.640077 30.3705 0.640077C30.8505 0.640077 31.2971 0.633411 31.7105 0.620078C32.1238 0.593411 32.4905 0.580078 32.8105 0.580078C32.8371 0.580078 32.8505 0.620078 32.8505 0.700078C32.8505 0.780078 32.8371 0.820077 32.8105 0.820077C32.3438 0.820077 31.9971 0.860077 31.7705 0.940077C31.5438 1.02008 31.3905 1.16008 31.3105 1.36008C31.2305 1.56008 31.1905 1.85341 31.1905 2.24008L31.1905 11.4601ZM36.5697 10.8001V1.04008L37.0897 1.08008V10.8001C37.0897 11.4934 37.2164 12.0067 37.4697 12.3401C37.723 12.6734 38.123 12.8401 38.6697 12.8401C38.6964 12.8401 38.7097 12.8801 38.7097 12.9601C38.7097 13.0401 38.6964 13.0801 38.6697 13.0801C38.3897 13.0801 38.103 13.0734 37.8097 13.0601C37.5297 13.0467 37.2097 13.0401 36.8497 13.0401C36.503 13.0401 36.163 13.0467 35.8297 13.0601C35.4964 13.0734 35.183 13.0801 34.8897 13.0801C34.863 13.0801 34.8497 13.0401 34.8497 12.9601C34.8497 12.8801 34.863 12.8401 34.8897 12.8401C35.4764 12.8401 35.903 12.6734 36.1697 12.3401C36.4364 12.0067 36.5697 11.4934 36.5697 10.8001ZM46.6897 13.3401C46.6897 13.3667 46.6564 13.3801 46.5897 13.3801C46.5364 13.3934 46.4964 13.3934 46.4697 13.3801L37.0497 2.22008C36.583 1.67341 36.1764 1.30674 35.8297 1.12008C35.4964 0.920077 35.163 0.820077 34.8297 0.820077C34.803 0.820077 34.7897 0.780078 34.7897 0.700078C34.7897 0.620078 34.803 0.580078 34.8297 0.580078C35.083 0.580078 35.3364 0.586745 35.5897 0.600078C35.843 0.613411 36.0764 0.620078 36.2897 0.620078C36.6097 0.620078 36.903 0.613411 37.1697 0.600078C37.4364 0.586745 37.6364 0.580078 37.7697 0.580078C37.943 0.580078 38.0697 0.660078 38.1497 0.820077C38.2297 0.966744 38.423 1.23341 38.7297 1.62008L46.5297 11.0201L46.6897 13.3401ZM46.6897 2.88008V13.3401L46.1897 12.7201V2.88008C46.1897 2.18674 46.063 1.67341 45.8097 1.34008C45.5697 0.993411 45.1764 0.820077 44.6297 0.820077C44.603 0.820077 44.5897 0.780078 44.5897 0.700078C44.5897 0.620078 44.603 0.580078 44.6297 0.580078C44.9097 0.580078 45.1964 0.593411 45.4897 0.620078C45.783 0.633411 46.103 0.640077 46.4497 0.640077C46.783 0.640077 47.1097 0.633411 47.4297 0.620078C47.7497 0.593411 48.0497 0.580078 48.3297 0.580078C48.3564 0.580078 48.3697 0.620078 48.3697 0.700078C48.3697 0.780078 48.3564 0.820077 48.3297 0.820077C47.7697 0.820077 47.3564 0.993411 47.0897 1.34008C46.823 1.67341 46.6897 2.18674 46.6897 2.88008ZM53.1191 0.980078C52.2924 0.980078 51.6457 1.21341 51.1791 1.68008C50.7124 2.13341 50.3657 2.86674 50.1391 3.88008C50.1257 3.90674 50.0791 3.92008 49.9991 3.92008C49.9324 3.92008 49.8991 3.90008 49.8991 3.86008C49.9257 3.68674 49.9524 3.44008 49.9791 3.12008C50.0191 2.80008 50.0524 2.45341 50.0791 2.08008C50.1057 1.70674 50.1257 1.34674 50.1391 1.00008C50.1657 0.653411 50.1791 0.366744 50.1791 0.140078C50.1791 0.0734112 50.2191 0.0400779 50.2991 0.0400779C50.3791 0.0400779 50.4191 0.0734112 50.4191 0.140078C50.4191 0.273411 50.4857 0.373411 50.6191 0.440078C50.7524 0.493411 50.9057 0.533411 51.0791 0.560077C51.2524 0.573411 51.3991 0.580078 51.5191 0.580078C52.6657 0.620078 54.0057 0.640077 55.5391 0.640077C56.4724 0.640077 57.2191 0.633411 57.7791 0.620078C58.3391 0.593411 58.8791 0.580078 59.3991 0.580078C59.8524 0.580078 60.1991 0.553411 60.4391 0.500078C60.6924 0.433411 60.8524 0.293411 60.9191 0.0800774C60.9324 0.026744 60.9724 7.72476e-05 61.0391 7.72476e-05C61.1191 7.72476e-05 61.1591 0.026744 61.1591 0.0800774C61.1324 0.280077 61.1057 0.560077 61.0791 0.920077C61.0657 1.28008 61.0457 1.65341 61.0191 2.04008C61.0057 2.42674 60.9924 2.78674 60.9791 3.12008C60.9657 3.45341 60.9591 3.70008 60.9591 3.86008C60.9591 3.90008 60.9191 3.92008 60.8391 3.92008C60.7724 3.92008 60.7391 3.90008 60.7391 3.86008C60.6457 2.82008 60.3791 2.08008 59.9391 1.64008C59.4991 1.20008 58.8457 0.980078 57.9791 0.980078C57.5124 0.980078 57.1591 1.01341 56.9191 1.08008C56.6924 1.13341 56.5391 1.24674 56.4591 1.42008C56.3924 1.59341 56.3591 1.86674 56.3591 2.24008V11.4601C56.3591 11.8467 56.3991 12.1401 56.4791 12.3401C56.5724 12.5401 56.7457 12.6734 56.9991 12.7401C57.2657 12.8067 57.6724 12.8401 58.2191 12.8401C58.2457 12.8401 58.2591 12.8801 58.2591 12.9601C58.2591 13.0401 58.2457 13.0801 58.2191 13.0801C57.8591 13.0801 57.4524 13.0734 56.9991 13.0601C56.5591 13.0467 56.0724 13.0401 55.5391 13.0401C55.0324 13.0401 54.5524 13.0467 54.0991 13.0601C53.6591 13.0734 53.2524 13.0801 52.8791 13.0801C52.8391 13.0801 52.8191 13.0401 52.8191 12.9601C52.8191 12.8801 52.8391 12.8401 52.8791 12.8401C53.3991 12.8401 53.7924 12.8067 54.0591 12.7401C54.3391 12.6734 54.5257 12.5401 54.6191 12.3401C54.7124 12.1401 54.7591 11.8467 54.7591 11.4601V2.20008C54.7591 1.84008 54.7191 1.57341 54.6391 1.40008C54.5591 1.21341 54.3991 1.10008 54.1591 1.06008C53.9191 1.00674 53.5724 0.980078 53.1191 0.980078Z" fill="#333333"/>
<path d="M17.6 63.9121C14.656 63.9121 12.032 63.2507 9.728 61.9281C7.424 60.5627 5.61067 58.6854 4.288 56.2961C3.008 53.8641 2.368 51.0907 2.368 47.9761C2.368 44.9467 3.008 42.2587 4.288 39.9121C5.61067 37.5654 7.424 35.7521 9.728 34.4721C12.0747 33.1494 14.72 32.4881 17.664 32.4881C20.5653 32.4881 23.1467 33.1494 25.408 34.4721C27.712 35.7947 29.4827 37.6507 30.72 40.0401C32 42.3867 32.64 45.0961 32.64 48.1681C32.64 51.2401 32 53.9707 30.72 56.3601C29.44 58.7494 27.648 60.6054 25.344 61.9281C23.0827 63.2507 20.5013 63.9121 17.6 63.9121ZM18.368 63.0161C21.6107 63.0161 24.0213 61.7787 25.6 59.3041C27.1787 56.7867 27.968 53.3307 27.968 48.9361C27.968 45.4801 27.4773 42.5787 26.496 40.2321C25.5147 37.8854 24.192 36.1574 22.528 35.0481C20.864 33.8961 19.008 33.3201 16.96 33.3201C13.8027 33.3201 11.328 34.6427 9.536 37.2881C7.744 39.8907 6.848 43.3041 6.848 47.5281C6.848 50.5147 7.31733 53.1814 8.256 55.5281C9.19467 57.8747 10.5387 59.7094 12.288 61.0321C14.0373 62.3547 16.064 63.0161 18.368 63.0161ZM48.696 49.5761C51.128 47.9974 52.792 46.5894 53.688 45.3521C54.584 44.0721 55.032 42.6214 55.032 41.0001C55.032 38.9094 54.392 37.2027 53.112 35.8801C51.832 34.5574 49.976 33.8961 47.544 33.8961C45.3253 33.8961 43.512 34.4934 42.104 35.6881C40.696 36.8827 39.608 38.8667 38.84 41.6401C38.84 41.7254 38.7333 41.7681 38.52 41.7681C38.392 41.7681 38.264 41.7467 38.136 41.7041C38.0507 41.6187 38.0293 41.5547 38.072 41.5121L40.568 31.7841C40.568 31.7414 40.6533 31.7201 40.824 31.7201C41.2507 31.7201 41.4213 31.7841 41.336 31.9121C41.2507 32.3387 41.208 32.6161 41.208 32.7441C41.208 33.1707 41.3147 33.4907 41.528 33.7041C41.7413 33.8747 41.9973 33.9601 42.296 33.9601C42.7227 33.9601 43.4693 33.7681 44.536 33.3841C45.7307 33.0001 46.712 32.7227 47.48 32.5521C48.2907 32.3814 49.208 32.2961 50.232 32.2961C52.792 32.2961 54.9253 32.9574 56.632 34.2801C58.3387 35.5601 59.192 37.2667 59.192 39.4001C59.192 41.1921 58.4453 42.9201 56.952 44.5841C55.5013 46.2481 53.112 48.0187 49.784 49.8961L48.696 49.5761ZM39.352 72.3601C45.496 70.9947 49.8907 69.0321 52.536 66.4721C55.1813 63.9121 56.504 61.2027 56.504 58.3441C56.504 56.2107 55.8213 54.3761 54.456 52.8401C53.1333 51.2614 51.2133 50.4721 48.696 50.4721C46.8187 50.4721 45.304 50.7494 44.152 51.3041L44.024 51.3681C43.8533 51.3681 43.7253 51.2827 43.64 51.1121C43.5547 50.9414 43.576 50.8134 43.704 50.7281C44.4293 50.2587 45.432 49.8747 46.712 49.5761C47.992 49.2347 49.3573 49.0641 50.808 49.0641C53.9653 49.0641 56.4613 49.8961 58.296 51.5601C60.1307 53.1814 61.048 55.2081 61.048 57.6401C61.048 60.7974 59.2347 63.7627 55.608 66.5361C51.9813 69.3521 46.648 71.5494 39.608 73.1281C39.4373 73.1707 39.3093 73.0641 39.224 72.8081C39.1813 72.5521 39.224 72.4027 39.352 72.3601Z" fill="#333333"/>
<path d="M61.502 313.078L54.7952 312.966C53.2484 312.94 52.1103 311.507 52.4343 309.993L72.0188 222.91L83.2618 225.313L63.9444 311.138C63.6985 312.285 62.6743 313.098 61.5004 313.078H61.502Z" fill="#333333" stroke="#F2F2F2" stroke-linecap="round" stroke-linejoin="round"/>
<path d="M198.018 313.078L204.724 312.966C206.271 312.94 207.409 311.507 207.085 309.993L187.501 222.91L176.258 225.313L195.575 311.138C195.821 312.285 196.845 313.098 198.019 313.078H198.018Z" fill="#333333" stroke="#F2F2F2" stroke-linecap="round" stroke-linejoin="round"/>
<path d="M83.8825 122.867H175.639C188.044 122.867 198.115 132.938 198.115 145.343V221.822H61.4062V145.343C61.4062 132.938 71.4769 122.867 83.8825 122.867Z" fill="#333333" stroke="#F2F2F2" stroke-linecap="round" stroke-linejoin="round"/>
<path d="M185.014 206.456H74.5136C65.4258 206.456 58.0586 213.823 58.0586 222.91C58.0586 231.998 65.4258 239.364 74.5136 239.364H185.014C194.102 239.364 201.469 231.998 201.469 222.91C201.469 213.823 194.102 206.456 185.014 206.456Z" fill="#333333" stroke="#F2F2F2" stroke-linecap="round" stroke-linejoin="round"/>
<path d="M126.021 306.168L117.379 307.046L114.461 289.117L126.021 287.94V306.168Z" fill="white" stroke="#333333" stroke-linecap="round" stroke-linejoin="round"/>
<path d="M108.82 313.078C108.82 308.088 113.495 301.915 119.261 301.915C125.026 301.915 129.702 308.088 129.702 313.078H108.82Z" fill="white" stroke="#333333" stroke-linecap="round" stroke-linejoin="round"/>
<path d="M134.605 306.168L143.25 307.046L146.86 289.01L134.605 288.378V306.168Z" fill="white" stroke="#333333" stroke-linecap="round" stroke-linejoin="round"/>
<path d="M152.521 313.078C152.521 308.088 147.846 301.915 142.079 301.915C136.311 301.915 131.637 308.088 131.637 313.078H152.519H152.521Z" fill="white" stroke="#333333" stroke-linecap="round" stroke-linejoin="round"/>
<path d="M116.861 85.7271V85.9048C116.835 85.8934 116.809 85.8836 116.781 85.8738C116.806 85.8281 116.833 85.7792 116.861 85.7271Z" fill="white" stroke="#333333" stroke-linecap="round" stroke-linejoin="round"/>
<path d="M136.596 95.0542H122.441V112.766H136.596V95.0542Z" fill="white" stroke="#333333" stroke-linecap="round" stroke-linejoin="round"/>
<path d="M141.735 91.5413C141.556 92.9579 141.158 94.3794 140.582 95.7357C138.551 100.516 134.285 104.479 129.353 104.479C124.422 104.479 120.528 100.855 118.404 96.3561C117.764 95.003 117.303 93.5701 117.06 92.1324C115.552 90.3511 114.313 87.9511 115.028 86.6729C115.294 86.1975 115.596 85.9516 115.896 85.8458C116.207 85.7367 116.516 85.779 116.78 85.8734C116.808 85.8832 116.834 85.893 116.86 85.9044V85.7269C117.414 84.6913 118.272 82.2685 119.581 76.9849C119.581 76.9849 134.476 76.5257 137.255 74.8584C137.255 74.8584 139.141 82.2408 141.005 86.16C141.197 86.0216 141.502 85.8458 141.847 85.7953C142.313 85.7269 142.852 85.8848 143.293 86.6729C143.334 86.7462 143.369 86.8243 143.397 86.9057C143.812 88.0765 142.93 89.9603 141.735 91.5413Z" fill="white" stroke="#333333" stroke-linecap="round" stroke-linejoin="round"/>
<path d="M145.788 80.3475C145.586 83.3956 143.204 89.6301 142.3 92.4926C141.991 93.4695 141.354 94.6825 140.582 95.736C141.159 94.3797 141.556 92.9582 141.735 91.5417C142.93 89.9606 143.813 88.0768 143.398 86.9061C143.37 86.8246 143.334 86.7465 143.293 86.6732C142.852 85.8852 142.313 85.7272 141.848 85.7956C141.502 85.8461 141.198 86.0219 141.006 86.1603C139.141 82.2412 137.256 74.8587 137.256 74.8587C134.477 76.526 119.581 76.9852 119.581 76.9852C118.272 82.2688 117.414 84.6917 116.861 85.7272C116.833 85.7793 116.805 85.8282 116.781 85.8738C116.517 85.7793 116.208 85.737 115.897 85.8461C115.597 85.9519 115.294 86.1978 115.029 86.6732C114.314 87.9514 115.553 90.3514 117.061 92.1327C117.303 93.5704 117.764 95.0033 118.404 96.3564C118.121 96.1968 117.854 95.9982 117.61 95.7458C114.641 92.67 113.417 87.9156 112.621 83.8254C111.748 79.351 112.023 74.5493 114.251 70.8956C114.93 69.7802 116.131 69.2527 116.779 68.1373C117.18 67.4486 117.377 66.5807 117.246 65.7503C117.168 65.2423 116.988 64.7034 117.167 64.2312C117.398 63.6157 118.077 63.5001 118.644 63.4708C120.807 63.3552 122.97 63.2412 125.134 63.1272C132 62.7641 141.177 64.3875 144.894 71.8644C146.135 74.3605 145.98 77.459 145.788 80.3475Z" fill="#333333" stroke="#333333" stroke-linecap="round" stroke-linejoin="round"/>
<path d="M157.044 181.499C152.873 126.13 144.756 110.673 129.356 110.673C113.956 110.673 104.429 135.771 101.668 181.499H157.044Z" fill="#F2F2F2" stroke="#333333" stroke-linecap="round" stroke-linejoin="round"/>
<path d="M122.145 109.376H136.785L136.964 109.385C137.396 109.419 137.925 109.545 138.516 109.739C139.184 109.959 139.902 110.258 140.599 110.582C141.992 111.229 143.275 111.961 143.871 112.314C145.048 113.02 146.095 113.764 147.052 114.523L147.053 114.524C148.012 115.283 148.888 116.059 149.712 116.847V116.848C151.356 118.424 152.794 120.034 154.124 121.671C155.452 123.309 156.667 124.971 157.808 126.654C159.801 129.603 161.571 132.614 163.179 135.696L163.858 137.021C165.639 140.569 167.215 144.202 168.556 147.98C169.224 149.869 169.832 151.797 170.358 153.78C170.818 155.52 171.218 157.297 171.518 159.157L171.64 159.96C171.793 161.037 171.912 162.139 171.973 163.29V163.291C172.035 164.439 172.04 165.635 171.944 166.907C171.907 167.384 171.855 167.872 171.782 168.373L171.702 168.879C171.668 169.066 171.644 169.216 171.608 169.389L171.607 169.39L171.555 169.65L171.524 169.782L171.502 169.873C171.42 170.181 171.353 170.456 171.27 170.739L171.269 170.744C170.941 171.892 170.537 173.02 170.062 174.111V174.112C169.111 176.296 167.869 178.33 166.432 180.128L166.431 180.129C165.174 181.709 163.773 183.115 162.289 184.357L161.647 184.88C160.139 186.078 158.557 187.117 156.925 188.021L156.223 188.399C155.28 188.894 154.322 189.346 153.341 189.757C152.85 189.962 152.354 190.157 151.844 190.343L151.065 190.614L150.655 190.748L150.136 190.909L150.128 190.912C147.663 191.721 145.01 190.381 144.199 187.916C143.39 185.451 144.732 182.798 147.195 181.988L147.145 181.772L147.24 181.964L147.253 181.957L147.386 181.891L147.608 181.782L147.61 181.781L148.102 181.53C148.431 181.356 148.768 181.171 149.101 180.977V180.976C149.766 180.586 150.421 180.163 151.05 179.719L151.051 179.718C152.31 178.824 153.474 177.833 154.493 176.77C155.51 175.708 156.384 174.572 157.076 173.394C157.774 172.215 158.286 170.998 158.627 169.755L158.628 169.754C158.798 169.131 158.925 168.502 159.011 167.867L159.01 167.866C159.033 167.716 159.052 167.496 159.064 167.401L159.063 167.4L159.072 167.348L159.077 167.313V167.258L159.081 167.217L159.08 167.216C159.084 167.178 159.087 167.142 159.088 167.119C159.089 167.087 159.089 167.071 159.09 167.056H159.091V167.045C159.101 166.823 159.104 166.567 159.096 166.289C159.083 165.873 159.048 165.411 158.988 164.921L158.92 164.422C158.82 163.75 158.678 163.04 158.508 162.316V162.315L158.373 161.768C158.045 160.483 157.624 159.157 157.144 157.833C156.593 156.316 155.963 154.793 155.272 153.281C154.775 152.19 154.245 151.106 153.691 150.033L153.552 149.763H105.143L105.002 150.031C104.271 151.435 103.59 152.853 102.964 154.278V154.279C102.367 155.64 101.822 157.011 101.352 158.369L101.154 158.95C100.643 160.494 100.23 162.031 99.9785 163.449V163.45C99.8558 164.153 99.7684 164.836 99.7344 165.44C99.7176 165.74 99.7104 166.02 99.7139 166.273C99.7156 166.402 99.7207 166.521 99.7256 166.625C99.727 166.664 99.7305 166.698 99.7324 166.72C99.7347 166.746 99.7351 166.757 99.7354 166.766L99.7363 166.765C99.7377 166.812 99.7439 166.865 99.748 166.895V166.896L99.7598 167V167.002C99.8262 167.583 99.939 168.167 100.11 168.753V168.755C100.283 169.337 100.51 169.92 100.789 170.504V170.506C101.352 171.672 102.143 172.835 103.122 173.946V173.947C103.976 174.921 104.973 175.854 106.063 176.729L106.536 177.102C107.812 178.081 109.209 178.992 110.672 179.812C111.22 180.118 111.779 180.414 112.344 180.695L112.911 180.972C113.289 181.153 113.67 181.327 114.046 181.492L114.05 181.494L114.369 181.63L114.297 181.703L115.11 181.938C117.524 182.636 118.948 185.102 118.38 187.521L118.318 187.754C117.62 190.167 115.155 191.591 112.735 191.023L112.501 190.962L112.49 190.959L112.003 190.83L111.6 190.718C111.335 190.644 111.076 190.57 110.822 190.491L110.82 190.49L110.06 190.252C109.808 190.17 109.557 190.087 109.307 190.001C108.309 189.659 107.326 189.288 106.353 188.884C104.647 188.174 102.97 187.364 101.322 186.426L100.618 186.016C98.7502 184.901 96.9225 183.613 95.1982 182.076H95.1973C93.5825 180.64 92.0558 178.976 90.7441 177.054L90.4854 176.666C89.8038 175.622 89.187 174.507 88.6611 173.333C88.2025 172.306 87.8151 171.231 87.5088 170.131L87.3828 169.658L87.3213 169.416C87.297 169.313 87.2838 169.272 87.2666 169.186L87.2656 169.184L87.1572 168.643V168.642L87.0664 168.113C87.0388 167.939 87.0144 167.766 86.9922 167.596C86.9254 167.083 86.8788 166.583 86.8477 166.093L86.8213 165.606C86.7654 164.322 86.8101 163.114 86.9033 161.942C87.0735 159.898 87.3967 157.982 87.8027 156.127L87.9814 155.336C88.4722 153.238 89.0664 151.22 89.7314 149.242C91.0634 145.293 92.6664 141.521 94.4863 137.846L94.4854 137.845C96.3113 134.173 98.3534 130.61 100.692 127.137C101.718 125.618 102.802 124.118 103.97 122.638L104.475 122.005C105.839 120.321 107.313 118.664 108.995 117.047C110.926 115.191 112.952 113.437 115.174 111.985L115.621 111.699C117.509 110.513 119.991 109.376 122.145 109.376Z" fill="white" stroke="#333333"/>
<path d="M105.446 150.263C104.592 151.865 104.138 152.847 103.422 154.48C102.744 156.023 102.135 157.577 101.629 159.107C101.123 160.634 100.717 162.147 100.471 163.536C100.351 164.226 100.266 164.889 100.234 165.469C100.217 165.759 100.211 166.027 100.214 166.267C100.216 166.387 100.221 166.499 100.225 166.602C100.227 166.656 100.234 166.7 100.235 166.749C100.235 166.768 100.24 166.807 100.245 166.841L100.256 166.946C100.32 167.501 100.427 168.056 100.59 168.613C100.755 169.168 100.971 169.727 101.24 170.288C101.78 171.409 102.544 172.535 103.498 173.618C104.449 174.702 105.586 175.74 106.841 176.705C108.096 177.669 109.472 178.566 110.916 179.376C111.638 179.779 112.379 180.164 113.126 180.52C113.499 180.699 113.875 180.872 114.246 181.035L114.795 181.269L115.059 181.377L115.179 181.425L115.233 181.447C115.233 181.447 115.252 181.455 115.249 181.458C118.006 182.254 119.595 185.136 118.799 187.893C118.001 190.649 115.121 192.239 112.362 191.442L111.876 191.314L111.465 191.2C111.197 191.125 110.934 191.048 110.675 190.969C110.158 190.812 109.65 190.646 109.145 190.474C108.137 190.128 107.144 189.754 106.16 189.345C104.192 188.526 102.258 187.574 100.362 186.445C98.4719 185.317 96.6172 184.011 94.8653 182.45C93.1149 180.893 91.4623 179.069 90.0669 176.94C89.3716 175.875 88.7415 174.737 88.2042 173.537C87.6685 172.337 87.2289 171.075 86.8983 169.782L86.8364 169.539C86.8169 169.456 86.7958 169.381 86.7762 169.284C86.7388 169.101 86.698 168.912 86.6655 168.732C86.5987 168.369 86.5417 168.01 86.4961 167.66C86.4049 166.96 86.3512 166.284 86.3219 165.628C86.2649 164.318 86.3105 163.088 86.4049 161.901C86.6019 159.534 87.0009 157.341 87.4942 155.222C87.9892 153.105 88.5884 151.072 89.2576 149.082C90.5977 145.109 92.2096 141.317 94.0381 137.624C95.8731 133.935 97.9248 130.351 100.278 126.857C101.456 125.111 102.713 123.388 104.086 121.69C105.46 119.994 106.948 118.321 108.648 116.687C110.719 114.695 112.916 112.807 115.355 111.276C117.265 110.076 119.846 108.876 122.145 108.876H136.796C138.93 108.92 142.92 111.17 144.126 111.885C145.324 112.603 146.391 113.36 147.363 114.132C148.337 114.902 149.224 115.69 150.058 116.486C151.72 118.08 153.173 119.707 154.513 121.356C155.851 123.007 157.074 124.681 158.222 126.375C160.513 129.765 162.511 133.234 164.305 136.797C166.094 140.361 167.679 144.013 169.027 147.814C169.699 149.714 170.311 151.655 170.842 153.653C171.371 155.655 171.822 157.712 172.135 159.889C172.29 160.978 172.41 162.095 172.472 163.264C172.536 164.43 172.541 165.648 172.443 166.946C172.392 167.595 172.314 168.266 172.195 168.963C172.163 169.139 172.135 169.31 172.098 169.49L172.042 169.759L172.013 169.891L171.985 170.002C171.907 170.295 171.835 170.59 171.749 170.881C171.415 172.05 171.005 173.2 170.52 174.312C169.551 176.538 168.286 178.609 166.822 180.44C165.36 182.279 163.707 183.883 161.959 185.271C160.208 186.662 158.362 187.839 156.455 188.842C155.499 189.344 154.529 189.801 153.534 190.218C153.036 190.426 152.533 190.623 152.015 190.812C151.756 190.907 151.494 191 151.222 191.089L150.804 191.226L150.284 191.387C147.557 192.283 144.621 190.799 143.724 188.072C142.828 185.345 144.313 182.409 147.039 181.513L147.016 181.517L147.029 181.51L147.166 181.442L147.389 181.333C147.544 181.256 147.705 181.175 147.868 181.088C148.192 180.917 148.522 180.735 148.848 180.545C149.501 180.162 150.144 179.747 150.761 179.31C151.997 178.433 153.137 177.462 154.132 176.424C155.125 175.386 155.975 174.282 156.646 173.141C157.321 172 157.816 170.822 158.145 169.622C158.31 169.022 158.432 168.414 158.515 167.8C158.539 167.647 158.549 167.491 158.569 167.338L158.577 167.279V167.244L158.583 167.172C158.588 167.128 158.588 167.071 158.591 167.022C158.601 166.812 158.604 166.569 158.596 166.304C158.58 165.772 158.525 165.154 158.425 164.497C158.328 163.84 158.189 163.144 158.022 162.43C157.683 160.999 157.217 159.503 156.673 158.003C156.128 156.5 155.503 154.989 154.817 153.488C154.41 152.597 154.034 151.415 153.588 150.535" fill="#F2F2F2"/>
<path d="M105.446 150.263C104.592 151.865 104.138 152.847 103.422 154.48C102.744 156.023 102.135 157.577 101.629 159.107C101.123 160.634 100.717 162.147 100.471 163.536C100.351 164.226 100.266 164.889 100.234 165.469C100.217 165.759 100.211 166.027 100.214 166.267C100.216 166.387 100.221 166.499 100.225 166.602C100.227 166.656 100.234 166.7 100.235 166.749C100.235 166.768 100.24 166.807 100.245 166.841L100.256 166.946C100.32 167.501 100.427 168.056 100.59 168.613C100.755 169.168 100.971 169.727 101.24 170.288C101.78 171.409 102.544 172.535 103.498 173.618C104.449 174.702 105.586 175.74 106.841 176.705C108.096 177.669 109.472 178.566 110.916 179.376C111.638 179.779 112.379 180.164 113.126 180.52C113.499 180.699 113.875 180.872 114.246 181.035L114.795 181.269L115.059 181.377L115.179 181.425L115.233 181.447C115.233 181.447 115.252 181.455 115.249 181.458C118.006 182.254 119.595 185.136 118.799 187.893C118.001 190.649 115.121 192.239 112.362 191.442L111.876 191.314L111.465 191.2C111.197 191.125 110.934 191.048 110.675 190.969C110.158 190.812 109.65 190.646 109.145 190.474C108.137 190.128 107.144 189.754 106.16 189.345C104.192 188.526 102.258 187.574 100.362 186.445C98.4719 185.317 96.6172 184.011 94.8653 182.45C93.1149 180.893 91.4623 179.069 90.0669 176.94C89.3716 175.875 88.7415 174.737 88.2042 173.537C87.6685 172.337 87.2289 171.075 86.8983 169.782L86.8364 169.539C86.8169 169.456 86.7958 169.381 86.7762 169.284C86.7388 169.101 86.698 168.912 86.6655 168.732C86.5987 168.369 86.5417 168.01 86.4961 167.66C86.4049 166.96 86.3512 166.284 86.3219 165.628C86.2649 164.318 86.3105 163.088 86.4049 161.901C86.6019 159.534 87.0009 157.341 87.4942 155.222C87.9892 153.105 88.5884 151.072 89.2576 149.082C90.5977 145.109 92.2096 141.317 94.0381 137.624C95.8731 133.935 97.9248 130.351 100.278 126.857C101.456 125.111 102.713 123.388 104.086 121.69C105.46 119.994 106.948 118.321 108.648 116.687C110.719 114.695 112.916 112.807 115.355 111.276C117.265 110.076 119.846 108.876 122.145 108.876H136.796C138.93 108.92 142.92 111.17 144.126 111.885C145.324 112.603 146.391 113.36 147.363 114.132C148.337 114.902 149.224 115.69 150.058 116.486C151.72 118.08 153.173 119.707 154.513 121.356C155.851 123.007 157.074 124.681 158.222 126.375C160.513 129.765 162.511 133.234 164.305 136.797C166.094 140.361 167.679 144.013 169.027 147.814C169.699 149.714 170.311 151.655 170.842 153.653C171.371 155.655 171.822 157.712 172.135 159.889C172.29 160.978 172.41 162.095 172.472 163.264C172.536 164.43 172.541 165.648 172.443 166.946C172.392 167.595 172.314 168.266 172.195 168.963C172.163 169.139 172.135 169.31 172.098 169.49L172.042 169.759L172.013 169.891L171.985 170.002C171.907 170.295 171.835 170.59 171.749 170.881C171.415 172.05 171.005 173.2 170.52 174.312C169.551 176.538 168.286 178.609 166.822 180.44C165.36 182.279 163.707 183.883 161.959 185.271C160.208 186.662 158.362 187.839 156.455 188.842C155.499 189.344 154.529 189.801 153.534 190.218C153.036 190.426 152.533 190.623 152.015 190.812C151.756 190.907 151.494 191 151.222 191.089L150.804 191.226L150.284 191.387C147.557 192.283 144.621 190.799 143.724 188.072C142.828 185.345 144.313 182.409 147.039 181.513L147.016 181.517L147.029 181.51L147.166 181.442L147.389 181.333C147.544 181.256 147.705 181.175 147.868 181.088C148.192 180.917 148.522 180.735 148.848 180.545C149.501 180.162 150.144 179.747 150.761 179.31C151.997 178.433 153.137 177.462 154.132 176.424C155.125 175.386 155.975 174.282 156.646 173.141C157.321 172 157.816 170.822 158.145 169.622C158.31 169.022 158.432 168.414 158.515 167.8C158.539 167.647 158.549 167.491 158.569 167.338L158.577 167.279V167.244L158.583 167.172C158.588 167.128 158.588 167.071 158.591 167.022C158.601 166.812 158.604 166.569 158.596 166.304C158.58 165.772 158.525 165.154 158.425 164.497C158.328 163.84 158.189 163.144 158.022 162.43C157.683 160.999 157.217 159.503 156.673 158.003C156.128 156.5 155.503 154.989 154.817 153.488C154.41 152.597 154.034 151.415 153.588 150.535" stroke="#333333" stroke-linecap="round" stroke-linejoin="round"/>
<path d="M152.685 194.328H106.276C104.835 194.328 103.61 193.364 103.394 192.059L98.9127 165.047C98.6441 163.432 100.01 161.976 101.795 161.976H157.165C158.949 161.976 160.315 163.43 160.047 165.047L155.566 192.059C155.349 193.364 154.125 194.328 152.684 194.328H152.685Z" fill="white" stroke="#333333" stroke-linecap="round" stroke-linejoin="round"/>
<path d="M148.14 189.663C144.055 189.572 140.375 191.403 137.96 194.328H122.717C119.952 190.98 115.556 189.117 110.948 189.798C103.94 190.832 99.0973 197.35 100.131 204.358L113.035 291.84L127.624 290.606L125.871 212.445C128.845 212.128 131.822 212.175 134.796 212.585L133.046 290.606L147.635 291.84L160.539 204.358C160.609 203.863 160.661 203.286 160.672 202.773C160.832 195.692 155.219 189.822 148.138 189.664L148.14 189.663Z" fill="#333333" stroke="#F2F2F2" stroke-linecap="round" stroke-linejoin="round"/>
<path d="M267.359 196.702H225.141V199.973H267.359V196.702Z" fill="#F2F2F2" stroke="#333333" stroke-linecap="round" stroke-linejoin="round"/>
<path d="M264.219 192.781H230.234V196.702H264.219V192.781Z" fill="#F2F2F2" stroke="#333333" stroke-linecap="round" stroke-linejoin="round"/>
<path d="M289.082 183.086H288.953L289.127 180.001C289.199 178.711 288.171 177.624 286.879 177.624H274.598C273.306 177.624 272.278 178.711 272.351 180.001L273.351 197.762C273.418 198.955 274.405 199.886 275.598 199.886H285.879C287.074 199.886 288.059 198.955 288.127 197.762L288.258 195.446H289.082C291.635 195.446 293.712 193.369 293.712 190.816V187.715C293.712 185.162 291.635 183.086 289.082 183.086ZM291.587 190.816C291.587 192.198 290.464 193.321 289.082 193.321H288.378L288.834 185.21H289.082C290.464 185.21 291.587 186.335 291.587 187.715V190.816Z" fill="#333333" stroke="#333333" stroke-linecap="round" stroke-linejoin="round"/>
<path d="M261.227 310.022V207.194C261.227 205.505 259.858 204.136 258.169 204.136H256.855C255.166 204.136 253.797 205.505 253.797 207.194V310.022C253.797 311.711 255.166 313.08 256.855 313.08H258.169C259.858 313.08 261.227 311.711 261.227 310.022Z" fill="white" stroke="#333333" stroke-linecap="round" stroke-linejoin="round"/>
<path d="M282.349 313.079H232.676C232.676 308.557 236.341 304.892 240.863 304.892H274.163C278.685 304.892 282.35 308.557 282.35 313.079H282.349Z" fill="white" stroke="#333333" stroke-linecap="round" stroke-linejoin="round"/>
<path d="M292.931 199.975H222.089C219.499 199.975 217.398 202.075 217.398 204.666V204.667C217.398 207.258 219.499 209.358 222.089 209.358H292.931C295.522 209.358 297.622 207.258 297.622 204.667V204.666C297.622 202.075 295.522 199.975 292.931 199.975Z" fill="white" stroke="#333333" stroke-linecap="round" stroke-linejoin="round"/>
</svg>
