<svg width="350" height="294" viewBox="0 0 350 294" fill="none" xmlns="http://www.w3.org/2000/svg">
<path d="M4 11.3801C4 11.7801 4.04667 12.0867 4.14 12.3001C4.24667 12.5001 4.46 12.6401 4.78 12.7201C5.1 12.8001 5.58 12.8401 6.22 12.8401C6.26 12.8401 6.28 12.8801 6.28 12.9601C6.28 13.0401 6.26 13.0801 6.22 13.0801C5.79333 13.0801 5.32667 13.0734 4.82 13.0601C4.32667 13.0467 3.78667 13.0401 3.2 13.0401C2.76 13.0401 2.32667 13.0467 1.9 13.0601C1.48667 13.0734 1.11333 13.0801 0.78 13.0801C0.753333 13.0801 0.74 13.0401 0.74 12.9601C0.74 12.8801 0.753333 12.8401 0.78 12.8401C1.24667 12.8401 1.59333 12.8067 1.82 12.7401C2.06 12.6734 2.21333 12.5401 2.28 12.3401C2.36 12.1401 2.4 11.8467 2.4 11.4601L2.4 2.20008C2.4 1.81341 2.36 1.52674 2.28 1.34008C2.21333 1.14008 2.06 1.00674 1.82 0.940077C1.59333 0.860077 1.24667 0.820077 0.78 0.820077C0.753333 0.820077 0.74 0.780078 0.74 0.700078C0.74 0.620078 0.753333 0.580078 0.78 0.580078C1.11333 0.580078 1.48667 0.593411 1.9 0.620078C2.31333 0.633411 2.74 0.640077 3.18 0.640077C3.52667 0.640077 3.94667 0.620078 4.44 0.580078C4.94667 0.540078 5.45333 0.520078 5.96 0.520078C6.73333 0.520078 7.42667 0.633411 8.04 0.860078C8.66667 1.08674 9.16667 1.44008 9.54 1.92008C9.91333 2.40008 10.1067 3.02674 10.12 3.80008C10.12 4.49341 9.99333 5.09341 9.74 5.60008C9.48667 6.10674 9.14 6.52674 8.7 6.86008C8.27333 7.19341 7.79333 7.44008 7.26 7.60008C6.74 7.76008 6.22667 7.84008 5.72 7.84008C5.56 7.84008 5.39333 7.83341 5.22 7.82008C5.06 7.80674 4.90667 7.78008 4.76 7.74008C4.70667 7.72674 4.68667 7.68008 4.7 7.60008C4.72667 7.50674 4.76 7.46674 4.8 7.48008C4.92 7.50674 5.04 7.52674 5.16 7.54008C5.29333 7.55341 5.40667 7.56008 5.5 7.56008C6.00667 7.56008 6.47333 7.44008 6.9 7.20008C7.32667 6.96008 7.67333 6.59341 7.94 6.10008C8.20667 5.59341 8.34 4.96674 8.34 4.22008C8.34 3.50008 8.21333 2.89341 7.96 2.40008C7.72 1.90674 7.38 1.52674 6.94 1.26008C6.5 0.993411 5.99333 0.860078 5.42 0.860078C5.04667 0.860078 4.75333 0.886744 4.54 0.940077C4.34 0.993411 4.2 1.12008 4.12 1.32008C4.04 1.52008 4 1.82674 4 2.24008L4 11.3801ZM18.638 13.3201C17.678 13.3201 16.8046 13.1534 16.018 12.8201C15.2446 12.4734 14.578 12.0001 14.018 11.4001C13.4713 10.8001 13.0446 10.1134 12.738 9.34008C12.4446 8.55341 12.298 7.72008 12.298 6.84008C12.298 5.76008 12.5046 4.81341 12.918 4.00008C13.3446 3.18674 13.9046 2.51341 14.598 1.98008C15.2913 1.43341 16.0513 1.02674 16.878 0.760077C17.7046 0.493411 18.5246 0.360077 19.338 0.360077C20.3246 0.360077 21.2046 0.540077 21.978 0.900078C22.7646 1.24674 23.4313 1.72008 23.978 2.32008C24.5246 2.92008 24.938 3.60008 25.218 4.36008C25.5113 5.12008 25.658 5.90008 25.658 6.70008C25.658 7.63341 25.4713 8.50008 25.098 9.30008C24.7246 10.1001 24.2113 10.8001 23.558 11.4001C22.918 12.0001 22.1713 12.4734 21.318 12.8201C20.478 13.1534 19.5846 13.3201 18.638 13.3201ZM19.338 12.8801C20.178 12.8801 20.938 12.6667 21.618 12.2401C22.3113 11.8001 22.8513 11.1667 23.238 10.3401C23.638 9.50008 23.838 8.47341 23.838 7.26008C23.838 6.02008 23.618 4.92008 23.178 3.96008C22.7513 2.98674 22.138 2.22674 21.338 1.68008C20.5513 1.12008 19.6113 0.840077 18.518 0.840077C17.118 0.840077 16.0313 1.31341 15.258 2.26008C14.498 3.20674 14.118 4.50008 14.118 6.14008C14.118 7.08674 14.238 7.97341 14.478 8.80008C14.7313 9.61341 15.0913 10.3267 15.558 10.9401C16.0246 11.5534 16.578 12.0334 17.218 12.3801C17.858 12.7134 18.5646 12.8801 19.338 12.8801ZM31.1905 11.4601C31.1905 11.8467 31.2238 12.1401 31.2905 12.3401C31.3705 12.5401 31.5238 12.6734 31.7505 12.7401C31.9905 12.8067 32.3438 12.8401 32.8105 12.8401C32.8371 12.8401 32.8505 12.8801 32.8505 12.9601C32.8505 13.0401 32.8371 13.0801 32.8105 13.0801C32.4771 13.0801 32.1038 13.0734 31.6905 13.0601C31.2905 13.0467 30.8505 13.0401 30.3705 13.0401C29.9038 13.0401 29.4638 13.0467 29.0505 13.0601C28.6371 13.0734 28.2638 13.0801 27.9305 13.0801C27.9038 13.0801 27.8905 13.0401 27.8905 12.9601C27.8905 12.8801 27.9038 12.8401 27.9305 12.8401C28.3971 12.8401 28.7505 12.8067 28.9905 12.7401C29.2305 12.6734 29.3905 12.5401 29.4705 12.3401C29.5505 12.1401 29.5905 11.8467 29.5905 11.4601L29.5905 2.20008C29.5905 1.81341 29.5505 1.52674 29.4705 1.34008C29.3905 1.14008 29.2305 1.00674 28.9905 0.940077C28.7505 0.860077 28.3971 0.820077 27.9305 0.820077C27.9038 0.820077 27.8905 0.780078 27.8905 0.700078C27.8905 0.620078 27.9038 0.580078 27.9305 0.580078C28.2638 0.580078 28.6371 0.593411 29.0505 0.620078C29.4638 0.633411 29.9038 0.640077 30.3705 0.640077C30.8505 0.640077 31.2971 0.633411 31.7105 0.620078C32.1238 0.593411 32.4905 0.580078 32.8105 0.580078C32.8371 0.580078 32.8505 0.620078 32.8505 0.700078C32.8505 0.780078 32.8371 0.820077 32.8105 0.820077C32.3438 0.820077 31.9971 0.860077 31.7705 0.940077C31.5438 1.02008 31.3905 1.16008 31.3105 1.36008C31.2305 1.56008 31.1905 1.85341 31.1905 2.24008L31.1905 11.4601ZM36.5697 10.8001V1.04008L37.0897 1.08008V10.8001C37.0897 11.4934 37.2164 12.0067 37.4697 12.3401C37.723 12.6734 38.123 12.8401 38.6697 12.8401C38.6964 12.8401 38.7097 12.8801 38.7097 12.9601C38.7097 13.0401 38.6964 13.0801 38.6697 13.0801C38.3897 13.0801 38.103 13.0734 37.8097 13.0601C37.5297 13.0467 37.2097 13.0401 36.8497 13.0401C36.503 13.0401 36.163 13.0467 35.8297 13.0601C35.4964 13.0734 35.183 13.0801 34.8897 13.0801C34.863 13.0801 34.8497 13.0401 34.8497 12.9601C34.8497 12.8801 34.863 12.8401 34.8897 12.8401C35.4764 12.8401 35.903 12.6734 36.1697 12.3401C36.4364 12.0067 36.5697 11.4934 36.5697 10.8001ZM46.6897 13.3401C46.6897 13.3667 46.6564 13.3801 46.5897 13.3801C46.5364 13.3934 46.4964 13.3934 46.4697 13.3801L37.0497 2.22008C36.583 1.67341 36.1764 1.30674 35.8297 1.12008C35.4964 0.920077 35.163 0.820077 34.8297 0.820077C34.803 0.820077 34.7897 0.780078 34.7897 0.700078C34.7897 0.620078 34.803 0.580078 34.8297 0.580078C35.083 0.580078 35.3364 0.586745 35.5897 0.600078C35.843 0.613411 36.0764 0.620078 36.2897 0.620078C36.6097 0.620078 36.903 0.613411 37.1697 0.600078C37.4364 0.586745 37.6364 0.580078 37.7697 0.580078C37.943 0.580078 38.0697 0.660078 38.1497 0.820077C38.2297 0.966744 38.423 1.23341 38.7297 1.62008L46.5297 11.0201L46.6897 13.3401ZM46.6897 2.88008V13.3401L46.1897 12.7201V2.88008C46.1897 2.18674 46.063 1.67341 45.8097 1.34008C45.5697 0.993411 45.1764 0.820077 44.6297 0.820077C44.603 0.820077 44.5897 0.780078 44.5897 0.700078C44.5897 0.620078 44.603 0.580078 44.6297 0.580078C44.9097 0.580078 45.1964 0.593411 45.4897 0.620078C45.783 0.633411 46.103 0.640077 46.4497 0.640077C46.783 0.640077 47.1097 0.633411 47.4297 0.620078C47.7497 0.593411 48.0497 0.580078 48.3297 0.580078C48.3564 0.580078 48.3697 0.620078 48.3697 0.700078C48.3697 0.780078 48.3564 0.820077 48.3297 0.820077C47.7697 0.820077 47.3564 0.993411 47.0897 1.34008C46.823 1.67341 46.6897 2.18674 46.6897 2.88008ZM53.1191 0.980078C52.2924 0.980078 51.6457 1.21341 51.1791 1.68008C50.7124 2.13341 50.3657 2.86674 50.1391 3.88008C50.1257 3.90674 50.0791 3.92008 49.9991 3.92008C49.9324 3.92008 49.8991 3.90008 49.8991 3.86008C49.9257 3.68674 49.9524 3.44008 49.9791 3.12008C50.0191 2.80008 50.0524 2.45341 50.0791 2.08008C50.1057 1.70674 50.1257 1.34674 50.1391 1.00008C50.1657 0.653411 50.1791 0.366744 50.1791 0.140078C50.1791 0.0734112 50.2191 0.0400779 50.2991 0.0400779C50.3791 0.0400779 50.4191 0.0734112 50.4191 0.140078C50.4191 0.273411 50.4857 0.373411 50.6191 0.440078C50.7524 0.493411 50.9057 0.533411 51.0791 0.560077C51.2524 0.573411 51.3991 0.580078 51.5191 0.580078C52.6657 0.620078 54.0057 0.640077 55.5391 0.640077C56.4724 0.640077 57.2191 0.633411 57.7791 0.620078C58.3391 0.593411 58.8791 0.580078 59.3991 0.580078C59.8524 0.580078 60.1991 0.553411 60.4391 0.500078C60.6924 0.433411 60.8524 0.293411 60.9191 0.0800774C60.9324 0.026744 60.9724 7.72476e-05 61.0391 7.72476e-05C61.1191 7.72476e-05 61.1591 0.026744 61.1591 0.0800774C61.1324 0.280077 61.1057 0.560077 61.0791 0.920077C61.0657 1.28008 61.0457 1.65341 61.0191 2.04008C61.0057 2.42674 60.9924 2.78674 60.9791 3.12008C60.9657 3.45341 60.9591 3.70008 60.9591 3.86008C60.9591 3.90008 60.9191 3.92008 60.8391 3.92008C60.7724 3.92008 60.7391 3.90008 60.7391 3.86008C60.6457 2.82008 60.3791 2.08008 59.9391 1.64008C59.4991 1.20008 58.8457 0.980078 57.9791 0.980078C57.5124 0.980078 57.1591 1.01341 56.9191 1.08008C56.6924 1.13341 56.5391 1.24674 56.4591 1.42008C56.3924 1.59341 56.3591 1.86674 56.3591 2.24008V11.4601C56.3591 11.8467 56.3991 12.1401 56.4791 12.3401C56.5724 12.5401 56.7457 12.6734 56.9991 12.7401C57.2657 12.8067 57.6724 12.8401 58.2191 12.8401C58.2457 12.8401 58.2591 12.8801 58.2591 12.9601C58.2591 13.0401 58.2457 13.0801 58.2191 13.0801C57.8591 13.0801 57.4524 13.0734 56.9991 13.0601C56.5591 13.0467 56.0724 13.0401 55.5391 13.0401C55.0324 13.0401 54.5524 13.0467 54.0991 13.0601C53.6591 13.0734 53.2524 13.0801 52.8791 13.0801C52.8391 13.0801 52.8191 13.0401 52.8191 12.9601C52.8191 12.8801 52.8391 12.8401 52.8791 12.8401C53.3991 12.8401 53.7924 12.8067 54.0591 12.7401C54.3391 12.6734 54.5257 12.5401 54.6191 12.3401C54.7124 12.1401 54.7591 11.8467 54.7591 11.4601V2.20008C54.7591 1.84008 54.7191 1.57341 54.6391 1.40008C54.5591 1.21341 54.3991 1.10008 54.1591 1.06008C53.9191 1.00674 53.5724 0.980078 53.1191 0.980078Z" fill="#333333"/>
<path d="M17.6 63.9121C14.656 63.9121 12.032 63.2507 9.728 61.9281C7.424 60.5627 5.61067 58.6854 4.288 56.2961C3.008 53.8641 2.368 51.0907 2.368 47.9761C2.368 44.9467 3.008 42.2587 4.288 39.9121C5.61067 37.5654 7.424 35.7521 9.728 34.4721C12.0747 33.1494 14.72 32.4881 17.664 32.4881C20.5653 32.4881 23.1467 33.1494 25.408 34.4721C27.712 35.7947 29.4827 37.6507 30.72 40.0401C32 42.3867 32.64 45.0961 32.64 48.1681C32.64 51.2401 32 53.9707 30.72 56.3601C29.44 58.7494 27.648 60.6054 25.344 61.9281C23.0827 63.2507 20.5013 63.9121 17.6 63.9121ZM18.368 63.0161C21.6107 63.0161 24.0213 61.7787 25.6 59.3041C27.1787 56.7867 27.968 53.3307 27.968 48.9361C27.968 45.4801 27.4773 42.5787 26.496 40.2321C25.5147 37.8854 24.192 36.1574 22.528 35.0481C20.864 33.8961 19.008 33.3201 16.96 33.3201C13.8027 33.3201 11.328 34.6427 9.536 37.2881C7.744 39.8907 6.848 43.3041 6.848 47.5281C6.848 50.5147 7.31733 53.1814 8.256 55.5281C9.19467 57.8747 10.5387 59.7094 12.288 61.0321C14.0373 62.3547 16.064 63.0161 18.368 63.0161ZM41.272 45.2881C47.8 45.2881 52.5787 46.2267 55.608 48.1041C58.68 49.9814 60.216 52.6054 60.216 55.9761C60.216 59.2614 58.68 62.2267 55.608 64.8721C52.5787 67.5601 47.5867 70.3334 40.632 73.1921H40.568C40.3973 73.1921 40.248 73.0854 40.12 72.8721C40.0347 72.7014 40.0773 72.5734 40.248 72.4881C46.008 69.9707 50.04 67.4534 52.344 64.9361C54.6907 62.4614 55.864 59.8374 55.864 57.0641C55.864 53.9067 54.5413 51.4747 51.896 49.7681C49.2933 48.0187 45.5387 47.1441 40.632 47.1441C40.4187 47.1441 40.248 47.0801 40.12 46.9521C39.992 46.7814 39.9493 46.5894 39.992 46.3761L42.04 34.9841C42.0827 34.6854 42.1253 34.5147 42.168 34.4721C42.2533 34.3867 42.488 34.3227 42.872 34.2801C48.76 33.6401 52.7067 33.1921 54.712 32.9361C56.76 32.6801 58.0613 32.4241 58.616 32.1681C59.2133 31.8694 59.6187 31.4001 59.832 30.7601C59.9173 30.6321 60.0667 30.5894 60.28 30.6321C60.4933 30.6321 60.5787 30.7174 60.536 30.8881L59.256 35.6241C59.0853 36.1361 58.872 36.4561 58.616 36.5841C58.4027 36.7121 58.0187 36.7761 57.464 36.7761L43.896 37.0961C43.2987 37.0961 42.9787 37.3947 42.936 37.9921L41.336 46.8241L41.272 45.2881Z" fill="#333333"/>
<path d="M171.826 116.876L171.593 118.609C171.532 119.071 171.376 119.532 171.148 119.968C169.951 120.971 168.369 121.495 166.807 121.433C166.046 121.404 165.271 121.232 164.639 120.807C164.517 120.725 164.4 120.633 164.291 120.535C163.718 119.625 163.439 118.521 163.572 117.533L163.782 115.969C164.606 115.99 164.808 115.054 165.971 114.338C167.236 113.559 167.906 114.615 168.841 115.549C169.652 116.362 171.053 115.34 171.826 116.876Z" fill="white" stroke="#333333" stroke-linecap="round" stroke-linejoin="round"/>
<path d="M164.711 124.002H168.263L168.908 118.957H165.356L164.711 124.002Z" fill="white" stroke="#333333" stroke-linecap="round" stroke-linejoin="round"/>
<path d="M189.314 146.831L188.779 148.467L187.128 148.465C187.128 148.465 180.873 140.99 174.465 137.109C174.425 140.703 174.902 145.81 175.087 148.456H156.886C157.008 144.877 157.669 140.541 158.31 137.055C151.96 140.973 145.09 148.463 145.09 148.463L142.687 148.454L142.133 147.314C142.133 147.314 153.49 128.632 164.591 123.969H168.143C168.143 123.969 178.272 125.961 189.314 146.831Z" fill="#333333" stroke="#333333" stroke-linecap="round" stroke-linejoin="round"/>
<path d="M144.21 148.454H136.445C136.703 146.994 138.082 146.176 139.749 146.176C141.417 146.176 143.66 146.893 144.21 148.454Z" fill="white" stroke="#333333" stroke-linecap="round" stroke-linejoin="round"/>
<path d="M187.492 148.47L195.242 148.456C194.985 146.997 193.609 146.209 191.941 146.209C190.274 146.209 188.042 146.909 187.492 148.47Z" fill="white" stroke="#333333" stroke-linecap="round" stroke-linejoin="round"/>
<path d="M171.826 116.876L171.593 118.609C171.532 119.071 171.376 119.532 171.148 119.968C170.363 121.462 168.715 122.644 166.999 122.415C165.855 122.261 164.904 121.509 164.291 120.535C163.718 119.625 163.439 118.521 163.572 117.533L163.782 115.969C164.606 115.99 164.808 115.054 165.971 114.338C167.236 113.559 167.906 114.615 168.841 115.549C169.652 116.362 171.053 115.34 171.826 116.876Z" fill="white" stroke="#333333" stroke-linecap="round" stroke-linejoin="round"/>
<path d="M172.974 117.373C172.881 117.568 172.775 117.757 172.657 117.938C172.54 118.118 172.395 118.283 172.292 118.471C172.179 118.676 172.128 118.902 171.99 119.096C171.775 119.398 171.497 119.667 171.217 119.909C171.195 119.929 171.172 119.949 171.148 119.968C171.377 119.532 171.532 119.071 171.594 118.609L171.826 116.876C171.054 115.34 169.652 116.362 168.841 115.55C167.907 114.615 167.236 113.559 165.972 114.338C164.809 115.055 164.606 115.99 163.782 115.969L163.572 117.534C163.439 118.521 163.718 119.625 164.291 120.535C163.912 120.197 163.605 119.776 163.341 119.34C163.047 118.855 162.8 118.343 162.607 117.81C162.339 117.073 162.2 116.381 162.253 115.591C162.353 114.084 162.692 112.295 163.83 111.208C164.376 110.687 165.079 110.354 165.802 110.138C166.787 109.843 167.857 109.735 168.842 110.027C169.796 110.309 170.971 111.663 171.06 111.705C171.476 111.896 172.004 111.969 172.371 112.254C172.416 112.289 172.46 112.328 172.503 112.371C172.832 112.705 173.062 113.244 173.21 113.655C173.653 114.878 173.531 116.207 172.974 117.373Z" fill="#333333" stroke="#333333" stroke-linecap="round" stroke-linejoin="round"/>
<path d="M250.175 111.836H225.043L235.951 102.605C236.418 102.209 237.003 101.977 237.609 101.976C237.644 101.976 237.678 101.976 237.714 101.978C238.286 101.999 238.832 102.229 239.273 102.602L250.175 111.835V111.836Z" fill="white" stroke="#F2F2F2" stroke-linecap="round" stroke-linejoin="round"/>
<path d="M234.645 134.972L216.457 150.005C216.134 149.462 215.949 148.827 215.949 148.15V121.099C215.949 120.618 216.043 120.158 216.213 119.737L220.057 122.914L231.694 132.533L234.645 134.972Z" fill="white" stroke="#F2F2F2" stroke-linecap="round" stroke-linejoin="round"/>
<path d="M220.058 116.056V122.915L216.215 119.738C216.304 119.515 220.058 116.056 220.058 116.056Z" fill="white" stroke="#F2F2F2" stroke-linecap="round" stroke-linejoin="round"/>
<path d="M259.334 121.099V148.15C259.334 148.835 259.145 149.476 258.816 150.022L240.578 134.936L240.626 134.897L243.483 132.533L255.169 122.867L259.038 119.666C259.228 120.105 259.333 120.59 259.333 121.099H259.334Z" fill="white" stroke="#F2F2F2" stroke-linecap="round" stroke-linejoin="round"/>
<path d="M258.81 150.022C258.173 151.082 257.012 151.792 255.684 151.792H219.589C218.254 151.792 217.088 151.075 216.453 150.005L234.641 134.972L235.883 135.999C236.362 136.395 236.961 136.627 237.582 136.628C237.617 136.628 237.652 136.628 237.688 136.626C238.275 136.605 238.834 136.374 239.286 136.001L240.573 134.937L258.81 150.023V150.022Z" fill="white" stroke="#F2F2F2" stroke-linecap="round" stroke-linejoin="round"/>
<path d="M259.037 119.666L255.168 122.867V116.067C255.168 116.067 258.963 119.491 259.037 119.667V119.666Z" fill="white" stroke="#F2F2F2" stroke-linecap="round" stroke-linejoin="round"/>
<path d="M255.17 113.974V122.867L243.484 132.533L240.626 134.897L240.579 134.936L239.292 136.001C238.84 136.374 238.281 136.604 237.695 136.625C237.659 136.626 237.624 136.627 237.588 136.627C236.967 136.627 236.368 136.395 235.889 135.998L234.647 134.972L231.696 132.532L220.059 122.914V113.974C220.059 112.792 221.016 111.835 222.198 111.835H253.03C254.212 111.835 255.17 112.792 255.17 113.974V113.974Z" fill="white" stroke="#F2F2F2" stroke-linecap="round" stroke-linejoin="round"/>
<path d="M225.293 117.404H250.164" stroke="#333333" stroke-linecap="round" stroke-linejoin="round"/>
<path d="M225.293 122.241H250.164" stroke="#333333" stroke-linecap="round" stroke-linejoin="round"/>
<path d="M231.031 127.078H244.423" stroke="#333333" stroke-linecap="round" stroke-linejoin="round"/>
<path d="M294.386 152.168V147.183L299.419 146.123C299.717 144.995 300.155 143.924 300.713 142.929L297.96 138.711L301.487 135.186L305.605 137.871C306.701 137.207 307.897 136.691 309.166 136.353L310.238 131.264H315.226L316.297 136.353C317.592 136.699 318.811 137.228 319.926 137.912L324.27 135.193L327.731 138.782L324.825 143.063C325.328 143.983 325.729 144.968 326.013 146L331.004 147.051V152.036L326.072 153.074C325.764 154.278 325.297 155.418 324.695 156.47L327.468 160.72L323.941 164.245L319.734 161.503C318.664 162.136 317.499 162.628 316.267 162.955L315.214 167.949H310.227L309.173 162.948C307.939 162.619 306.771 162.123 305.699 161.484L301.481 164.233L297.954 160.708L300.746 156.43C300.181 155.434 299.737 154.36 299.432 153.23L294.385 152.168H294.386ZM312.542 154.666C315.474 154.758 317.87 152.364 317.778 149.432C317.694 146.777 315.531 144.614 312.874 144.527C309.938 144.432 307.539 146.831 307.634 149.765C307.721 152.42 309.885 154.582 312.542 154.665V154.666Z" fill="white"/>
<path d="M276.451 162.558L273.41 161.095L274.188 157.928L277.551 158.04C277.917 157.369 278.362 156.757 278.872 156.212L277.782 153.102L280.573 151.412L282.771 153.76C283.571 153.51 284.412 153.369 285.27 153.351L286.746 150.285L289.916 151.063L289.802 154.464C290.57 154.885 291.263 155.412 291.864 156.021L295.049 154.97L296.687 157.79L294.173 160.057C294.349 160.721 294.45 161.408 294.469 162.109L297.477 163.556L296.698 166.724L293.402 166.614C293.019 167.33 292.544 167.981 291.997 168.557L293.096 171.69L290.304 173.38L288.059 170.981C287.28 171.217 286.463 171.348 285.63 171.363L284.181 174.372L281.012 173.595L281.122 170.252C280.389 169.85 279.725 169.353 279.144 168.78L276.034 169.869L274.344 167.079L276.786 164.796C276.583 164.075 276.467 163.324 276.45 162.559L276.451 162.558ZM284.66 165.542C286.482 165.989 288.323 164.838 288.705 162.984C289.061 161.254 287.968 159.524 286.254 159.098C284.47 158.654 282.666 159.744 282.228 161.527C281.79 163.306 282.879 165.104 284.66 165.542Z" fill="#333333"/>
<path d="M297.953 293.08V204.924C297.953 201.448 295.133 198.629 291.655 198.629L87.9855 198.943C85.6904 198.943 83.8289 200.804 83.8289 203.099V230.166H42.7464C40.4506 230.166 38.5898 232.026 38.5898 234.321V293.08H297.953Z" fill="white"/>
<path d="M133.605 236.701C133.605 237.017 133.349 237.273 133.033 237.273C132.717 237.273 132.461 237.017 132.461 236.701C132.461 236.386 132.717 236.129 133.033 236.129C133.349 236.129 133.605 236.386 133.605 236.701Z" stroke="white" stroke-linecap="round" stroke-linejoin="round"/>
<path d="M142.525 228.596C142.841 228.596 143.097 228.34 143.097 228.025C143.097 227.709 142.841 227.453 142.525 227.453C142.209 227.453 141.953 227.709 141.953 228.025C141.953 228.34 142.209 228.596 142.525 228.596Z" stroke="white" stroke-linecap="round" stroke-linejoin="round"/>
<path d="M255.126 148.456H108.194C102.972 148.456 98.7383 152.688 98.7383 157.908V260.182C98.7383 265.402 102.972 269.633 108.194 269.633H255.126C260.348 269.633 264.581 265.402 264.581 260.182V157.908C264.581 152.688 260.348 148.456 255.126 148.456Z" fill="white" stroke="#333333" stroke-linecap="round" stroke-linejoin="round"/>
<path d="M255.126 148.456H108.194C102.972 148.456 98.7383 152.688 98.7383 157.908V260.182C98.7383 265.402 102.972 269.633 108.194 269.633H255.126C260.348 269.633 264.581 265.402 264.581 260.182V157.908C264.581 152.688 260.348 148.456 255.126 148.456Z" fill="#333333" stroke="#F2F2F2" stroke-linecap="round" stroke-linejoin="round"/>
<path d="M255.117 160.744V257.345C255.117 259.341 253.497 260.96 251.501 260.96H111.818C109.821 260.96 108.201 259.341 108.201 257.345V160.744C108.201 158.748 109.821 157.129 111.818 157.129H251.501C253.497 157.129 255.117 158.748 255.117 160.744Z" fill="white" stroke="#333333" stroke-linecap="round" stroke-linejoin="round"/>
<path d="M200.441 269.633H162.875V283.461H200.441V269.633Z" fill="#333333" stroke="#F2F2F2" stroke-linecap="round" stroke-linejoin="round"/>
<path d="M145.509 281.541H217.802C224.174 281.541 229.346 286.711 229.346 293.08H133.965C133.965 286.711 139.138 281.541 145.509 281.541Z" fill="#333333" stroke="#F2F2F2" stroke-linecap="round" stroke-linejoin="round"/>
<path d="M179.148 224.011H239.038" stroke="#333333" stroke-linecap="round" stroke-linejoin="round"/>
<path d="M179.148 235.515H239.038" stroke="#333333" stroke-linecap="round" stroke-linejoin="round"/>
<path d="M179.148 247.019H232.761" stroke="#333333" stroke-linecap="round" stroke-linejoin="round"/>
<path d="M123.18 188.582H183.069" stroke="#333333" stroke-linecap="round" stroke-linejoin="round"/>
<path d="M123.18 208.335H239.037" stroke="#333333" stroke-linecap="round" stroke-linejoin="round"/>
<path d="M236.349 168.779H197.161C195.678 168.779 194.477 169.98 194.477 171.462V195.719C194.477 197.201 195.678 198.402 197.161 198.402H236.349C237.831 198.402 239.033 197.201 239.033 195.719V171.462C239.033 169.98 237.831 168.779 236.349 168.779Z" fill="white" stroke="#333333" stroke-linecap="round" stroke-linejoin="round"/>
<path d="M216.754 191.828C221.307 191.828 224.997 188.14 224.997 183.589C224.997 179.039 221.307 175.351 216.754 175.351C212.202 175.351 208.512 179.039 208.512 183.589C208.512 188.14 212.202 191.828 216.754 191.828Z" fill="white" stroke="#333333" stroke-linecap="round" stroke-linejoin="round"/>
<path d="M219.702 182.852L215.411 180.675C214.859 180.395 214.207 180.796 214.207 181.413V185.768C214.207 186.386 214.859 186.786 215.411 186.507L219.702 184.33C220.307 184.023 220.307 183.159 219.702 182.853V182.852Z" fill="white" stroke="#333333" stroke-linecap="round" stroke-linejoin="round"/>
<path d="M180.688 168.779H125.096C123.781 168.779 122.715 169.844 122.715 171.158V177.844C122.715 179.158 123.781 180.224 125.096 180.224H180.688C182.003 180.224 183.068 179.158 183.068 177.844V171.158C183.068 169.844 182.003 168.779 180.688 168.779Z" fill="white" stroke="#333333" stroke-linecap="round" stroke-linejoin="round"/>
<path d="M236.544 247.019C236.544 247.086 236.49 247.14 236.423 247.14C236.355 247.14 236.301 247.086 236.301 247.019C236.301 246.951 236.355 246.897 236.423 246.897C236.49 246.897 236.544 246.951 236.544 247.019Z" stroke="#333333" stroke-linecap="round" stroke-linejoin="round"/>
<path d="M122.996 198.079H169.974" stroke="#333333" stroke-linecap="round" stroke-linejoin="round"/>
<path d="M173.997 198.459C173.997 198.526 173.943 198.58 173.876 198.58C173.808 198.58 173.754 198.526 173.754 198.459C173.754 198.391 173.808 198.337 173.876 198.337C173.943 198.337 173.997 198.391 173.997 198.459Z" stroke="#333333" stroke-linecap="round" stroke-linejoin="round"/>
<path d="M129.022 233.146H122.931C122.393 233.146 121.957 233.581 121.957 234.119V249.258C121.957 249.795 122.393 250.231 122.931 250.231H129.022C129.559 250.231 129.995 249.795 129.995 249.258V234.119C129.995 233.581 129.559 233.146 129.022 233.146Z" fill="white" stroke="#333333" stroke-linecap="round" stroke-linejoin="round"/>
<path d="M142.244 224.146H136.153C135.616 224.146 135.18 224.582 135.18 225.12V249.258C135.18 249.795 135.616 250.231 136.153 250.231H142.244C142.782 250.231 143.218 249.795 143.218 249.258V225.12C143.218 224.582 142.782 224.146 142.244 224.146Z" fill="white" stroke="#333333" stroke-linecap="round" stroke-linejoin="round"/>
<path d="M155.467 230.832H149.376C148.838 230.832 148.402 231.268 148.402 231.805V249.258C148.402 249.795 148.838 250.231 149.376 250.231H155.467C156.005 250.231 156.441 249.795 156.441 249.258V231.805C156.441 231.268 156.005 230.832 155.467 230.832Z" fill="white" stroke="#333333" stroke-linecap="round" stroke-linejoin="round"/>
<path d="M168.682 220.541H162.591C162.053 220.541 161.617 220.976 161.617 221.514V249.258C161.617 249.795 162.053 250.231 162.591 250.231H168.682C169.22 250.231 169.656 249.795 169.656 249.258V221.514C169.656 220.976 169.22 220.541 168.682 220.541Z" fill="white" stroke="#333333" stroke-linecap="round" stroke-linejoin="round"/>
<path d="M66.2428 186.679C66.1795 187.63 65.4358 189.577 65.153 190.47C64.9751 191.034 64.447 191.851 63.9502 192.136C64.4077 191.371 64.677 190.484 64.677 189.638V188.555C64.0848 187.348 63.4757 184.965 63.4757 184.965C62.6071 185.485 57.9537 185.629 57.9537 185.629C57.3951 187.003 57.0121 187.944 56.8702 188.292V189.638C56.8702 190.031 56.9279 190.432 57.0361 190.825C56.8871 190.513 56.7596 190.172 56.7076 189.958C56.5393 189.262 56.1578 188.227 56.02 187.522C55.7475 186.124 55.6947 184.868 56.3902 183.727C56.6026 183.379 56.9776 183.214 57.1803 182.865C57.3054 182.651 57.3671 182.379 57.3262 182.12C57.3014 181.962 57.2453 181.793 57.3013 181.646C57.3735 181.454 57.5858 181.418 57.7621 181.408C58.4385 181.372 59.114 181.337 59.7903 181.301C61.9348 181.187 64.8028 181.694 65.9639 184.03C66.351 184.808 66.3029 185.777 66.2428 186.679Z" fill="#333333" stroke="#333333" stroke-linecap="round" stroke-linejoin="round"/>
<path d="M64.6778 188.554V189.638C64.6778 190.484 64.4086 191.371 63.951 192.136C63.9005 192.166 63.8508 192.189 63.8012 192.207C63.4125 192.343 62.9942 192.228 62.5903 192.265C61.4219 192.374 61.4091 192.443 60.248 192.258C59.5596 192.149 59.4931 192.269 58.8296 192.027C58.3584 191.855 57.8119 191.871 57.4401 191.487C57.315 191.357 57.1684 191.103 57.0378 190.826H57.037C56.9288 190.433 56.8711 190.031 56.8711 189.639V188.293C57.0129 187.945 57.396 187.004 57.9545 185.629C57.9545 185.629 62.6079 185.486 63.4766 184.965C63.4766 184.965 64.0856 187.349 64.6778 188.555V188.554Z" fill="white" stroke="#333333" stroke-linecap="round" stroke-linejoin="round"/>
<path d="M54.0229 251.271V254.923L52.9531 256.746L55.8067 257.982L56.5047 254.704L56.5472 250.521L54.0229 251.271Z" fill="white" stroke="#333333" stroke-linecap="round" stroke-linejoin="round"/>
<path d="M66.5575 251.271V254.923L67.6273 256.746L64.7729 257.982L63.7344 256.978L64.0749 254.704L64.0333 250.521L66.5575 251.271Z" fill="white" stroke="#333333" stroke-linecap="round" stroke-linejoin="round"/>
<path d="M62.8758 191.271H59.3242V196.801H62.8758V191.271Z" fill="white" stroke="#333333" stroke-linecap="round" stroke-linejoin="round"/>
<path d="M69.9751 225.121C70.0095 225.395 68.9918 225.012 68.6192 225.03C68.4565 224.461 68.3299 223.913 68.1817 223.351C68.8027 222.26 69.3147 221.249 69.729 220.319H69.8212C69.8188 220.255 69.8164 220.192 69.8132 220.129C70.641 218.235 71.0601 216.692 71.1811 215.527C71.3366 214.026 70.6786 212.244 68.6256 210.082C69.1641 213.18 69.6713 216.818 69.8132 220.129C69.7859 220.191 69.7579 220.255 69.729 220.319H52.0232C51.883 220.078 51.7596 219.853 51.6498 219.64C51.7973 216.758 52.2548 213.471 52.7533 210.559C51.1634 213.035 50.9919 215.648 50.9038 216.431C50.8356 217.032 50.7691 217.915 51.6498 219.64C51.6386 219.869 51.629 220.095 51.621 220.319H52.0232C52.3798 220.933 52.8438 221.638 53.4448 222.453C53.3294 223.284 53.2333 224.099 53.1107 224.942C52.964 225 52.0064 225.536 52.3718 225.29C47.8001 222.115 45.8633 218.666 45.8633 214.814C45.8633 208.75 51.3621 199.393 58.1808 196.364L63.864 196.294C68.7201 197.2 76.0934 208.365 76.1422 214.396C76.1695 217.729 74.0603 221.382 69.9751 225.121Z" fill="#F2F2F2"/>
<path d="M69.729 220.319C69.3147 221.249 68.8027 222.26 68.1817 223.351C68.3299 223.913 68.4565 224.461 68.6192 225.03C68.9918 225.012 70.0095 225.395 69.9751 225.121C74.0603 221.382 76.1695 217.729 76.1422 214.396C76.0934 208.365 68.7201 197.2 63.864 196.294L58.1808 196.364C51.3621 199.393 45.8633 208.75 45.8633 214.814C45.8633 218.666 47.8001 222.115 52.3718 225.29C52.0064 225.536 52.964 225 53.1107 224.942C53.2333 224.099 53.3294 223.284 53.4448 222.453C52.8438 221.638 52.3798 220.933 52.0232 220.319M69.729 220.319H69.8212C69.8188 220.255 69.8164 220.192 69.8132 220.129M69.729 220.319C69.7579 220.255 69.7859 220.191 69.8132 220.129M69.729 220.319H52.0232M69.8132 220.129C70.641 218.235 71.0601 216.692 71.1811 215.527C71.3366 214.026 70.6786 212.244 68.6256 210.082C69.1641 213.18 69.6713 216.818 69.8132 220.129ZM52.0232 220.319C51.883 220.078 51.7596 219.853 51.6498 219.64M52.0232 220.319H51.621C51.629 220.095 51.6386 219.869 51.6498 219.64M51.6498 219.64C51.7973 216.758 52.2548 213.471 52.7533 210.559C51.1634 213.035 50.9919 215.648 50.9038 216.431C50.8356 217.032 50.7691 217.915 51.6498 219.64Z" stroke="#333333" stroke-linecap="round" stroke-linejoin="round"/>
<path d="M51.646 219.64C51.7558 219.853 51.8792 220.079 52.0195 220.319H51.6172C51.6252 220.095 51.6348 219.869 51.646 219.64Z" fill="white" stroke="#333333" stroke-linecap="round" stroke-linejoin="round"/>
<path d="M69.8226 220.319H69.7305C69.7593 220.255 69.7874 220.191 69.8146 220.129C69.8178 220.192 69.8202 220.255 69.8226 220.319Z" fill="white" stroke="#333333" stroke-linecap="round" stroke-linejoin="round"/>
<path d="M51.646 219.64C51.7558 219.853 51.8792 220.079 52.0195 220.319H51.6172C51.6252 220.095 51.6348 219.869 51.646 219.64Z" fill="white" stroke="#333333" stroke-linecap="round" stroke-linejoin="round"/>
<path d="M69.8148 220.319H69.7227C69.7515 220.255 69.7796 220.191 69.8068 220.129C69.81 220.192 69.8124 220.255 69.8148 220.319Z" fill="white" stroke="#333333" stroke-linecap="round" stroke-linejoin="round"/>
<path d="M67.239 252.377C67.239 252.377 64.5537 252.613 63.5952 251.933C63.5952 251.933 62.8179 241.374 64.609 233.086C64.609 233.086 64.2075 232.315 62.9309 230.963H57.8071C56.5306 232.315 56.1291 233.086 56.1291 233.086C57.9201 241.374 57.1428 251.933 57.1428 251.933C56.1844 252.613 53.499 252.377 53.499 252.377C53.499 252.377 47.973 235.686 49.3657 230.336C50.7576 224.987 53.108 223.502 53.108 223.502L55.2276 224.747L60.369 227.767L59.792 228.106C59.9924 228.267 60.1839 228.424 60.369 228.578C60.5541 228.424 60.7457 228.267 60.946 228.106L60.369 227.767L65.4352 224.791L67.63 223.502C67.63 223.502 69.9804 224.987 71.3723 230.336C72.7651 235.686 67.239 252.377 67.239 252.377Z" fill="#333333"/>
<path d="M60.369 227.767L55.2276 224.747L53.108 223.502C53.108 223.502 50.7576 224.987 49.3657 230.336C47.973 235.686 53.499 252.377 53.499 252.377C53.499 252.377 56.1844 252.613 57.1428 251.933C57.1428 251.933 57.9201 241.374 56.1291 233.086C56.1291 233.086 56.5306 232.315 57.8071 230.963H62.9309C64.2075 232.315 64.609 233.086 64.609 233.086C62.8179 241.374 63.5952 251.933 63.5952 251.933C64.5537 252.613 67.239 252.377 67.239 252.377C67.239 252.377 72.7651 235.686 71.3723 230.336C69.9804 224.987 67.63 223.502 67.63 223.502L65.4352 224.791L60.369 227.767ZM60.369 227.767L59.792 228.106C59.9924 228.267 60.1839 228.424 60.369 228.578C60.5541 228.424 60.7457 228.267 60.946 228.106L60.369 227.767Z" stroke="#333333" stroke-linecap="round" stroke-linejoin="round"/>
<path d="M60.9469 228.105C60.7466 228.266 60.555 228.423 60.3699 228.578C60.1848 228.423 59.9933 228.266 59.793 228.105L60.3699 227.767L60.9469 228.105Z" fill="white" stroke="#333333" stroke-linecap="round" stroke-linejoin="round"/>
<path d="M60.9469 228.105C60.7466 228.266 60.555 228.423 60.3699 228.578C60.1848 228.423 59.9933 228.266 59.793 228.105L60.3699 227.767L60.9469 228.105Z" fill="white" stroke="#333333" stroke-linecap="round" stroke-linejoin="round"/>
<path d="M59.793 228.105L60.3699 227.767L60.9469 228.105C60.7466 228.266 60.555 228.423 60.3699 228.578C60.1848 228.423 59.9933 228.266 59.793 228.105Z" fill="white" stroke="#333333" stroke-linecap="round" stroke-linejoin="round"/>
<path d="M65.4342 224.791L60.368 227.767L55.2266 224.747H65.4342V224.791Z" fill="white" stroke="#333333" stroke-linecap="round" stroke-linejoin="round"/>
<path d="M68.1788 230.156H52.9171C52.4435 230.156 52.0405 229.839 51.9692 229.41L50.4955 220.532C50.4073 220.001 50.8561 219.522 51.4435 219.522H69.6517C70.2383 219.522 70.6879 220.001 70.5997 220.532L69.126 229.41C69.0547 229.839 68.6524 230.156 68.178 230.156H68.1788Z" fill="white" stroke="#333333" stroke-linecap="round" stroke-linejoin="round"/>
<path d="M53.575 255.029C53.575 255.029 55.3973 256.286 56.6938 254.985C56.6938 254.985 56.8405 255.999 57.0528 256.772C57.2828 257.609 56.5039 258.792 56.1561 259.476C55.4469 260.875 55.4862 261.846 54.6167 263.146C54.2481 263.698 53.8514 264.329 53.2472 264.617C52.6703 264.893 52.038 264.748 51.4642 264.537C49.8816 263.953 48.343 263.091 50.1164 260.271C51.2919 258.401 52.4876 257.669 53.575 255.029Z" fill="white" stroke="#333333" stroke-linecap="round" stroke-linejoin="round"/>
<path d="M67.004 255.029C67.004 255.029 65.1817 256.286 63.8851 254.985C63.8851 254.985 63.7385 255.999 63.5261 256.772C63.2962 257.609 64.0751 258.792 64.4228 259.476C65.132 260.875 65.0928 261.846 65.9622 263.146C66.7299 264.295 67.5289 264.965 68.9825 264.73C69.6997 264.614 70.6357 263.839 71.0436 263.212C71.6542 262.273 70.9763 261.088 70.4626 260.271C69.287 258.401 68.0914 257.669 67.004 255.029Z" fill="white" stroke="#333333" stroke-linecap="round" stroke-linejoin="round"/>
<path d="M64.6778 188.554V189.638C64.6778 190.484 64.4086 191.371 63.951 192.136C63.2426 193.321 62.0839 194.214 60.7745 194.214C59.0115 194.214 57.5218 192.595 57.0378 190.826H57.037C56.9288 190.433 56.8711 190.031 56.8711 189.639V188.293C57.0129 187.945 57.396 187.004 57.9545 185.629C57.9545 185.629 62.6079 185.486 63.4766 184.965C63.4766 184.965 64.0856 187.349 64.6778 188.555V188.554Z" fill="white" stroke="#333333" stroke-linecap="round" stroke-linejoin="round"/>
<path opacity="0.32" d="M254.815 282.976C268.065 282.976 278.806 272.24 278.806 258.996C278.806 245.753 268.065 235.017 254.815 235.017C241.565 235.017 230.824 245.753 230.824 258.996C230.824 272.24 241.565 282.976 254.815 282.976Z" fill="white" stroke="#333333" stroke-linecap="round" stroke-linejoin="round"/>
<path d="M280.537 263.279L278.664 269.222L305.995 277.825L307.868 271.881L280.537 263.279Z" fill="#F2F2F2" stroke="#333333" stroke-linecap="round" stroke-linejoin="round"/>
<path d="M330.335 278.253L327.981 285.723C327.749 286.46 326.962 286.869 326.225 286.637L289.323 275.018C288.586 274.786 288.177 274 288.409 273.263L290.763 265.793C290.995 265.056 291.782 264.647 292.519 264.879L329.42 276.498C330.158 276.73 330.567 277.516 330.335 278.253Z" fill="#333333" stroke="#333333" stroke-linecap="round" stroke-linejoin="round"/>
<path d="M228.418 250.726C223.828 265.289 231.92 280.813 246.488 285.4C261.058 289.988 276.589 281.901 281.179 267.338C285.769 252.776 277.678 237.252 263.109 232.665C248.54 228.077 233.008 236.164 228.418 250.726ZM274.391 265.201C270.982 276.017 259.447 282.023 248.626 278.616C237.805 275.208 231.797 263.679 235.206 252.863C238.615 242.047 250.149 236.041 260.97 239.448C271.791 242.856 277.8 254.385 274.391 265.201Z" fill="#F2F2F2" stroke="#333333" stroke-linecap="round" stroke-linejoin="round"/>
<path d="M45.5859 118.189H54.3415" stroke="#333333" stroke-linecap="round" stroke-linejoin="round"/>
<path d="M49.9648 113.813V122.564" stroke="#333333" stroke-linecap="round" stroke-linejoin="round"/>
<path d="M320.625 212.488H329.381" stroke="#333333" stroke-linecap="round" stroke-linejoin="round"/>
<path d="M325.004 208.112V216.864" stroke="#333333" stroke-linecap="round" stroke-linejoin="round"/>
<path d="M190.863 97.7915H199.619" stroke="#333333" stroke-linecap="round" stroke-linejoin="round"/>
<path d="M195.242 93.4155V102.167" stroke="#333333" stroke-linecap="round" stroke-linejoin="round"/>
<path d="M300.538 105.97C300.86 104.606 300.015 103.239 298.65 102.917C297.285 102.595 295.917 103.44 295.595 104.804C295.273 106.168 296.118 107.535 297.483 107.857C298.848 108.18 300.216 107.335 300.538 105.97Z" stroke="#333333" stroke-linecap="round" stroke-linejoin="round"/>
<path d="M24.8207 210.75C26.2232 210.75 27.3602 209.613 27.3602 208.212C27.3602 206.81 26.2232 205.673 24.8207 205.673C23.4182 205.673 22.2812 206.81 22.2812 208.212C22.2812 209.613 23.4182 210.75 24.8207 210.75Z" stroke="#333333" stroke-linecap="round" stroke-linejoin="round"/>
<path d="M115.421 110.609C115.421 114.278 114.294 117.683 112.365 120.499C110.148 123.736 108.461 125.535 107.328 127.506C106.61 128.754 106.116 130.072 105.849 131.867C105.71 132.801 104.916 133.496 103.971 133.496H91.8336C90.8895 133.496 90.0951 132.803 89.9524 131.871C89.2388 127.209 86.9569 125.755 83.3426 120.408C80.8937 116.785 79.7645 112.197 80.6443 107.334C81.939 100.183 87.5944 94.5862 94.7585 93.3502C105.822 91.4416 115.421 99.9043 115.421 110.609H115.421Z" fill="white"/>
<path d="M101.324 145.61C101.324 146.881 99.7839 147.911 97.8847 147.911C95.9854 147.911 94.4453 146.881 94.4453 145.61H101.324Z" fill="#333333"/>
<path d="M87.7969 108.591C88.5661 104.342 91.9271 101.015 96.1851 100.281" stroke="#F2F2F2" stroke-linecap="round" stroke-linejoin="round"/>
<path d="M104.413 139.15H91.3734C90.6794 139.15 90.1172 138.588 90.1172 137.894C90.1172 137.201 90.6794 136.639 91.3734 136.639H104.413C105.107 136.639 105.67 137.201 105.67 137.894C105.67 138.588 105.107 139.15 104.413 139.15Z" fill="#333333"/>
<path d="M103.082 143.638H92.7015C92.0076 143.638 91.4453 143.076 91.4453 142.383C91.4453 141.689 92.0076 141.127 92.7015 141.127H103.082C103.776 141.127 104.339 141.689 104.339 142.383C104.339 143.076 103.776 143.638 103.082 143.638Z" fill="#333333"/>
<path d="M26.8593 134.685H61.209C65.5525 134.685 69.0742 138.205 69.0742 142.546V164.006C69.0742 168.348 65.5525 171.868 61.209 171.868H49.2991V177.337C49.2991 178.197 48.2475 178.613 47.6578 177.988L41.895 171.868H26.8586C22.5151 171.868 18.9934 168.348 18.9934 164.006V142.546C18.9934 138.205 22.5151 134.685 26.8586 134.685H26.8593Z" fill="white"/>
<path d="M33.3761 151.272C34.3767 151.272 35.1914 152.086 35.1914 153.087C35.1914 154.088 34.3774 154.901 33.3761 154.901C32.3747 154.901 31.5607 154.088 31.5607 153.087C31.5607 152.086 32.3747 151.272 33.3761 151.272Z" fill="#333333"/>
<path d="M44.0323 151.272C45.0329 151.272 45.8477 152.086 45.8477 153.087C45.8477 154.088 45.0337 154.901 44.0323 154.901C43.0309 154.901 42.2169 154.088 42.2169 153.087C42.2169 152.086 43.0309 151.272 44.0323 151.272Z" fill="#333333"/>
<path d="M54.6925 151.272C55.6931 151.272 56.5078 152.086 56.5078 153.087C56.5078 154.088 55.6938 154.901 54.6925 154.901C53.6911 154.901 52.8771 154.088 52.8771 153.087C52.8771 152.086 53.6911 151.272 54.6925 151.272Z" fill="#333333"/>
</svg>
