<svg width="15" height="14" viewBox="0 0 15 14" fill="none" xmlns="http://www.w3.org/2000/svg">
<path d="M13.058 2.75616C13.0539 2.75021 13.0474 2.74738 13.043 2.74169C12.3921 1.88925 11.5534 1.19841 10.592 0.722899C9.63065 0.247385 8.57258 7.61901e-06 7.50005 1.75991e-10C6.42752 -7.61865e-06 5.36944 0.247355 4.40808 0.722855C3.44671 1.19835 2.60797 1.88918 1.95707 2.74161C1.95269 2.74733 1.9461 2.75016 1.94196 2.75616C1.9391 2.76031 1.93894 2.76527 1.93624 2.76946C1.00485 3.9831 0.5 5.47017 0.5 7C0.5 8.52984 1.00485 10.0169 1.93624 11.2305C1.93894 11.2347 1.9391 11.2397 1.94196 11.2438C1.94607 11.2498 1.95264 11.2526 1.95699 11.2583C2.60812 12.1111 3.44723 12.8021 4.40903 13.2776C5.37083 13.7532 6.42938 14.0004 7.50231 14C8.57524 13.9996 9.63363 13.7517 10.5951 13.2756C11.5566 12.7994 12.3952 12.1078 13.0458 11.2546C13.0492 11.2501 13.0548 11.2485 13.058 11.2438C13.0609 11.2397 13.0611 11.2347 13.0638 11.2305C13.9951 10.0169 14.5 8.52983 14.5 7C14.5 5.47016 13.9951 3.98309 13.0638 2.76946C13.0611 2.76527 13.0609 2.76031 13.058 2.75616ZM12.5846 10.4106C12.1248 10.1407 11.6381 9.9197 11.1324 9.75112C11.3053 8.99133 11.4035 8.21642 11.4255 7.4375H13.6028C13.5296 8.5006 13.1785 9.52582 12.5846 10.4106ZM1.39716 7.4375H3.57455C3.59652 8.21642 3.69468 8.99133 3.86761 9.75112C3.36187 9.9197 2.87516 10.1407 2.41542 10.4106C1.82155 9.52582 1.47042 8.5006 1.39716 7.4375ZM2.41542 3.58941C2.87516 3.85928 3.36187 4.08031 3.86761 4.24888C3.69468 5.00868 3.59652 5.78358 3.57455 6.5625H1.39716C1.47042 5.49941 1.82155 4.47419 2.41542 3.58941ZM7.9375 4.79899C8.72673 4.77457 9.51152 4.67106 10.2801 4.49001C10.4359 5.17069 10.5266 5.86465 10.551 6.5625H7.9375V4.79899ZM7.9375 3.92438V0.948168C8.80594 1.20991 9.5691 2.22698 10.0453 3.64886C9.35328 3.80885 8.64736 3.90113 7.9375 3.92438ZM7.0625 0.948168V3.92438C6.35264 3.90113 5.64672 3.80887 4.95474 3.64888C5.4309 2.22699 6.19406 1.20991 7.0625 0.948168ZM7.0625 4.79899V6.5625H4.44899C4.47338 5.86465 4.56409 5.17069 4.71991 4.49001C5.48848 4.67106 6.27327 4.77457 7.0625 4.79899ZM4.44899 7.4375H7.0625V9.20102C6.27327 9.22543 5.48848 9.32895 4.71991 9.51C4.56409 8.82932 4.47338 8.13536 4.44899 7.4375ZM7.0625 10.0756V13.0518C6.19406 12.7901 5.4309 11.773 4.95474 10.3511C5.64672 10.1911 6.35264 10.0989 7.0625 10.0756ZM7.9375 13.0518V10.0756C8.64736 10.0989 9.35328 10.1911 10.0453 10.3511C9.5691 11.773 8.80594 12.7901 7.9375 13.0518ZM7.9375 9.201V7.4375H10.551C10.5266 8.13536 10.4359 8.82932 10.2801 9.51C9.51152 9.32895 8.72673 9.22542 7.9375 9.201ZM11.4255 6.5625C11.4035 5.78358 11.3053 5.00868 11.1324 4.24888C11.6381 4.08031 12.1248 3.85928 12.5846 3.58941C13.1785 4.47419 13.5296 5.49941 13.6028 6.5625H11.4255ZM12.0371 2.89991C11.6719 3.10471 11.2887 3.27557 10.8923 3.41036C10.6592 2.66647 10.3029 1.96699 9.83821 1.34107C10.6775 1.69148 11.4286 2.22391 12.0371 2.89991ZM5.1618 1.34107C4.69711 1.96699 4.34078 2.66647 4.10767 3.41036C3.71127 3.27557 3.32806 3.10471 2.96287 2.89991C3.57141 2.22391 4.32246 1.69149 5.1618 1.34107ZM2.96289 11.1001C3.32808 10.8953 3.71129 10.7244 4.10769 10.5897C4.3408 11.3335 4.69713 12.033 5.16182 12.6589C4.32248 12.3085 3.57143 11.7761 2.96289 11.1001ZM9.8382 12.6589C10.3029 12.033 10.6592 11.3335 10.8923 10.5897C11.2887 10.7244 11.6719 10.8953 12.0371 11.1001C11.4286 11.7761 10.6775 12.3085 9.8382 12.6589Z" fill="white"/>
</svg>
