<svg width="131" height="70" viewBox="0 0 131 70" fill="none" xmlns="http://www.w3.org/2000/svg">
<g clip-path="url(#clip0_1_26417)">
<path d="M33.8801 66.71C33.3401 64.67 32.4701 61.91 31.2401 59.12C29.6201 55.38 27.3501 51.77 24.5901 49.46C15.7301 51.3 9.59012 51.81 9.49012 51.87L8.93012 45.64C8.93012 45.64 10.7201 45.47 13.7201 45.03C6.94012 42.1 1.13012 36.98 0.870117 29.33C0.890117 23.83 4.29012 18.35 11.2201 13.11C22.2401 4.89 43.3101 0.08 59.8501 0C65.8701 0.01 71.2701 0.65 75.5401 2.3C79.7101 3.82 83.4401 7.1 83.4201 11.93C83.3801 15.72 81.3601 19.37 77.7501 23.43C67.9301 34.21 53.7401 40.97 40.8401 45.17V69.46L34.6501 70C34.6501 70 34.4301 68.75 33.8801 66.71ZM34.5901 51.93V47.04C33.6201 47.3 32.6701 47.56 31.7301 47.8C32.8101 49.1 33.7501 50.51 34.5901 51.93ZM15.0001 18.1C8.86012 22.77 7.12012 26.64 7.14012 29.33C6.81012 34.02 13.4901 39.29 21.3201 40.97C22.9801 41.37 24.4901 41.99 25.8701 42.77C28.2901 42.22 30.8801 41.57 33.5701 40.82C33.9001 40.73 34.2401 40.63 34.5801 40.53L34.3201 4.24L40.5801 4.41L40.8401 38.55C52.6001 34.51 64.9901 28.3 73.1001 19.23C76.2501 15.75 77.2101 13.17 77.1601 11.91C77.1501 10.57 76.4301 9.45 73.2701 8.11C70.2101 6.9 65.3901 6.23 59.8501 6.24H59.4701C44.2801 6.24 23.7101 11.32 15.0001 18.09V18.1Z" fill="#333333"/>
<path d="M5.12997 43.8C2.07997 44.01 -0.210026 46.66 0.00997426 49.71C0.229974 52.76 2.86997 55.05 5.91997 54.83C8.96997 54.62 11.26 51.97 11.04 48.92C10.82 45.87 8.17997 43.58 5.13997 43.8H5.12997ZM3.96997 49.64C3.05997 49.71 2.26997 49.02 2.19997 48.11C2.12997 47.18 2.81997 46.4 3.73997 46.33C4.64997 46.27 5.43997 46.96 5.50997 47.86C5.56997 48.78 4.88997 49.57 3.96997 49.64Z" fill="#333333"/>
<path d="M47.71 54.8701H46.24V47.8301H49.45C50.82 47.8301 51.64 48.7001 51.64 50.0801C51.64 50.7101 51.29 52.3401 49.39 52.3401H47.7V54.8701H47.71ZM49.08 51.1101C50.18 51.1101 50.18 50.3201 50.18 50.0101C50.18 49.3101 49.8 49.0301 48.89 49.0301H47.72V51.1101H49.09H49.08Z" fill="#333333"/>
<path d="M52.96 53.4399H51.49V54.8699H52.96V53.4399Z" fill="#333333"/>
<path d="M61.1 54.8701H59.72V48.9801H59.7L58.39 54.8701H56.95L55.66 48.9801H55.64V54.8701H54.27V47.8201H56.41L57.69 53.3701H57.71L58.97 47.8201H61.1V54.8701Z" fill="#333333"/>
<path d="M63.8599 53.4399H62.3799V54.8699H63.8599V53.4399Z" fill="#333333"/>
<path d="M66.2299 54.8701H64.6799L67.1899 47.8201H68.8899L71.3799 54.8701H69.7799L69.3299 53.4201H66.7299L66.2399 54.8701H66.2299ZM67.1199 52.2001H68.9099L68.0399 49.4101H68.0199L67.1199 52.2001Z" fill="#333333"/>
<path d="M73.6599 53.4399H72.1899V54.8699H73.6599V53.4399Z" fill="#333333"/>
<path d="M78.0299 54.8701H76.5599V49.0601H74.4299V47.8201H80.1599V49.0601H78.0299V54.8701Z" fill="#333333"/>
<path d="M80.1299 49.64H81.4499V50.55H81.4699C81.7499 50.01 82.0699 49.51 82.8999 49.51C82.9899 49.51 83.0799 49.51 83.1699 49.54V50.92C83.0499 50.9 82.8999 50.9 82.7799 50.9C81.7099 50.9 81.5099 51.57 81.5099 52.16V54.87H80.1299V49.64Z" fill="#333333"/>
<path d="M86.91 54.7899C86.26 56.7299 86.09 56.9799 84.88 56.9799C84.7 56.9799 84.46 56.9799 84.26 56.9599V55.8599C84.32 55.8599 84.41 55.8799 84.52 55.8799C85.02 55.8799 85.3 55.8199 85.42 55.0999L83.5 49.6399H85.03L86.15 53.4999H86.17L87.24 49.6399H88.69L86.9 54.7899H86.91Z" fill="#333333"/>
<path d="M93.4401 53.85C93.4401 54.47 93.5801 54.6 93.7401 54.67V54.87H92.2501C92.1701 54.63 92.1501 54.55 92.1201 54.26C91.8101 54.58 91.3601 55.01 90.4301 55.01C89.6501 55.01 88.8501 54.56 88.8501 53.48C88.8501 52.4 89.5001 51.94 90.3701 51.81L91.6001 51.62C91.8201 51.59 92.0901 51.5 92.0901 51.21C92.0901 50.63 91.5401 50.6 91.1801 50.6C90.4901 50.6 90.3801 51.03 90.3401 51.33H89.0201C89.1801 49.73 90.2801 49.51 91.3501 49.51C92.0901 49.51 93.4401 49.73 93.4401 51.02V53.85ZM92.1001 52.33C91.9601 52.44 91.7401 52.52 91.1601 52.61C90.6501 52.7 90.2301 52.83 90.2301 53.4C90.2301 53.88 90.6001 54.02 90.8701 54.02C91.4801 54.02 92.1001 53.64 92.1001 52.99V52.33Z" fill="#333333"/>
<path d="M99.3799 54.87H98.0099V51.7C98.0099 51.32 97.9999 50.67 97.1199 50.67C96.5099 50.67 96.0399 51.08 96.0399 51.88V54.87H94.6699V49.64H95.9799V50.41H95.9999C96.1899 50.1 96.5799 49.51 97.5699 49.51C98.5599 49.51 99.3799 50.11 99.3799 51.26V54.87Z" fill="#333333"/>
<path d="M105.45 49.64V54.59C105.45 55.5 105.38 57 102.8 57C101.72 57 100.58 56.54 100.53 55.42H102.02C102.08 55.69 102.18 55.96 102.98 55.96C103.71 55.96 104.06 55.61 104.06 54.76V54.1C103.82 54.51 103.48 54.89 102.65 54.89C101.39 54.89 100.4 54.02 100.4 52.19C100.4 50.36 101.43 49.5 102.57 49.5C103.55 49.5 103.93 50.07 104.1 50.42H104.12V49.64H105.44H105.45ZM102.91 53.75C103.84 53.75 104.08 52.95 104.08 52.23C104.08 51.38 103.67 50.7 102.9 50.7C102.39 50.7 101.83 51.07 101.83 52.3C101.83 52.96 102.1 53.75 102.92 53.75" fill="#333333"/>
<path d="M108.06 47.8201H106.69V54.8701H108.06V47.8201Z" fill="#333333"/>
<path d="M113.87 53.34C113.5 54.59 112.46 55.01 111.57 55.01C110.1 55.01 108.97 54.3 108.97 52.16C108.97 51.52 109.19 49.51 111.48 49.51C112.51 49.51 113.93 50 113.93 52.39V52.64H110.35C110.39 53.03 110.47 53.92 111.57 53.92C111.95 53.92 112.35 53.72 112.45 53.35H113.87V53.34ZM112.51 51.73C112.43 50.89 111.89 50.63 111.45 50.63C110.8 50.63 110.46 51.04 110.38 51.73H112.51Z" fill="#333333"/>
<path d="M116.39 54.68C116.39 55.89 115.76 56.3299 114.93 56.5299H114.92V56.0099C115.29 55.8899 115.7 55.71 115.74 54.88H114.92V53.45H116.39V54.68Z" fill="#333333"/>
<path d="M119.11 47.8201H117.64V54.8701H119.11V47.8201Z" fill="#333333"/>
<path d="M125.1 54.87H123.72V51.7C123.72 51.32 123.71 50.67 122.83 50.67C122.22 50.67 121.75 51.08 121.75 51.88V54.87H120.38V49.64H121.69V50.41H121.71C121.9 50.1 122.29 49.51 123.29 49.51C124.29 49.51 125.1 50.11 125.1 51.26V54.87Z" fill="#333333"/>
<path d="M130.86 52.97C130.81 53.5 130.39 55.01 128.47 55.01C126.55 55.01 126.06 53.5 126.06 52.41C126.06 50.71 126.79 49.51 128.56 49.51C129.39 49.51 130.74 49.88 130.87 51.52H129.48C129.41 51.18 129.2 50.64 128.56 50.68C127.7 50.68 127.47 51.54 127.47 52.19C127.47 52.77 127.5 53.9 128.54 53.9C129.23 53.9 129.47 53.22 129.47 52.99H130.86V52.97Z" fill="#333333"/>
<path d="M46.26 61.75V58.01H47.37C47.76 58.01 48.04 58.09 48.2 58.24C48.37 58.39 48.45 58.64 48.45 58.99C48.45 59.4 48.34 59.72 48.12 59.94C47.9 60.16 47.58 60.28 47.19 60.28H46.91V61.74H46.26V61.75ZM46.91 59.77H47.04C47.27 59.77 47.44 59.71 47.58 59.59C47.71 59.46 47.78 59.29 47.78 59.08C47.78 58.7 47.57 58.52 47.18 58.52H46.92V59.77H46.91Z" fill="#333333"/>
<path d="M50.31 61.8399C49.83 61.8399 49.44 61.6699 49.15 61.3099C48.86 60.9499 48.71 60.4699 48.71 59.8799C48.71 59.2899 48.86 58.7999 49.15 58.4399C49.44 58.0799 49.83 57.9099 50.33 57.9099C50.83 57.9099 51.22 58.0799 51.51 58.4399C51.81 58.7999 51.95 59.2799 51.95 59.8699C51.95 60.4599 51.8 60.9599 51.51 61.3099C51.22 61.6699 50.82 61.8399 50.31 61.8399ZM50.32 61.3399C50.6 61.3399 50.83 61.1999 50.99 60.9499C51.16 60.6799 51.25 60.3299 51.25 59.8799C51.25 59.4299 51.16 59.0899 50.99 58.8199C50.82 58.5599 50.6 58.4399 50.33 58.4399C50.06 58.4399 49.83 58.5699 49.67 58.8199C49.5 59.0999 49.42 59.4499 49.42 59.8899C49.42 60.3299 49.5 60.6799 49.67 60.9399C49.83 61.2099 50.05 61.3399 50.32 61.3399Z" fill="#333333"/>
<path d="M52.26 61.7199V61.0699C52.61 61.2399 52.9 61.3399 53.14 61.3399C53.31 61.3399 53.45 61.2799 53.54 61.1999C53.64 61.0999 53.69 60.9899 53.69 60.8299C53.69 60.7099 53.66 60.6099 53.6 60.5099C53.54 60.4399 53.42 60.3399 53.25 60.2099L53.04 60.0699C52.76 59.8899 52.55 59.6999 52.44 59.5299C52.32 59.3599 52.26 59.1599 52.26 58.9199C52.26 58.5999 52.36 58.3599 52.55 58.1799C52.75 57.9999 53 57.8999 53.32 57.8999C53.57 57.8999 53.86 57.9399 54.18 58.0299V58.6399C53.85 58.4899 53.6 58.4299 53.41 58.4299C53.26 58.4299 53.14 58.4699 53.06 58.5499C52.97 58.6199 52.92 58.7299 52.92 58.8499C52.92 58.9499 52.95 59.0499 53.01 59.1199C53.07 59.1999 53.19 59.2999 53.36 59.4099L53.59 59.5599C53.9 59.7699 54.11 59.9399 54.22 60.1199C54.34 60.2899 54.39 60.4999 54.39 60.7499C54.39 61.0899 54.28 61.3599 54.06 61.5699C53.84 61.7699 53.54 61.8599 53.15 61.8599C52.89 61.8599 52.6 61.8199 52.26 61.7399" fill="#333333"/>
<path d="M55.42 58.01H54.76V61.75H55.42V58.01Z" fill="#333333"/>
<path d="M57.11 61.75V58.51H55.97V58.01H58.92V58.51H57.78V61.75H57.11Z" fill="#333333"/>
<path d="M60.12 58.01H59.46V61.75H60.12V58.01Z" fill="#333333"/>
<path d="M61.8599 61.75L60.6799 58.01H61.3899L62.2999 60.91L63.1899 58.01H63.6699L62.5299 61.75H61.8599Z" fill="#333333"/>
<path d="M63.9399 61.75V58.01H65.9299V58.51H64.5999V59.56H65.6999V60.08H64.5999V61.23H66.0399V61.75H63.9399Z" fill="#333333"/>
<path d="M66.72 61.8999L68.03 57.8799H68.35L67.03 61.8999H66.72Z" fill="#333333"/>
<path d="M69.02 61.75V58.01H69.9L70.67 60.65L71.45 58.01H72.22V61.75H71.61V58.93L70.84 61.5H70.3L69.54 58.88V61.75H69.02Z" fill="#333333"/>
<path d="M72.8201 61.75V58.01H74.8201V58.51H73.4901V59.56H74.5801V60.08H73.4901V61.23H74.9201V61.75H72.8201Z" fill="#333333"/>
<path d="M75.3501 61.75V58.01H75.9301L77.4101 60.57V58.01H77.9401V61.75H77.3501L75.8801 59.2V61.75H75.3501Z" fill="#333333"/>
<path d="M79.63 61.75V58.51H78.49V58.01H81.44V58.51H80.3V61.75H79.63Z" fill="#333333"/>
<path d="M81.02 61.75L82.26 58.01H82.93L84.17 61.75H83.49L83.15 60.76H81.83L81.5 61.75H81.02ZM82 60.26H82.99L82.5 58.76L82 60.26Z" fill="#333333"/>
<path d="M84.53 61.75V58.01H85.19V61.23H86.63V61.75H84.53Z" fill="#333333"/>
<path d="M87.3101 61.8999L88.6301 57.8799H88.9501L87.6301 61.8999H87.3101Z" fill="#333333"/>
<path d="M88.79 61.75L90.03 58.01H90.7L91.93 61.75H91.25L90.91 60.76H89.59L89.26 61.75H88.78H88.79ZM89.77 60.26H90.76L90.27 58.76L89.78 60.26H89.77Z" fill="#333333"/>
<path d="M92.5799 61.75V58.51H91.4299V58.01H94.3899V58.51H93.2399V61.75H92.5799Z" fill="#333333"/>
<path d="M95.88 61.75V58.51H94.74V58.01H97.69V58.51H96.55V61.75H95.88Z" fill="#333333"/>
<path d="M98.9 58.01H98.24V61.75H98.9V58.01Z" fill="#333333"/>
<path d="M100.59 61.75V58.51H99.45V58.01H102.39V58.51H101.26V61.75H100.59Z" fill="#333333"/>
<path d="M102.93 58.01H103.59V60.31C103.59 60.68 103.64 60.94 103.75 61.1C103.85 61.26 104.01 61.34 104.24 61.34C104.45 61.34 104.61 61.26 104.71 61.11C104.81 60.96 104.85 60.71 104.85 60.37V58.02H105.43V60.32C105.43 60.66 105.4 60.93 105.34 61.11C105.29 61.29 105.18 61.45 105.04 61.58C104.84 61.77 104.57 61.86 104.22 61.86C103.86 61.86 103.56 61.76 103.34 61.57C103.18 61.43 103.07 61.28 103.01 61.09C102.95 60.9 102.92 60.64 102.92 60.32V58.02L102.93 58.01Z" fill="#333333"/>
<path d="M106.02 61.75V58.01H107.39C107.89 58.01 108.26 58.17 108.52 58.48C108.78 58.78 108.91 59.22 108.91 59.81C108.91 60.4 108.77 60.9 108.49 61.24C108.2 61.58 107.82 61.75 107.32 61.75H106.01H106.02ZM106.67 61.23H107.17C107.52 61.23 107.78 61.11 107.95 60.88C108.12 60.65 108.21 60.31 108.21 59.85C108.21 59.49 108.14 59.19 108 58.95C107.9 58.79 107.79 58.68 107.66 58.61C107.53 58.54 107.33 58.51 107.08 58.51H106.68V61.22L106.67 61.23Z" fill="#333333"/>
<path d="M109.42 61.75V58.01H111.41V58.51H110.08V59.56H111.17V60.08H110.08V61.23H111.51V61.75H109.42Z" fill="#333333"/>
</g>
<defs>
<clipPath id="clip0_1_26417">
<rect width="130.88" height="70" fill="white"/>
</clipPath>
</defs>
</svg>
