<svg xmlns="http://www.w3.org/2000/svg" width="130.876" height="70"><g fill="#fff" data-name="グループ 59"><path d="M33.882 66.71a52.847 52.847 0 0 0-2.638-7.592A26.393 26.393 0 0 0 24.6 49.46c-8.858 1.839-15 2.352-15.1 2.406l-.56-6.226c.008-.013 1.786-.169 4.79-.608C6.951 42.106 1.137 36.98.884 29.332c.022-5.5 3.421-10.984 10.347-16.218C22.243 4.892 43.309.085 59.855 0c6.02.013 11.418.648 15.685 2.3 4.167 1.52 7.9 4.8 7.879 9.625-.045 3.79-2.058 7.437-5.67 11.5-9.821 10.778-24.006 17.538-36.9 21.745l.014 24.292-6.212.538c-.009 0-.221-1.247-.769-3.29Zm.709-14.775v-4.887c-.968.264-1.922.523-2.857.76a31.947 31.947 0 0 1 2.858 4.127ZM15.005 18.1c-6.144 4.671-7.885 8.54-7.863 11.233-.328 4.693 6.355 9.957 14.184 11.64a17.394 17.394 0 0 1 4.553 1.8c2.421-.55 5.007-1.2 7.7-1.954a37.73 37.73 0 0 0 1.01-.289l-.262-36.287 6.256.173.26 34.143C52.6 34.518 64.988 28.309 73.1 19.24c3.153-3.477 4.108-6.065 4.064-7.317-.014-1.344-.73-2.46-3.9-3.8-3.059-1.21-7.877-1.884-13.415-1.871h-.377c-15.188 0-35.756 5.084-44.473 11.846Z" data-name="パス 26"/><path d="M5.134 43.8a5.53 5.53 0 1 0 5.9 5.122 5.526 5.526 0 0 0-5.9-5.122Zm-1.161 5.84a1.659 1.659 0 1 1 1.537-1.777 1.652 1.652 0 0 1-1.537 1.777Z" data-name="パス 27"/><path d="M47.712 54.867h-1.468v-7.045h3.214a2.056 2.056 0 0 1 2.19 2.254 2.17 2.17 0 0 1-2.245 2.26h-1.691Zm1.368-3.758c1.1 0 1.1-.792 1.1-1.1 0-.7-.383-.979-1.3-.979h-1.168v2.077Z" data-name="パス 28"/><path d="M51.487 53.44h1.473v1.427h-1.473z" data-name="長方形 55"/><path d="M61.1 54.867h-1.381v-5.89H59.7l-1.312 5.89h-1.443l-1.285-5.89h-.02v5.89h-1.374v-7.045h2.146l1.277 5.547h.021l1.257-5.547H61.1Z" data-name="パス 29"/><path d="M62.384 53.44h1.476v1.427h-1.476z" data-name="長方形 56"/><path d="M66.234 54.87h-1.553l2.513-7.051h1.7l2.488 7.051h-1.6l-.451-1.448h-2.6Zm.883-2.674h1.8l-.87-2.787h-.024Z" data-name="パス 30"/><path d="M72.195 53.44h1.468v1.427h-1.468z" data-name="長方形 57"/><path d="M78.03 54.867h-1.472v-5.8h-2.127v-1.245h5.73v1.241h-2.13Z" data-name="パス 31"/><path d="M80.13 49.64h1.316v.908h.02A1.52 1.52 0 0 1 82.9 49.5a1.017 1.017 0 0 1 .265.03v1.384a2 2 0 0 0-.391-.025 1.117 1.117 0 0 0-1.265 1.265v2.708H80.13Z" data-name="パス 32"/><path d="M86.91 54.786c-.652 1.94-.822 2.188-2.026 2.188-.183 0-.421-.007-.615-.02v-1.1a2.157 2.157 0 0 0 .262.02c.5 0 .778-.064.9-.784l-1.923-5.455h1.532l1.118 3.857h.017l1.071-3.857H88.7Z" data-name="パス 33"/><path d="M93.444 53.851c0 .622.138.754.3.818v.2h-1.486a2.061 2.061 0 0 1-.125-.611 2.146 2.146 0 0 1-1.7.754 1.467 1.467 0 0 1-1.583-1.526 1.591 1.591 0 0 1 1.523-1.668l1.23-.187c.218-.034.488-.119.488-.412 0-.584-.553-.614-.908-.614a.744.744 0 0 0-.845.727h-1.321c.156-1.6 1.261-1.825 2.331-1.825.743 0 2.086.221 2.086 1.512ZM92.1 52.332a2 2 0 0 1-.936.278c-.51.086-.93.222-.93.792a.591.591 0 0 0 .638.619 1.134 1.134 0 0 0 1.228-1.033Z" data-name="パス 34"/><path d="M99.382 54.867H98.01V51.7c0-.384-.014-1.033-.891-1.033a1.068 1.068 0 0 0-1.082 1.206v2.994h-1.372V49.64h1.312v.769H96a1.815 1.815 0 0 1 3.384.849Z" data-name="パス 35"/><path d="M105.451 49.64v4.96c0 .911-.074 2.41-2.646 2.41-1.079 0-2.216-.462-2.274-1.577h1.49c.06.272.165.537.963.537.734 0 1.084-.35 1.084-1.2v-.64l-.014-.021a1.4 1.4 0 0 1-1.393.786c-1.26 0-2.253-.87-2.253-2.7 0-1.81 1.026-2.694 2.17-2.694a1.571 1.571 0 0 1 1.534.917h.021v-.778Zm-2.537 4.106c.933 0 1.168-.8 1.168-1.52 0-.846-.411-1.532-1.179-1.532-.511 0-1.075.37-1.075 1.6 0 .656.274 1.455 1.086 1.455" data-name="パス 36"/><path d="M106.688 47.819h1.374v7.049h-1.374z" data-name="長方形 58"/><path d="M113.867 53.338a2.276 2.276 0 0 1-2.3 1.669c-1.47 0-2.605-.707-2.605-2.852a2.437 2.437 0 0 1 2.51-2.654c1.03 0 2.453.493 2.453 2.882v.248h-3.582c.04.394.119 1.278 1.224 1.278a.884.884 0 0 0 .882-.571Zm-1.36-1.6a1.058 1.058 0 0 0-1.06-1.1c-.646 0-.989.411-1.068 1.1Z" data-name="パス 37"/><path d="M116.388 54.677a1.668 1.668 0 0 1-1.462 1.845h-.012V56a1.049 1.049 0 0 0 .822-1.132h-.822v-1.425h1.474Z" data-name="パス 38"/><path d="M117.639 47.819h1.474v7.049h-1.474z" data-name="長方形 59"/><path d="M125.1 54.867h-1.376V51.7c0-.384-.014-1.033-.892-1.033a1.068 1.068 0 0 0-1.081 1.206v2.994h-1.372V49.64h1.311v.769h.021a1.691 1.691 0 0 1 1.576-.9 1.669 1.669 0 0 1 1.813 1.753Z" data-name="パス 39"/><path d="M130.865 52.971a2.235 2.235 0 0 1-2.387 2.039 2.314 2.314 0 0 1-2.411-2.6c0-1.695.733-2.9 2.5-2.9a2.137 2.137 0 0 1 2.309 2.005h-1.39a.892.892 0 0 0-.919-.843c-.861 0-1.094.863-1.094 1.513 0 .576.028 1.705 1.066 1.705a.97.97 0 0 0 .933-.914Z" data-name="パス 40"/><path d="M46.258 61.749v-3.741h1.109a1.185 1.185 0 0 1 .829.234.964.964 0 0 1 .246.754 1.311 1.311 0 0 1-.326.955 1.261 1.261 0 0 1-.932.337h-.276v1.461Zm.65-1.975h.129a.767.767 0 0 0 .535-.183.684.684 0 0 0 .2-.51c0-.377-.206-.561-.6-.561h-.259Z" data-name="パス 41"/><path d="M50.31 61.844a1.408 1.408 0 0 1-1.159-.527 2.583 2.583 0 0 1 0-2.875 1.579 1.579 0 0 1 2.355 0 2.563 2.563 0 0 1 0 2.875 1.438 1.438 0 0 1-1.2.527m.013-.506a.771.771 0 0 0 .672-.391 1.981 1.981 0 0 0 .255-1.07A2.021 2.021 0 0 0 51 58.813a.761.761 0 0 0-.665-.384.746.746 0 0 0-.657.384 2.039 2.039 0 0 0-.255 1.07 1.938 1.938 0 0 0 .252 1.054.736.736 0 0 0 .653.4" data-name="パス 42"/><path d="M52.26 61.725v-.649a2.113 2.113 0 0 0 .884.265.626.626 0 0 0 .4-.135.507.507 0 0 0 .15-.371.571.571 0 0 0-.091-.316 2.392 2.392 0 0 0-.354-.3l-.213-.136a2.165 2.165 0 0 1-.6-.54 1.043 1.043 0 0 1-.18-.606.969.969 0 0 1 .292-.744 1.078 1.078 0 0 1 .766-.285 3.367 3.367 0 0 1 .859.129v.6a1.96 1.96 0 0 0-.772-.214.5.5 0 0 0-.352.115.37.37 0 0 0-.136.3.414.414 0 0 0 .094.272 1.524 1.524 0 0 0 .348.286l.23.149a2.323 2.323 0 0 1 .633.557 1.084 1.084 0 0 1 .174.633 1.048 1.048 0 0 1-.326.815 1.309 1.309 0 0 1-.909.292 4.059 4.059 0 0 1-.895-.122" data-name="パス 43"/><path d="M54.761 58.011h.664v3.742h-.664z" data-name="長方形 60"/><path d="M57.11 61.752v-3.238h-1.138v-.506h2.952v.506h-1.146v3.238Z" data-name="パス 44"/><path d="M59.464 58.011h.663v3.742h-.663z" data-name="長方形 61"/><path d="m61.861 61.752-1.18-3.744h.709l.913 2.9.884-2.9h.482l-1.143 3.744Z" data-name="パス 45"/><path d="M63.939 61.752v-3.744h1.994v.506H64.6v1.05h1.1v.514h-1.1v1.155h1.431v.519Z" data-name="パス 46"/><path d="m66.716 61.9 1.316-4.014h.323L67.033 61.9Z" data-name="パス 47"/><path d="M69.018 61.752v-3.744h.88l.767 2.64.789-2.64h.771v3.744h-.611v-2.824l-.779 2.572H70.3l-.765-2.616v2.868Z" data-name="パス 48"/><path d="M72.823 61.752v-3.744h1.995v.506h-1.332v1.05h1.095v.514h-1.095v1.155h1.434v.519Z" data-name="パス 49"/><path d="M75.348 61.752v-3.744h.584l1.478 2.561v-2.561h.53v3.744h-.6L75.879 59.2v2.552Z" data-name="パス 50"/><path d="M79.63 61.752v-3.238h-1.138v-.506h2.946v.506H80.3v3.238Z" data-name="パス 51"/><path d="m81.023 61.752 1.238-3.741h.666l1.24 3.741h-.676l-.336-.989h-1.323l-.326.989Zm.976-1.495h.993l-.493-1.5Z" data-name="パス 52"/><path d="M84.531 61.752v-3.744h.66v3.225h1.44v.519Z" data-name="パス 53"/><path d="m87.311 61.9 1.315-4.014h.319L87.627 61.9Z" data-name="パス 54"/><path d="m88.793 61.752 1.24-3.741h.67l1.233 3.741h-.676l-.336-.989h-1.316l-.332.989Zm.98-1.495h.988l-.494-1.5Z" data-name="パス 55"/><path d="M92.579 61.752v-3.238h-1.144v-.506h2.952v.506h-1.142v3.238Z" data-name="パス 56"/><path d="M95.882 61.752v-3.238H94.74v-.506h2.95v.506h-1.142v3.238Z" data-name="パス 57"/><path d="M98.237 58.011h.664v3.742h-.664z" data-name="長方形 62"/><path d="M100.589 61.752v-3.238h-1.142v-.506h2.945v.506h-1.132v3.238Z" data-name="パス 58"/><path d="M102.931 58.008h.659v2.3a1.54 1.54 0 0 0 .155.792.55.55 0 0 0 .5.242.523.523 0 0 0 .471-.235 1.438 1.438 0 0 0 .141-.744v-2.355h.581v2.3a2.509 2.509 0 0 1-.091.792.979.979 0 0 1-.3.469 1.154 1.154 0 0 1-.817.279 1.3 1.3 0 0 1-.88-.292 1.082 1.082 0 0 1-.327-.48 2.746 2.746 0 0 1-.088-.775Z" data-name="パス 59"/><path d="M106.015 61.749v-3.741h1.368a1.389 1.389 0 0 1 1.134.469 1.947 1.947 0 0 1 .4 1.332 2.212 2.212 0 0 1-.415 1.433 1.428 1.428 0 0 1-1.175.507Zm.657-.52h.5a.909.909 0 0 0 .782-.35 1.711 1.711 0 0 0 .258-1.027 1.756 1.756 0 0 0-.211-.9.836.836 0 0 0-.341-.336 1.293 1.293 0 0 0-.583-.1h-.4Z" data-name="パス 60"/><path d="M109.418 61.752v-3.744h2v.506h-1.332v1.05h1.091v.514h-1.091v1.155h1.432v.519Z" data-name="パス 61"/></g></svg>