<?xml version="1.0" encoding="UTF-8"?>
<svg id="_レイヤー_1" data-name=" レイヤー 1" xmlns="http://www.w3.org/2000/svg" version="1.1" viewBox="0 0 130.9 70">
  <defs>
    <style>
      .cls-1 {
        fill: #231815;
      }

      .cls-1, .cls-2, .cls-3 {
        stroke-width: 0px;
      }

      .cls-2 {
        fill: #163c7a;
      }

      .cls-3 {
        fill: #dd2724;
      }
    </style>
  </defs>
  <path class="cls-2" d="M33.9,66.7c-.7-2.6-1.6-5.1-2.6-7.6-1.5-3.7-3.7-7-6.6-9.7-8.9,1.8-15,2.4-15.1,2.4l-.6-6.2s1.8-.2,4.8-.6c-6.8-2.9-12.6-8.1-12.8-15.7,0-5.5,3.4-11,10.3-16.2C22.2,4.9,43.3,0,59.9,0s11.4.6,15.7,2.3c4.2,1.5,7.9,4.8,7.9,9.6s-2.1,7.4-5.7,11.5c-9.8,10.8-24,17.5-36.9,21.7v24.3l-6.2.5s-.2-1.2-.8-3.3h0ZM34.6,51.9v-4.9c-1,.3-1.9.5-2.9.8,1.1,1.3,2,2.7,2.9,4.1h0ZM15,18.1c-6.1,4.7-7.9,8.5-7.9,11.2-.3,4.7,6.4,10,14.2,11.6,1.6.4,3.1,1,4.6,1.8,2.4-.5,5-1.2,7.7-2,.3,0,.7-.2,1-.3l-.3-36.3,6.3.2.3,34.1c11.8-4,24.1-10.3,32.3-19.3,3.2-3.5,4.1-6.1,4.1-7.3s-.7-2.5-3.9-3.8c-3.1-1.2-7.9-1.9-13.4-1.9h-.4c-15.2,0-35.8,5.1-44.5,11.8h0v.2Z"/>
  <path class="cls-3" d="M5.1,43.8c-3,.2-5.3,2.9-5.1,5.9s2.9,5.3,5.9,5.1c3-.2,5.3-2.9,5.1-5.9h0c-.2-3-2.9-5.3-5.9-5.1ZM4,49.6c-.9,0-1.7-.6-1.8-1.5,0-.9.6-1.7,1.5-1.8.9,0,1.7.6,1.8,1.5,0,.9-.6,1.7-1.5,1.8h0Z"/>
  <path class="cls-1" d="M47.7,54.9h-1.5v-7h3.2c1.1,0,2.1.8,2.2,1.9v.3c0,1.2-.9,2.2-2.1,2.3h-1.9v2.5h0ZM49.1,51.1c1.1,0,1.1-.8,1.1-1.1,0-.7-.4-1-1.3-1h-1.2v2.1h1.4Z"/>
  <path class="cls-1" d="M51.5,53.4h1.5v1.4h-1.5v-1.4Z"/>
  <path class="cls-1" d="M61.1,54.9h-1.4v-5.9h0l-1.3,5.9h-1.4l-1.3-5.9h0v5.9h-1.4v-7h2.1l1.3,5.5h0l1.3-5.5h2.1s0,7,0,7Z"/>
  <path class="cls-1" d="M62.4,53.4h1.5v1.4h-1.5v-1.4Z"/>
  <path class="cls-1" d="M66.2,54.9h-1.6l2.5-7.1h1.7l2.5,7.1h-1.6l-.5-1.4h-2.6l-.5,1.4h0ZM67.1,52.2h1.8l-.9-2.8h0l-.9,2.8Z"/>
  <path class="cls-1" d="M72.2,53.4h1.5v1.4h-1.5v-1.4Z"/>
  <path class="cls-1" d="M78,54.9h-1.5v-5.8h-2.1v-1.2h5.7v1.2h-2.1v5.8Z"/>
  <path class="cls-1" d="M80.1,49.6h1.3v.9h0c.2-.6.8-1,1.4-1h.3v1.4h-.4c-.6,0-1.2.3-1.3.9v3h-1.4v-5.2h0Z"/>
  <path class="cls-1" d="M86.9,54.8c-.7,1.9-.8,2.2-2,2.2s-.4,0-.6,0v-1.1h.3c.5,0,.8,0,.9-.8l-1.9-5.5h1.5l1.1,3.9h0l1.1-3.9h1.5l-1.8,5.2h0Z"/>
  <path class="cls-1" d="M93.4,53.9c0,.6,0,.8.3.8v.2h-1.5c0-.2,0-.4,0-.6-.4.5-1,.8-1.7.8s-1.5-.5-1.6-1.3v-.2c0-.9.6-1.6,1.5-1.7h0l1.2-.2c.2,0,.5,0,.5-.4,0-.6-.6-.6-.9-.6s-.8.2-.8.6h-1.3c.2-1.6,1.3-1.8,2.3-1.8s2.1.2,2.1,1.5v2.8h0ZM92.1,52.3c-.3.2-.6.3-.9.3-.5,0-.9.2-.9.8s.2.6.6.6h0c.6,0,1.2-.4,1.2-1h0s0-.7,0-.7Z"/>
  <path class="cls-1" d="M99.4,54.9h-1.4v-3.2c0-.4,0-1-.9-1s-1.1.5-1.1,1v3.2h-1.4v-5.2h1.3v.8h0c.5-.9,1.6-1.2,2.5-.7.5.3.9.9.9,1.5v3.6h0Z"/>
  <path class="cls-1" d="M105.5,49.6v5c0,.9,0,2.4-2.6,2.4s-2.2-.5-2.3-1.6h1.5c0,.3.2.5,1,.5s1.1-.3,1.1-1.2v-.6h0c-.3.5-.8.8-1.4.8-1.3,0-2.3-.9-2.3-2.7s1-2.7,2.2-2.7,1.3.3,1.5.9h0v-.8s1.3,0,1.3,0ZM102.9,53.7c.9,0,1.2-.8,1.2-1.5s-.4-1.5-1.2-1.5-1.1.4-1.1,1.6.3,1.5,1.1,1.5"/>
  <path class="cls-1" d="M106.7,47.8h1.4v7h-1.4v-7Z"/>
  <path class="cls-1" d="M113.9,53.3c-.3,1-1.2,1.7-2.3,1.7s-2.6-.7-2.6-2.9c0-1.3.9-2.5,2.2-2.6h.3c1,0,2.5.5,2.5,2.9v.2h-3.6c0,.4,0,1.3,1.2,1.3s.7-.2.9-.6c0,0,1.4,0,1.4,0ZM112.5,51.7c0-.6-.4-1.1-1-1.1h0c-.6,0-1,.4-1.1,1.1h2.1Z"/>
  <path class="cls-1" d="M116.4,54.7c0,.9-.5,1.7-1.5,1.8h0v-.5c.5,0,.9-.6.8-1.1h-.8v-1.4h1.5v1.2Z"/>
  <path class="cls-1" d="M117.6,47.8h1.5v7h-1.5v-7Z"/>
  <path class="cls-1" d="M125.1,54.9h-1.4v-3.2c0-.4,0-1-.9-1s-1.1.5-1.1,1v3.2h-1.4v-5.2h1.3v.8h0c.3-.6.9-.9,1.6-.9s1.7.6,1.8,1.5v3.8h0Z"/>
  <path class="cls-1" d="M130.9,53c-.1,1.2-1.2,2.1-2.4,2-1.3,0-2.4-.9-2.4-2.2v-.4c0-1.7.7-2.9,2.5-2.9s2.2.8,2.3,2h-1.4c0-.5-.4-.9-.9-.8-.9,0-1.1.9-1.1,1.5s0,1.7,1.1,1.7.9-.4.9-.9h1.4,0Z"/>
  <path class="cls-3" d="M46.3,61.7v-3.7h1.1c.3,0,.6,0,.8.2s.3.5.2.8c0,.3,0,.7-.3,1-.3.2-.6.4-.9.3h-.3v1.5h-.6ZM46.9,59.8h0c.2,0,.4,0,.5-.2,0,0,.2-.3.2-.5,0-.4-.2-.6-.6-.6h-.3v1.3h0Z"/>
  <path class="cls-1" d="M50.3,61.8c-.4,0-.9-.2-1.2-.5-.6-.9-.6-2,0-2.9.6-.7,1.6-.7,2.2,0h0c.6,1,.6,2.1,0,3-.3.4-.7.6-1.2.5M50.3,61.3c.3,0,.5,0,.7-.4.2-.3.3-.7.3-1.1s0-.7-.2-1.1c0-.2-.4-.4-.7-.4s-.5,0-.7.4c-.2.3-.3.7-.3,1.1s0,.7.3,1.1c0,.2.4.4.7.4"/>
  <path class="cls-1" d="M52.3,61.7v-.6c.3.2.6.2.9.3,0,0,.3,0,.4,0,0,0,.2-.2.2-.4v-.3c0,0-.2-.2-.4-.3h-.2c-.2-.3-.4-.5-.6-.7,0-.2-.2-.4-.2-.6,0-.3,0-.5.3-.7.2-.2.5-.3.8-.3s.6,0,.9,0v.6c-.2,0-.5-.2-.8-.2s-.3,0-.4,0c0,0,0,.2,0,.3v.3l.3.3h.2c.2.3.5.5.6.7s.2.4.2.6c0,.3,0,.6-.3.8-.3.2-.6.3-.9.3s-.6,0-.9,0"/>
  <path class="cls-1" d="M54.8,58h.7v3.7h-.7v-3.7Z"/>
  <path class="cls-1" d="M57.1,61.8v-3.2h-1.1v-.5h3v.5h-1.1v3.2h-.8Z"/>
  <path class="cls-1" d="M59.5,58h.7v3.7h-.7v-3.7Z"/>
  <path class="cls-1" d="M61.9,61.8l-1.2-3.7h.7l.9,2.9.9-2.9h.5l-1.1,3.7h-.7Z"/>
  <path class="cls-1" d="M63.9,61.8v-3.7h2v.5h-1.3v1h1.1v.5h-1.1v1.2h1.4v.5h-2.1Z"/>
  <path class="cls-1" d="M66.7,61.9l1.3-4h.3l-1.3,4h-.3Z"/>
  <path class="cls-3" d="M69,61.8v-3.7h.9l.8,2.6.8-2.6h.8v3.7h-.6v-2.8l-.8,2.6h-.5l-.8-2.6v2.9h-.6Z"/>
  <path class="cls-1" d="M72.8,61.8v-3.7h2v.5h-1.3v1h1.1v.5h-1.1v1.2h1.4v.5h-2.1Z"/>
  <path class="cls-1" d="M75.3,61.8v-3.7h.6l1.5,2.6v-2.6h.5v3.7h-.6l-1.5-2.6v2.6h-.5Z"/>
  <path class="cls-1" d="M79.6,61.8v-3.2h-1.1v-.5h2.9v.5h-1.1v3.2h-.7Z"/>
  <path class="cls-1" d="M81,61.8l1.2-3.7h.7l1.2,3.7h-.7l-.3-1h-1.3l-.3,1h-.5,0ZM82,60.3h1l-.5-1.5-.5,1.5Z"/>
  <path class="cls-1" d="M84.5,61.8v-3.7h.7v3.2h1.4v.5h-2.1Z"/>
  <path class="cls-1" d="M87.3,61.9l1.3-4h.3l-1.3,4h-.3Z"/>
  <path class="cls-3" d="M88.8,61.8l1.2-3.7h.7l1.2,3.7h-.7l-.3-1h-1.3l-.3,1h-.5,0ZM89.8,60.3h1l-.5-1.5-.5,1.5Z"/>
  <path class="cls-1" d="M92.6,61.8v-3.2h-1.1v-.5h3v.5h-1.1v3.2h-.8Z"/>
  <path class="cls-1" d="M95.9,61.8v-3.2h-1.1v-.5h2.9v.5h-1.1v3.2h-.7Z"/>
  <path class="cls-1" d="M98.2,58h.7v3.7h-.7v-3.7Z"/>
  <path class="cls-1" d="M100.6,61.8v-3.2h-1.1v-.5h2.9v.5h-1.1v3.2h-.7Z"/>
  <path class="cls-1" d="M102.9,58h.7v2.3c0,.3,0,.5.2.8,0,.2.3.3.5.2.2,0,.4,0,.5-.2s.2-.5,0-.7v-2.4h.6v3.1c0,.2-.2.3-.3.5-.2.2-.5.3-.8.3s-.6,0-.9-.3c-.2,0-.3-.3-.3-.5v-3.1h-.3Z"/>
  <path class="cls-1" d="M106,61.7v-3.7h1.4c.4,0,.8,0,1.1.5.3.4.4.9.4,1.3s0,1-.4,1.4c-.3.3-.7.5-1.2.5h-1.3ZM106.7,61.2h.5c.3,0,.6,0,.8-.3.2-.3.3-.7.3-1s0-.6-.2-.9c0,0-.2-.3-.3-.3-.2,0-.4,0-.6,0h-.4v2.7-.2Z"/>
  <path class="cls-1" d="M109.4,61.8v-3.7h2v.5h-1.3v1h1.1v.5h-1.1v1.2h1.4v.5h-2.1Z"/>
</svg>