<svg width="471" height="256" viewBox="0 0 471 256" fill="none" xmlns="http://www.w3.org/2000/svg">
<path d="M55.6692 1.48049C54.8426 1.48049 54.1959 1.71382 53.7292 2.18049C53.2626 2.63382 52.9159 3.36716 52.6892 4.38049C52.6759 4.40716 52.6292 4.42049 52.5492 4.42049C52.4826 4.42049 52.4492 4.40049 52.4492 4.36049C52.4759 4.18716 52.5026 3.94049 52.5292 3.62049C52.5692 3.30049 52.6026 2.95382 52.6292 2.58049C52.6559 2.20716 52.6759 1.84716 52.6892 1.50049C52.7159 1.15382 52.7292 0.867155 52.7292 0.640489C52.7292 0.573822 52.7692 0.540489 52.8492 0.540489C52.9292 0.540489 52.9692 0.573822 52.9692 0.640489C52.9692 0.773822 53.0359 0.873822 53.1692 0.940489C53.3026 0.993822 53.4559 1.03382 53.6292 1.06049C53.8026 1.07382 53.9492 1.08049 54.0692 1.08049C55.2159 1.12049 56.5559 1.14049 58.0892 1.14049C59.0226 1.14049 59.7692 1.13382 60.3292 1.12049C60.8892 1.09382 61.4292 1.08049 61.9492 1.08049C62.4026 1.08049 62.7492 1.05382 62.9892 1.00049C63.2426 0.933822 63.4026 0.793822 63.4692 0.580488C63.4826 0.527155 63.5226 0.500488 63.5892 0.500488C63.6692 0.500488 63.7092 0.527155 63.7092 0.580488C63.6826 0.780488 63.6559 1.06049 63.6292 1.42049C63.6159 1.78049 63.5959 2.15382 63.5692 2.54049C63.5559 2.92716 63.5426 3.28716 63.5292 3.62049C63.5159 3.95382 63.5092 4.20049 63.5092 4.36049C63.5092 4.40049 63.4692 4.42049 63.3892 4.42049C63.3226 4.42049 63.2892 4.40049 63.2892 4.36049C63.1959 3.32049 62.9292 2.58049 62.4892 2.14049C62.0492 1.70049 61.3959 1.48049 60.5292 1.48049C60.0626 1.48049 59.7092 1.51382 59.4692 1.58049C59.2426 1.63382 59.0892 1.74716 59.0092 1.92049C58.9426 2.09382 58.9092 2.36715 58.9092 2.74049V11.9605C58.9092 12.3472 58.9492 12.6405 59.0292 12.8405C59.1226 13.0405 59.2959 13.1738 59.5492 13.2405C59.8159 13.3072 60.2226 13.3405 60.7692 13.3405C60.7959 13.3405 60.8092 13.3805 60.8092 13.4605C60.8092 13.5405 60.7959 13.5805 60.7692 13.5805C60.4092 13.5805 60.0026 13.5738 59.5492 13.5605C59.1092 13.5472 58.6226 13.5405 58.0892 13.5405C57.5826 13.5405 57.1026 13.5472 56.6492 13.5605C56.2092 13.5738 55.8026 13.5805 55.4292 13.5805C55.3892 13.5805 55.3692 13.5405 55.3692 13.4605C55.3692 13.3805 55.3892 13.3405 55.4292 13.3405C55.9492 13.3405 56.3426 13.3072 56.6092 13.2405C56.8892 13.1738 57.0759 13.0405 57.1692 12.8405C57.2626 12.6405 57.3092 12.3472 57.3092 11.9605V2.70049C57.3092 2.34049 57.2692 2.07382 57.1892 1.90049C57.1092 1.71382 56.9492 1.60049 56.7092 1.56049C56.4692 1.50716 56.1226 1.48049 55.6692 1.48049Z" fill="#333333"/>
<path d="M39.1198 11.3006V1.54057L39.6398 1.58057V11.3006C39.6398 11.9939 39.7665 12.5072 40.0198 12.8406C40.2732 13.1739 40.6732 13.3406 41.2198 13.3406C41.2465 13.3406 41.2598 13.3806 41.2598 13.4606C41.2598 13.5406 41.2465 13.5806 41.2198 13.5806C40.9398 13.5806 40.6532 13.5739 40.3598 13.5606C40.0798 13.5472 39.7598 13.5406 39.3998 13.5406C39.0532 13.5406 38.7132 13.5472 38.3798 13.5606C38.0465 13.5739 37.7332 13.5806 37.4398 13.5806C37.4132 13.5806 37.3998 13.5406 37.3998 13.4606C37.3998 13.3806 37.4132 13.3406 37.4398 13.3406C38.0265 13.3406 38.4532 13.1739 38.7198 12.8406C38.9865 12.5072 39.1198 11.9939 39.1198 11.3006ZM49.2398 13.8406C49.2398 13.8672 49.2065 13.8806 49.1398 13.8806C49.0865 13.8939 49.0465 13.8939 49.0198 13.8806L39.5998 2.72057C39.1332 2.1739 38.7265 1.80723 38.3798 1.62057C38.0465 1.42057 37.7132 1.32057 37.3798 1.32057C37.3532 1.32057 37.3398 1.28057 37.3398 1.20057C37.3398 1.12057 37.3532 1.08057 37.3798 1.08057C37.6332 1.08057 37.8865 1.08723 38.1398 1.10057C38.3932 1.1139 38.6265 1.12057 38.8398 1.12057C39.1598 1.12057 39.4532 1.1139 39.7198 1.10057C39.9865 1.08723 40.1865 1.08057 40.3198 1.08057C40.4932 1.08057 40.6198 1.16057 40.6998 1.32057C40.7798 1.46723 40.9732 1.7339 41.2798 2.12057L49.0798 11.5206L49.2398 13.8406ZM49.2398 3.38057V13.8406L48.7398 13.2206V3.38057C48.7398 2.68723 48.6132 2.1739 48.3598 1.84057C48.1198 1.4939 47.7265 1.32057 47.1798 1.32057C47.1532 1.32057 47.1398 1.28057 47.1398 1.20057C47.1398 1.12057 47.1532 1.08057 47.1798 1.08057C47.4598 1.08057 47.7465 1.0939 48.0398 1.12057C48.3332 1.1339 48.6532 1.14057 48.9998 1.14057C49.3332 1.14057 49.6598 1.1339 49.9798 1.12057C50.2998 1.0939 50.5998 1.08057 50.8798 1.08057C50.9065 1.08057 50.9198 1.12057 50.9198 1.20057C50.9198 1.28057 50.9065 1.32057 50.8798 1.32057C50.3198 1.32057 49.9065 1.4939 49.6398 1.84057C49.3732 2.1739 49.2398 2.68723 49.2398 3.38057Z" fill="#333333"/>
<path d="M33.7414 11.9606C33.7414 12.3472 33.7747 12.6406 33.8414 12.8406C33.9214 13.0406 34.0747 13.1739 34.3014 13.2406C34.5414 13.3072 34.8947 13.3406 35.3614 13.3406C35.3881 13.3406 35.4014 13.3806 35.4014 13.4606C35.4014 13.5406 35.3881 13.5806 35.3614 13.5806C35.0281 13.5806 34.6547 13.5739 34.2414 13.5606C33.8414 13.5472 33.4014 13.5406 32.9214 13.5406C32.4547 13.5406 32.0147 13.5472 31.6014 13.5606C31.1881 13.5739 30.8147 13.5806 30.4814 13.5806C30.4547 13.5806 30.4414 13.5406 30.4414 13.4606C30.4414 13.3806 30.4547 13.3406 30.4814 13.3406C30.9481 13.3406 31.3014 13.3072 31.5414 13.2406C31.7814 13.1739 31.9414 13.0406 32.0214 12.8406C32.1014 12.6406 32.1414 12.3472 32.1414 11.9606V2.70057C32.1414 2.3139 32.1014 2.02723 32.0214 1.84057C31.9414 1.64057 31.7814 1.50723 31.5414 1.44057C31.3014 1.36057 30.9481 1.32057 30.4814 1.32057C30.4547 1.32057 30.4414 1.28057 30.4414 1.20057C30.4414 1.12057 30.4547 1.08057 30.4814 1.08057C30.8147 1.08057 31.1881 1.0939 31.6014 1.12057C32.0147 1.1339 32.4547 1.14057 32.9214 1.14057C33.4014 1.14057 33.8481 1.1339 34.2614 1.12057C34.6747 1.0939 35.0414 1.08057 35.3614 1.08057C35.3881 1.08057 35.4014 1.12057 35.4014 1.20057C35.4014 1.28057 35.3881 1.32057 35.3614 1.32057C34.8947 1.32057 34.5481 1.36057 34.3214 1.44057C34.0947 1.52057 33.9414 1.66057 33.8614 1.86057C33.7814 2.06057 33.7414 2.3539 33.7414 2.74057V11.9606Z" fill="#333333"/>
<path d="M21.1877 13.8204C20.2277 13.8204 19.3543 13.6537 18.5677 13.3204C17.7943 12.9737 17.1277 12.5004 16.5677 11.9004C16.021 11.3004 15.5943 10.6137 15.2877 9.84035C14.9943 9.05369 14.8477 8.22035 14.8477 7.34035C14.8477 6.26035 15.0543 5.31369 15.4677 4.50035C15.8943 3.68702 16.4543 3.01368 17.1477 2.48035C17.841 1.93369 18.601 1.52702 19.4277 1.26035C20.2543 0.993685 21.0743 0.860352 21.8877 0.860352C22.8743 0.860352 23.7543 1.04035 24.5277 1.40035C25.3143 1.74702 25.981 2.22035 26.5277 2.82035C27.0743 3.42035 27.4877 4.10035 27.7677 4.86035C28.061 5.62035 28.2077 6.40035 28.2077 7.20035C28.2077 8.13369 28.021 9.00035 27.6477 9.80035C27.2743 10.6004 26.761 11.3004 26.1077 11.9004C25.4677 12.5004 24.721 12.9737 23.8677 13.3204C23.0277 13.6537 22.1343 13.8204 21.1877 13.8204ZM21.8877 13.3804C22.7277 13.3804 23.4877 13.167 24.1677 12.7404C24.861 12.3004 25.401 11.667 25.7877 10.8404C26.1877 10.0004 26.3877 8.97369 26.3877 7.76035C26.3877 6.52035 26.1677 5.42035 25.7277 4.46035C25.301 3.48702 24.6877 2.72702 23.8877 2.18035C23.101 1.62035 22.161 1.34035 21.0677 1.34035C19.6677 1.34035 18.581 1.81368 17.8077 2.76035C17.0477 3.70702 16.6677 5.00035 16.6677 6.64035C16.6677 7.58702 16.7877 8.47369 17.0277 9.30035C17.281 10.1137 17.641 10.827 18.1077 11.4404C18.5743 12.0537 19.1277 12.5337 19.7677 12.8804C20.4077 13.2137 21.1143 13.3804 21.8877 13.3804Z" fill="#333333"/>
<path d="M6.55297 11.8805C6.55297 12.2805 6.59964 12.5872 6.69297 12.8005C6.79964 13.0005 7.01297 13.1405 7.33297 13.2205C7.65297 13.3005 8.13297 13.3405 8.77297 13.3405C8.81297 13.3405 8.83297 13.3805 8.83297 13.4605C8.83297 13.5405 8.81297 13.5805 8.77297 13.5805C8.3463 13.5805 7.87964 13.5738 7.37297 13.5605C6.87964 13.5472 6.33964 13.5405 5.75297 13.5405C5.31297 13.5405 4.87964 13.5472 4.45297 13.5605C4.03964 13.5738 3.6663 13.5805 3.33297 13.5805C3.3063 13.5805 3.29297 13.5405 3.29297 13.4605C3.29297 13.3805 3.3063 13.3405 3.33297 13.3405C3.79964 13.3405 4.1463 13.3072 4.37297 13.2405C4.61297 13.1738 4.7663 13.0405 4.83297 12.8405C4.91297 12.6405 4.95297 12.3472 4.95297 11.9605L4.95297 2.70051C4.95297 2.31384 4.91297 2.02717 4.83297 1.84051C4.7663 1.64051 4.61297 1.50717 4.37297 1.44051C4.1463 1.36051 3.79964 1.32051 3.33297 1.32051C3.3063 1.32051 3.29297 1.28051 3.29297 1.20051C3.29297 1.12051 3.3063 1.08051 3.33297 1.08051C3.6663 1.08051 4.03964 1.09384 4.45297 1.12051C4.8663 1.13384 5.29297 1.14051 5.73297 1.14051C6.07964 1.14051 6.49964 1.12051 6.99297 1.08051C7.49964 1.04051 8.0063 1.02051 8.51297 1.02051C9.2863 1.02051 9.97964 1.13384 10.593 1.36051C11.2196 1.58717 11.7196 1.94051 12.093 2.42051C12.4663 2.90051 12.6596 3.52717 12.673 4.30051C12.673 4.99384 12.5463 5.59384 12.293 6.10051C12.0396 6.60717 11.693 7.02717 11.253 7.36051C10.8263 7.69384 10.3463 7.94051 9.81297 8.10051C9.29297 8.26051 8.77964 8.34051 8.27297 8.34051C8.11297 8.34051 7.9463 8.33384 7.77297 8.32051C7.61297 8.30717 7.45964 8.28051 7.31297 8.24051C7.25964 8.22717 7.23964 8.18051 7.25297 8.10051C7.27964 8.00717 7.31297 7.96717 7.35297 7.98051C7.47297 8.00717 7.59297 8.02717 7.71297 8.04051C7.8463 8.05384 7.95964 8.06051 8.05297 8.06051C8.55964 8.06051 9.0263 7.94051 9.45297 7.70051C9.87964 7.46051 10.2263 7.09384 10.493 6.60051C10.7596 6.09384 10.893 5.46717 10.893 4.72051C10.893 4.00051 10.7663 3.39384 10.513 2.90051C10.273 2.40717 9.93297 2.02717 9.49297 1.76051C9.05297 1.49384 8.5463 1.36051 7.97297 1.36051C7.59964 1.36051 7.3063 1.38717 7.09297 1.44051C6.89297 1.49384 6.75297 1.62051 6.67297 1.82051C6.59297 2.02051 6.55297 2.32717 6.55297 2.74051L6.55297 11.8805Z" fill="#333333"/>
<path d="M50.0471 72.248C49.7058 72.9733 49.2578 73.4853 48.7031 73.784L44.6071 75.768C44.5218 75.8106 44.4151 75.768 44.2871 75.64C44.1591 75.512 44.1165 75.4053 44.1591 75.32L61.8871 39.416C62.0151 39.1173 61.9085 38.968 61.5671 38.968C54.3991 38.968 49.4498 39.0533 46.7191 39.224C44.0311 39.3946 42.2605 39.7573 41.4071 40.312C40.5965 40.824 39.9565 41.8266 39.4871 43.32C39.4871 43.448 39.4018 43.512 39.2311 43.512C39.1031 43.512 38.9751 43.4906 38.8471 43.448C38.7191 43.3626 38.6765 43.2773 38.7191 43.192L40.9591 33.976C41.0018 33.8906 41.1511 33.8693 41.4071 33.912C41.6631 33.912 41.7698 33.9546 41.7271 34.04C41.6845 34.2106 41.6631 34.424 41.6631 34.68C41.6631 35.1066 41.8551 35.384 42.2391 35.512C42.6658 35.64 43.4978 35.704 44.7351 35.704H63.9351C64.1485 35.704 64.2978 35.8106 64.3831 36.024C64.5111 36.1946 64.5325 36.3653 64.4471 36.536L50.0471 72.248Z" fill="#333333"/>
<path d="M17.732 66.488C14.788 66.488 12.164 65.8266 9.86 64.504C7.556 63.1386 5.74267 61.2613 4.42 58.872C3.14 56.44 2.5 53.6666 2.5 50.552C2.5 47.5226 3.14 44.8346 4.42 42.488C5.74267 40.1413 7.556 38.328 9.86 37.048C12.2067 35.7253 14.852 35.064 17.796 35.064C20.6973 35.064 23.2787 35.7253 25.54 37.048C27.844 38.3706 29.6147 40.2266 30.852 42.616C32.132 44.9626 32.772 47.672 32.772 50.744C32.772 53.816 32.132 56.5466 30.852 58.936C29.572 61.3253 27.78 63.1813 25.476 64.504C23.2147 65.8266 20.6333 66.488 17.732 66.488ZM18.5 65.592C21.7427 65.592 24.1533 64.3546 25.732 61.88C27.3107 59.3626 28.1 55.9066 28.1 51.512C28.1 48.056 27.6093 45.1546 26.628 42.808C25.6467 40.4613 24.324 38.7333 22.66 37.624C20.996 36.472 19.14 35.896 17.092 35.896C13.9347 35.896 11.46 37.2186 9.668 39.864C7.876 42.4666 6.98 45.88 6.98 50.104C6.98 53.0906 7.44933 55.7573 8.388 58.104C9.32667 60.4506 10.6707 62.2853 12.42 63.608C14.1693 64.9306 16.196 65.592 18.5 65.592Z" fill="#333333"/>
<path d="M261.818 45.3043C261.535 49.0949 261.193 52.824 260.819 55.2717C259.729 62.4035 256.593 76.1936 243.814 79.7194V106.906H214.661L215.879 72.8471C215.928 68.2218 214.138 63.5993 212.955 61.0526C212.949 61.0472 212.947 61.0419 212.944 61.0339C212.42 59.9103 212.017 59.1961 211.945 59.0703C211.94 59.0623 211.937 59.0596 211.937 59.0543H211.934C211.934 59.0543 209.813 60.1591 208.106 56.2962C206.803 53.3456 204.719 50.6518 204.984 47.1982C205.187 44.5526 206.977 43.2846 208.999 43.2632C209.875 43.2525 210.794 43.4772 211.648 43.9266C211.806 43.9346 211.964 43.9426 212.116 43.9507C221.66 44.4563 224.681 43.0277 234.658 36.6102C236.896 35.1683 249.707 26.8996 253.508 27.8198C257.309 28.7374 257.456 35.484 258.511 38.2447C259.497 40.8288 259.745 43.6698 261.818 45.3043Z" fill="white" stroke="#333333" stroke-linecap="round" stroke-linejoin="round"/>
<path d="M267.202 94.9488C265.242 100.542 259.704 104.288 253.935 105.609C250.617 106.369 247.217 106.457 243.816 106.214V79.7194C256.595 76.1936 259.731 62.4035 260.821 55.2717C261.195 52.824 261.537 49.0949 261.82 45.3043C259.747 43.6698 259.499 40.8288 258.513 38.2447C257.458 35.484 257.311 28.7374 253.51 27.8198C249.709 26.8996 236.898 35.1683 234.66 36.6102C224.683 43.0277 221.662 44.4562 212.118 43.9507C211.966 43.9426 211.808 43.9346 211.651 43.9266C210.796 43.4772 209.877 43.2524 209.001 43.2632C206.979 43.2846 205.189 44.5526 204.986 47.1982C204.722 50.6518 206.805 53.3456 208.109 56.2962C209.815 60.1591 211.936 59.0516 211.936 59.0516H211.939C211.939 59.0516 211.942 59.0623 211.947 59.0703C212.019 59.1961 212.423 59.9103 212.946 61.0339C212.949 61.0419 212.951 61.0472 212.957 61.0526C214.14 63.5993 215.93 68.2218 215.882 72.8471L214.664 106.906C214.664 106.906 209.986 107.859 206.674 107.65C204.484 107.514 202.379 106.877 200.202 106.7C199.005 106.604 197.883 106.848 196.802 106.141C192.792 103.525 194.352 97.0193 195.255 93.1538C195.853 90.591 196.358 87.8785 195.723 85.3291C195.226 83.3335 194.077 81.6294 193.161 79.8237C191.903 77.3466 191.051 74.4896 191.438 71.6834C191.815 68.9468 193.318 66.5499 193.941 63.8668C194.47 61.5929 194.344 59.2041 194.144 56.8687C193.228 46.0854 191.336 35.2914 196.022 25.0805C200.499 15.3244 209.401 5.5496 221.969 1.93822C238.765 -2.88499 254.741 4.74173 264.195 20.1022C267.961 26.2201 268.976 35.1228 268.268 42.2011C267.691 47.9419 266.954 52.6608 268.316 58.4417C268.73 60.1912 269.208 61.9514 269.214 63.7491C269.227 67.6226 265.902 70.3031 265.012 73.9573C263.252 81.1881 269.801 87.528 267.202 94.9488Z" fill="#333333" stroke="#333333" stroke-linecap="round" stroke-linejoin="round"/>
<path d="M242.08 93.1299C242.55 93.2039 243.244 93.3629 244.135 93.6631C245.527 94.1325 247.369 94.9379 249.53 96.2676C253.852 98.9264 259.452 103.684 265.274 112.049C276.923 128.784 289.465 159.958 294.435 217.615C294.496 218.327 294.178 219.159 293.447 220.106C292.722 221.047 291.636 222.04 290.286 223.055C287.589 225.083 283.918 227.14 280.204 228.984C276.495 230.826 272.765 232.447 269.96 233.607C268.558 234.188 267.388 234.653 266.569 234.973C266.286 235.083 266.045 235.174 265.851 235.249L242.08 93.1299Z" fill="white" stroke="#333333"/>
<path d="M144.469 246.124H144.413C137.14 219.93 131.236 193.184 130.026 166.021C129.516 154.556 129.855 142.349 134.76 131.75C139.49 121.529 148.903 118.332 159.387 116.77C177.957 114.004 196.797 111.358 215.441 113.554C220.322 114.13 225.338 115.106 229.345 117.952C233.966 121.235 236.645 126.566 238.79 131.817C244.017 144.612 247.127 158.167 249.771 171.735C254.558 196.303 257.889 221.158 259.737 246.122C221.315 246.122 182.891 246.122 144.469 246.122V246.124Z" fill="#333333" stroke="#333333" stroke-linecap="round" stroke-linejoin="round"/>
<path d="M241.347 93.0747C245.185 95.2852 248.695 99.2695 251.891 104.616C255.114 110.008 257.996 116.747 260.566 124.349C265.706 139.553 269.58 158.151 272.46 176.206C275.339 194.256 277.222 211.745 278.386 224.723C278.967 231.211 279.369 236.571 279.625 240.308C279.753 242.177 279.845 243.64 279.904 244.635C279.929 245.05 279.949 245.383 279.963 245.631H166.282C163.572 204.55 168.994 153.225 174.101 131.003C177.614 115.714 185.883 106.306 194.175 100.67C202.469 95.033 210.784 93.1725 214.377 92.9927L241.347 93.0747Z" fill="white" stroke="#333333"/>
<path d="M241.479 92.5756L214.37 92.4927C207.019 92.8511 180.702 100.039 173.613 130.891C168.477 153.244 163.028 204.924 165.814 246.132H280.491C280.491 246.132 277.286 184.955 265.503 139.334" fill="#F2F2F2"/>
<path d="M241.479 92.5756L214.37 92.4927C207.019 92.8511 180.702 100.039 173.613 130.891C168.477 153.244 163.028 204.924 165.814 246.132H280.491C280.491 246.132 277.286 184.955 265.503 139.334" stroke="#333333" stroke-linecap="round" stroke-linejoin="round"/>
<path d="M210.521 141.659C209.221 146.843 207.745 152.033 206.497 156.717C202.369 172.223 199.026 186.769 199.116 202.744L199.112 202.793C199.112 202.814 199.113 202.831 199.113 202.84C199.114 202.857 199.117 202.87 199.117 202.875C199.118 202.881 199.119 202.886 199.119 202.889C199.12 202.892 199.12 202.895 199.12 202.897C199.141 203.031 199.149 203.167 199.154 203.329C199.159 203.486 199.161 203.677 199.183 203.872L199.229 204.288L199.646 204.316C200.529 204.375 201.523 204.431 202.4 204.472C222.619 205.405 242.753 204.091 262.388 208.882L263.322 209.114C264.742 209.476 265.499 209.709 266.811 210.01C266.88 210.818 266.541 211.664 265.841 212.571C265.053 213.592 263.867 214.616 262.512 215.645C261.153 216.676 259.685 217.668 258.306 218.666C256.948 219.649 255.685 220.633 254.828 221.602C254.434 222.047 254.065 222.547 253.699 223.044C253.33 223.547 252.962 224.051 252.553 224.535C251.739 225.498 250.787 226.354 249.446 226.858C239.278 230.689 228.16 235.52 217.507 236.565C210.635 237.239 202.988 238.65 195.345 239.741C187.678 240.836 179.98 241.615 172.906 241.057C168.428 240.703 165.112 238.781 162.659 235.846C160.194 232.896 158.584 228.901 157.585 224.398C155.586 215.39 156.063 204.506 156.83 196.345C158.773 175.674 164.301 151.762 171.68 130.981C173.924 124.664 177.398 118.142 181.726 112.539L210.521 141.659Z" fill="white" stroke="#333333"/>
<path d="M211.075 141.508C209.758 146.786 208.246 152.091 206.98 156.845C202.848 172.366 199.517 186.875 199.616 202.805C199.616 202.819 199.611 202.795 199.613 202.808C199.669 203.151 199.643 203.477 199.68 203.817C200.559 203.876 201.55 203.932 202.423 203.972C222.887 204.916 243.449 203.547 263.446 208.629C265.008 209.028 265.735 209.263 267.255 209.6C268.216 214.028 258.469 218.241 255.202 221.932C253.696 223.634 252.521 226.234 249.622 227.325C239.496 231.14 228.293 236.009 217.555 237.063C203.836 238.408 187.131 242.681 172.867 241.554C154.396 240.096 154.797 212.637 156.333 196.297C158.28 175.581 162.941 154.135 170.332 133.32C172.653 126.785 177.365 117.737 181.89 111.991" fill="#F2F2F2"/>
<path d="M211.075 141.508C209.758 146.786 208.246 152.091 206.98 156.845C202.848 172.366 199.517 186.875 199.616 202.805C199.616 202.819 199.611 202.795 199.613 202.808C199.669 203.151 199.643 203.477 199.68 203.817C200.559 203.876 201.55 203.932 202.423 203.972C222.887 204.916 243.449 203.547 263.446 208.629C265.008 209.028 265.735 209.263 267.255 209.6C268.216 214.028 258.469 218.241 255.202 221.932C253.696 223.634 252.521 226.234 249.622 227.325C239.496 231.14 228.293 236.009 217.555 237.063C203.836 238.408 187.131 242.681 172.867 241.554C154.396 240.096 154.797 212.637 156.333 196.297C158.28 175.581 162.941 154.135 170.332 133.32C172.653 126.785 177.365 117.737 181.89 111.991" stroke="#333333" stroke-linecap="round" stroke-linejoin="round"/>
<path d="M241.477 92.5757C244.698 92.4928 284.982 102.161 294.929 217.572Z" fill="#F2F2F2"/>
<path d="M241.477 92.5757C244.698 92.4928 284.982 102.161 294.929 217.572" stroke="#333333" stroke-linecap="round" stroke-linejoin="round"/>
<path d="M251.336 223.11C251.336 223.11 266.877 205.802 280.126 214.456C293.377 223.11 289.555 223.11 289.555 223.11H251.336Z" fill="white" stroke="#333333" stroke-linecap="round" stroke-linejoin="round"/>
<path d="M393.795 149.508H294.572C292.598 149.508 290.878 150.856 290.405 152.774L273.051 223.03H243.321C240.265 223.03 237.789 225.51 237.789 228.57C237.789 231.631 240.265 234.111 243.321 234.111H374.322C375.647 234.111 376.803 233.206 377.121 231.917L396.591 153.087C397.04 151.265 395.664 149.508 393.792 149.508H393.795Z" fill="white" stroke="#333333" stroke-linecap="round" stroke-linejoin="round"/>
<path d="M404.169 226.034C401.952 216.933 406.274 208.226 410.852 199.005C416.889 186.844 423.132 174.271 415.265 159.063C408.9 146.757 407.61 133.952 407.647 125.378C407.692 114.892 409.821 104.825 413.342 98.4585L424.694 101.572C419.162 111.583 416.7 136.769 426.711 156.123C436.068 174.212 428.781 188.89 422.352 201.84C418.134 210.334 414.493 217.672 416.176 224.579L404.169 226.031V226.034Z" fill="#333333" stroke="#F2F2F2" stroke-linecap="round" stroke-linejoin="round"/>
<path d="M434.974 114.472L392.179 136.694C396.651 133.184 398.753 125.483 397.668 116.733C397.409 114.622 396.961 112.447 396.317 110.256C395.673 108.068 394.872 105.997 393.948 104.082C390.243 96.3937 384.556 91.1505 379.059 90.356L428.916 87.063C428.916 87.063 440.669 97.108 434.974 114.472Z" fill="#333333" stroke="#F2F2F2" stroke-linecap="round" stroke-linejoin="round"/>
<path d="M392.178 136.694C392.178 136.694 392.173 136.694 392.17 136.699L389.045 138.323L384.376 122.457L379.677 106.487L375.008 90.6235L379.057 90.356C384.554 91.1505 390.241 96.3937 393.946 104.082C394.87 105.997 395.672 108.068 396.316 110.256C396.959 112.447 397.408 114.622 397.667 116.732C398.752 125.483 396.649 133.184 392.178 136.694Z" fill="white" stroke="#333333" stroke-linecap="round" stroke-linejoin="round"/>
<path d="M396.589 219.21H428.405C436.616 219.21 443.284 225.887 443.284 234.11H381.711C381.711 225.887 388.378 219.21 396.589 219.21Z" fill="#333333" stroke="#F2F2F2" stroke-linecap="round" stroke-linejoin="round"/>
<path d="M392.179 136.694C392.179 136.694 392.174 136.694 392.171 136.699C391.231 137.435 390.187 137.986 389.046 138.323C381.155 140.65 371.617 131.863 367.741 118.69C363.862 105.518 367.119 92.9533 375.009 90.6233C376.326 90.2354 377.688 90.1552 379.059 90.3558C384.556 91.1503 390.243 96.3935 393.948 104.082C394.872 105.997 395.673 108.068 396.317 110.256C396.961 112.447 397.409 114.622 397.668 116.732C398.753 125.483 396.651 133.184 392.179 136.694Z" fill="white" stroke="#F2F2F2" stroke-linecap="round" stroke-linejoin="round"/>
<path d="M397.669 116.732C396.093 120.491 392.385 123.128 388.061 123.128C386.765 123.128 385.523 122.89 384.377 122.457C380.44 120.967 377.641 117.158 377.641 112.693C377.641 110.371 378.397 108.223 379.679 106.487C381.578 103.921 384.626 102.257 388.061 102.257C390.246 102.257 392.273 102.929 393.948 104.082C394.872 105.997 395.674 108.068 396.317 110.256C396.961 112.447 397.41 114.622 397.669 116.732Z" fill="#F2F2F2"/>
<path d="M243.814 79.7194C242.348 80.126 240.751 80.3936 239.017 80.5032C234.164 80.8055 229.86 79.1523 226.188 76.6431" fill="white"/>
<path d="M243.814 79.7194C242.348 80.126 240.751 80.3936 239.017 80.5032C234.164 80.8055 229.86 79.1523 226.188 76.6431" stroke="#333333" stroke-linecap="round" stroke-linejoin="round"/>
<path d="M460.573 234.025H119.427C114.221 234.025 110 238.379 110 243.749V244.793C110 250.163 114.221 254.517 119.427 254.517H460.573C465.779 254.517 470 250.163 470 244.793V243.749C470 238.379 465.779 234.025 460.573 234.025Z" fill="white" stroke="#333333" stroke-linecap="round" stroke-linejoin="round"/>
</svg>
