<svg width="350" height="244" viewBox="0 0 350 244" fill="none" xmlns="http://www.w3.org/2000/svg">
<path d="M292.127 11.3801C292.127 11.7801 292.173 12.0867 292.267 12.3001C292.373 12.5001 292.587 12.6401 292.907 12.7201C293.227 12.8001 293.707 12.8401 294.347 12.8401C294.387 12.8401 294.407 12.8801 294.407 12.9601C294.407 13.0401 294.387 13.0801 294.347 13.0801C293.92 13.0801 293.453 13.0734 292.947 13.0601C292.453 13.0467 291.913 13.0401 291.327 13.0401C290.887 13.0401 290.453 13.0467 290.027 13.0601C289.613 13.0734 289.24 13.0801 288.907 13.0801C288.88 13.0801 288.867 13.0401 288.867 12.9601C288.867 12.8801 288.88 12.8401 288.907 12.8401C289.373 12.8401 289.72 12.8067 289.947 12.7401C290.187 12.6734 290.34 12.5401 290.407 12.3401C290.487 12.1401 290.527 11.8467 290.527 11.4601V2.20008C290.527 1.81341 290.487 1.52674 290.407 1.34008C290.34 1.14008 290.187 1.00674 289.947 0.940077C289.72 0.860077 289.373 0.820077 288.907 0.820077C288.88 0.820077 288.867 0.780078 288.867 0.700078C288.867 0.620078 288.88 0.580078 288.907 0.580078C289.24 0.580078 289.613 0.593411 290.027 0.620078C290.44 0.633411 290.867 0.640077 291.307 0.640077C291.653 0.640077 292.073 0.620078 292.567 0.580078C293.073 0.540078 293.58 0.520078 294.087 0.520078C294.86 0.520078 295.553 0.633411 296.167 0.860078C296.793 1.08674 297.293 1.44008 297.667 1.92008C298.04 2.40008 298.233 3.02674 298.247 3.80008C298.247 4.49341 298.12 5.09341 297.867 5.60008C297.613 6.10674 297.267 6.52674 296.827 6.86008C296.4 7.19341 295.92 7.44008 295.387 7.60008C294.867 7.76008 294.353 7.84008 293.847 7.84008C293.687 7.84008 293.52 7.83341 293.347 7.82008C293.187 7.80674 293.033 7.78008 292.887 7.74008C292.833 7.72674 292.813 7.68008 292.827 7.60008C292.853 7.50674 292.887 7.46674 292.927 7.48008C293.047 7.50674 293.167 7.52674 293.287 7.54008C293.42 7.55341 293.533 7.56008 293.627 7.56008C294.133 7.56008 294.6 7.44008 295.027 7.20008C295.453 6.96008 295.8 6.59341 296.067 6.10008C296.333 5.59341 296.467 4.96674 296.467 4.22008C296.467 3.50008 296.34 2.89341 296.087 2.40008C295.847 1.90674 295.507 1.52674 295.067 1.26008C294.627 0.993411 294.12 0.860078 293.547 0.860078C293.173 0.860078 292.88 0.886744 292.667 0.940077C292.467 0.993411 292.327 1.12008 292.247 1.32008C292.167 1.52008 292.127 1.82674 292.127 2.24008V11.3801ZM306.765 13.3201C305.805 13.3201 304.931 13.1534 304.145 12.8201C303.371 12.4734 302.705 12.0001 302.145 11.4001C301.598 10.8001 301.171 10.1134 300.865 9.34008C300.571 8.55341 300.425 7.72008 300.425 6.84008C300.425 5.76008 300.631 4.81341 301.045 4.00008C301.471 3.18674 302.031 2.51341 302.725 1.98008C303.418 1.43341 304.178 1.02674 305.005 0.760077C305.831 0.493411 306.651 0.360077 307.465 0.360077C308.451 0.360077 309.331 0.540077 310.105 0.900078C310.891 1.24674 311.558 1.72008 312.105 2.32008C312.651 2.92008 313.065 3.60008 313.345 4.36008C313.638 5.12008 313.785 5.90008 313.785 6.70008C313.785 7.63341 313.598 8.50008 313.225 9.30008C312.851 10.1001 312.338 10.8001 311.685 11.4001C311.045 12.0001 310.298 12.4734 309.445 12.8201C308.605 13.1534 307.711 13.3201 306.765 13.3201ZM307.465 12.8801C308.305 12.8801 309.065 12.6667 309.745 12.2401C310.438 11.8001 310.978 11.1667 311.365 10.3401C311.765 9.50008 311.965 8.47341 311.965 7.26008C311.965 6.02008 311.745 4.92008 311.305 3.96008C310.878 2.98674 310.265 2.22674 309.465 1.68008C308.678 1.12008 307.738 0.840077 306.645 0.840077C305.245 0.840077 304.158 1.31341 303.385 2.26008C302.625 3.20674 302.245 4.50008 302.245 6.14008C302.245 7.08674 302.365 7.97341 302.605 8.80008C302.858 9.61341 303.218 10.3267 303.685 10.9401C304.151 11.5534 304.705 12.0334 305.345 12.3801C305.985 12.7134 306.691 12.8801 307.465 12.8801ZM319.317 11.4601C319.317 11.8467 319.35 12.1401 319.417 12.3401C319.497 12.5401 319.65 12.6734 319.877 12.7401C320.117 12.8067 320.47 12.8401 320.937 12.8401C320.964 12.8401 320.977 12.8801 320.977 12.9601C320.977 13.0401 320.964 13.0801 320.937 13.0801C320.604 13.0801 320.23 13.0734 319.817 13.0601C319.417 13.0467 318.977 13.0401 318.497 13.0401C318.03 13.0401 317.59 13.0467 317.177 13.0601C316.764 13.0734 316.39 13.0801 316.057 13.0801C316.03 13.0801 316.017 13.0401 316.017 12.9601C316.017 12.8801 316.03 12.8401 316.057 12.8401C316.524 12.8401 316.877 12.8067 317.117 12.7401C317.357 12.6734 317.517 12.5401 317.597 12.3401C317.677 12.1401 317.717 11.8467 317.717 11.4601V2.20008C317.717 1.81341 317.677 1.52674 317.597 1.34008C317.517 1.14008 317.357 1.00674 317.117 0.940077C316.877 0.860077 316.524 0.820077 316.057 0.820077C316.03 0.820077 316.017 0.780078 316.017 0.700078C316.017 0.620078 316.03 0.580078 316.057 0.580078C316.39 0.580078 316.764 0.593411 317.177 0.620078C317.59 0.633411 318.03 0.640077 318.497 0.640077C318.977 0.640077 319.424 0.633411 319.837 0.620078C320.25 0.593411 320.617 0.580078 320.937 0.580078C320.964 0.580078 320.977 0.620078 320.977 0.700078C320.977 0.780078 320.964 0.820077 320.937 0.820077C320.47 0.820077 320.124 0.860077 319.897 0.940077C319.67 1.02008 319.517 1.16008 319.437 1.36008C319.357 1.56008 319.317 1.85341 319.317 2.24008V11.4601ZM324.696 10.8001V1.04008L325.216 1.08008V10.8001C325.216 11.4934 325.343 12.0067 325.596 12.3401C325.85 12.6734 326.25 12.8401 326.796 12.8401C326.823 12.8401 326.836 12.8801 326.836 12.9601C326.836 13.0401 326.823 13.0801 326.796 13.0801C326.516 13.0801 326.23 13.0734 325.936 13.0601C325.656 13.0467 325.336 13.0401 324.976 13.0401C324.63 13.0401 324.29 13.0467 323.956 13.0601C323.623 13.0734 323.31 13.0801 323.016 13.0801C322.99 13.0801 322.976 13.0401 322.976 12.9601C322.976 12.8801 322.99 12.8401 323.016 12.8401C323.603 12.8401 324.03 12.6734 324.296 12.3401C324.563 12.0067 324.696 11.4934 324.696 10.8001ZM334.816 13.3401C334.816 13.3667 334.783 13.3801 334.716 13.3801C334.663 13.3934 334.623 13.3934 334.596 13.3801L325.176 2.22008C324.71 1.67341 324.303 1.30674 323.956 1.12008C323.623 0.920077 323.29 0.820077 322.956 0.820077C322.93 0.820077 322.916 0.780078 322.916 0.700078C322.916 0.620078 322.93 0.580078 322.956 0.580078C323.21 0.580078 323.463 0.586745 323.716 0.600078C323.97 0.613411 324.203 0.620078 324.416 0.620078C324.736 0.620078 325.03 0.613411 325.296 0.600078C325.563 0.586745 325.763 0.580078 325.896 0.580078C326.07 0.580078 326.196 0.660078 326.276 0.820077C326.356 0.966744 326.55 1.23341 326.856 1.62008L334.656 11.0201L334.816 13.3401ZM334.816 2.88008V13.3401L334.316 12.7201V2.88008C334.316 2.18674 334.19 1.67341 333.936 1.34008C333.696 0.993411 333.303 0.820077 332.756 0.820077C332.73 0.820077 332.716 0.780078 332.716 0.700078C332.716 0.620078 332.73 0.580078 332.756 0.580078C333.036 0.580078 333.323 0.593411 333.616 0.620078C333.91 0.633411 334.23 0.640077 334.576 0.640077C334.91 0.640077 335.236 0.633411 335.556 0.620078C335.876 0.593411 336.176 0.580078 336.456 0.580078C336.483 0.580078 336.496 0.620078 336.496 0.700078C336.496 0.780078 336.483 0.820077 336.456 0.820077C335.896 0.820077 335.483 0.993411 335.216 1.34008C334.95 1.67341 334.816 2.18674 334.816 2.88008ZM341.246 0.980078C340.419 0.980078 339.772 1.21341 339.306 1.68008C338.839 2.13341 338.492 2.86674 338.266 3.88008C338.252 3.90674 338.206 3.92008 338.126 3.92008C338.059 3.92008 338.026 3.90008 338.026 3.86008C338.052 3.68674 338.079 3.44008 338.106 3.12008C338.146 2.80008 338.179 2.45341 338.206 2.08008C338.232 1.70674 338.252 1.34674 338.266 1.00008C338.292 0.653411 338.306 0.366744 338.306 0.140078C338.306 0.0734112 338.346 0.0400779 338.426 0.0400779C338.506 0.0400779 338.546 0.0734112 338.546 0.140078C338.546 0.273411 338.612 0.373411 338.746 0.440078C338.879 0.493411 339.032 0.533411 339.206 0.560077C339.379 0.573411 339.526 0.580078 339.646 0.580078C340.792 0.620078 342.132 0.640077 343.666 0.640077C344.599 0.640077 345.346 0.633411 345.906 0.620078C346.466 0.593411 347.006 0.580078 347.526 0.580078C347.979 0.580078 348.326 0.553411 348.566 0.500078C348.819 0.433411 348.979 0.293411 349.046 0.0800774C349.059 0.026744 349.099 7.72476e-05 349.166 7.72476e-05C349.246 7.72476e-05 349.286 0.026744 349.286 0.0800774C349.259 0.280077 349.232 0.560077 349.206 0.920077C349.192 1.28008 349.172 1.65341 349.146 2.04008C349.132 2.42674 349.119 2.78674 349.106 3.12008C349.092 3.45341 349.086 3.70008 349.086 3.86008C349.086 3.90008 349.046 3.92008 348.966 3.92008C348.899 3.92008 348.866 3.90008 348.866 3.86008C348.772 2.82008 348.506 2.08008 348.066 1.64008C347.626 1.20008 346.972 0.980078 346.106 0.980078C345.639 0.980078 345.286 1.01341 345.046 1.08008C344.819 1.13341 344.666 1.24674 344.586 1.42008C344.519 1.59341 344.486 1.86674 344.486 2.24008V11.4601C344.486 11.8467 344.526 12.1401 344.606 12.3401C344.699 12.5401 344.872 12.6734 345.126 12.7401C345.392 12.8067 345.799 12.8401 346.346 12.8401C346.372 12.8401 346.386 12.8801 346.386 12.9601C346.386 13.0401 346.372 13.0801 346.346 13.0801C345.986 13.0801 345.579 13.0734 345.126 13.0601C344.686 13.0467 344.199 13.0401 343.666 13.0401C343.159 13.0401 342.679 13.0467 342.226 13.0601C341.786 13.0734 341.379 13.0801 341.006 13.0801C340.966 13.0801 340.946 13.0401 340.946 12.9601C340.946 12.8801 340.966 12.8401 341.006 12.8401C341.526 12.8401 341.919 12.8067 342.186 12.7401C342.466 12.6734 342.652 12.5401 342.746 12.3401C342.839 12.1401 342.886 11.8467 342.886 11.4601V2.20008C342.886 1.84008 342.846 1.57341 342.766 1.40008C342.686 1.21341 342.526 1.10008 342.286 1.06008C342.046 1.00674 341.699 0.980078 341.246 0.980078Z" fill="#333333"/>
<path d="M302.57 63.9121C299.626 63.9121 297.002 63.2507 294.698 61.9281C292.394 60.5627 290.581 58.6854 289.258 56.2961C287.978 53.8641 287.338 51.0907 287.338 47.9761C287.338 44.9467 287.978 42.2587 289.258 39.9121C290.581 37.5654 292.394 35.7521 294.698 34.4721C297.045 33.1494 299.69 32.4881 302.634 32.4881C305.535 32.4881 308.117 33.1494 310.378 34.4721C312.682 35.7947 314.453 37.6507 315.69 40.0401C316.97 42.3867 317.61 45.0961 317.61 48.1681C317.61 51.2401 316.97 53.9707 315.69 56.3601C314.41 58.7494 312.618 60.6054 310.314 61.9281C308.053 63.2507 305.471 63.9121 302.57 63.9121ZM303.338 63.0161C306.581 63.0161 308.991 61.7787 310.57 59.3041C312.149 56.7867 312.938 53.3307 312.938 48.9361C312.938 45.4801 312.447 42.5787 311.466 40.2321C310.485 37.8854 309.162 36.1574 307.498 35.0481C305.834 33.8961 303.978 33.3201 301.93 33.3201C298.773 33.3201 296.298 34.6427 294.506 37.2881C292.714 39.8907 291.818 43.3041 291.818 47.5281C291.818 50.5147 292.287 53.1814 293.226 55.5281C294.165 57.8747 295.509 59.7094 297.258 61.0321C299.007 62.3547 301.034 63.0161 303.338 63.0161ZM323.618 62.3121C327.885 58.7707 331.234 55.7627 333.666 53.2881C336.098 50.8134 337.869 48.5734 338.978 46.5681C340.13 44.5627 340.706 42.5787 340.706 40.6161C340.706 38.4827 340.109 36.7974 338.914 35.5601C337.762 34.2801 336.098 33.6401 333.922 33.6401C329.698 33.6401 326.775 36.3067 325.154 41.6401C325.154 41.7254 325.069 41.7681 324.898 41.7681C324.77 41.7681 324.642 41.7467 324.514 41.7041C324.386 41.6187 324.343 41.5547 324.386 41.5121L326.882 31.7841C326.925 31.6987 327.053 31.6774 327.266 31.7201C327.522 31.7627 327.629 31.8267 327.586 31.9121C327.543 32.1254 327.522 32.3814 327.522 32.6801C327.522 33.4481 327.885 33.8321 328.61 33.8321C329.037 33.8321 329.698 33.6827 330.594 33.3841C331.575 33.0427 332.45 32.7867 333.218 32.6161C334.029 32.4454 334.946 32.3601 335.97 32.3601C338.701 32.3601 340.877 33.0854 342.498 34.5361C344.162 35.9867 344.994 37.8854 344.994 40.2321C344.994 42.0667 344.418 43.8587 343.266 45.6081C342.157 47.3574 340.535 49.1921 338.402 51.1121C336.311 53.0321 333.026 55.8267 328.546 59.4961C328.375 59.6241 328.311 59.7307 328.354 59.8161C328.439 59.9014 328.589 59.9441 328.802 59.9441C334.562 59.9441 338.509 59.8801 340.642 59.7521C342.775 59.6241 344.269 59.2827 345.122 58.7281C345.975 58.1734 346.573 57.1921 346.914 55.7841C346.957 55.6987 347.085 55.6774 347.298 55.7201C347.511 55.7201 347.618 55.7627 347.618 55.8481L346.786 62.3761C346.786 62.5467 346.722 62.7174 346.594 62.8881C346.509 63.0161 346.381 63.0801 346.21 63.0801L324.066 63.0801C323.853 63.0801 323.682 62.9947 323.554 62.8241C323.469 62.6534 323.49 62.4827 323.618 62.3121Z" fill="#333333"/>
<path d="M235.565 177.113H206.438V188.805H235.565V177.113Z" fill="#333333" stroke="#F2F2F2" stroke-linecap="round" stroke-linejoin="round"/>
<path d="M276.636 102.624V171.169C276.636 174.453 273.974 177.115 270.69 177.115H169.956C166.672 177.115 164.008 174.453 164.008 171.169V102.624C164.008 99.3401 166.672 96.6782 169.956 96.6782H270.69C273.974 96.6782 276.636 99.3401 276.636 102.624Z" fill="#333333" stroke="#F2F2F2" stroke-linecap="round" stroke-linejoin="round"/>
<path d="M270.629 168.258V105.535C270.629 103.962 269.353 102.686 267.78 102.686H172.864C171.29 102.686 170.015 103.962 170.015 105.535V168.258C170.015 169.831 171.29 171.107 172.864 171.107H267.78C269.353 171.107 270.629 169.831 270.629 168.258Z" fill="white" stroke="#333333" stroke-linecap="round" stroke-linejoin="round"/>
<path d="M251.441 195.584H190.566C190.566 193.711 191.326 192.018 192.552 190.79C193.779 189.563 195.473 188.805 197.346 188.805H244.66C248.404 188.805 251.439 191.84 251.439 195.584H251.441Z" fill="#333333" stroke="#F2F2F2" stroke-linecap="round" stroke-linejoin="round"/>
<path d="M196.867 125.048L182.941 124.194C183.168 120.432 184.886 117.073 187.513 114.697L196.867 125.046V125.048Z" fill="white" stroke="#333333" stroke-linecap="round" stroke-linejoin="round"/>
<path d="M196.838 111.098V125.049L187.484 114.699C189.959 112.46 193.241 111.098 196.838 111.098Z" fill="white" stroke="#333333" stroke-linecap="round" stroke-linejoin="round"/>
<path d="M196.838 125.048L191.86 138.085C186.614 136.08 182.887 131 182.887 125.048C182.887 124.762 182.894 124.476 182.912 124.194L196.838 125.048Z" fill="white" stroke="#333333" stroke-linecap="round" stroke-linejoin="round"/>
<path d="M209.831 130.148C207.796 135.33 202.746 138.999 196.841 138.999C195.088 138.999 193.41 138.675 191.863 138.085L196.841 125.048L209.831 130.148Z" fill="white" stroke="#333333" stroke-linecap="round" stroke-linejoin="round"/>
<path d="M214.799 122.11C214.799 123.91 214.458 125.63 213.838 127.21L200.848 122.11V108.159C208.553 108.159 214.799 114.405 214.799 122.11Z" fill="white" stroke="#333333" stroke-linecap="round" stroke-linejoin="round"/>
<path d="M255.255 120.927H226.764C224.579 120.927 222.809 119.157 222.809 116.972C222.809 114.788 224.579 113.017 226.764 113.017H255.255C257.44 113.017 259.21 114.788 259.21 116.972C259.21 119.157 257.44 120.927 255.255 120.927Z" fill="white" stroke="#333333" stroke-linecap="round" stroke-linejoin="round"/>
<path d="M224.284 125.707H257.737C257.845 125.707 257.932 125.796 257.932 125.899C257.931 126.004 257.846 126.091 257.737 126.091H224.284C224.177 126.091 224.09 126.003 224.09 125.899C224.09 125.795 224.176 125.707 224.284 125.707Z" fill="white" stroke="#333333"/>
<path d="M224.284 130.955H257.737C257.844 130.955 257.932 131.043 257.932 131.149C257.931 131.255 257.847 131.341 257.737 131.341H224.284C224.177 131.341 224.09 131.253 224.09 131.149C224.09 131.043 224.177 130.955 224.284 130.955Z" fill="white" stroke="#333333"/>
<path d="M224.284 136.207H257.737C257.845 136.207 257.932 136.295 257.932 136.399C257.931 136.503 257.846 136.59 257.737 136.59H224.284C224.177 136.59 224.09 136.503 224.09 136.399C224.09 136.294 224.176 136.207 224.284 136.207Z" fill="white" stroke="#333333"/>
<path d="M228.808 151.214H224.375C223.985 151.214 223.668 151.531 223.668 151.922V162.94C223.668 163.331 223.985 163.648 224.375 163.648H228.808C229.199 163.648 229.516 163.331 229.516 162.94V151.922C229.516 151.531 229.199 151.214 228.808 151.214Z" fill="white" stroke="#333333" stroke-linecap="round" stroke-linejoin="round"/>
<path d="M238.425 144.665H233.993C233.602 144.665 233.285 144.982 233.285 145.373V162.94C233.285 163.331 233.602 163.648 233.993 163.648H238.425C238.816 163.648 239.133 163.331 239.133 162.94V145.373C239.133 144.982 238.816 144.665 238.425 144.665Z" fill="white" stroke="#333333" stroke-linecap="round" stroke-linejoin="round"/>
<path d="M248.042 149.531H243.61C243.219 149.531 242.902 149.848 242.902 150.238V162.94C242.902 163.331 243.219 163.648 243.61 163.648H248.042C248.433 163.648 248.75 163.331 248.75 162.94V150.238C248.75 149.848 248.433 149.531 248.042 149.531Z" fill="white" stroke="#333333" stroke-linecap="round" stroke-linejoin="round"/>
<path d="M257.691 142.042H253.258C252.868 142.042 252.551 142.358 252.551 142.749V162.94C252.551 163.331 252.868 163.647 253.258 163.647H257.691C258.082 163.647 258.398 163.331 258.398 162.94V142.749C258.398 142.358 258.082 142.042 257.691 142.042Z" fill="white" stroke="#333333" stroke-linecap="round" stroke-linejoin="round"/>
<path d="M183.062 141.848C183.167 141.848 183.253 141.933 183.253 142.042V163.455H213.522C213.627 163.455 213.715 163.541 213.715 163.649C213.715 163.749 213.639 163.83 213.542 163.84H183.062C182.954 163.84 182.867 163.751 182.867 163.647V142.042C182.867 141.935 182.954 141.848 183.062 141.848Z" fill="white" stroke="#333333"/>
<path d="M199.396 156.926C198.867 156.926 198.438 156.495 198.438 155.968C198.438 155.44 198.869 155.009 199.396 155.009C199.924 155.009 200.355 155.44 200.355 155.968C200.355 156.495 199.924 156.926 199.396 156.926ZM199.396 155.755C199.28 155.755 199.184 155.85 199.184 155.968C199.184 156.086 199.278 156.18 199.396 156.18C199.514 156.18 199.609 156.086 199.609 155.968C199.609 155.85 199.514 155.755 199.396 155.755Z" fill="white" stroke="#333333" stroke-miterlimit="10"/>
<path d="M193.178 148.628C192.648 148.628 192.219 148.197 192.219 147.669C192.219 147.142 192.65 146.71 193.178 146.71C193.705 146.71 194.136 147.142 194.136 147.669C194.136 148.197 193.705 148.628 193.178 148.628ZM193.178 147.457C193.062 147.457 192.965 147.551 192.965 147.669C192.965 147.787 193.06 147.882 193.178 147.882C193.296 147.882 193.39 147.787 193.39 147.669C193.39 147.551 193.296 147.457 193.178 147.457Z" fill="white" stroke="#333333" stroke-miterlimit="10"/>
<path d="M186.974 154.302C186.445 154.302 186.016 153.871 186.016 153.343C186.016 152.815 186.447 152.384 186.974 152.384C187.502 152.384 187.933 152.815 187.933 153.343C187.933 153.871 187.502 154.302 186.974 154.302ZM186.974 153.13C186.857 153.13 186.762 153.225 186.762 153.343C186.762 153.461 186.857 153.556 186.974 153.556C187.092 153.556 187.187 153.461 187.187 153.343C187.187 153.225 187.092 153.13 186.974 153.13Z" fill="white" stroke="#333333" stroke-miterlimit="10"/>
<path d="M205.576 151.907C205.046 151.907 204.617 151.476 204.617 150.948C204.617 150.42 205.048 149.989 205.576 149.989C206.104 149.989 206.535 150.42 206.535 150.948C206.535 151.476 206.104 151.907 205.576 151.907ZM205.576 150.735C205.46 150.735 205.363 150.83 205.363 150.948C205.363 151.066 205.458 151.161 205.576 151.161C205.694 151.161 205.789 151.066 205.789 150.948C205.789 150.83 205.694 150.735 205.576 150.735Z" fill="white" stroke="#333333" stroke-miterlimit="10"/>
<path d="M211.775 149.448C211.246 149.448 210.816 149.017 210.816 148.49C210.816 147.962 211.247 147.531 211.775 147.531C212.303 147.531 212.734 147.962 212.734 148.49C212.734 149.017 212.303 149.448 211.775 149.448ZM211.775 148.277C211.659 148.277 211.563 148.372 211.563 148.49C211.563 148.607 211.657 148.702 211.775 148.702C211.893 148.702 211.988 148.607 211.988 148.49C211.988 148.372 211.893 148.277 211.775 148.277Z" fill="white" stroke="#333333" stroke-miterlimit="10"/>
<path d="M199.376 156.205C199.366 156.205 199.356 156.205 199.347 156.205C199.283 156.198 199.223 156.163 199.184 156.111L193.143 148.025L187.139 153.518C187.043 153.607 186.89 153.601 186.801 153.503C186.712 153.404 186.718 153.254 186.817 153.165L193.016 147.491C193.066 147.445 193.134 147.423 193.2 147.429C193.267 147.435 193.329 147.47 193.37 147.524L199.42 155.622L205.426 150.76C205.446 150.744 205.465 150.733 205.488 150.723L211.687 148.235C211.809 148.187 211.95 148.245 211.999 148.369C212.049 148.492 211.989 148.632 211.865 148.68L205.699 151.154L199.526 156.151C199.484 156.186 199.43 156.205 199.376 156.205Z" fill="white" stroke="#333333" stroke-miterlimit="10"/>
<path d="M312.667 168.788H312.465L312.736 163.864C312.849 161.804 311.245 160.069 309.224 160.069H290.037C288.017 160.069 286.411 161.804 286.525 163.864L288.087 192.213C288.192 194.117 289.733 195.605 291.599 195.605H307.662C309.528 195.605 311.069 194.117 311.174 192.213L311.379 188.515H312.667C316.655 188.515 319.902 185.201 319.902 181.125V176.178C319.902 172.102 316.655 168.788 312.667 168.788ZM316.583 181.125C316.583 183.332 314.826 185.125 312.667 185.125H311.564L312.277 172.178H312.667C314.826 172.178 316.583 173.973 316.583 176.178V181.125Z" fill="#333333" stroke="#333333" stroke-linecap="round" stroke-linejoin="round"/>
<path d="M278 195.605H258.428C257.663 195.605 257.194 194.809 257.587 194.186C260.598 189.406 262.458 189.144 268.212 189.144C273.966 189.144 275.83 189.406 278.84 194.186C279.233 194.811 278.763 195.605 278 195.605Z" fill="white" stroke="#333333" stroke-linecap="round" stroke-linejoin="round"/>
<path d="M166.992 189.144H231.625C232.8 189.144 233.756 190.057 233.756 191.184V193.565C233.756 194.69 232.802 195.605 231.625 195.605H166.992V189.146V189.144Z" fill="white" stroke="#333333" stroke-linecap="round" stroke-linejoin="round"/>
<path d="M320.382 199.178H307.891V243.08H320.382V199.178Z" fill="white" stroke="#333333" stroke-linecap="round" stroke-linejoin="round"/>
<path d="M330.645 195.585H101.92C98.4134 195.585 95.5703 198.428 95.5703 201.935V202.223C95.5703 205.73 98.4134 208.573 101.92 208.573H330.645C334.152 208.573 336.995 205.73 336.995 202.223V201.935C336.995 198.428 334.152 195.585 330.645 195.585Z" fill="white" stroke="#333333" stroke-linecap="round" stroke-linejoin="round"/>
<path d="M151.184 182.393C151.184 182.393 158.868 177.678 165.854 179.074C172.84 180.471 183.143 185.186 183.143 185.186C183.143 185.186 184.454 187.718 179.65 186.758C174.846 185.797 172.49 185.884 172.49 185.884C172.49 185.884 168.848 186.108 163.923 189.497C158.442 193.264 153.658 192.284 153.658 192.284C153.755 188.521 154.18 185.617 151.184 182.393Z" fill="white" stroke="#333333" stroke-linecap="round" stroke-linejoin="round"/>
<path d="M84.6133 124.786L129.921 185.803L118.804 181.649L149.822 180.398C157.778 180.696 160.484 183.957 160.9 189.035C161.271 193.566 155.837 196.218 151.586 197.332L122.78 204.902C118.999 205.895 115.154 204.612 112.699 201.9L111.663 200.748L60.7901 144.286C55.0933 137.963 55.5998 128.219 61.9229 122.522C68.246 116.825 77.9906 117.332 83.6874 123.655C84.0102 124.014 84.3272 124.405 84.6114 124.784L84.6133 124.786Z" fill="white" stroke="#333333" stroke-linecap="round" stroke-linejoin="round"/>
<path d="M180.38 185.982C179.995 185.468 180.162 184.729 180.734 184.436C183.121 183.204 188.905 180.664 194.277 181.739C200.38 182.959 209.015 186.713 211.1 187.643C211.547 187.842 211.819 188.329 211.698 188.802C211.543 189.4 210.776 189.964 208.075 189.425C203.271 188.464 200.915 188.551 200.915 188.551C200.915 188.551 197.273 188.775 192.348 192.164C188.4 194.88 184.811 195.129 183.113 195.056C182.539 195.031 182.093 194.551 182.112 193.979C182.214 191.025 182.315 188.574 180.382 185.986L180.38 185.982Z" fill="white" stroke="#333333" stroke-linecap="round" stroke-linejoin="round"/>
<path d="M92.0354 93.0659H69.4648V124.96H92.0354V93.0659Z" fill="white" stroke="#333333" stroke-linecap="round" stroke-linejoin="round"/>
<path d="M80.7968 103.761C85.3724 104.911 90.2515 104.192 94.2182 101.639C100.064 97.8769 104.684 90.7381 105.2 81.8305L105.386 67.0463C105.529 55.6818 95.6699 46.3451 83.3678 46.1904C71.0658 46.0358 60.9771 55.1231 60.8341 66.4877L60.6484 81.2718C61.8199 82.7603 62.0383 88.2463 66.9135 94.6525C70.3602 99.1817 75.276 102.375 80.7968 103.761Z" fill="white"/>
<path d="M83.6713 104.235C87.3558 104.533 91.0731 103.663 94.2182 101.637C100.064 97.8754 104.684 90.7366 105.2 81.829L105.386 67.0448C105.529 55.6803 95.6699 46.3436 83.3678 46.189C71.0658 46.0343 60.9771 55.1217 60.8341 66.4862L60.6484 81.2703C61.8199 82.7588 62.0383 88.2448 66.9135 94.651" fill="white"/>
<path d="M83.6713 104.235C87.3558 104.533 91.0731 103.663 94.2182 101.637C100.064 97.8754 104.684 90.7366 105.2 81.829L105.386 67.0448C105.529 55.6803 95.6699 46.3436 83.3678 46.189C71.0658 46.0343 60.9771 55.1217 60.8341 66.4862L60.6484 81.2703C61.8199 82.7588 62.0383 88.2448 66.9135 94.651" stroke="#333333" stroke-linecap="round" stroke-linejoin="round"/>
<path d="M71.4871 113.401C55.6707 113.401 38.0836 123.61 36.6763 236.306C36.6299 240.014 39.6243 243.043 43.33 243.043H128.238C128.238 243.043 127.995 127.606 94.5776 113.877C93.7927 113.554 92.9499 113.401 92.1032 113.401H71.4871Z" fill="#F2F2F2" stroke="#333333" stroke-linecap="round" stroke-linejoin="round"/>
<path d="M69.01 100.278C68.0183 96.2743 64.8675 94.2214 62.5594 90.9236C58.7184 85.4356 57.0927 78.4301 56.4219 71.8577C55.2292 60.1878 62.426 49.1924 73.3111 44.8372C78.2192 42.8732 82.9185 43.082 88.0759 43.2444C93.3435 43.4087 101.895 41.2959 103.353 48.5681C104.573 48.3032 105.856 48.9392 106.655 49.898C111.655 55.9099 105.858 63.5107 99.8754 65.6236C97.6543 66.4084 95.3133 67.0444 93.4575 68.4961C90.5289 70.7887 88.7931 74.245 87.9657 77.8696C87.9657 77.8696 86.0307 77.106 85.0564 77.1814C82.5241 77.3786 81.3507 79.128 81.4899 81.641C81.6755 84.9949 85.1647 85.8531 85.5281 88.658C86.338 94.898 79.7579 100.189 75.5515 100.804C74.9716 100.889 69.1202 100.711 69.0139 100.28L69.01 100.278Z" fill="#333333" stroke="#333333" stroke-linecap="round" stroke-linejoin="round"/>
<path d="M109.163 127.097C111.601 130.922 114.243 134.554 116.654 138.399C119.068 142.24 121.459 146.097 123.851 149.955L130.999 161.544C130.999 161.544 136.81 170.894 136.876 170.997C141.813 178.94 142.94 182.81 152.912 183.264C156.676 183.436 160.444 183.461 164.211 183.49C167.747 183.517 171.333 183.745 174.86 183.434C179.699 183.007 183.855 187.062 184.947 191.53C185.287 192.922 185.95 195.127 185.191 196.459C184.673 197.369 183.619 197.934 182.726 198.4C180.692 199.461 178.485 200.215 176.324 200.965C172.017 202.457 167.588 203.538 163.208 204.763L156.63 206.557L154.983 206.996L154.778 207.05L154.675 207.077C154.646 207.085 154.575 207.101 154.526 207.11L153.875 207.247L152.566 207.507C152.127 207.582 151.683 207.63 151.24 207.688C150.796 207.738 150.353 207.808 149.906 207.831L148.563 207.903C148.339 207.912 148.114 207.922 147.89 207.926L147.217 207.914L145.868 207.874C145.42 207.853 144.971 207.8 144.523 207.758C144.076 207.708 143.624 207.677 143.179 207.599C142.735 207.528 142.288 207.45 141.844 207.371C141.621 207.329 141.397 207.294 141.177 207.246L140.517 207.087C140.079 206.981 139.638 206.869 139.199 206.755C138.764 206.631 138.333 206.486 137.902 206.347C137.473 206.2 137.034 206.072 136.617 205.896C133.224 204.59 130.034 202.685 127.245 200.273C126.905 199.964 126.566 199.651 126.23 199.333C125.896 199.016 125.554 198.703 125.244 198.361C124.616 197.685 123.974 197.014 123.412 196.281C123.122 195.92 122.836 195.556 122.553 195.189L122.018 194.495L120.98 193.146L116.834 187.745L108.564 176.925L100.333 166.079C97.5975 162.458 94.8622 158.838 92.1501 155.2C89.4341 151.565 86.7066 147.939 84.0177 144.285C78.9743 137.435 78.9008 120.772 85.7497 115.728C92.6005 110.685 100.404 114.3 108.579 126.24C108.769 126.517 108.987 126.818 109.167 127.097H109.163Z" fill="#F2F2F2"/>
<path d="M92.1732 155.2C94.8853 158.838 97.6206 162.459 100.356 166.079L108.587 176.926L116.857 187.745L121.003 193.146L122.041 194.496L122.576 195.19C122.861 195.557 123.147 195.92 123.435 196.282C123.997 197.014 124.639 197.685 125.267 198.362C125.577 198.704 125.919 199.017 126.253 199.334C126.59 199.651 126.928 199.962 127.268 200.273C130.057 202.684 133.247 204.59 136.64 205.897C137.059 206.073 137.496 206.2 137.925 206.347C138.358 206.486 138.787 206.631 139.222 206.755C139.661 206.869 140.1 206.981 140.541 207.088L141.2 207.246C141.42 207.296 141.644 207.331 141.867 207.372C142.311 207.451 142.758 207.528 143.202 207.6C143.647 207.677 144.097 207.708 144.546 207.758C144.994 207.799 145.441 207.853 145.891 207.874L147.241 207.915L147.913 207.927C148.138 207.923 148.362 207.913 148.586 207.903L149.929 207.832C150.376 207.809 150.819 207.739 151.263 207.689C151.706 207.631 152.151 207.581 152.589 207.507L153.898 207.248L154.55 207.111C154.598 207.099 154.671 207.086 154.698 207.078L154.801 207.051L155.006 206.997L156.653 206.558L163.231 204.764C167.611 203.538 172.04 202.458 176.347 200.966C178.508 200.215 180.716 199.462 182.749 198.4C183.642 197.934 184.696 197.368 185.214 196.46C185.973 195.128 185.31 192.922 184.97 191.53C183.878 187.063 179.722 183.007 174.883 183.435C171.358 183.746 167.772 183.52 164.234 183.491C160.469 183.462 156.699 183.436 152.935 183.264C142.963 182.808 141.834 178.94 136.899 170.997C136.835 170.893 131.022 161.544 131.022 161.544L123.874 149.956C121.482 146.099 119.091 142.241 116.677 138.4C114.266 134.555 111.624 130.923 109.186 127.097C109.008 126.819 108.788 126.517 108.598 126.241C102.467 117.285 95.8306 113.357 90.2885 113.403H87.5898" fill="#F2F2F2"/>
<path d="M92.1732 155.2C94.8853 158.838 97.6206 162.459 100.356 166.079L108.587 176.926L116.857 187.745L121.003 193.146L122.041 194.496L122.576 195.19C122.861 195.557 123.147 195.92 123.435 196.282C123.997 197.014 124.639 197.685 125.267 198.362C125.577 198.704 125.919 199.017 126.253 199.334C126.59 199.651 126.928 199.962 127.268 200.273C130.057 202.684 133.247 204.59 136.64 205.897C137.059 206.073 137.496 206.2 137.925 206.347C138.358 206.486 138.787 206.631 139.222 206.755C139.661 206.869 140.1 206.981 140.541 207.088L141.2 207.246C141.42 207.296 141.644 207.331 141.867 207.372C142.311 207.451 142.758 207.528 143.202 207.6C143.647 207.677 144.097 207.708 144.546 207.758C144.994 207.799 145.441 207.853 145.891 207.874L147.241 207.915L147.913 207.927C148.138 207.923 148.362 207.913 148.586 207.903L149.929 207.832C150.376 207.809 150.819 207.739 151.263 207.689C151.706 207.631 152.151 207.581 152.589 207.507L153.898 207.248L154.55 207.111C154.598 207.099 154.671 207.086 154.698 207.078L154.801 207.051L155.006 206.997L156.653 206.558L163.231 204.764C167.611 203.538 172.04 202.458 176.347 200.966C178.508 200.215 180.716 199.462 182.749 198.4C183.642 197.934 184.696 197.368 185.214 196.46C185.973 195.128 185.31 192.922 184.97 191.53C183.878 187.063 179.722 183.007 174.883 183.435C171.358 183.746 167.772 183.52 164.234 183.491C160.469 183.462 156.699 183.436 152.935 183.264C142.963 182.808 141.834 178.94 136.899 170.997C136.835 170.893 131.022 161.544 131.022 161.544L123.874 149.956C121.482 146.099 119.091 142.241 116.677 138.4C114.266 134.555 111.624 130.923 109.186 127.097C109.008 126.819 108.788 126.517 108.598 126.241C102.467 117.285 95.8306 113.357 90.2885 113.403H87.5898" stroke="#333333" stroke-linecap="round" stroke-linejoin="round"/>
<path d="M25.6776 242.985C20.253 223.109 14.4708 203.308 13.1915 182.616C12.258 167.527 14.3046 148.469 31.0076 142.911C52.3198 135.82 79.273 146.067 85.2369 168.073C89.8537 185.107 91.9138 202.396 93.0154 219.962C93.1565 222.224 94.8436 242.985 94.8436 242.985H25.6796H25.6776Z" fill="#333333" stroke="#333333" stroke-linecap="round" stroke-linejoin="round"/>
</svg>
