<svg width="471" height="265" viewBox="0 0 471 265" fill="none" xmlns="http://www.w3.org/2000/svg">
<path d="M57.6692 1.48C56.8426 1.48 56.1959 1.71333 55.7292 2.18C55.2626 2.63333 54.9159 3.36667 54.6892 4.38C54.6759 4.40667 54.6292 4.42 54.5492 4.42C54.4826 4.42 54.4492 4.4 54.4492 4.36C54.4759 4.18667 54.5026 3.94 54.5292 3.62C54.5692 3.3 54.6026 2.95333 54.6292 2.58C54.6559 2.20667 54.6759 1.84667 54.6892 1.5C54.7159 1.15333 54.7292 0.866667 54.7292 0.640001C54.7292 0.573334 54.7692 0.540001 54.8492 0.540001C54.9292 0.540001 54.9692 0.573334 54.9692 0.640001C54.9692 0.773334 55.0359 0.873334 55.1692 0.94C55.3026 0.993334 55.4559 1.03333 55.6292 1.06C55.8026 1.07333 55.9492 1.08 56.0692 1.08C57.2159 1.12 58.5559 1.14 60.0892 1.14C61.0226 1.14 61.7692 1.13333 62.3292 1.12C62.8892 1.09333 63.4292 1.08 63.9492 1.08C64.4026 1.08 64.7492 1.05333 64.9892 1C65.2426 0.933334 65.4026 0.793334 65.4692 0.58C65.4826 0.526667 65.5226 0.5 65.5892 0.5C65.6692 0.5 65.7092 0.526667 65.7092 0.58C65.6826 0.78 65.6559 1.06 65.6292 1.42C65.6159 1.78 65.5959 2.15333 65.5692 2.54C65.5559 2.92667 65.5426 3.28667 65.5292 3.62C65.5159 3.95333 65.5092 4.2 65.5092 4.36C65.5092 4.4 65.4692 4.42 65.3892 4.42C65.3226 4.42 65.2892 4.4 65.2892 4.36C65.1959 3.32 64.9292 2.58 64.4892 2.14C64.0492 1.7 63.3959 1.48 62.5292 1.48C62.0626 1.48 61.7092 1.51333 61.4692 1.58C61.2426 1.63333 61.0892 1.74667 61.0092 1.92C60.9426 2.09333 60.9092 2.36667 60.9092 2.74V11.96C60.9092 12.3467 60.9492 12.64 61.0292 12.84C61.1226 13.04 61.2959 13.1733 61.5492 13.24C61.8159 13.3067 62.2226 13.34 62.7692 13.34C62.7959 13.34 62.8092 13.38 62.8092 13.46C62.8092 13.54 62.7959 13.58 62.7692 13.58C62.4092 13.58 62.0026 13.5733 61.5492 13.56C61.1092 13.5467 60.6226 13.54 60.0892 13.54C59.5826 13.54 59.1026 13.5467 58.6492 13.56C58.2092 13.5733 57.8026 13.58 57.4292 13.58C57.3892 13.58 57.3692 13.54 57.3692 13.46C57.3692 13.38 57.3892 13.34 57.4292 13.34C57.9492 13.34 58.3426 13.3067 58.6092 13.24C58.8892 13.1733 59.0759 13.04 59.1692 12.84C59.2626 12.64 59.3092 12.3467 59.3092 11.96V2.7C59.3092 2.34 59.2692 2.07333 59.1892 1.9C59.1092 1.71333 58.9492 1.6 58.7092 1.56C58.4692 1.50667 58.1226 1.48 57.6692 1.48Z" fill="#333333"/>
<path d="M41.1198 11.3001V1.54008L41.6398 1.58008V11.3001C41.6398 11.9934 41.7665 12.5067 42.0198 12.8401C42.2732 13.1734 42.6732 13.3401 43.2198 13.3401C43.2465 13.3401 43.2598 13.3801 43.2598 13.4601C43.2598 13.5401 43.2465 13.5801 43.2198 13.5801C42.9398 13.5801 42.6532 13.5734 42.3598 13.5601C42.0798 13.5467 41.7598 13.5401 41.3998 13.5401C41.0532 13.5401 40.7132 13.5467 40.3798 13.5601C40.0465 13.5734 39.7332 13.5801 39.4398 13.5801C39.4132 13.5801 39.3998 13.5401 39.3998 13.4601C39.3998 13.3801 39.4132 13.3401 39.4398 13.3401C40.0265 13.3401 40.4532 13.1734 40.7198 12.8401C40.9865 12.5067 41.1198 11.9934 41.1198 11.3001ZM51.2398 13.8401C51.2398 13.8667 51.2065 13.8801 51.1398 13.8801C51.0865 13.8934 51.0465 13.8934 51.0198 13.8801L41.5998 2.72008C41.1332 2.17341 40.7265 1.80674 40.3798 1.62008C40.0465 1.42008 39.7132 1.32008 39.3798 1.32008C39.3532 1.32008 39.3398 1.28008 39.3398 1.20008C39.3398 1.12008 39.3532 1.08008 39.3798 1.08008C39.6332 1.08008 39.8865 1.08674 40.1398 1.10008C40.3932 1.11341 40.6265 1.12008 40.8398 1.12008C41.1598 1.12008 41.4532 1.11341 41.7198 1.10008C41.9865 1.08674 42.1865 1.08008 42.3198 1.08008C42.4932 1.08008 42.6198 1.16008 42.6998 1.32008C42.7798 1.46674 42.9732 1.73341 43.2798 2.12008L51.0798 11.5201L51.2398 13.8401ZM51.2398 3.38008V13.8401L50.7398 13.2201V3.38008C50.7398 2.68674 50.6132 2.17341 50.3598 1.84008C50.1198 1.49341 49.7265 1.32008 49.1798 1.32008C49.1532 1.32008 49.1398 1.28008 49.1398 1.20008C49.1398 1.12008 49.1532 1.08008 49.1798 1.08008C49.4598 1.08008 49.7465 1.09341 50.0398 1.12008C50.3332 1.13341 50.6532 1.14008 50.9998 1.14008C51.3332 1.14008 51.6598 1.13341 51.9798 1.12008C52.2998 1.09341 52.5998 1.08008 52.8798 1.08008C52.9065 1.08008 52.9198 1.12008 52.9198 1.20008C52.9198 1.28008 52.9065 1.32008 52.8798 1.32008C52.3198 1.32008 51.9065 1.49341 51.6398 1.84008C51.3732 2.17341 51.2398 2.68674 51.2398 3.38008Z" fill="#333333"/>
<path d="M35.7414 11.9601C35.7414 12.3467 35.7747 12.6401 35.8414 12.8401C35.9214 13.0401 36.0747 13.1734 36.3014 13.2401C36.5414 13.3067 36.8947 13.3401 37.3614 13.3401C37.3881 13.3401 37.4014 13.3801 37.4014 13.4601C37.4014 13.5401 37.3881 13.5801 37.3614 13.5801C37.0281 13.5801 36.6547 13.5734 36.2414 13.5601C35.8414 13.5467 35.4014 13.5401 34.9214 13.5401C34.4547 13.5401 34.0147 13.5467 33.6014 13.5601C33.1881 13.5734 32.8147 13.5801 32.4814 13.5801C32.4547 13.5801 32.4414 13.5401 32.4414 13.4601C32.4414 13.3801 32.4547 13.3401 32.4814 13.3401C32.9481 13.3401 33.3014 13.3067 33.5414 13.2401C33.7814 13.1734 33.9414 13.0401 34.0214 12.8401C34.1014 12.6401 34.1414 12.3467 34.1414 11.9601V2.70008C34.1414 2.31341 34.1014 2.02674 34.0214 1.84008C33.9414 1.64008 33.7814 1.50674 33.5414 1.44008C33.3014 1.36008 32.9481 1.32008 32.4814 1.32008C32.4547 1.32008 32.4414 1.28008 32.4414 1.20008C32.4414 1.12008 32.4547 1.08008 32.4814 1.08008C32.8147 1.08008 33.1881 1.09341 33.6014 1.12008C34.0147 1.13341 34.4547 1.14008 34.9214 1.14008C35.4014 1.14008 35.8481 1.13341 36.2614 1.12008C36.6747 1.09341 37.0414 1.08008 37.3614 1.08008C37.3881 1.08008 37.4014 1.12008 37.4014 1.20008C37.4014 1.28008 37.3881 1.32008 37.3614 1.32008C36.8947 1.32008 36.5481 1.36008 36.3214 1.44008C36.0947 1.52008 35.9414 1.66008 35.8614 1.86008C35.7814 2.06008 35.7414 2.35341 35.7414 2.74008V11.9601Z" fill="#333333"/>
<path d="M23.1877 13.8199C22.2277 13.8199 21.3543 13.6532 20.5677 13.3199C19.7943 12.9732 19.1277 12.4999 18.5677 11.8999C18.021 11.2999 17.5943 10.6132 17.2877 9.83986C16.9943 9.0532 16.8477 8.21986 16.8477 7.33986C16.8477 6.25986 17.0543 5.3132 17.4677 4.49986C17.8943 3.68653 18.4543 3.0132 19.1477 2.47986C19.841 1.9332 20.601 1.52653 21.4277 1.25986C22.2543 0.993196 23.0743 0.859863 23.8877 0.859863C24.8743 0.859863 25.7543 1.03986 26.5277 1.39986C27.3143 1.74653 27.981 2.21986 28.5277 2.81986C29.0743 3.41986 29.4877 4.09986 29.7677 4.85986C30.061 5.61986 30.2077 6.39986 30.2077 7.19986C30.2077 8.1332 30.021 8.99986 29.6477 9.79986C29.2743 10.5999 28.761 11.2999 28.1077 11.8999C27.4677 12.4999 26.721 12.9732 25.8677 13.3199C25.0277 13.6532 24.1343 13.8199 23.1877 13.8199ZM23.8877 13.3799C24.7277 13.3799 25.4877 13.1665 26.1677 12.7399C26.861 12.2999 27.401 11.6665 27.7877 10.8399C28.1877 9.99986 28.3877 8.9732 28.3877 7.75986C28.3877 6.51986 28.1677 5.41986 27.7277 4.45986C27.301 3.48653 26.6877 2.72653 25.8877 2.17986C25.101 1.61986 24.161 1.33986 23.0677 1.33986C21.6677 1.33986 20.581 1.8132 19.8077 2.75986C19.0477 3.70653 18.6677 4.99986 18.6677 6.63986C18.6677 7.58653 18.7877 8.4732 19.0277 9.29986C19.281 10.1132 19.641 10.8265 20.1077 11.4399C20.5743 12.0532 21.1277 12.5332 21.7677 12.8799C22.4077 13.2132 23.1143 13.3799 23.8877 13.3799Z" fill="#333333"/>
<path d="M8.55297 11.88C8.55297 12.28 8.59964 12.5867 8.69297 12.8C8.79964 13 9.01297 13.14 9.33297 13.22C9.65297 13.3 10.133 13.34 10.773 13.34C10.813 13.34 10.833 13.38 10.833 13.46C10.833 13.54 10.813 13.58 10.773 13.58C10.3463 13.58 9.87964 13.5734 9.37297 13.56C8.87964 13.5467 8.33964 13.54 7.75297 13.54C7.31297 13.54 6.87964 13.5467 6.45297 13.56C6.03964 13.5734 5.6663 13.58 5.33297 13.58C5.3063 13.58 5.29297 13.54 5.29297 13.46C5.29297 13.38 5.3063 13.34 5.33297 13.34C5.79964 13.34 6.1463 13.3067 6.37297 13.24C6.61297 13.1734 6.7663 13.04 6.83297 12.84C6.91297 12.64 6.95297 12.3467 6.95297 11.96L6.95297 2.70002C6.95297 2.31335 6.91297 2.02669 6.83297 1.84002C6.7663 1.64002 6.61297 1.50669 6.37297 1.44002C6.1463 1.36002 5.79964 1.32002 5.33297 1.32002C5.3063 1.32002 5.29297 1.28002 5.29297 1.20002C5.29297 1.12002 5.3063 1.08002 5.33297 1.08002C5.6663 1.08002 6.03964 1.09335 6.45297 1.12002C6.8663 1.13335 7.29297 1.14002 7.73297 1.14002C8.07964 1.14002 8.49964 1.12002 8.99297 1.08002C9.49964 1.04002 10.0063 1.02002 10.513 1.02002C11.2863 1.02002 11.9796 1.13335 12.593 1.36002C13.2196 1.58669 13.7196 1.94002 14.093 2.42002C14.4663 2.90002 14.6596 3.52669 14.673 4.30002C14.673 4.99335 14.5463 5.59335 14.293 6.10002C14.0396 6.60669 13.693 7.02669 13.253 7.36002C12.8263 7.69335 12.3463 7.94002 11.813 8.10002C11.293 8.26002 10.7796 8.34002 10.273 8.34002C10.113 8.34002 9.9463 8.33335 9.77297 8.32002C9.61297 8.30669 9.45964 8.28002 9.31297 8.24002C9.25964 8.22669 9.23964 8.18002 9.25297 8.10002C9.27964 8.00669 9.31297 7.96669 9.35297 7.98002C9.47297 8.00669 9.59297 8.02669 9.71297 8.04002C9.8463 8.05335 9.95964 8.06002 10.053 8.06002C10.5596 8.06002 11.0263 7.94002 11.453 7.70002C11.8796 7.46002 12.2263 7.09335 12.493 6.60002C12.7596 6.09335 12.893 5.46669 12.893 4.72002C12.893 4.00002 12.7663 3.39335 12.513 2.90002C12.273 2.40669 11.933 2.02669 11.493 1.76002C11.053 1.49335 10.5463 1.36002 9.97297 1.36002C9.59964 1.36002 9.3063 1.38669 9.09297 1.44002C8.89297 1.49335 8.75297 1.62002 8.67297 1.82002C8.59297 2.02002 8.55297 2.32669 8.55297 2.74002L8.55297 11.88Z" fill="#333333"/>
<path d="M39.9109 64.2261C39.6975 64.2261 39.5269 64.1408 39.3989 63.9701C39.3135 63.7995 39.3349 63.6288 39.4629 63.4581L59.7509 34.0181C59.8362 33.9328 59.9855 33.8901 60.1989 33.8901C60.6255 33.8901 60.8389 34.0395 60.8389 34.3381L60.8389 72.9301C60.8389 73.3995 60.6682 73.6981 60.3269 73.8261L57.6389 75.1701C57.4682 75.2555 57.3402 75.2981 57.2549 75.2981C57.0842 75.2981 56.9989 75.1275 56.9989 74.7861L56.9989 39.5221L58.9829 37.7941L42.7269 61.8581C42.6415 61.9861 42.6202 62.0928 42.6629 62.1781C42.7482 62.2635 42.8762 62.3061 43.0469 62.3061C49.8309 62.3061 56.6362 62.1995 63.4629 61.9861L66.1509 61.9221C66.3215 61.9221 66.4069 62.3275 66.4069 63.1381C66.4069 63.4795 66.3642 63.8208 66.2789 64.1621C66.2362 64.5035 66.1722 64.6741 66.0869 64.6741C62.8442 64.5035 59.3242 64.3968 55.5269 64.3541C51.7722 64.2688 46.5669 64.2261 39.9109 64.2261Z" fill="#333333"/>
<path d="M19.8218 65.5705C16.8778 65.5705 14.2538 64.9092 11.9498 63.5865C9.64584 62.2212 7.83251 60.3438 6.50984 57.9545C5.22984 55.5225 4.58984 52.7492 4.58984 49.6345C4.58984 46.6052 5.22984 43.9172 6.50984 41.5705C7.83251 39.2238 9.64584 37.4105 11.9498 36.1305C14.2965 34.8078 16.9418 34.1465 19.8858 34.1465C22.7872 34.1465 25.3685 34.8078 27.6298 36.1305C29.9338 37.4532 31.7045 39.3092 32.9418 41.6985C34.2218 44.0452 34.8618 46.7545 34.8618 49.8265C34.8618 52.8985 34.2218 55.6292 32.9418 58.0185C31.6618 60.4078 29.8698 62.2638 27.5658 63.5865C25.3045 64.9092 22.7232 65.5705 19.8218 65.5705ZM20.5898 64.6745C23.8325 64.6745 26.2432 63.4372 27.8218 60.9625C29.4005 58.4452 30.1898 54.9892 30.1898 50.5945C30.1898 47.1385 29.6992 44.2372 28.7178 41.8905C27.7365 39.5438 26.4138 37.8158 24.7498 36.7065C23.0858 35.5545 21.2298 34.9785 19.1818 34.9785C16.0245 34.9785 13.5498 36.3012 11.7578 38.9465C9.96584 41.5492 9.06984 44.9625 9.06984 49.1865C9.06984 52.1732 9.53918 54.8398 10.4778 57.1865C11.4165 59.5332 12.7605 61.3678 14.5098 62.6905C16.2592 64.0132 18.2858 64.6745 20.5898 64.6745Z" fill="#333333"/>
<path d="M137.242 2.20085V193.021C185.38 188.639 216.823 192.254 238.311 209.206C239.929 210.481 241.488 211.832 242.992 213.259C244.992 215.148 246.895 217.179 248.711 219.349C248.905 219.582 249.103 219.818 249.294 220.054V29.2337C227.918 3.05159 194.315 -2.98696 137.246 2.20085H137.242Z" fill="white" stroke="#F2F2F2" stroke-linecap="round" stroke-linejoin="round"/>
<path d="M238.309 217.602C222.582 214.97 188.219 211.724 124.236 216.224V28.73C124.236 28.73 126.451 27.6813 129.768 26.7681C124.489 27.4487 117.677 28.2716 112.898 29.2335V220.054H248.705V219.866C247.844 219.603 246.004 219.092 242.986 218.471C241.66 218.2 240.104 217.905 238.305 217.602H238.309Z" fill="#333333" stroke="#F2F2F2" stroke-linecap="round" stroke-linejoin="round"/>
<path d="M112.9 29.2334H110V220.054H112.9V29.2334Z" fill="#333333" stroke="#F2F2F2" stroke-linecap="round" stroke-linejoin="round"/>
<path d="M391.356 29.2334H389.078V220.054H391.356V29.2334Z" fill="#333333" stroke="#F2F2F2" stroke-linecap="round" stroke-linejoin="round"/>
<path d="M249.289 29.2334V220.054H383.318V29.2334C326.867 22.6149 282.19 22.6149 249.289 29.2334Z" fill="white" stroke="#F2F2F2" stroke-linecap="round" stroke-linejoin="round"/>
<path d="M195.296 22.1951C189.351 21.4694 182.892 21.1187 175.548 21.1187C169.919 21.1187 163.989 21.3235 157.415 21.7472C156.554 21.8027 155.905 22.5458 155.96 23.4035C156.016 24.2647 156.759 24.914 157.617 24.8585C164.121 24.4383 169.985 24.2369 175.548 24.2369C182.767 24.2369 189.101 24.5807 194.918 25.2925C194.98 25.2995 195.046 25.3029 195.109 25.3029C195.886 25.3029 196.56 24.723 196.654 23.9313C196.758 23.0771 196.15 22.2993 195.293 22.1951H195.296Z" fill="#333333"/>
<path d="M175.544 40.2622C169.918 40.2622 164.001 40.4671 157.452 40.8838C156.963 40.915 156.588 41.3387 156.619 41.8317C156.65 42.3214 157.067 42.6929 157.567 42.6651C164.078 42.2484 169.957 42.047 175.544 42.047C203.49 42.047 221.439 47.4015 233.745 59.4127C233.919 59.5828 234.145 59.6661 234.367 59.6661C234.589 59.6661 234.829 59.5759 235.006 59.3988C235.349 59.0481 235.343 58.4821 234.992 58.1383C222.328 45.7764 203.993 40.2657 175.547 40.2657L175.544 40.2622Z" fill="#333333"/>
<path d="M175.544 58.7393C169.908 58.7393 163.991 58.9407 157.452 59.3539C156.959 59.3852 156.588 59.8088 156.619 60.2984C156.65 60.7915 157.074 61.1631 157.564 61.1318C164.064 60.7186 169.943 60.5207 175.544 60.5207C203.132 60.5207 221.088 65.6494 233.766 77.1467C233.936 77.3029 234.152 77.3793 234.363 77.3793C234.606 77.3793 234.849 77.2821 235.023 77.0876C235.353 76.723 235.325 76.1605 234.961 75.8271C221.932 64.007 203.604 58.7358 175.54 58.7358L175.544 58.7393Z" fill="#333333"/>
<path d="M175.552 77.2158C169.909 77.2158 163.988 77.4138 157.46 77.827C156.971 77.8582 156.596 78.2819 156.627 78.7715C156.658 79.2646 157.082 79.6396 157.571 79.6049C164.065 79.1951 169.944 78.9972 175.552 78.9972C202.779 78.9972 220.742 83.8968 233.798 94.887C233.965 95.0294 234.17 95.0954 234.371 95.0954C234.625 95.0954 234.878 94.9877 235.055 94.7794C235.371 94.4044 235.323 93.8418 234.948 93.5224C221.547 82.2439 203.23 77.2158 175.555 77.2158H175.552Z" fill="#333333"/>
<path d="M234.915 111.218C221.144 100.481 202.834 95.6924 175.547 95.6924C169.894 95.6924 163.977 95.8903 157.452 96.2966C156.963 96.3278 156.588 96.7515 156.619 97.2411C156.65 97.7307 157.07 98.1057 157.563 98.0745C164.047 97.6717 169.929 97.4737 175.547 97.4737C202.406 97.4737 220.38 102.144 233.818 112.62C233.981 112.749 234.172 112.808 234.367 112.808C234.631 112.808 234.895 112.69 235.072 112.464C235.374 112.075 235.304 111.516 234.915 111.214V111.218Z" fill="#333333"/>
<path d="M234.864 129.764C220.52 120.24 201.671 115.802 175.555 115.802C169.881 115.802 163.964 115.996 157.46 116.396C156.967 116.427 156.596 116.847 156.627 117.34C156.658 117.83 157.075 118.205 157.571 118.173C164.037 117.778 169.919 117.583 175.559 117.583C201.31 117.583 219.842 121.924 233.881 131.247C234.034 131.348 234.204 131.396 234.375 131.396C234.663 131.396 234.948 131.258 235.118 130.997C235.389 130.587 235.277 130.035 234.868 129.761L234.864 129.764Z" fill="#333333"/>
<path d="M234.836 149.566C220.099 140.573 201.261 136.381 175.558 136.381C169.874 136.381 163.957 136.572 157.463 136.968C156.974 136.999 156.599 137.42 156.626 137.913C156.658 138.402 157.078 138.777 157.571 138.75C164.03 138.357 169.912 138.166 175.558 138.166C200.921 138.166 219.464 142.274 233.909 151.087C234.055 151.174 234.214 151.219 234.371 151.219C234.673 151.219 234.965 151.066 235.131 150.792C235.388 150.372 235.256 149.823 234.836 149.566Z" fill="#333333"/>
<path d="M213.067 158.855C202.275 156.167 190.003 154.861 175.558 154.861C169.867 154.861 163.946 155.052 157.463 155.441C156.974 155.469 156.599 155.893 156.626 156.386C156.658 156.879 157.081 157.257 157.571 157.223C164.019 156.834 169.905 156.646 175.562 156.646C189.861 156.646 201.99 157.934 212.64 160.587C212.713 160.605 212.786 160.615 212.856 160.615C213.255 160.615 213.62 160.344 213.72 159.938C213.838 159.459 213.55 158.976 213.071 158.858L213.067 158.855Z" fill="#333333"/>
<path d="M365.489 201.337H267.111C266.618 201.337 266.219 201.737 266.219 202.23C266.219 202.723 266.618 203.122 267.111 203.122H365.489C365.982 203.122 366.381 202.723 366.381 202.23C366.381 201.737 365.982 201.337 365.489 201.337Z" fill="#333333"/>
<path d="M365.575 181.718C362.794 181.443 308.03 181.322 307.489 181.322C307.107 181.322 268.632 181.409 267 181.617C266.514 181.679 266.17 182.124 266.229 182.61C266.288 183.096 266.733 183.443 267.222 183.384C268.663 183.211 304.165 183.103 307.489 183.103C310.27 183.103 362.825 183.239 365.402 183.492C365.433 183.492 365.461 183.496 365.489 183.496C365.94 183.496 366.329 183.152 366.374 182.69C366.423 182.2 366.065 181.763 365.575 181.714V181.718Z" fill="#333333"/>
<path d="M328.529 161.432C318.438 161.349 309.337 161.304 307.489 161.304C305.236 161.304 270.175 161.481 267.001 161.884C266.511 161.946 266.167 162.391 266.23 162.88C266.286 163.332 266.671 163.658 267.112 163.658C267.15 163.658 267.188 163.658 267.227 163.651C270.143 163.28 303.659 163.085 307.489 163.085C309.337 163.085 318.431 163.13 328.515 163.214C329.011 163.214 329.411 162.821 329.414 162.328C329.418 161.835 329.022 161.432 328.529 161.429V161.432Z" fill="#333333"/>
<path d="M365.576 142.468C357.405 141.666 312.823 141.288 307.482 141.288C301.801 141.288 271.539 141.579 266.997 142.156C266.507 142.218 266.164 142.663 266.226 143.152C266.289 143.642 266.736 143.986 267.223 143.923C271.688 143.357 301.818 143.069 307.482 143.069C314.965 143.069 357.617 143.479 365.399 144.243C365.43 144.243 365.458 144.246 365.485 144.246C365.937 144.246 366.326 143.902 366.371 143.441C366.42 142.951 366.062 142.513 365.572 142.465L365.576 142.468Z" fill="#333333"/>
<path d="M365.576 122.846C354.707 121.777 315.806 121.27 307.482 121.27C301.045 121.27 273.276 121.628 267.001 122.426C266.511 122.489 266.167 122.933 266.23 123.423C266.292 123.913 266.74 124.256 267.227 124.194C273.022 123.458 299.697 123.051 307.482 123.051C315.268 123.051 354.78 123.572 365.403 124.617C365.434 124.617 365.462 124.621 365.489 124.621C365.941 124.621 366.33 124.277 366.375 123.815C366.423 123.326 366.066 122.888 365.576 122.84V122.846Z" fill="#333333"/>
<path d="M307.479 100.584C297.579 100.584 274.29 101.094 266.918 102.032C266.064 102.14 265.459 102.921 265.567 103.775C265.668 104.563 266.338 105.14 267.112 105.14C267.178 105.14 267.244 105.136 267.31 105.126C274.557 104.206 297.649 103.702 307.479 103.702C308.34 103.702 309.039 103.004 309.039 102.143C309.039 101.282 308.34 100.584 307.479 100.584Z" fill="#333333"/>
<path d="M328.546 81.6039C320.594 81.3713 312.917 81.2358 307.476 81.2358C296.642 81.2358 276.286 81.7845 267.001 82.9651C266.511 83.0276 266.167 83.4721 266.23 83.9617C266.286 84.4131 266.671 84.7395 267.112 84.7395C267.15 84.7395 267.188 84.7395 267.227 84.7326C276.036 83.6145 296.263 83.0172 307.479 83.0172C312.903 83.0172 320.563 83.1491 328.498 83.3818C328.998 83.3887 329.4 83.0103 329.414 82.5172C329.428 82.0241 329.043 81.6143 328.55 81.6004L328.546 81.6039Z" fill="#333333"/>
<path d="M365.576 63.9748C346.335 62.0824 321.969 61.2212 307.472 61.2212C295.228 61.2212 277.963 61.8462 266.997 63.2387C266.507 63.3012 266.164 63.7457 266.226 64.2353C266.289 64.7249 266.736 65.0652 267.223 65.0061C278.112 63.6241 295.283 63.006 307.472 63.006C321.927 63.006 346.22 63.8637 365.402 65.7492C365.433 65.7492 365.461 65.7527 365.489 65.7527C365.94 65.7527 366.329 65.4089 366.374 64.9471C366.423 64.4575 366.065 64.02 365.576 63.9714V63.9748Z" fill="#333333"/>
<path d="M321.567 40.7544C316.744 40.6086 312.001 40.5356 307.472 40.5356C292.624 40.5356 278.981 41.3135 266.918 42.8448C266.064 42.9525 265.459 43.7338 265.567 44.588C265.668 45.3762 266.338 45.9526 267.112 45.9526C267.178 45.9526 267.244 45.9492 267.31 45.9387C279.242 44.4248 292.756 43.6539 307.472 43.6539C311.973 43.6539 316.685 43.7268 321.477 43.8692C322.341 43.8935 323.057 43.2164 323.081 42.3552C323.105 41.494 322.428 40.7752 321.567 40.7509V40.7544Z" fill="#333333"/>
<path d="M389.078 29.2334H383.324V220.054H389.078V29.2334Z" fill="#333333" stroke="#F2F2F2" stroke-linecap="round" stroke-linejoin="round"/>
<path d="M242.988 213.258C241.484 211.831 239.925 210.48 238.307 209.206C216.816 192.253 185.377 188.639 137.239 193.021V25.9136C134.697 26.1671 132.211 26.4518 129.78 26.7678H129.766C126.45 27.681 124.234 28.7297 124.234 28.7297V216.224C188.217 211.723 222.581 214.967 238.307 217.602C240.102 217.904 241.658 218.199 242.988 218.47C246.006 219.088 247.846 219.602 248.707 219.866V219.349C246.895 217.179 244.992 215.147 242.988 213.258Z" fill="#F2F2F2" stroke="#F2F2F2" stroke-linecap="round" stroke-linejoin="round"/>
<path d="M158.262 244.844H164.846L166.231 234.114L160.467 234.753L158.262 244.844Z" fill="white" stroke="#333333" stroke-linecap="round" stroke-linejoin="round"/>
<path d="M187.723 236.676V244.844L194.077 244.139L192.848 236.142L187.723 236.676Z" fill="white" stroke="#333333" stroke-linecap="round" stroke-linejoin="round"/>
<path d="M202.367 247.195C201.554 246.966 200.7 246.917 199.881 246.726C198.971 246.514 198.103 246.115 197.335 245.583C196.693 245.139 196.12 244.597 195.648 243.993C195.471 243.767 194.533 242.184 194.276 242.194C190.394 243.663 187.251 242.458 187.251 242.458C187.251 242.458 184.703 249.792 186.88 251.799H205.707C205.707 251.799 205.763 250.57 204.832 249.111C204.252 248.205 203.416 247.493 202.367 247.198V247.195Z" fill="white" stroke="#333333" stroke-linecap="round" stroke-linejoin="round"/>
<path d="M173.066 247.195C172.254 246.966 171.399 246.917 170.58 246.726C169.67 246.514 168.802 246.115 168.035 245.583C167.392 245.139 166.819 244.597 166.347 243.993C166.17 243.767 165.232 242.184 164.975 242.194C161.093 243.663 157.951 242.458 157.951 242.458C157.951 242.458 155.402 249.792 157.579 251.799H176.407C176.407 251.799 176.462 250.57 175.532 249.111C174.952 248.205 174.115 247.493 173.066 247.198V247.195Z" fill="white" stroke="#333333" stroke-linecap="round" stroke-linejoin="round"/>
<path d="M169.396 158.158L172.89 146.077V104.749C172.89 104.749 164.754 116.444 163.254 131.615C161.754 146.786 169.393 158.158 169.393 158.158H169.396Z" fill="#F2F2F2" stroke="#333333" stroke-linecap="round" stroke-linejoin="round"/>
<path d="M168.51 151.217C168.51 151.217 168.43 182.003 165.003 199.935C161.575 217.867 159.051 237.711 159.051 237.711C159.051 237.711 162.919 239.288 166.089 238.378C166.089 238.378 178.292 202.654 180.997 182.934C183.702 163.214 185.323 147.269 185.323 147.269H168.555L168.513 151.22L168.51 151.217Z" fill="#333333" stroke="#333333" stroke-linecap="round" stroke-linejoin="round"/>
<path d="M176.402 147.265C176.402 147.265 184.01 190.361 184.705 197.41C185.403 204.46 184.218 228.798 186.225 238.972C188.417 239.482 191.51 239.236 193.597 238.475C193.597 238.475 195.98 209.234 195.462 194.139C194.948 179.048 195.875 147.265 195.875 147.265H176.398H176.402Z" fill="#333333" stroke="#333333" stroke-linecap="round" stroke-linejoin="round"/>
<path d="M186.145 104.124L172.891 103.645L171.443 110.964C171.443 110.964 166.752 133.341 168.512 151.217C168.512 151.217 182.256 153.373 195.747 151.502C195.747 151.502 196.292 138.501 195.747 128.702L186.142 104.124H186.145Z" fill="#F2F2F2" stroke="#333333" stroke-linecap="round" stroke-linejoin="round"/>
<path d="M235.176 102.727C235.023 101.56 233.842 102.345 233.842 102.345C228.63 106.071 227.359 112.644 227.359 112.644L230.096 115.717C236.725 111.762 235.103 110.085 234.683 108.252C234.263 106.418 232.62 107.043 232.62 107.043C233.766 103.758 235.332 103.89 235.179 102.727H235.176Z" fill="white" stroke="#333333" stroke-linecap="round" stroke-linejoin="round"/>
<path d="M208.666 122.992C208.666 122.992 198.475 116.155 187.116 106.512C181.644 108.116 177.185 114.981 183.102 120.394L193.026 127.336C193.026 127.336 202.52 134.44 210.868 133.999C219.216 133.558 230.463 115.797 230.463 115.797L227.004 112.349C227.004 112.349 216.045 120.794 208.666 122.995V122.992Z" fill="#F2F2F2"/>
<path d="M183.098 120.394L193.022 127.336C193.022 127.336 202.515 134.44 210.863 133.999C219.211 133.558 230.458 115.797 230.458 115.797L227 112.349C227 112.349 216.041 120.794 208.662 122.995C208.662 122.995 198.47 116.158 187.112 106.515" stroke="#333333" stroke-linecap="round" stroke-linejoin="round"/>
<path d="M187.226 82.8374C187.226 82.8374 182.743 76.2954 178.625 86.7092C173.857 98.769 182.743 99.328 182.743 99.328C187.021 100.384 189.733 96.5501 189.396 91.904C188.966 85.9661 187.226 82.8374 187.226 82.8374Z" fill="white" stroke="#333333" stroke-linecap="round" stroke-linejoin="round"/>
<path d="M185.192 88.6507C185.192 88.6507 188.536 85.8449 187.855 83.2094C187.397 81.4419 185.758 80.0564 184.181 79.2994C181.757 78.1396 178.775 78.0389 176.243 78.9904C175.646 79.2161 175.101 79.4973 174.604 79.8272C172.597 81.1606 171.361 83.2996 170.635 85.6817C170.069 87.5395 169.857 89.5049 169.982 91.446C170.111 93.4183 170.291 95.4011 170.222 97.3803C170.153 99.4048 169.791 101.401 169.33 103.37C168.958 104.961 169.319 106.61 170.614 107.7C171.535 108.475 173.51 107.822 174.549 107.888C176.17 107.992 177.58 109.058 179.23 109.263C181.556 109.555 184.143 109.773 186.011 108.141C187.831 106.551 188.435 104.113 187.831 101.808C186.588 97.0574 184.834 94.5711 185.188 88.6541L185.192 88.6507Z" fill="#333333" stroke="#333333" stroke-linecap="round" stroke-linejoin="round"/>
<path opacity="0.5" d="M368.502 117.156C370.738 112.694 371.967 107.992 372.287 103.304L345.035 136.122C354.873 133.577 363.599 126.955 368.505 117.156H368.502Z" fill="white"/>
<path opacity="0.5" d="M331.738 137.053C333.832 137.292 335.933 137.351 338.013 137.23L372.074 96.2133C371.807 94.1333 371.359 92.0846 370.741 90.0845L331.738 137.053Z" fill="white"/>
<path opacity="0.5" d="M352.235 68.2502C334.237 59.2393 312.344 66.5209 303.329 84.5185C294.318 102.516 301.603 124.41 319.598 133.424C322.459 134.855 325.417 135.876 328.404 136.508L369.59 86.9076C366.357 79.0807 360.395 72.3373 352.231 68.2502H352.235Z" fill="white"/>
<path opacity="0.22" d="M335.938 143.324C359.438 143.324 378.489 124.273 378.489 100.773C378.489 77.2725 359.438 58.2217 335.938 58.2217C312.438 58.2217 293.387 77.2725 293.387 100.773C293.387 124.273 312.438 143.324 335.938 143.324Z" fill="white" stroke="#333333" stroke-linecap="round" stroke-linejoin="round"/>
<path d="M381.516 108.359L378.195 118.905L426.671 134.17L429.992 123.625L381.516 108.359Z" fill="#F2F2F2" stroke="#333333" stroke-linecap="round" stroke-linejoin="round"/>
<path d="M468.262 131.831L402.811 111.211C401.501 110.798 400.109 111.524 399.696 112.833L395.522 126.087C395.109 127.396 395.838 128.789 397.144 129.202L462.595 149.821C463.905 150.234 465.297 149.505 465.71 148.2L469.884 134.945C470.297 133.636 469.568 132.244 468.262 131.831Z" fill="#333333" stroke="#F2F2F2" stroke-linecap="round" stroke-linejoin="round"/>
<path d="M350.651 54.048C324.809 45.9086 297.263 60.2567 289.123 86.0985C280.984 111.94 295.332 139.487 321.174 147.627C347.016 155.766 374.562 141.418 382.702 115.576C390.841 89.7342 376.493 62.1874 350.651 54.048ZM370.666 111.784C364.621 130.976 344.161 141.633 324.969 135.588C305.777 129.542 295.12 109.083 301.166 89.8904C307.211 70.6983 327.671 60.0414 346.863 66.0869C366.055 72.1324 376.712 92.592 370.666 111.784Z" fill="#F2F2F2" stroke="#333333" stroke-linecap="round" stroke-linejoin="round"/>
<path d="M398.506 132.515C398.117 132.924 397.724 133.327 397.332 133.733C397.238 133.983 397.148 134.237 397.051 134.484C397.575 133.883 398.02 133.167 398.502 132.515H398.506Z" fill="white" stroke="#333333" stroke-linecap="round" stroke-linejoin="round"/>
<path d="M417.302 117.312C417.288 117.514 416.872 118.194 416.847 118.316C416.163 122.004 407.559 137.064 406.826 137.796C399.933 144.689 395.291 146.408 389.103 150.939C386.978 152.495 386.137 152.176 384.429 150.734C382.922 149.46 383.547 147.727 384.804 146.55C388.981 142.241 393.2 138.043 397.336 133.733C399.916 126.785 402.013 119.038 404.895 112.423C406.666 108.357 409.392 107.753 413.205 108.94C417.021 110.128 417.528 113.843 417.302 117.312Z" fill="#F2F2F2" stroke="#333333" stroke-linecap="round" stroke-linejoin="round"/>
<path d="M402.777 247.643H396.863V256.359H402.777V247.643Z" fill="white" stroke="#333333" stroke-linecap="round" stroke-linejoin="round"/>
<path d="M397.398 168.034C397.398 168.034 396.016 194.942 396.182 205.286C396.356 216.106 396.047 249.692 396.047 249.692H403.797C403.797 249.692 408.322 225.256 407.853 205.88L414.065 168.034H397.398Z" fill="#333333" stroke="#333333" stroke-linecap="round" stroke-linejoin="round"/>
<path d="M396.629 254.765C396.386 254.758 395.511 256.238 395.345 256.449C394.904 257.015 394.365 257.519 393.765 257.936C393.046 258.436 392.237 258.807 391.386 259.005C390.615 259.182 386.695 259.043 385.934 259.255C384.955 259.529 384.17 260.196 383.629 261.043C382.76 262.405 382.809 263.745 382.809 263.745H403.546C405.585 261.87 403.199 255.008 403.199 255.008C403.199 255.008 400.258 256.137 396.626 254.762L396.629 254.765Z" fill="white" stroke="#333333" stroke-linecap="round" stroke-linejoin="round"/>
<path d="M426.39 247.643H420.477V256.359H426.39V247.643Z" fill="white" stroke="#333333" stroke-linecap="round" stroke-linejoin="round"/>
<path d="M411.102 168.034C411.102 168.034 412.372 195.373 412.921 204.818C413.47 214.263 419.442 249.692 419.442 249.692L426.991 249.348C426.991 249.348 427.325 218.204 425.012 205.495L427.96 168.034H411.102Z" fill="#333333" stroke="#333333" stroke-linecap="round" stroke-linejoin="round"/>
<path d="M420.243 254.765C420 254.758 419.124 256.238 418.958 256.449C418.517 257.015 417.979 257.519 417.378 257.936C416.659 258.436 415.85 258.807 414.999 259.005C414.228 259.182 410.308 259.043 409.548 259.255C408.568 259.529 407.784 260.196 407.242 261.043C406.374 262.405 406.422 263.745 406.422 263.745H427.16C429.198 261.87 426.812 255.008 426.812 255.008C426.812 255.008 423.871 256.137 420.239 254.762L420.243 254.765Z" fill="white" stroke="#333333" stroke-linecap="round" stroke-linejoin="round"/>
<path d="M417.394 108.704H409.074V100.797C409.619 100.953 410.227 101.037 410.897 101.03C413.231 101.002 415.009 99.4394 416.221 97.8317C416.498 97.4601 416.745 97.092 416.967 96.7344L417.03 101.054L417.394 108.704Z" fill="white" stroke="#333333" stroke-linecap="round" stroke-linejoin="round"/>
<path d="M413.02 103.072C412.374 103.36 411.665 103.534 410.901 103.544C410.231 103.551 409.624 103.468 409.078 103.311C405.714 102.374 404.609 98.752 404.168 96.8283C403.727 94.8941 403.144 90.0744 403.144 90.0744C403.102 89.5049 403.179 89.0188 403.349 88.5986C404.016 88.7792 404.755 88.8174 405.398 88.8313C407.38 88.8729 408.509 88.6403 410.124 88.7097C411.662 88.7792 412.704 88.8799 414.113 89.2202C415.176 89.4737 415.877 90.1716 416.339 91.13C416.725 91.9287 417.013 92.2134 417.808 92.6579C417.822 92.6475 417.836 92.6371 417.853 92.6266C418.631 92.0815 419.725 92.262 419.892 93.3663C420.041 94.342 419.503 95.1511 419.194 96.0157C418.787 97.1512 418.162 96.8804 418.162 96.8804C418.162 96.8804 417.763 97.9603 416.971 99.2486L413.02 103.072Z" fill="white"/>
<path d="M413.02 103.072C412.374 103.36 411.665 103.534 410.901 103.544C410.231 103.551 409.624 103.468 409.078 103.311C405.714 102.374 404.609 98.752 404.168 96.8283C403.727 94.8941 403.144 90.0744 403.144 90.0744C403.102 89.5049 403.179 89.0188 403.349 88.5986C404.016 88.7792 404.755 88.8174 405.398 88.8313C407.38 88.8729 408.509 88.6403 410.124 88.7097C411.662 88.7792 412.704 88.8799 414.113 89.2202C415.176 89.4737 415.877 90.1716 416.339 91.13C416.725 91.9287 417.013 92.2134 417.808 92.6579C417.822 92.6475 417.836 92.6371 417.853 92.6266C418.631 92.0815 419.725 92.262 419.892 93.3663C420.041 94.342 419.503 95.1511 419.194 96.0157C418.787 97.1512 418.162 96.8804 418.162 96.8804C418.162 96.8804 417.763 97.9603 416.971 99.2486" stroke="#333333" stroke-linecap="round" stroke-linejoin="round"/>
<path d="M417.031 101.051L416.968 99.2452C417.76 97.9569 418.159 96.877 418.159 96.877C418.159 96.877 418.784 97.1478 419.19 96.0123C419.5 95.1477 420.038 94.3386 419.888 93.3629C419.722 92.2586 418.628 92.0781 417.85 92.6232C417.847 92.6024 417.843 92.5781 417.847 92.5573C417.829 92.5885 417.819 92.6232 417.805 92.6545C417.01 92.21 416.722 91.9253 416.336 91.1266C415.874 90.1682 415.173 89.4703 414.11 89.2168C412.7 88.8765 411.659 88.7758 410.12 88.7063C408.506 88.6369 407.377 88.8695 405.395 88.8279C404.752 88.814 404.012 88.7758 403.346 88.5952C402.182 88.2792 401.238 87.5361 401.401 85.7652C401.426 85.5013 401.86 84.4839 402.328 84.5116C401.96 84.3658 401.62 84.0741 401.589 83.6574C401.474 82.1191 403.151 81.1607 404.273 80.5739C409.183 78.0078 416.937 78.7995 420.215 83.5741C420.67 84.2339 420.961 84.8519 421.187 85.4978C421.854 87.0153 422.003 88.8591 422.118 89.5745C422.788 93.8421 418.413 99.4153 417.031 101.051Z" fill="#333333" stroke="#333333" stroke-linecap="round" stroke-linejoin="round"/>
<path d="M415.639 106.965H411.781C404.225 107.788 402.19 118.702 400.975 124.209C400.315 127.206 396.784 168.031 397.395 168.031H428.081C428.081 168.031 429.268 135.463 426.511 119.552C425.31 112.604 424.188 107.496 415.639 106.965Z" fill="#F2F2F2" stroke="#333333" stroke-linecap="round" stroke-linejoin="round"/>
<path d="M384.656 147.971L382.916 149.339C382.916 149.339 379.725 149.974 379.145 150.665C378.565 151.356 378.686 151.846 378.686 151.846L385.735 152.238L387.003 150.839C387.531 149.613 386.704 148.578 384.656 147.971Z" fill="white" stroke="#333333" stroke-linecap="round" stroke-linejoin="round"/>
<path d="M391.019 151.662C391.019 152.38 390.436 152.964 389.717 152.964H370.789C370.73 152.964 370.667 152.96 370.612 152.95L367.355 152.964C366.855 152.964 366.421 152.616 366.317 152.13L362.188 132.817C362.049 132.167 362.539 131.553 363.202 131.542L377.65 131.282C378.168 131.275 378.616 131.639 378.71 132.15L382.029 150.356H389.717C390.436 150.356 391.019 150.939 391.019 151.662Z" fill="white" stroke="#333333" stroke-linecap="round" stroke-linejoin="round"/>
<path d="M387.059 155.148C384.583 155.801 383.462 155.686 380.718 156.03C379.26 156.214 377.788 155.342 376.701 154.703C376.003 154.294 375.756 153.526 375.458 152.814C375.159 152.103 374.996 151.346 374.715 150.613C374.527 150.13 374.326 149.665 374.392 149.127C374.402 149.064 374.406 149.012 374.447 148.967C375.253 148.047 376.871 149.939 377.302 150.436C378.263 151.547 378.753 152.172 379.941 152.752C379.58 152.346 379.274 151.894 379 151.446C378.892 151.273 378.92 151.033 379.034 150.877C379.152 150.724 379.343 150.648 379.579 150.728C380.423 151.009 381.837 151.742 382.562 152.387C383.292 153.03 383.528 152.773 384.514 152.655C384.816 152.617 385.08 152.571 385.333 152.498C385.663 152.245 385.976 151.932 386.26 151.568C386.622 152.749 386.875 153.929 387.059 155.148Z" fill="white" stroke="#333333" stroke-linecap="round" stroke-linejoin="round"/>
<path d="M418.279 147.39C418.272 147.411 418.265 147.429 418.258 147.449C417.82 149.29 418.345 147.196 418.279 147.39Z" fill="white" stroke="#333333" stroke-linecap="round" stroke-linejoin="round"/>
<path d="M423.972 114.635C423.972 114.798 424.527 118.25 424.503 118.406C423.395 125.802 419.746 141.251 418.659 145.755C418.472 146.526 418.343 147.071 418.253 147.45C417.398 149.898 416.888 150.415 415.013 151.186C406.551 154.662 396.137 156.141 387.72 156.849C383.619 157.193 384.487 156.349 383.653 153.86C382.9 151.603 383.848 150.471 386.081 150.12C393.741 148.245 400.651 145.974 407.585 142.592C409.134 133.154 410.353 122.952 411.468 113.889C412.041 109.229 414.263 109.711 418.197 109.815C422.131 109.92 423.954 111.048 423.968 114.635H423.972Z" fill="#F2F2F2"/>
<path d="M423.972 121.271C422.326 129.831 419.535 142.144 418.663 145.752C418.475 146.523 418.347 147.068 418.257 147.446C417.402 149.894 416.892 150.412 415.017 151.183C406.555 154.659 396.141 156.138 387.724 156.846C383.623 157.19 384.491 156.346 383.657 153.856C382.904 151.599 383.852 150.467 386.085 150.117C393.745 148.241 400.655 145.971 407.589 142.588C408.905 134.564 409.985 125.987 410.964 118.024" stroke="#333333" stroke-linecap="round" stroke-linejoin="round"/>
</svg>
