<svg width="350" height="264" viewBox="0 0 350 264" fill="none" xmlns="http://www.w3.org/2000/svg">
<path d="M292.127 11.3801C292.127 11.7801 292.173 12.0867 292.267 12.3001C292.373 12.5001 292.587 12.6401 292.907 12.7201C293.227 12.8001 293.707 12.8401 294.347 12.8401C294.387 12.8401 294.407 12.8801 294.407 12.9601C294.407 13.0401 294.387 13.0801 294.347 13.0801C293.92 13.0801 293.453 13.0734 292.947 13.0601C292.453 13.0467 291.913 13.0401 291.327 13.0401C290.887 13.0401 290.453 13.0467 290.027 13.0601C289.613 13.0734 289.24 13.0801 288.907 13.0801C288.88 13.0801 288.867 13.0401 288.867 12.9601C288.867 12.8801 288.88 12.8401 288.907 12.8401C289.373 12.8401 289.72 12.8067 289.947 12.7401C290.187 12.6734 290.34 12.5401 290.407 12.3401C290.487 12.1401 290.527 11.8467 290.527 11.4601V2.20008C290.527 1.81341 290.487 1.52674 290.407 1.34008C290.34 1.14008 290.187 1.00674 289.947 0.940077C289.72 0.860077 289.373 0.820077 288.907 0.820077C288.88 0.820077 288.867 0.780078 288.867 0.700078C288.867 0.620078 288.88 0.580078 288.907 0.580078C289.24 0.580078 289.613 0.593411 290.027 0.620078C290.44 0.633411 290.867 0.640077 291.307 0.640077C291.653 0.640077 292.073 0.620078 292.567 0.580078C293.073 0.540078 293.58 0.520078 294.087 0.520078C294.86 0.520078 295.553 0.633411 296.167 0.860078C296.793 1.08674 297.293 1.44008 297.667 1.92008C298.04 2.40008 298.233 3.02674 298.247 3.80008C298.247 4.49341 298.12 5.09341 297.867 5.60008C297.613 6.10674 297.267 6.52674 296.827 6.86008C296.4 7.19341 295.92 7.44008 295.387 7.60008C294.867 7.76008 294.353 7.84008 293.847 7.84008C293.687 7.84008 293.52 7.83341 293.347 7.82008C293.187 7.80674 293.033 7.78008 292.887 7.74008C292.833 7.72674 292.813 7.68008 292.827 7.60008C292.853 7.50674 292.887 7.46674 292.927 7.48008C293.047 7.50674 293.167 7.52674 293.287 7.54008C293.42 7.55341 293.533 7.56008 293.627 7.56008C294.133 7.56008 294.6 7.44008 295.027 7.20008C295.453 6.96008 295.8 6.59341 296.067 6.10008C296.333 5.59341 296.467 4.96674 296.467 4.22008C296.467 3.50008 296.34 2.89341 296.087 2.40008C295.847 1.90674 295.507 1.52674 295.067 1.26008C294.627 0.993411 294.12 0.860078 293.547 0.860078C293.173 0.860078 292.88 0.886744 292.667 0.940077C292.467 0.993411 292.327 1.12008 292.247 1.32008C292.167 1.52008 292.127 1.82674 292.127 2.24008V11.3801ZM306.765 13.3201C305.805 13.3201 304.931 13.1534 304.145 12.8201C303.371 12.4734 302.705 12.0001 302.145 11.4001C301.598 10.8001 301.171 10.1134 300.865 9.34008C300.571 8.55341 300.425 7.72008 300.425 6.84008C300.425 5.76008 300.631 4.81341 301.045 4.00008C301.471 3.18674 302.031 2.51341 302.725 1.98008C303.418 1.43341 304.178 1.02674 305.005 0.760077C305.831 0.493411 306.651 0.360077 307.465 0.360077C308.451 0.360077 309.331 0.540077 310.105 0.900078C310.891 1.24674 311.558 1.72008 312.105 2.32008C312.651 2.92008 313.065 3.60008 313.345 4.36008C313.638 5.12008 313.785 5.90008 313.785 6.70008C313.785 7.63341 313.598 8.50008 313.225 9.30008C312.851 10.1001 312.338 10.8001 311.685 11.4001C311.045 12.0001 310.298 12.4734 309.445 12.8201C308.605 13.1534 307.711 13.3201 306.765 13.3201ZM307.465 12.8801C308.305 12.8801 309.065 12.6667 309.745 12.2401C310.438 11.8001 310.978 11.1667 311.365 10.3401C311.765 9.50008 311.965 8.47341 311.965 7.26008C311.965 6.02008 311.745 4.92008 311.305 3.96008C310.878 2.98674 310.265 2.22674 309.465 1.68008C308.678 1.12008 307.738 0.840077 306.645 0.840077C305.245 0.840077 304.158 1.31341 303.385 2.26008C302.625 3.20674 302.245 4.50008 302.245 6.14008C302.245 7.08674 302.365 7.97341 302.605 8.80008C302.858 9.61341 303.218 10.3267 303.685 10.9401C304.151 11.5534 304.705 12.0334 305.345 12.3801C305.985 12.7134 306.691 12.8801 307.465 12.8801ZM319.317 11.4601C319.317 11.8467 319.35 12.1401 319.417 12.3401C319.497 12.5401 319.65 12.6734 319.877 12.7401C320.117 12.8067 320.47 12.8401 320.937 12.8401C320.964 12.8401 320.977 12.8801 320.977 12.9601C320.977 13.0401 320.964 13.0801 320.937 13.0801C320.604 13.0801 320.23 13.0734 319.817 13.0601C319.417 13.0467 318.977 13.0401 318.497 13.0401C318.03 13.0401 317.59 13.0467 317.177 13.0601C316.764 13.0734 316.39 13.0801 316.057 13.0801C316.03 13.0801 316.017 13.0401 316.017 12.9601C316.017 12.8801 316.03 12.8401 316.057 12.8401C316.524 12.8401 316.877 12.8067 317.117 12.7401C317.357 12.6734 317.517 12.5401 317.597 12.3401C317.677 12.1401 317.717 11.8467 317.717 11.4601V2.20008C317.717 1.81341 317.677 1.52674 317.597 1.34008C317.517 1.14008 317.357 1.00674 317.117 0.940077C316.877 0.860077 316.524 0.820077 316.057 0.820077C316.03 0.820077 316.017 0.780078 316.017 0.700078C316.017 0.620078 316.03 0.580078 316.057 0.580078C316.39 0.580078 316.764 0.593411 317.177 0.620078C317.59 0.633411 318.03 0.640077 318.497 0.640077C318.977 0.640077 319.424 0.633411 319.837 0.620078C320.25 0.593411 320.617 0.580078 320.937 0.580078C320.964 0.580078 320.977 0.620078 320.977 0.700078C320.977 0.780078 320.964 0.820077 320.937 0.820077C320.47 0.820077 320.124 0.860077 319.897 0.940077C319.67 1.02008 319.517 1.16008 319.437 1.36008C319.357 1.56008 319.317 1.85341 319.317 2.24008V11.4601ZM324.696 10.8001V1.04008L325.216 1.08008V10.8001C325.216 11.4934 325.343 12.0067 325.596 12.3401C325.85 12.6734 326.25 12.8401 326.796 12.8401C326.823 12.8401 326.836 12.8801 326.836 12.9601C326.836 13.0401 326.823 13.0801 326.796 13.0801C326.516 13.0801 326.23 13.0734 325.936 13.0601C325.656 13.0467 325.336 13.0401 324.976 13.0401C324.63 13.0401 324.29 13.0467 323.956 13.0601C323.623 13.0734 323.31 13.0801 323.016 13.0801C322.99 13.0801 322.976 13.0401 322.976 12.9601C322.976 12.8801 322.99 12.8401 323.016 12.8401C323.603 12.8401 324.03 12.6734 324.296 12.3401C324.563 12.0067 324.696 11.4934 324.696 10.8001ZM334.816 13.3401C334.816 13.3667 334.783 13.3801 334.716 13.3801C334.663 13.3934 334.623 13.3934 334.596 13.3801L325.176 2.22008C324.71 1.67341 324.303 1.30674 323.956 1.12008C323.623 0.920077 323.29 0.820077 322.956 0.820077C322.93 0.820077 322.916 0.780078 322.916 0.700078C322.916 0.620078 322.93 0.580078 322.956 0.580078C323.21 0.580078 323.463 0.586745 323.716 0.600078C323.97 0.613411 324.203 0.620078 324.416 0.620078C324.736 0.620078 325.03 0.613411 325.296 0.600078C325.563 0.586745 325.763 0.580078 325.896 0.580078C326.07 0.580078 326.196 0.660078 326.276 0.820077C326.356 0.966744 326.55 1.23341 326.856 1.62008L334.656 11.0201L334.816 13.3401ZM334.816 2.88008V13.3401L334.316 12.7201V2.88008C334.316 2.18674 334.19 1.67341 333.936 1.34008C333.696 0.993411 333.303 0.820077 332.756 0.820077C332.73 0.820077 332.716 0.780078 332.716 0.700078C332.716 0.620078 332.73 0.580078 332.756 0.580078C333.036 0.580078 333.323 0.593411 333.616 0.620078C333.91 0.633411 334.23 0.640077 334.576 0.640077C334.91 0.640077 335.236 0.633411 335.556 0.620078C335.876 0.593411 336.176 0.580078 336.456 0.580078C336.483 0.580078 336.496 0.620078 336.496 0.700078C336.496 0.780078 336.483 0.820077 336.456 0.820077C335.896 0.820077 335.483 0.993411 335.216 1.34008C334.95 1.67341 334.816 2.18674 334.816 2.88008ZM341.246 0.980078C340.419 0.980078 339.772 1.21341 339.306 1.68008C338.839 2.13341 338.492 2.86674 338.266 3.88008C338.252 3.90674 338.206 3.92008 338.126 3.92008C338.059 3.92008 338.026 3.90008 338.026 3.86008C338.052 3.68674 338.079 3.44008 338.106 3.12008C338.146 2.80008 338.179 2.45341 338.206 2.08008C338.232 1.70674 338.252 1.34674 338.266 1.00008C338.292 0.653411 338.306 0.366744 338.306 0.140078C338.306 0.0734112 338.346 0.0400779 338.426 0.0400779C338.506 0.0400779 338.546 0.0734112 338.546 0.140078C338.546 0.273411 338.612 0.373411 338.746 0.440078C338.879 0.493411 339.032 0.533411 339.206 0.560077C339.379 0.573411 339.526 0.580078 339.646 0.580078C340.792 0.620078 342.132 0.640077 343.666 0.640077C344.599 0.640077 345.346 0.633411 345.906 0.620078C346.466 0.593411 347.006 0.580078 347.526 0.580078C347.979 0.580078 348.326 0.553411 348.566 0.500078C348.819 0.433411 348.979 0.293411 349.046 0.0800774C349.059 0.026744 349.099 7.72476e-05 349.166 7.72476e-05C349.246 7.72476e-05 349.286 0.026744 349.286 0.0800774C349.259 0.280077 349.232 0.560077 349.206 0.920077C349.192 1.28008 349.172 1.65341 349.146 2.04008C349.132 2.42674 349.119 2.78674 349.106 3.12008C349.092 3.45341 349.086 3.70008 349.086 3.86008C349.086 3.90008 349.046 3.92008 348.966 3.92008C348.899 3.92008 348.866 3.90008 348.866 3.86008C348.772 2.82008 348.506 2.08008 348.066 1.64008C347.626 1.20008 346.972 0.980078 346.106 0.980078C345.639 0.980078 345.286 1.01341 345.046 1.08008C344.819 1.13341 344.666 1.24674 344.586 1.42008C344.519 1.59341 344.486 1.86674 344.486 2.24008V11.4601C344.486 11.8467 344.526 12.1401 344.606 12.3401C344.699 12.5401 344.872 12.6734 345.126 12.7401C345.392 12.8067 345.799 12.8401 346.346 12.8401C346.372 12.8401 346.386 12.8801 346.386 12.9601C346.386 13.0401 346.372 13.0801 346.346 13.0801C345.986 13.0801 345.579 13.0734 345.126 13.0601C344.686 13.0467 344.199 13.0401 343.666 13.0401C343.159 13.0401 342.679 13.0467 342.226 13.0601C341.786 13.0734 341.379 13.0801 341.006 13.0801C340.966 13.0801 340.946 13.0401 340.946 12.9601C340.946 12.8801 340.966 12.8401 341.006 12.8401C341.526 12.8401 341.919 12.8067 342.186 12.7401C342.466 12.6734 342.652 12.5401 342.746 12.3401C342.839 12.1401 342.886 11.8467 342.886 11.4601V2.20008C342.886 1.84008 342.846 1.57341 342.766 1.40008C342.686 1.21341 342.526 1.10008 342.286 1.06008C342.046 1.00674 341.699 0.980078 341.246 0.980078Z" fill="#333333"/>
<path d="M300.57 63.9121C297.626 63.9121 295.002 63.2507 292.698 61.9281C290.394 60.5627 288.581 58.6854 287.258 56.2961C285.978 53.8641 285.338 51.0907 285.338 47.9761C285.338 44.9467 285.978 42.2587 287.258 39.9121C288.581 37.5654 290.394 35.7521 292.698 34.4721C295.045 33.1494 297.69 32.4881 300.634 32.4881C303.535 32.4881 306.117 33.1494 308.378 34.4721C310.682 35.7947 312.453 37.6507 313.69 40.0401C314.97 42.3867 315.61 45.0961 315.61 48.1681C315.61 51.2401 314.97 53.9707 313.69 56.3601C312.41 58.7494 310.618 60.6054 308.314 61.9281C306.053 63.2507 303.471 63.9121 300.57 63.9121ZM301.338 63.0161C304.581 63.0161 306.991 61.7787 308.57 59.3041C310.149 56.7867 310.938 53.3307 310.938 48.9361C310.938 45.4801 310.447 42.5787 309.466 40.2321C308.485 37.8854 307.162 36.1574 305.498 35.0481C303.834 33.8961 301.978 33.3201 299.93 33.3201C296.773 33.3201 294.298 34.6427 292.506 37.2881C290.714 39.8907 289.818 43.3041 289.818 47.5281C289.818 50.5147 290.287 53.1814 291.226 55.5281C292.165 57.8747 293.509 59.7094 295.258 61.0321C297.007 62.3547 299.034 63.0161 301.338 63.0161ZM320.658 62.5681C320.445 62.5681 320.274 62.4827 320.146 62.3121C320.061 62.1414 320.082 61.9707 320.21 61.8001L340.498 32.3601C340.583 32.2747 340.733 32.2321 340.946 32.2321C341.373 32.2321 341.586 32.3814 341.586 32.6801V71.2721C341.586 71.7414 341.415 72.0401 341.074 72.1681L338.386 73.5121C338.215 73.5974 338.087 73.6401 338.002 73.6401C337.831 73.6401 337.746 73.4694 337.746 73.1281V37.8641L339.73 36.1361L323.474 60.2001C323.389 60.3281 323.367 60.4347 323.41 60.5201C323.495 60.6054 323.623 60.6481 323.794 60.6481C330.578 60.6481 337.383 60.5414 344.21 60.3281L346.898 60.2641C347.069 60.2641 347.154 60.6694 347.154 61.4801C347.154 61.8214 347.111 62.1627 347.026 62.5041C346.983 62.8454 346.919 63.0161 346.834 63.0161C343.591 62.8454 340.071 62.7387 336.274 62.6961C332.519 62.6107 327.314 62.5681 320.658 62.5681Z" fill="#333333"/>
<path d="M58.9414 64.3723V209.348C95.5144 206.018 119.403 208.765 135.728 221.644C136.957 222.613 138.142 223.639 139.284 224.723C140.804 226.158 142.25 227.702 143.629 229.35C143.777 229.527 143.928 229.707 144.073 229.886V84.9105C127.832 65.0186 102.302 60.4309 58.944 64.3723H58.9414Z" fill="white" stroke="#F2F2F2" stroke-linecap="round" stroke-linejoin="round"/>
<path d="M135.733 228.023C123.785 226.023 97.6777 223.557 49.0667 226.976V84.5277C49.0667 84.5277 50.7499 83.7309 53.2694 83.0371C49.2594 83.5542 44.0833 84.1794 40.4531 84.9102V229.886H143.632V229.743C142.978 229.543 141.58 229.155 139.287 228.683C138.279 228.477 137.097 228.253 135.731 228.023H135.733Z" fill="#333333" stroke="#F2F2F2" stroke-linecap="round" stroke-linejoin="round"/>
<path d="M40.449 84.9102H38.2461V229.886H40.449V84.9102Z" fill="#333333" stroke="#F2F2F2" stroke-linecap="round" stroke-linejoin="round"/>
<path d="M252.004 84.9102H250.273V229.886H252.004V84.9102Z" fill="#333333" stroke="#F2F2F2" stroke-linecap="round" stroke-linejoin="round"/>
<path d="M144.066 84.9104V229.886H245.895V84.9104C203.006 79.8821 169.063 79.8821 144.066 84.9104Z" fill="white" stroke="#F2F2F2" stroke-linecap="round" stroke-linejoin="round"/>
<path d="M103.048 79.5625C98.5314 79.0111 93.6243 78.7446 88.0446 78.7446C83.7681 78.7446 79.2621 78.9003 74.2681 79.2221C73.6138 79.2643 73.1205 79.8289 73.1627 80.4805C73.2049 81.1348 73.7695 81.6282 74.4211 81.5859C79.3624 81.2667 83.8182 81.1137 88.0446 81.1137C93.5294 81.1137 98.3414 81.3749 102.76 81.9157C102.808 81.921 102.858 81.9236 102.905 81.9236C103.496 81.9236 104.008 81.4831 104.079 80.8816C104.159 80.2326 103.697 79.6416 103.045 79.5625H103.048Z" fill="#333333"/>
<path d="M88.0474 93.2886C83.7736 93.2886 79.2781 93.4442 74.3026 93.7608C73.9306 93.7845 73.6456 94.1064 73.6694 94.481C73.6931 94.853 74.0097 95.1353 74.3896 95.1142C79.3361 94.7976 83.8026 94.6446 88.0474 94.6446C109.279 94.6446 122.916 98.7127 132.266 107.838C132.398 107.967 132.569 108.031 132.738 108.031C132.907 108.031 133.089 107.962 133.223 107.828C133.485 107.561 133.479 107.131 133.213 106.87C123.592 97.478 109.662 93.2912 88.05 93.2912L88.0474 93.2886Z" fill="#333333"/>
<path d="M88.0474 107.327C83.7657 107.327 79.2702 107.48 74.3026 107.794C73.9279 107.818 73.6456 108.139 73.6694 108.511C73.6931 108.886 74.015 109.168 74.3869 109.145C79.3256 108.831 83.792 108.68 88.0474 108.68C109.008 108.68 122.65 112.577 132.282 121.312C132.411 121.431 132.575 121.489 132.735 121.489C132.92 121.489 133.105 121.415 133.237 121.267C133.487 120.99 133.466 120.563 133.189 120.309C123.291 111.329 109.366 107.324 88.0448 107.324L88.0474 107.327Z" fill="#333333"/>
<path d="M88.0474 121.364C83.7604 121.364 79.2623 121.515 74.3026 121.829C73.9306 121.852 73.6456 122.174 73.6694 122.546C73.6931 122.921 74.0149 123.206 74.3869 123.179C79.3203 122.868 83.7867 122.718 88.0474 122.718C108.733 122.718 122.381 126.44 132.3 134.79C132.427 134.898 132.582 134.948 132.735 134.948C132.928 134.948 133.121 134.866 133.255 134.708C133.495 134.423 133.458 133.996 133.173 133.753C122.993 125.184 109.076 121.364 88.05 121.364H88.0474Z" fill="#333333"/>
<path d="M133.155 147.198C122.692 139.04 108.781 135.402 88.05 135.402C83.7551 135.402 79.2597 135.553 74.3026 135.861C73.9306 135.885 73.6456 136.207 73.6694 136.579C73.6931 136.951 74.0123 137.236 74.3869 137.212C79.3124 136.906 83.7815 136.756 88.05 136.756C108.456 136.756 122.112 140.304 132.321 148.263C132.445 148.361 132.59 148.406 132.738 148.406C132.939 148.406 133.139 148.316 133.274 148.145C133.503 147.849 133.45 147.424 133.155 147.195V147.198Z" fill="#333333"/>
<path d="M133.11 161.288C122.212 154.052 107.892 150.68 88.0501 150.68C83.7393 150.68 79.2439 150.828 74.3026 151.131C73.9279 151.155 73.6456 151.474 73.6694 151.849C73.6931 152.221 74.0097 152.506 74.3869 152.482C79.2992 152.181 83.7683 152.034 88.0527 152.034C107.617 152.034 121.697 155.331 132.363 162.415C132.48 162.491 132.609 162.528 132.738 162.528C132.957 162.528 133.173 162.423 133.303 162.225C133.508 161.914 133.424 161.494 133.113 161.286L133.11 161.288Z" fill="#333333"/>
<path d="M133.089 176.333C121.892 169.5 107.58 166.315 88.0524 166.315C83.7337 166.315 79.2383 166.461 74.3049 166.761C73.9329 166.785 73.648 167.104 73.6691 167.479C73.6928 167.851 74.012 168.136 74.3866 168.115C79.2936 167.817 83.7627 167.671 88.0524 167.671C107.322 167.671 121.409 170.792 132.384 177.488C132.495 177.554 132.616 177.588 132.735 177.588C132.965 177.588 133.186 177.472 133.313 177.264C133.508 176.945 133.408 176.528 133.089 176.333Z" fill="#333333"/>
<path d="M116.55 183.389C108.351 181.347 99.0272 180.355 88.0524 180.355C83.7284 180.355 79.2304 180.501 74.3049 180.796C73.9329 180.817 73.648 181.139 73.6691 181.514C73.6928 181.888 74.0147 182.176 74.3866 182.149C79.2857 181.854 83.7575 181.711 88.055 181.711C98.919 181.711 108.134 182.69 116.225 184.706C116.281 184.719 116.336 184.727 116.389 184.727C116.692 184.727 116.969 184.521 117.046 184.212C117.136 183.848 116.917 183.482 116.553 183.392L116.55 183.389Z" fill="#333333"/>
<path d="M232.354 215.666H157.612C157.237 215.666 156.934 215.969 156.934 216.344C156.934 216.718 157.237 217.022 157.612 217.022H232.354C232.728 217.022 233.032 216.718 233.032 216.344C233.032 215.969 232.728 215.666 232.354 215.666Z" fill="#333333"/>
<path d="M232.417 200.759C230.304 200.551 188.697 200.458 188.285 200.458C187.995 200.458 158.764 200.524 157.524 200.683C157.155 200.73 156.894 201.068 156.939 201.437C156.983 201.807 157.321 202.07 157.693 202.026C158.788 201.894 185.761 201.812 188.285 201.812C190.399 201.812 230.327 201.915 232.285 202.107C232.309 202.107 232.33 202.11 232.351 202.11C232.694 202.11 232.989 201.849 233.024 201.498C233.06 201.126 232.789 200.794 232.417 200.757V200.759Z" fill="#333333"/>
<path d="M204.271 185.348C196.604 185.284 189.689 185.25 188.286 185.25C186.574 185.25 159.936 185.385 157.525 185.691C157.153 185.738 156.892 186.076 156.939 186.448C156.981 186.791 157.274 187.039 157.609 187.039C157.638 187.039 157.667 187.039 157.696 187.033C159.912 186.751 185.376 186.603 188.286 186.603C189.689 186.603 196.599 186.638 204.26 186.701C204.637 186.701 204.941 186.403 204.943 186.028C204.946 185.654 204.645 185.348 204.271 185.345V185.348Z" fill="#333333"/>
<path d="M232.42 170.939C226.212 170.33 192.341 170.042 188.283 170.042C183.967 170.042 160.976 170.264 157.525 170.702C157.153 170.75 156.892 171.087 156.939 171.459C156.987 171.831 157.327 172.092 157.696 172.045C161.089 171.615 183.98 171.396 188.283 171.396C193.969 171.396 226.373 171.707 232.285 172.288C232.309 172.288 232.33 172.29 232.351 172.29C232.694 172.29 232.99 172.029 233.024 171.678C233.061 171.306 232.789 170.974 232.417 170.937L232.42 170.939Z" fill="#333333"/>
<path d="M232.417 156.032C224.16 155.22 194.604 154.834 188.281 154.834C183.389 154.834 162.292 155.106 157.525 155.713C157.153 155.76 156.892 156.098 156.939 156.47C156.987 156.842 157.327 157.103 157.696 157.056C162.099 156.497 182.366 156.188 188.281 156.188C194.195 156.188 224.215 156.584 232.285 157.378C232.309 157.378 232.33 157.38 232.351 157.38C232.694 157.38 232.99 157.119 233.024 156.768C233.061 156.396 232.789 156.064 232.417 156.027V156.032Z" fill="#333333"/>
<path d="M188.278 139.119C180.757 139.119 163.062 139.506 157.461 140.219C156.813 140.301 156.353 140.894 156.435 141.543C156.512 142.142 157.021 142.58 157.609 142.58C157.659 142.58 157.709 142.577 157.76 142.569C163.265 141.87 180.809 141.488 188.278 141.488C188.932 141.488 189.463 140.957 189.463 140.303C189.463 139.649 188.932 139.119 188.278 139.119Z" fill="#333333"/>
<path d="M204.284 124.698C198.242 124.521 192.409 124.418 188.275 124.418C180.044 124.418 164.579 124.835 157.525 125.732C157.153 125.78 156.892 126.117 156.939 126.489C156.981 126.832 157.274 127.08 157.609 127.08C157.638 127.08 157.667 127.08 157.696 127.075C164.389 126.226 179.757 125.772 188.278 125.772C192.399 125.772 198.219 125.872 204.247 126.049C204.627 126.054 204.933 125.767 204.943 125.392C204.954 125.017 204.661 124.706 204.286 124.695L204.284 124.698Z" fill="#333333"/>
<path d="M232.42 111.304C217.802 109.866 199.29 109.212 188.275 109.212C178.973 109.212 165.856 109.687 157.525 110.745C157.153 110.792 156.892 111.13 156.939 111.502C156.987 111.874 157.327 112.132 157.696 112.088C165.97 111.038 179.015 110.568 188.275 110.568C199.258 110.568 217.715 111.22 232.288 112.652C232.312 112.652 232.333 112.655 232.354 112.655C232.697 112.655 232.992 112.394 233.027 112.043C233.064 111.671 232.792 111.338 232.42 111.301V111.304Z" fill="#333333"/>
<path d="M198.981 93.6628C195.317 93.552 191.713 93.4966 188.273 93.4966C176.992 93.4966 166.627 94.0875 157.461 95.251C156.813 95.3328 156.353 95.9263 156.435 96.5753C156.512 97.1742 157.021 97.6121 157.609 97.6121C157.659 97.6121 157.709 97.6095 157.76 97.6016C166.824 96.4513 177.092 95.8657 188.273 95.8657C191.692 95.8657 195.272 95.9211 198.912 96.0292C199.569 96.0477 200.113 95.5333 200.131 94.879C200.15 94.2247 199.635 93.6786 198.981 93.6602V93.6628Z" fill="#333333"/>
<path d="M250.274 84.9102H245.902V229.886H250.274V84.9102Z" fill="#333333" stroke="#F2F2F2" stroke-linecap="round" stroke-linejoin="round"/>
<path d="M139.289 224.723C138.147 223.639 136.962 222.612 135.733 221.644C119.405 208.765 95.5194 206.018 58.9464 209.348V82.3882C57.0153 82.5808 55.1263 82.7971 53.2796 83.0372H53.2691C50.7496 83.731 49.0664 84.5277 49.0664 84.5277V226.976C97.6774 223.557 123.785 226.021 135.733 228.023C137.097 228.253 138.279 228.477 139.289 228.683C141.582 229.152 142.98 229.543 143.634 229.743V229.35C142.257 227.701 140.812 226.158 139.289 224.723Z" fill="#F2F2F2" stroke="#F2F2F2" stroke-linecap="round" stroke-linejoin="round"/>
<path d="M74.918 248.72H79.92L80.9726 240.568L76.5932 241.054L74.918 248.72Z" fill="white" stroke="#333333" stroke-linecap="round" stroke-linejoin="round"/>
<path d="M97.2891 242.515V248.72L102.117 248.185L101.183 242.109L97.2891 242.515Z" fill="white" stroke="#333333" stroke-linecap="round" stroke-linejoin="round"/>
<path d="M108.423 250.506C107.806 250.332 107.157 250.295 106.534 250.15C105.843 249.989 105.183 249.686 104.6 249.282C104.112 248.944 103.677 248.533 103.318 248.074C103.184 247.902 102.471 246.699 102.276 246.707C99.3266 247.823 96.939 246.908 96.939 246.908C96.939 246.908 95.0027 252.479 96.6568 254.004H110.961C110.961 254.004 111.003 253.07 110.296 251.962C109.856 251.274 109.22 250.733 108.423 250.509V250.506Z" fill="white" stroke="#333333" stroke-linecap="round" stroke-linejoin="round"/>
<path d="M86.1613 250.506C85.544 250.332 84.895 250.295 84.2724 250.15C83.5812 249.989 82.9217 249.686 82.3386 249.282C81.8506 248.944 81.4152 248.533 81.0564 248.074C80.9219 247.902 80.2096 246.699 80.0144 246.707C77.0649 247.823 74.6774 246.908 74.6774 246.908C74.6774 246.908 72.7409 252.479 74.3951 254.004H88.6992C88.6992 254.004 88.7414 253.07 88.0344 251.962C87.5938 251.274 86.9581 250.733 86.1613 250.509V250.506Z" fill="white" stroke="#333333" stroke-linecap="round" stroke-linejoin="round"/>
<path d="M83.3699 182.86L86.0239 173.682V142.283C86.0239 142.283 79.8427 151.168 78.703 162.694C77.5633 174.22 83.3672 182.86 83.3672 182.86H83.3699Z" fill="#F2F2F2" stroke="#333333" stroke-linecap="round" stroke-linejoin="round"/>
<path d="M82.6981 177.588C82.6981 177.588 82.6375 200.978 80.0336 214.602C77.4297 228.225 75.5117 243.302 75.5117 243.302C75.5117 243.302 78.4506 244.5 80.8593 243.809C80.8593 243.809 90.1298 216.667 92.185 201.685C94.2401 186.703 95.4722 174.588 95.4722 174.588H82.7324L82.7007 177.591L82.6981 177.588Z" fill="#333333" stroke="#333333" stroke-linecap="round" stroke-linejoin="round"/>
<path d="M88.6901 174.585C88.6901 174.585 94.4704 207.328 94.9981 212.683C95.5283 218.039 94.6287 236.53 96.1535 244.26C97.8182 244.647 100.169 244.46 101.754 243.882C101.754 243.882 103.564 221.666 103.171 210.198C102.781 198.733 103.485 174.585 103.485 174.585H88.6875H88.6901Z" fill="#333333" stroke="#333333" stroke-linecap="round" stroke-linejoin="round"/>
<path d="M96.0993 141.808L86.0294 141.444L84.9293 147.006C84.9293 147.006 81.3651 164.006 82.7026 177.587C82.7026 177.587 93.1446 179.226 103.394 177.804C103.394 177.804 103.808 167.926 103.394 160.481L96.0966 141.808H96.0993Z" fill="#F2F2F2" stroke="#333333" stroke-linecap="round" stroke-linejoin="round"/>
<path d="M133.353 140.748C133.237 139.862 132.34 140.458 132.34 140.458C128.38 143.289 127.414 148.283 127.414 148.283L129.493 150.617C134.529 147.613 133.297 146.338 132.978 144.945C132.659 143.552 131.411 144.027 131.411 144.027C132.282 141.532 133.471 141.632 133.355 140.748H133.353Z" fill="white" stroke="#333333" stroke-linecap="round" stroke-linejoin="round"/>
<path d="M113.218 156.144C113.218 156.144 105.475 150.95 96.8452 143.624C92.6874 144.842 89.3 150.058 93.7954 154.171L101.335 159.445C101.335 159.445 108.548 164.842 114.89 164.507C121.232 164.172 129.778 150.678 129.778 150.678L127.15 148.058C127.15 148.058 118.824 154.474 113.218 156.147V156.144Z" fill="#F2F2F2"/>
<path d="M93.7969 154.171L101.337 159.444C101.337 159.444 108.55 164.842 114.892 164.507C121.234 164.172 129.779 150.678 129.779 150.678L127.151 148.058C127.151 148.058 118.825 154.474 113.219 156.147C113.219 156.147 105.476 150.952 96.8466 143.626" stroke="#333333" stroke-linecap="round" stroke-linejoin="round"/>
<path d="M96.9311 125.637C96.9311 125.637 93.5252 120.667 90.3964 128.579C86.7742 137.741 93.5252 138.166 93.5252 138.166C96.7754 138.968 98.8359 136.055 98.58 132.526C98.2529 128.014 96.9311 125.637 96.9311 125.637Z" fill="white" stroke="#333333" stroke-linecap="round" stroke-linejoin="round"/>
<path d="M95.3827 130.053C95.3827 130.053 97.9233 127.922 97.4062 125.919C97.058 124.576 95.8128 123.524 94.615 122.949C92.7736 122.068 90.5074 121.991 88.5841 122.714C88.1304 122.885 87.7162 123.099 87.3389 123.35C85.8141 124.363 84.8749 125.988 84.3235 127.798C83.8935 129.209 83.7325 130.702 83.8275 132.177C83.9251 133.676 84.0623 135.182 84.0096 136.686C83.9568 138.224 83.6824 139.741 83.3316 141.237C83.0493 142.445 83.3236 143.698 84.3077 144.526C85.0068 145.115 86.5079 144.619 87.2967 144.669C88.5288 144.748 89.5999 145.558 90.853 145.713C92.6206 145.935 94.586 146.101 96.0053 144.861C97.3878 143.653 97.8468 141.801 97.3877 140.049C96.4433 136.44 95.111 134.551 95.3801 130.056L95.3827 130.053Z" fill="#333333" stroke="#333333" stroke-linecap="round" stroke-linejoin="round"/>
<path opacity="0.5" d="M234.637 151.709C236.336 148.319 237.27 144.747 237.513 141.185L216.809 166.118C224.283 164.185 230.912 159.154 234.64 151.709H234.637Z" fill="white"/>
<path opacity="0.5" d="M206.699 166.825C208.29 167.007 209.886 167.052 211.466 166.96L237.344 135.797C237.141 134.217 236.801 132.661 236.331 131.141L206.699 166.825Z" fill="white"/>
<path opacity="0.5" d="M222.276 114.553C208.602 107.707 191.968 113.239 185.12 126.913C178.273 140.587 183.808 157.22 197.479 164.069C199.653 165.156 201.901 165.932 204.17 166.412L235.461 128.728C233.005 122.782 228.475 117.658 222.273 114.553H222.276Z" fill="white"/>
<path opacity="0.22" d="M209.895 171.59C227.749 171.59 242.223 157.117 242.223 139.262C242.223 121.408 227.749 106.934 209.895 106.934C192.04 106.934 177.566 121.408 177.566 139.262C177.566 157.117 192.04 171.59 209.895 171.59Z" fill="white" stroke="#333333" stroke-linecap="round" stroke-linejoin="round"/>
<path d="M244.535 145.026L242.012 153.038L278.841 164.636L281.364 156.624L244.535 145.026Z" fill="#F2F2F2" stroke="#333333" stroke-linecap="round" stroke-linejoin="round"/>
<path d="M310.43 162.858L260.704 147.193C259.709 146.879 258.651 147.43 258.337 148.425L255.166 158.495C254.852 159.489 255.406 160.547 256.398 160.861L306.125 176.526C307.12 176.84 308.178 176.286 308.491 175.294L311.663 165.225C311.976 164.23 311.422 163.172 310.43 162.858Z" fill="#333333" stroke="#F2F2F2" stroke-linecap="round" stroke-linejoin="round"/>
<path d="M221.079 103.763C201.446 97.5792 180.517 108.48 174.333 128.113C168.149 147.747 179.05 168.675 198.684 174.859C218.317 181.043 239.246 170.142 245.43 150.509C251.613 130.876 240.712 109.947 221.079 103.763ZM236.286 147.628C231.693 162.209 216.148 170.306 201.567 165.713C186.986 161.12 178.889 145.575 183.483 130.994C188.076 116.413 203.62 108.317 218.201 112.91C232.782 117.503 240.879 133.047 236.286 147.628Z" fill="#F2F2F2" stroke="#333333" stroke-linecap="round" stroke-linejoin="round"/>
<path d="M257.441 163.379C257.146 163.69 256.848 163.996 256.55 164.305C256.478 164.495 256.41 164.687 256.336 164.875C256.734 164.418 257.072 163.875 257.439 163.379H257.441Z" fill="white" stroke="#333333" stroke-linecap="round" stroke-linejoin="round"/>
<path d="M271.716 151.829C271.705 151.982 271.389 152.499 271.37 152.591C270.851 155.393 264.313 166.835 263.757 167.391C258.52 172.628 254.993 173.934 250.291 177.377C248.677 178.559 248.038 178.316 246.74 177.221C245.595 176.253 246.07 174.937 247.025 174.042C250.199 170.768 253.404 167.579 256.546 164.305C258.507 159.026 260.1 153.14 262.29 148.114C263.635 145.025 265.706 144.566 268.603 145.468C271.502 146.37 271.887 149.193 271.716 151.829Z" fill="#F2F2F2" stroke="#333333" stroke-linecap="round" stroke-linejoin="round"/>
<path d="M260.673 250.848H256.18V257.469H260.673V250.848Z" fill="white" stroke="#333333" stroke-linecap="round" stroke-linejoin="round"/>
<path d="M256.589 190.365C256.589 190.365 255.539 210.808 255.665 218.667C255.797 226.888 255.562 252.404 255.562 252.404H261.451C261.451 252.404 264.888 233.839 264.532 219.118L269.252 190.365H256.589Z" fill="#333333" stroke="#333333" stroke-linecap="round" stroke-linejoin="round"/>
<path d="M256.008 256.259C255.823 256.253 255.159 257.377 255.032 257.538C254.697 257.968 254.288 258.351 253.832 258.667C253.286 259.047 252.671 259.329 252.024 259.48C251.439 259.614 248.46 259.509 247.883 259.67C247.139 259.878 246.542 260.385 246.131 261.028C245.471 262.062 245.508 263.081 245.508 263.081H261.263C262.812 261.656 261 256.443 261 256.443C261 256.443 258.765 257.301 256.005 256.256L256.008 256.259Z" fill="white" stroke="#333333" stroke-linecap="round" stroke-linejoin="round"/>
<path d="M278.626 250.848H274.133V257.469H278.626V250.848Z" fill="white" stroke="#333333" stroke-linecap="round" stroke-linejoin="round"/>
<path d="M267.016 190.365C267.016 190.365 267.981 211.136 268.398 218.311C268.815 225.487 273.353 252.405 273.353 252.405L279.088 252.143C279.088 252.143 279.341 228.482 277.584 218.826L279.824 190.365H267.016Z" fill="#333333" stroke="#333333" stroke-linecap="round" stroke-linejoin="round"/>
<path d="M273.961 256.259C273.777 256.254 273.112 257.378 272.985 257.539C272.65 257.969 272.241 258.351 271.785 258.668C271.239 259.048 270.624 259.33 269.978 259.48C269.392 259.615 266.413 259.509 265.836 259.67C265.092 259.879 264.495 260.385 264.084 261.029C263.424 262.063 263.461 263.081 263.461 263.081H279.216C280.765 261.657 278.953 256.444 278.953 256.444C278.953 256.444 276.718 257.301 273.959 256.256L273.961 256.259Z" fill="white" stroke="#333333" stroke-linecap="round" stroke-linejoin="round"/>
<path d="M271.794 145.289H265.473V139.282C265.887 139.401 266.349 139.464 266.858 139.459C268.631 139.438 269.981 138.25 270.902 137.029C271.113 136.747 271.3 136.467 271.469 136.195L271.517 139.477L271.794 145.289Z" fill="white" stroke="#333333" stroke-linecap="round" stroke-linejoin="round"/>
<path d="M268.472 141.011C267.982 141.23 267.444 141.361 266.863 141.369C266.354 141.375 265.892 141.311 265.478 141.193C262.922 140.48 262.083 137.729 261.748 136.267C261.413 134.798 260.969 131.136 260.969 131.136C260.938 130.703 260.996 130.334 261.125 130.015C261.632 130.152 262.194 130.181 262.682 130.191C264.188 130.223 265.045 130.046 266.272 130.099C267.441 130.152 268.232 130.228 269.303 130.487C270.111 130.679 270.644 131.21 270.994 131.938C271.287 132.545 271.506 132.761 272.11 133.099C272.121 133.091 272.132 133.083 272.145 133.075C272.736 132.661 273.567 132.798 273.693 133.637C273.807 134.378 273.398 134.993 273.163 135.65C272.854 136.512 272.38 136.307 272.38 136.307C272.38 136.307 272.076 137.127 271.475 138.106L268.472 141.011Z" fill="white"/>
<path d="M268.472 141.011C267.982 141.23 267.444 141.361 266.863 141.369C266.354 141.375 265.892 141.311 265.478 141.193C262.922 140.48 262.083 137.729 261.748 136.267C261.413 134.798 260.969 131.136 260.969 131.136C260.938 130.703 260.996 130.334 261.125 130.015C261.632 130.152 262.194 130.181 262.682 130.191C264.188 130.223 265.045 130.046 266.272 130.099C267.441 130.152 268.232 130.228 269.303 130.487C270.111 130.679 270.644 131.21 270.994 131.938C271.287 132.545 271.506 132.761 272.11 133.099C272.121 133.091 272.132 133.083 272.145 133.075C272.736 132.661 273.567 132.798 273.693 133.637C273.807 134.378 273.398 134.993 273.163 135.65C272.854 136.512 272.38 136.307 272.38 136.307C272.38 136.307 272.076 137.127 271.475 138.106" stroke="#333333" stroke-linecap="round" stroke-linejoin="round"/>
<path d="M271.521 139.475L271.474 138.103C272.075 137.124 272.379 136.304 272.379 136.304C272.379 136.304 272.853 136.509 273.162 135.647C273.397 134.99 273.806 134.375 273.692 133.634C273.566 132.795 272.735 132.658 272.144 133.072C272.141 133.056 272.139 133.038 272.141 133.022C272.128 133.046 272.12 133.072 272.11 133.096C271.505 132.758 271.286 132.542 270.994 131.935C270.643 131.207 270.11 130.676 269.302 130.484C268.231 130.225 267.44 130.149 266.271 130.096C265.044 130.043 264.187 130.22 262.681 130.188C262.193 130.178 261.631 130.149 261.124 130.012C260.24 129.772 259.523 129.207 259.647 127.862C259.665 127.661 259.995 126.888 260.351 126.909C260.072 126.798 259.813 126.577 259.789 126.26C259.702 125.091 260.976 124.363 261.829 123.917C265.559 121.968 271.45 122.569 273.94 126.197C274.286 126.698 274.508 127.168 274.679 127.658C275.186 128.811 275.299 130.212 275.386 130.756C275.895 133.998 272.571 138.232 271.521 139.475Z" fill="#333333" stroke="#333333" stroke-linecap="round" stroke-linejoin="round"/>
<path d="M270.454 143.967H267.523C261.782 144.593 260.236 152.884 259.313 157.068C258.811 159.345 256.128 190.362 256.593 190.362H279.906C279.906 190.362 280.809 165.619 278.714 153.531C277.801 148.252 276.949 144.371 270.454 143.967Z" fill="#F2F2F2" stroke="#333333" stroke-linecap="round" stroke-linejoin="round"/>
<path d="M246.91 175.122L245.589 176.161C245.589 176.161 243.164 176.644 242.723 177.169C242.283 177.694 242.375 178.066 242.375 178.066L247.731 178.364L248.694 177.301C249.095 176.369 248.467 175.583 246.91 175.122Z" fill="white" stroke="#333333" stroke-linecap="round" stroke-linejoin="round"/>
<path d="M251.751 177.925C251.751 178.472 251.308 178.915 250.762 178.915H236.381C236.336 178.915 236.289 178.912 236.246 178.904L233.772 178.915C233.392 178.915 233.062 178.651 232.983 178.282L229.846 163.608C229.741 163.115 230.113 162.648 230.617 162.64L241.594 162.442C241.987 162.437 242.327 162.714 242.399 163.102L244.921 176.933H250.762C251.308 176.933 251.751 177.377 251.751 177.925Z" fill="white" stroke="#333333" stroke-linecap="round" stroke-linejoin="round"/>
<path d="M248.739 180.574C246.858 181.07 246.006 180.983 243.922 181.244C242.814 181.384 241.695 180.722 240.87 180.236C240.339 179.925 240.152 179.342 239.925 178.801C239.698 178.26 239.574 177.685 239.361 177.128C239.218 176.762 239.065 176.408 239.115 175.999C239.123 175.952 239.126 175.912 239.157 175.878C239.769 175.179 240.999 176.617 241.326 176.994C242.057 177.838 242.429 178.313 243.331 178.754C243.057 178.445 242.824 178.102 242.616 177.762C242.534 177.63 242.555 177.448 242.642 177.329C242.732 177.213 242.877 177.155 243.057 177.216C243.698 177.429 244.771 177.986 245.323 178.477C245.877 178.965 246.056 178.769 246.805 178.68C247.035 178.651 247.235 178.616 247.428 178.561C247.679 178.368 247.916 178.131 248.132 177.854C248.407 178.751 248.599 179.648 248.739 180.574Z" fill="white" stroke="#333333" stroke-linecap="round" stroke-linejoin="round"/>
<path d="M272.478 174.68C272.472 174.696 272.467 174.709 272.462 174.725C272.129 176.123 272.528 174.532 272.478 174.68Z" fill="white" stroke="#333333" stroke-linecap="round" stroke-linejoin="round"/>
<path d="M276.798 149.795C276.798 149.919 277.22 152.541 277.202 152.66C276.36 158.279 273.588 170.016 272.762 173.438C272.619 174.024 272.522 174.438 272.453 174.725C271.804 176.585 271.416 176.978 269.992 177.564C263.563 180.205 255.651 181.329 249.256 181.867C246.14 182.128 246.8 181.487 246.166 179.595C245.594 177.881 246.314 177.021 248.01 176.754C253.83 175.329 259.08 173.604 264.349 171.035C265.525 163.864 266.451 156.113 267.298 149.227C267.733 145.687 269.422 146.054 272.411 146.133C275.4 146.212 276.785 147.069 276.796 149.795H276.798Z" fill="#F2F2F2"/>
<path d="M276.8 154.836C275.549 161.339 273.428 170.694 272.766 173.435C272.623 174.021 272.526 174.435 272.457 174.723C271.808 176.583 271.42 176.976 269.996 177.562C263.566 180.202 255.655 181.326 249.26 181.864C246.144 182.126 246.803 181.485 246.17 179.593C245.598 177.878 246.318 177.018 248.014 176.752C253.834 175.327 259.084 173.602 264.353 171.032C265.352 164.935 266.173 158.419 266.917 152.37" stroke="#333333" stroke-linecap="round" stroke-linejoin="round"/>
</svg>
