<svg width="470" height="251" viewBox="0 0 470 251" fill="none" xmlns="http://www.w3.org/2000/svg">
<path d="M55.6692 1.48C54.8426 1.48 54.1959 1.71333 53.7292 2.18C53.2626 2.63333 52.9159 3.36667 52.6892 4.38C52.6759 4.40667 52.6292 4.42 52.5492 4.42C52.4826 4.42 52.4492 4.4 52.4492 4.36C52.4759 4.18667 52.5026 3.94 52.5292 3.62C52.5692 3.3 52.6026 2.95333 52.6292 2.58C52.6559 2.20667 52.6759 1.84667 52.6892 1.5C52.7159 1.15333 52.7292 0.866667 52.7292 0.640001C52.7292 0.573334 52.7692 0.540001 52.8492 0.540001C52.9292 0.540001 52.9692 0.573334 52.9692 0.640001C52.9692 0.773334 53.0359 0.873334 53.1692 0.94C53.3026 0.993334 53.4559 1.03333 53.6292 1.06C53.8026 1.07333 53.9492 1.08 54.0692 1.08C55.2159 1.12 56.5559 1.14 58.0892 1.14C59.0226 1.14 59.7692 1.13333 60.3292 1.12C60.8892 1.09333 61.4292 1.08 61.9492 1.08C62.4026 1.08 62.7492 1.05333 62.9892 1C63.2426 0.933334 63.4026 0.793334 63.4692 0.58C63.4826 0.526667 63.5226 0.5 63.5892 0.5C63.6692 0.5 63.7092 0.526667 63.7092 0.58C63.6826 0.78 63.6559 1.06 63.6292 1.42C63.6159 1.78 63.5959 2.15333 63.5692 2.54C63.5559 2.92667 63.5426 3.28667 63.5292 3.62C63.5159 3.95333 63.5092 4.2 63.5092 4.36C63.5092 4.4 63.4692 4.42 63.3892 4.42C63.3226 4.42 63.2892 4.4 63.2892 4.36C63.1959 3.32 62.9292 2.58 62.4892 2.14C62.0492 1.7 61.3959 1.48 60.5292 1.48C60.0626 1.48 59.7092 1.51333 59.4692 1.58C59.2426 1.63333 59.0892 1.74667 59.0092 1.92C58.9426 2.09333 58.9092 2.36667 58.9092 2.74V11.96C58.9092 12.3467 58.9492 12.64 59.0292 12.84C59.1226 13.04 59.2959 13.1733 59.5492 13.24C59.8159 13.3067 60.2226 13.34 60.7692 13.34C60.7959 13.34 60.8092 13.38 60.8092 13.46C60.8092 13.54 60.7959 13.58 60.7692 13.58C60.4092 13.58 60.0026 13.5733 59.5492 13.56C59.1092 13.5467 58.6226 13.54 58.0892 13.54C57.5826 13.54 57.1026 13.5467 56.6492 13.56C56.2092 13.5733 55.8026 13.58 55.4292 13.58C55.3892 13.58 55.3692 13.54 55.3692 13.46C55.3692 13.38 55.3892 13.34 55.4292 13.34C55.9492 13.34 56.3426 13.3067 56.6092 13.24C56.8892 13.1733 57.0759 13.04 57.1692 12.84C57.2626 12.64 57.3092 12.3467 57.3092 11.96V2.7C57.3092 2.34 57.2692 2.07333 57.1892 1.9C57.1092 1.71333 56.9492 1.6 56.7092 1.56C56.4692 1.50667 56.1226 1.48 55.6692 1.48Z" fill="#333333"/>
<path d="M39.1198 11.3001V1.54008L39.6398 1.58008V11.3001C39.6398 11.9934 39.7665 12.5067 40.0198 12.8401C40.2732 13.1734 40.6732 13.3401 41.2198 13.3401C41.2465 13.3401 41.2598 13.3801 41.2598 13.4601C41.2598 13.5401 41.2465 13.5801 41.2198 13.5801C40.9398 13.5801 40.6532 13.5734 40.3598 13.5601C40.0798 13.5467 39.7598 13.5401 39.3998 13.5401C39.0532 13.5401 38.7132 13.5467 38.3798 13.5601C38.0465 13.5734 37.7332 13.5801 37.4398 13.5801C37.4132 13.5801 37.3998 13.5401 37.3998 13.4601C37.3998 13.3801 37.4132 13.3401 37.4398 13.3401C38.0265 13.3401 38.4532 13.1734 38.7198 12.8401C38.9865 12.5067 39.1198 11.9934 39.1198 11.3001ZM49.2398 13.8401C49.2398 13.8667 49.2065 13.8801 49.1398 13.8801C49.0865 13.8934 49.0465 13.8934 49.0198 13.8801L39.5998 2.72008C39.1332 2.17341 38.7265 1.80674 38.3798 1.62008C38.0465 1.42008 37.7132 1.32008 37.3798 1.32008C37.3532 1.32008 37.3398 1.28008 37.3398 1.20008C37.3398 1.12008 37.3532 1.08008 37.3798 1.08008C37.6332 1.08008 37.8865 1.08674 38.1398 1.10008C38.3932 1.11341 38.6265 1.12008 38.8398 1.12008C39.1598 1.12008 39.4532 1.11341 39.7198 1.10008C39.9865 1.08674 40.1865 1.08008 40.3198 1.08008C40.4932 1.08008 40.6198 1.16008 40.6998 1.32008C40.7798 1.46674 40.9732 1.73341 41.2798 2.12008L49.0798 11.5201L49.2398 13.8401ZM49.2398 3.38008V13.8401L48.7398 13.2201V3.38008C48.7398 2.68674 48.6132 2.17341 48.3598 1.84008C48.1198 1.49341 47.7265 1.32008 47.1798 1.32008C47.1532 1.32008 47.1398 1.28008 47.1398 1.20008C47.1398 1.12008 47.1532 1.08008 47.1798 1.08008C47.4598 1.08008 47.7465 1.09341 48.0398 1.12008C48.3332 1.13341 48.6532 1.14008 48.9998 1.14008C49.3332 1.14008 49.6598 1.13341 49.9798 1.12008C50.2998 1.09341 50.5998 1.08008 50.8798 1.08008C50.9065 1.08008 50.9198 1.12008 50.9198 1.20008C50.9198 1.28008 50.9065 1.32008 50.8798 1.32008C50.3198 1.32008 49.9065 1.49341 49.6398 1.84008C49.3732 2.17341 49.2398 2.68674 49.2398 3.38008Z" fill="#333333"/>
<path d="M33.7414 11.9601C33.7414 12.3467 33.7747 12.6401 33.8414 12.8401C33.9214 13.0401 34.0747 13.1734 34.3014 13.2401C34.5414 13.3067 34.8947 13.3401 35.3614 13.3401C35.3881 13.3401 35.4014 13.3801 35.4014 13.4601C35.4014 13.5401 35.3881 13.5801 35.3614 13.5801C35.0281 13.5801 34.6547 13.5734 34.2414 13.5601C33.8414 13.5467 33.4014 13.5401 32.9214 13.5401C32.4547 13.5401 32.0147 13.5467 31.6014 13.5601C31.1881 13.5734 30.8147 13.5801 30.4814 13.5801C30.4547 13.5801 30.4414 13.5401 30.4414 13.4601C30.4414 13.3801 30.4547 13.3401 30.4814 13.3401C30.9481 13.3401 31.3014 13.3067 31.5414 13.2401C31.7814 13.1734 31.9414 13.0401 32.0214 12.8401C32.1014 12.6401 32.1414 12.3467 32.1414 11.9601V2.70008C32.1414 2.31341 32.1014 2.02674 32.0214 1.84008C31.9414 1.64008 31.7814 1.50674 31.5414 1.44008C31.3014 1.36008 30.9481 1.32008 30.4814 1.32008C30.4547 1.32008 30.4414 1.28008 30.4414 1.20008C30.4414 1.12008 30.4547 1.08008 30.4814 1.08008C30.8147 1.08008 31.1881 1.09341 31.6014 1.12008C32.0147 1.13341 32.4547 1.14008 32.9214 1.14008C33.4014 1.14008 33.8481 1.13341 34.2614 1.12008C34.6747 1.09341 35.0414 1.08008 35.3614 1.08008C35.3881 1.08008 35.4014 1.12008 35.4014 1.20008C35.4014 1.28008 35.3881 1.32008 35.3614 1.32008C34.8947 1.32008 34.5481 1.36008 34.3214 1.44008C34.0947 1.52008 33.9414 1.66008 33.8614 1.86008C33.7814 2.06008 33.7414 2.35341 33.7414 2.74008V11.9601Z" fill="#333333"/>
<path d="M21.1877 13.8199C20.2277 13.8199 19.3543 13.6532 18.5677 13.3199C17.7943 12.9732 17.1277 12.4999 16.5677 11.8999C16.021 11.2999 15.5943 10.6132 15.2877 9.83986C14.9943 9.0532 14.8477 8.21986 14.8477 7.33986C14.8477 6.25986 15.0543 5.3132 15.4677 4.49986C15.8943 3.68653 16.4543 3.0132 17.1477 2.47986C17.841 1.9332 18.601 1.52653 19.4277 1.25986C20.2543 0.993196 21.0743 0.859863 21.8877 0.859863C22.8743 0.859863 23.7543 1.03986 24.5277 1.39986C25.3143 1.74653 25.981 2.21986 26.5277 2.81986C27.0743 3.41986 27.4877 4.09986 27.7677 4.85986C28.061 5.61986 28.2077 6.39986 28.2077 7.19986C28.2077 8.1332 28.021 8.99986 27.6477 9.79986C27.2743 10.5999 26.761 11.2999 26.1077 11.8999C25.4677 12.4999 24.721 12.9732 23.8677 13.3199C23.0277 13.6532 22.1343 13.8199 21.1877 13.8199ZM21.8877 13.3799C22.7277 13.3799 23.4877 13.1665 24.1677 12.7399C24.861 12.2999 25.401 11.6665 25.7877 10.8399C26.1877 9.99986 26.3877 8.9732 26.3877 7.75986C26.3877 6.51986 26.1677 5.41986 25.7277 4.45986C25.301 3.48653 24.6877 2.72653 23.8877 2.17986C23.101 1.61986 22.161 1.33986 21.0677 1.33986C19.6677 1.33986 18.581 1.8132 17.8077 2.75986C17.0477 3.70653 16.6677 4.99986 16.6677 6.63986C16.6677 7.58653 16.7877 8.4732 17.0277 9.29986C17.281 10.1132 17.641 10.8265 18.1077 11.4399C18.5743 12.0532 19.1277 12.5332 19.7677 12.8799C20.4077 13.2132 21.1143 13.3799 21.8877 13.3799Z" fill="#333333"/>
<path d="M6.55297 11.88C6.55297 12.28 6.59964 12.5867 6.69297 12.8C6.79964 13 7.01297 13.14 7.33297 13.22C7.65297 13.3 8.13297 13.34 8.77297 13.34C8.81297 13.34 8.83297 13.38 8.83297 13.46C8.83297 13.54 8.81297 13.58 8.77297 13.58C8.3463 13.58 7.87964 13.5734 7.37297 13.56C6.87964 13.5467 6.33964 13.54 5.75297 13.54C5.31297 13.54 4.87964 13.5467 4.45297 13.56C4.03964 13.5734 3.6663 13.58 3.33297 13.58C3.3063 13.58 3.29297 13.54 3.29297 13.46C3.29297 13.38 3.3063 13.34 3.33297 13.34C3.79964 13.34 4.1463 13.3067 4.37297 13.24C4.61297 13.1734 4.7663 13.04 4.83297 12.84C4.91297 12.64 4.95297 12.3467 4.95297 11.96L4.95297 2.70002C4.95297 2.31335 4.91297 2.02669 4.83297 1.84002C4.7663 1.64002 4.61297 1.50669 4.37297 1.44002C4.1463 1.36002 3.79964 1.32002 3.33297 1.32002C3.3063 1.32002 3.29297 1.28002 3.29297 1.20002C3.29297 1.12002 3.3063 1.08002 3.33297 1.08002C3.6663 1.08002 4.03964 1.09335 4.45297 1.12002C4.8663 1.13335 5.29297 1.14002 5.73297 1.14002C6.07964 1.14002 6.49964 1.12002 6.99297 1.08002C7.49964 1.04002 8.0063 1.02002 8.51297 1.02002C9.2863 1.02002 9.97964 1.13335 10.593 1.36002C11.2196 1.58669 11.7196 1.94002 12.093 2.42002C12.4663 2.90002 12.6596 3.52669 12.673 4.30002C12.673 4.99335 12.5463 5.59335 12.293 6.10002C12.0396 6.60669 11.693 7.02669 11.253 7.36002C10.8263 7.69335 10.3463 7.94002 9.81297 8.10002C9.29297 8.26002 8.77964 8.34002 8.27297 8.34002C8.11297 8.34002 7.9463 8.33335 7.77297 8.32002C7.61297 8.30669 7.45964 8.28002 7.31297 8.24002C7.25964 8.22669 7.23964 8.18002 7.25297 8.10002C7.27964 8.00669 7.31297 7.96669 7.35297 7.98002C7.47297 8.00669 7.59297 8.02669 7.71297 8.04002C7.8463 8.05335 7.95964 8.06002 8.05297 8.06002C8.55964 8.06002 9.0263 7.94002 9.45297 7.70002C9.87964 7.46002 10.2263 7.09335 10.493 6.60002C10.7596 6.09335 10.893 5.46669 10.893 4.72002C10.893 4.00002 10.7663 3.39335 10.513 2.90002C10.273 2.40669 9.93297 2.02669 9.49297 1.76002C9.05297 1.49335 8.5463 1.36002 7.97297 1.36002C7.59964 1.36002 7.3063 1.38669 7.09297 1.44002C6.89297 1.49335 6.75297 1.62002 6.67297 1.82002C6.59297 2.02002 6.55297 2.32669 6.55297 2.74002L6.55297 11.88Z" fill="#333333"/>
<path d="M50.4891 51.7461C52.9211 50.1675 54.5851 48.7595 55.4811 47.5221C56.3771 46.2421 56.8251 44.7915 56.8251 43.1701C56.8251 41.0795 56.1851 39.3728 54.9051 38.0501C53.6251 36.7275 51.7691 36.0661 49.3371 36.0661C47.1184 36.0661 45.3051 36.6635 43.8971 37.8581C42.4891 39.0528 41.4011 41.0368 40.6331 43.8101C40.6331 43.8955 40.5264 43.9381 40.3131 43.9381C40.1851 43.9381 40.0571 43.9168 39.9291 43.8741C39.8437 43.7888 39.8224 43.7248 39.8651 43.6821L42.3611 33.9541C42.3611 33.9115 42.4464 33.8901 42.6171 33.8901C43.0437 33.8901 43.2144 33.9541 43.1291 34.0821C43.0438 34.5088 43.0011 34.7861 43.0011 34.9141C43.0011 35.3408 43.1078 35.6608 43.3211 35.8741C43.5344 36.0448 43.7904 36.1301 44.0891 36.1301C44.5157 36.1301 45.2624 35.9381 46.3291 35.5541C47.5238 35.1701 48.5051 34.8928 49.2731 34.7221C50.0838 34.5515 51.0011 34.4661 52.0251 34.4661C54.5851 34.4661 56.7184 35.1275 58.4251 36.4501C60.1318 37.7301 60.9851 39.4368 60.9851 41.5701C60.9851 43.3621 60.2384 45.0901 58.7451 46.7541C57.2944 48.4181 54.9051 50.1888 51.5771 52.0661L50.4891 51.7461ZM41.1451 74.5301C47.2891 73.1648 51.6838 71.2021 54.3291 68.6421C56.9744 66.0821 58.2971 63.3728 58.2971 60.5141C58.2971 58.3808 57.6144 56.5461 56.2491 55.0101C54.9264 53.4315 53.0064 52.6421 50.4891 52.6421C48.6118 52.6421 47.0971 52.9195 45.9451 53.4741L45.8171 53.5381C45.6464 53.5381 45.5184 53.4528 45.4331 53.2821C45.3478 53.1115 45.3691 52.9835 45.4971 52.8981C46.2224 52.4288 47.2251 52.0448 48.5051 51.7461C49.7851 51.4048 51.1504 51.2341 52.6011 51.2341C55.7584 51.2341 58.2544 52.0661 60.0891 53.7301C61.9237 55.3515 62.8411 57.3781 62.8411 59.8101C62.8411 62.9675 61.0278 65.9328 57.4011 68.7061C53.7744 71.5221 48.4411 73.7195 41.4011 75.2981C41.2304 75.3408 41.1024 75.2341 41.0171 74.9781C40.9744 74.7221 41.0171 74.5728 41.1451 74.5301Z" fill="#333333"/>
<path d="M19.3922 66.0822C16.4482 66.0822 13.8242 65.4209 11.5202 64.0982C9.21616 62.7329 7.40282 60.8555 6.08016 58.4662C4.80016 56.0342 4.16016 53.2609 4.16016 50.1462C4.16016 47.1169 4.80016 44.4289 6.08016 42.0822C7.40282 39.7355 9.21616 37.9222 11.5202 36.6422C13.8668 35.3195 16.5122 34.6582 19.4562 34.6582C22.3575 34.6582 24.9388 35.3195 27.2002 36.6422C29.5042 37.9649 31.2748 39.8209 32.5122 42.2102C33.7922 44.5569 34.4322 47.2662 34.4322 50.3382C34.4322 53.4102 33.7922 56.1409 32.5122 58.5302C31.2322 60.9195 29.4402 62.7755 27.1362 64.0982C24.8748 65.4209 22.2935 66.0822 19.3922 66.0822ZM20.1602 65.1862C23.4028 65.1862 25.8135 63.9489 27.3922 61.4742C28.9708 58.9569 29.7602 55.5009 29.7602 51.1062C29.7602 47.6502 29.2695 44.7489 28.2882 42.4022C27.3068 40.0555 25.9842 38.3275 24.3202 37.2182C22.6562 36.0662 20.8002 35.4902 18.7522 35.4902C15.5948 35.4902 13.1202 36.8129 11.3282 39.4582C9.53616 42.0609 8.64016 45.4742 8.64016 49.6982C8.64016 52.6849 9.10949 55.3515 10.0482 57.6982C10.9868 60.0449 12.3308 61.8795 14.0802 63.2022C15.8295 64.5249 17.8562 65.1862 20.1602 65.1862Z" fill="#333333"/>
<path d="M166.631 250.499L159.924 250.386C158.377 250.36 157.239 248.928 157.563 247.413L177.148 160.33L188.391 162.733L169.073 248.558C168.827 249.706 167.803 250.518 166.629 250.499H166.631Z" fill="#333333" stroke="#F2F2F2" stroke-linecap="round" stroke-linejoin="round"/>
<path d="M303.147 250.499L309.853 250.386C311.4 250.36 312.538 248.928 312.214 247.413L292.63 160.33L281.387 162.733L300.704 248.558C300.95 249.706 301.974 250.518 303.148 250.499H303.147Z" fill="#333333" stroke="#F2F2F2" stroke-linecap="round" stroke-linejoin="round"/>
<path d="M189.011 60.2876H280.768C293.173 60.2876 303.244 70.3583 303.244 82.7638V159.242H166.535V82.7638C166.535 70.3583 176.606 60.2876 189.011 60.2876Z" fill="#333333" stroke="#F2F2F2" stroke-linecap="round" stroke-linejoin="round"/>
<path d="M290.143 143.876H179.643C170.555 143.876 163.188 151.243 163.188 160.331C163.188 169.418 170.555 176.785 179.643 176.785H290.143C299.231 176.785 306.598 169.418 306.598 160.331C306.598 151.243 299.231 143.876 290.143 143.876Z" fill="#333333" stroke="#F2F2F2" stroke-linecap="round" stroke-linejoin="round"/>
<path d="M231.15 243.588L222.508 244.466L219.59 226.537L231.15 225.36V243.588Z" fill="white" stroke="#333333" stroke-linecap="round" stroke-linejoin="round"/>
<path d="M213.949 250.498C213.949 245.508 218.624 239.335 224.39 239.335C230.155 239.335 234.831 245.508 234.831 250.498H213.949Z" fill="white" stroke="#333333" stroke-linecap="round" stroke-linejoin="round"/>
<path d="M239.734 243.588L248.379 244.466L251.988 226.43L239.734 225.798V243.588Z" fill="white" stroke="#333333" stroke-linecap="round" stroke-linejoin="round"/>
<path d="M257.649 250.498C257.649 245.508 252.975 239.335 247.208 239.335C241.44 239.335 236.766 245.508 236.766 250.498H257.648H257.649Z" fill="white" stroke="#333333" stroke-linecap="round" stroke-linejoin="round"/>
<path d="M221.99 23.147V23.3247C221.964 23.3133 221.938 23.3035 221.91 23.2937C221.935 23.2481 221.962 23.1991 221.99 23.147Z" fill="white" stroke="#333333" stroke-linecap="round" stroke-linejoin="round"/>
<path d="M241.725 32.4741H227.57V50.1861H241.725V32.4741Z" fill="white" stroke="#333333" stroke-linecap="round" stroke-linejoin="round"/>
<path d="M246.864 28.9613C246.684 30.3778 246.287 31.7993 245.711 33.1556C243.68 37.9361 239.414 41.8993 234.482 41.8993C229.55 41.8993 225.657 38.2748 223.532 33.776C222.893 32.4229 222.432 30.9901 222.189 29.5523C220.681 27.771 219.442 25.371 220.157 24.0928C220.423 23.6174 220.725 23.3715 221.025 23.2657C221.336 23.1566 221.645 23.1989 221.909 23.2934C221.937 23.3031 221.963 23.3129 221.989 23.3243V23.1468C222.542 22.1113 223.401 19.6884 224.71 14.4048C224.71 14.4048 239.605 13.9456 242.384 12.2783C242.384 12.2783 244.27 19.6608 246.134 23.5799C246.326 23.4415 246.631 23.2657 246.976 23.2152C247.442 23.1468 247.98 23.3048 248.422 24.0928C248.462 24.1661 248.498 24.2443 248.526 24.3257C248.941 25.4964 248.059 27.3802 246.864 28.9613Z" fill="white" stroke="#333333" stroke-linecap="round" stroke-linejoin="round"/>
<path d="M250.917 17.7674C250.715 20.8155 248.333 27.05 247.429 29.9125C247.12 30.8894 246.483 32.1025 245.711 33.1559C246.288 31.7996 246.685 30.3782 246.864 28.9616C248.059 27.3806 248.942 25.4967 248.527 24.326C248.499 24.2446 248.463 24.1664 248.422 24.0931C247.981 23.3051 247.442 23.1471 246.976 23.2155C246.631 23.266 246.327 23.4418 246.135 23.5802C244.27 19.6611 242.385 12.2786 242.385 12.2786C239.605 13.946 224.71 14.4051 224.71 14.4051C223.401 19.6888 222.543 22.1116 221.989 23.1471C221.962 23.1992 221.934 23.2481 221.91 23.2937C221.646 23.1992 221.337 23.1569 221.026 23.266C220.726 23.3718 220.423 23.6177 220.158 24.0931C219.443 25.3713 220.682 27.7713 222.19 29.5526C222.432 30.9904 222.893 32.4232 223.533 33.7763C223.25 33.6167 222.983 33.4181 222.738 33.1657C219.77 30.09 218.546 25.3355 217.75 21.2454C216.877 16.7709 217.152 11.9693 219.379 8.31549C220.058 7.20015 221.26 6.6726 221.908 5.55726C222.309 4.86851 222.506 4.00066 222.375 3.17026C222.297 2.66225 222.116 2.1233 222.296 1.65111C222.527 1.03563 223.206 0.920028 223.772 0.89072C225.936 0.775115 228.099 0.661138 230.263 0.547161C237.129 0.184063 246.306 1.80742 250.023 9.2843C251.264 11.7804 251.109 14.8789 250.917 17.7674Z" fill="#333333" stroke="#333333" stroke-linecap="round" stroke-linejoin="round"/>
<path d="M262.173 118.918C258.002 63.5501 249.885 48.0933 234.485 48.0933C219.085 48.0933 209.558 73.191 206.797 118.918H262.173Z" fill="#F2F2F2" stroke="#333333" stroke-linecap="round" stroke-linejoin="round"/>
<path d="M227.273 46.7959H241.914L242.093 46.8047C242.524 46.8392 243.054 46.9646 243.645 47.1592C244.313 47.3793 245.031 47.6781 245.728 48.002C247.121 48.6494 248.404 49.3812 249 49.7344C250.177 50.4395 251.224 51.1839 252.181 51.9434L252.182 51.9443C253.141 52.7029 254.017 53.4794 254.841 54.2666V54.2676C256.485 55.8442 257.923 57.4543 259.253 59.0908C260.581 60.7289 261.795 62.391 262.937 64.0742C264.929 67.0232 266.7 70.0343 268.308 73.1162L268.987 74.4414C270.768 77.9887 272.344 81.6216 273.685 85.4004C274.353 87.2893 274.96 89.2172 275.487 91.2002C275.947 92.9402 276.347 94.7174 276.646 96.5771L276.769 97.3799C276.922 98.4574 277.041 99.5589 277.102 100.71V100.711C277.164 101.859 277.169 103.055 277.073 104.327C277.036 104.804 276.984 105.292 276.911 105.793L276.831 106.299C276.796 106.486 276.773 106.636 276.737 106.809L276.736 106.81L276.684 107.07L276.653 107.202L276.631 107.293C276.549 107.601 276.482 107.876 276.398 108.159L276.397 108.164C276.07 109.312 275.666 110.44 275.19 111.531V111.532C274.24 113.716 272.998 115.75 271.561 117.548L271.56 117.549C270.303 119.129 268.902 120.534 267.418 121.777L266.776 122.3C265.268 123.498 263.686 124.536 262.054 125.44L261.352 125.819C260.408 126.314 259.451 126.766 258.47 127.177C257.979 127.382 257.483 127.577 256.973 127.763L256.194 128.034L255.784 128.168L255.265 128.329L255.257 128.332C252.792 129.141 250.139 127.801 249.328 125.336C248.519 122.871 249.861 120.218 252.324 119.408L252.273 119.192L252.369 119.384L252.382 119.377L252.515 119.311L252.737 119.202L252.739 119.201L253.23 118.95C253.56 118.776 253.897 118.591 254.229 118.396V118.396C254.895 118.006 255.55 117.583 256.179 117.139L256.18 117.138C257.439 116.244 258.603 115.253 259.622 114.189C260.639 113.128 261.512 111.992 262.205 110.813C262.903 109.635 263.415 108.417 263.756 107.175L263.757 107.174C263.927 106.551 264.054 105.922 264.14 105.287L264.139 105.286C264.162 105.136 264.181 104.916 264.193 104.821L264.192 104.82L264.201 104.768L264.206 104.733V104.678L264.21 104.637L264.209 104.636C264.213 104.598 264.216 104.562 264.217 104.539C264.218 104.507 264.218 104.491 264.219 104.476H264.22V104.465C264.23 104.242 264.233 103.987 264.225 103.709C264.212 103.293 264.177 102.831 264.117 102.341L264.049 101.842C263.949 101.17 263.807 100.459 263.637 99.7363V99.7354L263.502 99.1875C263.174 97.9025 262.753 96.5769 262.272 95.2529C261.722 93.7363 261.092 92.2128 260.401 90.7012C259.904 89.6102 259.374 88.526 258.82 87.4531L258.681 87.1826H210.271L210.131 87.4512C209.4 88.8546 208.719 90.2731 208.093 91.6982V91.6992C207.496 93.06 206.951 94.4308 206.48 95.7891L206.283 96.3701C205.771 97.9138 205.359 99.4507 205.107 100.869V100.87C204.985 101.573 204.897 102.256 204.863 102.86C204.846 103.16 204.839 103.44 204.843 103.693C204.845 103.822 204.85 103.941 204.854 104.045C204.856 104.084 204.859 104.118 204.861 104.14C204.864 104.166 204.864 104.177 204.864 104.186L204.865 104.185C204.867 104.232 204.873 104.284 204.877 104.314V104.315L204.889 104.42V104.422C204.955 105.003 205.068 105.587 205.239 106.173V106.175C205.412 106.757 205.639 107.34 205.918 107.924V107.926C206.481 109.092 207.272 110.255 208.251 111.366V111.367C209.105 112.341 210.102 113.274 211.192 114.149L211.665 114.521C212.941 115.501 214.338 116.412 215.801 117.231C216.349 117.538 216.908 117.834 217.473 118.115L218.04 118.392C218.418 118.573 218.799 118.747 219.175 118.912L219.179 118.914L219.498 119.05L219.426 119.123L220.239 119.358C222.653 120.055 224.077 122.522 223.509 124.94L223.447 125.174C222.749 127.587 220.284 129.011 217.864 128.443L217.63 128.382L217.619 128.379L217.132 128.25L216.729 128.138C216.464 128.064 216.205 127.989 215.951 127.911L215.949 127.91L215.188 127.672C214.937 127.59 214.686 127.506 214.436 127.421C213.437 127.079 212.454 126.708 211.481 126.304C209.776 125.594 208.099 124.784 206.451 123.846L205.747 123.436C203.879 122.321 202.051 121.033 200.327 119.496H200.326C198.711 118.06 197.185 116.396 195.873 114.474L195.614 114.086C194.933 113.042 194.316 111.927 193.79 110.753C193.331 109.726 192.944 108.651 192.638 107.551L192.512 107.078L192.45 106.836C192.426 106.733 192.413 106.692 192.396 106.605L192.395 106.604L192.286 106.062V106.062L192.195 105.533C192.168 105.359 192.143 105.186 192.121 105.016C192.054 104.503 192.008 104.002 191.977 103.513L191.95 103.026C191.894 101.742 191.939 100.534 192.032 99.3623C192.202 97.3176 192.526 95.4019 192.932 93.5469L193.11 92.7559C193.601 90.6575 194.195 88.6394 194.86 86.6621C196.192 82.7131 197.795 78.9411 199.615 75.2656L199.614 75.2646C201.44 71.5934 203.482 68.0303 205.821 64.5566C206.847 63.0382 207.931 61.5382 209.099 60.0576L209.604 59.4248C210.968 57.7407 212.442 56.0843 214.124 54.4668C216.054 52.6107 218.081 50.8571 220.303 49.4053L220.75 49.1191C222.638 47.9327 225.119 46.796 227.273 46.7959Z" fill="white" stroke="#333333"/>
<path d="M210.574 87.6825C209.721 89.2847 209.267 90.2665 208.551 91.8997C207.873 93.4432 207.264 94.9966 206.758 96.5271C206.252 98.0544 205.846 99.567 205.6 100.956C205.48 101.646 205.395 102.309 205.363 102.889C205.346 103.178 205.34 103.447 205.343 103.686C205.345 103.807 205.349 103.919 205.354 104.022C205.356 104.076 205.362 104.12 205.364 104.168C205.364 104.188 205.369 104.227 205.374 104.261L205.385 104.365C205.449 104.921 205.556 105.476 205.719 106.033C205.884 106.588 206.1 107.146 206.369 107.708C206.909 108.828 207.673 109.955 208.627 111.038C209.578 112.122 210.715 113.16 211.97 114.125C213.225 115.089 214.601 115.986 216.045 116.795C216.767 117.199 217.508 117.584 218.255 117.94C218.628 118.119 219.004 118.292 219.375 118.455L219.924 118.689L220.188 118.797L220.308 118.845L220.362 118.867C220.362 118.867 220.381 118.875 220.378 118.878C223.135 119.674 224.724 122.556 223.928 125.313C223.13 128.069 220.249 129.659 217.491 128.862L217.004 128.734L216.594 128.62C216.325 128.545 216.063 128.468 215.804 128.389C215.287 128.232 214.779 128.066 214.274 127.894C213.266 127.548 212.273 127.174 211.289 126.765C209.321 125.946 207.386 124.994 205.491 123.865C203.601 122.737 201.746 121.431 199.994 119.87C198.244 118.313 196.591 116.489 195.196 114.36C194.501 113.295 193.87 112.157 193.333 110.957C192.797 109.757 192.358 108.495 192.027 107.202L191.965 106.959C191.946 106.876 191.925 106.801 191.905 106.704C191.868 106.521 191.827 106.332 191.794 106.152C191.728 105.789 191.671 105.43 191.625 105.08C191.534 104.38 191.48 103.704 191.451 103.048C191.394 101.737 191.439 100.508 191.534 99.3212C191.731 96.9537 192.13 94.7605 192.623 92.6421C193.118 90.5254 193.717 88.4918 194.387 86.502C195.727 82.5291 197.338 78.737 199.167 75.0441C201.002 71.3545 203.054 67.7708 205.406 64.2766C206.585 62.5311 207.842 60.8084 209.215 59.1101C210.589 57.4135 212.077 55.7413 213.777 54.1066C215.848 52.1152 218.045 50.2265 220.484 48.6959C222.394 47.4959 224.975 46.2959 227.274 46.2959H241.925C244.059 46.3399 248.048 48.5901 249.255 49.3049C250.453 50.0229 251.52 50.7801 252.492 51.5519C253.466 52.322 254.353 53.1101 255.187 53.9063C256.849 55.5003 258.301 57.127 259.642 58.7764C260.98 60.4274 262.203 62.1012 263.351 63.7946C265.642 67.1846 267.639 70.6544 269.434 74.217C271.223 77.7812 272.807 81.4333 274.156 85.2336C274.828 87.1338 275.44 89.0747 275.971 91.0725C276.5 93.0752 276.951 95.1317 277.264 97.3087C277.419 98.398 277.539 99.5149 277.601 100.684C277.665 101.85 277.669 103.068 277.572 104.365C277.521 105.015 277.443 105.686 277.324 106.383C277.292 106.559 277.264 106.73 277.227 106.91L277.171 107.179L277.142 107.311L277.114 107.422C277.036 107.715 276.964 108.009 276.878 108.301C276.544 109.47 276.134 110.62 275.649 111.732C274.68 113.957 273.415 116.029 271.951 117.86C270.489 119.699 268.836 121.302 267.087 122.691C265.337 124.082 263.491 125.259 261.584 126.262C260.628 126.764 259.658 127.221 258.663 127.638C258.165 127.846 257.662 128.043 257.144 128.232C256.885 128.327 256.623 128.419 256.351 128.509L255.932 128.646L255.413 128.807C252.686 129.703 249.75 128.219 248.853 125.492C247.957 122.765 249.442 119.829 252.168 118.933L252.145 118.937L252.158 118.93L252.295 118.862L252.518 118.753C252.673 118.676 252.834 118.595 252.997 118.508C253.321 118.337 253.651 118.155 253.977 117.965C254.63 117.582 255.273 117.167 255.89 116.73C257.126 115.853 258.266 114.882 259.261 113.843C260.254 112.806 261.104 111.702 261.775 110.561C262.45 109.42 262.945 108.242 263.274 107.042C263.439 106.441 263.561 105.834 263.644 105.22C263.668 105.067 263.678 104.911 263.697 104.758L263.706 104.699V104.663L263.712 104.592C263.717 104.548 263.717 104.491 263.72 104.442C263.73 104.232 263.733 103.989 263.725 103.724C263.709 103.191 263.654 102.574 263.554 101.917C263.457 101.26 263.318 100.564 263.15 99.8504C262.812 98.4191 262.346 96.9228 261.802 95.4232C261.257 93.9203 260.632 92.4093 259.946 90.9081C259.539 90.0174 259.163 88.8353 258.717 87.9544" fill="#F2F2F2"/>
<path d="M210.574 87.6825C209.721 89.2847 209.267 90.2665 208.551 91.8997C207.873 93.4432 207.264 94.9966 206.758 96.5271C206.252 98.0544 205.846 99.567 205.6 100.956C205.48 101.646 205.395 102.309 205.363 102.889C205.346 103.178 205.34 103.447 205.343 103.686C205.345 103.807 205.349 103.919 205.354 104.022C205.356 104.076 205.362 104.12 205.364 104.168C205.364 104.188 205.369 104.227 205.374 104.261L205.385 104.365C205.449 104.921 205.556 105.476 205.719 106.033C205.884 106.588 206.1 107.146 206.369 107.708C206.909 108.828 207.673 109.955 208.627 111.038C209.578 112.122 210.715 113.16 211.97 114.125C213.225 115.089 214.601 115.986 216.045 116.795C216.767 117.199 217.508 117.584 218.255 117.94C218.628 118.119 219.004 118.292 219.375 118.455L219.924 118.689L220.188 118.797L220.308 118.845L220.362 118.867C220.362 118.867 220.381 118.875 220.378 118.878C223.135 119.674 224.724 122.556 223.928 125.313C223.13 128.069 220.249 129.659 217.491 128.862L217.004 128.734L216.594 128.62C216.325 128.545 216.063 128.468 215.804 128.389C215.287 128.232 214.779 128.066 214.274 127.894C213.266 127.548 212.273 127.174 211.289 126.765C209.321 125.946 207.386 124.994 205.491 123.865C203.601 122.737 201.746 121.431 199.994 119.87C198.244 118.313 196.591 116.489 195.196 114.36C194.501 113.295 193.87 112.157 193.333 110.957C192.797 109.757 192.358 108.495 192.027 107.202L191.965 106.959C191.946 106.876 191.925 106.801 191.905 106.704C191.868 106.521 191.827 106.332 191.794 106.152C191.728 105.789 191.671 105.43 191.625 105.08C191.534 104.38 191.48 103.704 191.451 103.048C191.394 101.737 191.439 100.508 191.534 99.3212C191.731 96.9537 192.13 94.7605 192.623 92.6421C193.118 90.5254 193.717 88.4918 194.387 86.502C195.727 82.5291 197.338 78.737 199.167 75.0441C201.002 71.3545 203.054 67.7708 205.406 64.2766C206.585 62.5311 207.842 60.8084 209.215 59.1101C210.589 57.4135 212.077 55.7413 213.777 54.1066C215.848 52.1152 218.045 50.2265 220.484 48.6959C222.394 47.4959 224.975 46.2959 227.274 46.2959H241.925C244.059 46.3399 248.048 48.5901 249.255 49.3049C250.453 50.0229 251.52 50.7801 252.492 51.5519C253.466 52.322 254.353 53.1101 255.187 53.9063C256.849 55.5003 258.301 57.127 259.642 58.7764C260.98 60.4274 262.203 62.1012 263.351 63.7946C265.642 67.1846 267.639 70.6544 269.434 74.217C271.223 77.7812 272.807 81.4333 274.156 85.2336C274.828 87.1338 275.44 89.0747 275.971 91.0725C276.5 93.0752 276.951 95.1317 277.264 97.3087C277.419 98.398 277.539 99.5149 277.601 100.684C277.665 101.85 277.669 103.068 277.572 104.365C277.521 105.015 277.443 105.686 277.324 106.383C277.292 106.559 277.264 106.73 277.227 106.91L277.171 107.179L277.142 107.311L277.114 107.422C277.036 107.715 276.964 108.009 276.878 108.301C276.544 109.47 276.134 110.62 275.649 111.732C274.68 113.957 273.415 116.029 271.951 117.86C270.489 119.699 268.836 121.302 267.087 122.691C265.337 124.082 263.491 125.259 261.584 126.262C260.628 126.764 259.658 127.221 258.663 127.638C258.165 127.846 257.662 128.043 257.144 128.232C256.885 128.327 256.623 128.419 256.351 128.509L255.932 128.646L255.413 128.807C252.686 129.703 249.75 128.219 248.853 125.492C247.957 122.765 249.442 119.829 252.168 118.933L252.145 118.937L252.158 118.93L252.295 118.862L252.518 118.753C252.673 118.676 252.834 118.595 252.997 118.508C253.321 118.337 253.651 118.155 253.977 117.965C254.63 117.582 255.273 117.167 255.89 116.73C257.126 115.853 258.266 114.882 259.261 113.843C260.254 112.806 261.104 111.702 261.775 110.561C262.45 109.42 262.945 108.242 263.274 107.042C263.439 106.441 263.561 105.834 263.644 105.22C263.668 105.067 263.678 104.911 263.697 104.758L263.706 104.699V104.663L263.712 104.592C263.717 104.548 263.717 104.491 263.72 104.442C263.73 104.232 263.733 103.989 263.725 103.724C263.709 103.191 263.654 102.574 263.554 101.917C263.457 101.26 263.318 100.564 263.15 99.8504C262.812 98.4191 262.346 96.9228 261.802 95.4232C261.257 93.9203 260.632 92.4093 259.946 90.9081C259.539 90.0174 259.163 88.8353 258.717 87.9544" stroke="#333333" stroke-linecap="round" stroke-linejoin="round"/>
<path d="M257.814 131.748H211.405C209.964 131.748 208.739 130.784 208.523 129.479L204.042 102.467C203.773 100.852 205.139 99.396 206.924 99.396H262.294C264.078 99.396 265.444 100.85 265.176 102.467L260.695 129.479C260.478 130.784 259.254 131.748 257.813 131.748H257.814Z" fill="white" stroke="#333333" stroke-linecap="round" stroke-linejoin="round"/>
<path d="M253.269 127.083C249.184 126.992 245.504 128.823 243.089 131.748H227.845C225.081 128.4 220.685 126.537 216.077 127.218C209.069 128.252 204.226 134.77 205.26 141.778L218.164 229.26L232.753 228.025L230.999 149.865C233.974 149.548 236.951 149.595 239.925 150.005L238.175 228.025L252.764 229.26L265.668 141.778C265.738 141.283 265.79 140.706 265.801 140.193C265.961 133.112 260.348 127.242 253.267 127.084L253.269 127.083Z" fill="#333333" stroke="#F2F2F2" stroke-linecap="round" stroke-linejoin="round"/>
<path d="M392.23 134.121H350.012V137.392H392.23V134.121Z" fill="#F2F2F2" stroke="#333333" stroke-linecap="round" stroke-linejoin="round"/>
<path d="M389.09 130.2H355.105V134.121H389.09V130.2Z" fill="#F2F2F2" stroke="#333333" stroke-linecap="round" stroke-linejoin="round"/>
<path d="M413.953 120.505H413.824L413.998 117.42C414.07 116.13 413.042 115.042 411.75 115.042H399.469C398.177 115.042 397.149 116.13 397.222 117.42L398.222 135.181C398.289 136.374 399.276 137.305 400.469 137.305H410.75C411.945 137.305 412.93 136.374 412.998 135.181L413.129 132.865H413.953C416.506 132.865 418.583 130.788 418.583 128.234V125.134C418.583 122.581 416.506 120.505 413.953 120.505ZM416.458 128.234C416.458 129.617 415.335 130.74 413.953 130.74H413.249L413.705 122.628H413.953C415.335 122.628 416.458 123.754 416.458 125.134V128.234Z" fill="#333333" stroke="#333333" stroke-linecap="round" stroke-linejoin="round"/>
<path d="M386.098 247.441V144.613C386.098 142.924 384.729 141.555 383.04 141.555H381.726C380.037 141.555 378.668 142.924 378.668 144.613V247.441C378.668 249.13 380.037 250.499 381.726 250.499H383.04C384.729 250.499 386.098 249.13 386.098 247.441Z" fill="white" stroke="#333333" stroke-linecap="round" stroke-linejoin="round"/>
<path d="M407.22 250.498H357.547C357.547 245.976 361.212 242.311 365.734 242.311H399.034C403.556 242.311 407.221 245.976 407.221 250.498H407.22Z" fill="white" stroke="#333333" stroke-linecap="round" stroke-linejoin="round"/>
<path d="M417.802 137.394H346.961C344.37 137.394 342.27 139.494 342.27 142.085V142.086C342.27 144.677 344.37 146.777 346.961 146.777H417.802C420.393 146.777 422.493 144.677 422.493 142.086V142.085C422.493 139.494 420.393 137.394 417.802 137.394Z" fill="white" stroke="#333333" stroke-linecap="round" stroke-linejoin="round"/>
</svg>
