<svg width="350" height="264" viewBox="0 0 350 264" fill="none" xmlns="http://www.w3.org/2000/svg">
<path d="M4 11.3801C4 11.7801 4.04667 12.0867 4.14 12.3001C4.24667 12.5001 4.46 12.6401 4.78 12.7201C5.1 12.8001 5.58 12.8401 6.22 12.8401C6.26 12.8401 6.28 12.8801 6.28 12.9601C6.28 13.0401 6.26 13.0801 6.22 13.0801C5.79333 13.0801 5.32667 13.0734 4.82 13.0601C4.32667 13.0467 3.78667 13.0401 3.2 13.0401C2.76 13.0401 2.32667 13.0467 1.9 13.0601C1.48667 13.0734 1.11333 13.0801 0.78 13.0801C0.753333 13.0801 0.74 13.0401 0.74 12.9601C0.74 12.8801 0.753333 12.8401 0.78 12.8401C1.24667 12.8401 1.59333 12.8067 1.82 12.7401C2.06 12.6734 2.21333 12.5401 2.28 12.3401C2.36 12.1401 2.4 11.8467 2.4 11.4601L2.4 2.20008C2.4 1.81341 2.36 1.52674 2.28 1.34008C2.21333 1.14008 2.06 1.00674 1.82 0.940077C1.59333 0.860077 1.24667 0.820077 0.78 0.820077C0.753333 0.820077 0.74 0.780078 0.74 0.700078C0.74 0.620078 0.753333 0.580078 0.78 0.580078C1.11333 0.580078 1.48667 0.593411 1.9 0.620078C2.31333 0.633411 2.74 0.640077 3.18 0.640077C3.52667 0.640077 3.94667 0.620078 4.44 0.580078C4.94667 0.540078 5.45333 0.520078 5.96 0.520078C6.73333 0.520078 7.42667 0.633411 8.04 0.860078C8.66667 1.08674 9.16667 1.44008 9.54 1.92008C9.91333 2.40008 10.1067 3.02674 10.12 3.80008C10.12 4.49341 9.99333 5.09341 9.74 5.60008C9.48667 6.10674 9.14 6.52674 8.7 6.86008C8.27333 7.19341 7.79333 7.44008 7.26 7.60008C6.74 7.76008 6.22667 7.84008 5.72 7.84008C5.56 7.84008 5.39333 7.83341 5.22 7.82008C5.06 7.80674 4.90667 7.78008 4.76 7.74008C4.70667 7.72674 4.68667 7.68008 4.7 7.60008C4.72667 7.50674 4.76 7.46674 4.8 7.48008C4.92 7.50674 5.04 7.52674 5.16 7.54008C5.29333 7.55341 5.40667 7.56008 5.5 7.56008C6.00667 7.56008 6.47333 7.44008 6.9 7.20008C7.32667 6.96008 7.67333 6.59341 7.94 6.10008C8.20667 5.59341 8.34 4.96674 8.34 4.22008C8.34 3.50008 8.21333 2.89341 7.96 2.40008C7.72 1.90674 7.38 1.52674 6.94 1.26008C6.5 0.993411 5.99333 0.860078 5.42 0.860078C5.04667 0.860078 4.75333 0.886744 4.54 0.940077C4.34 0.993411 4.2 1.12008 4.12 1.32008C4.04 1.52008 4 1.82674 4 2.24008L4 11.3801ZM18.638 13.3201C17.678 13.3201 16.8046 13.1534 16.018 12.8201C15.2446 12.4734 14.578 12.0001 14.018 11.4001C13.4713 10.8001 13.0446 10.1134 12.738 9.34008C12.4446 8.55341 12.298 7.72008 12.298 6.84008C12.298 5.76008 12.5046 4.81341 12.918 4.00008C13.3446 3.18674 13.9046 2.51341 14.598 1.98008C15.2913 1.43341 16.0513 1.02674 16.878 0.760077C17.7046 0.493411 18.5246 0.360077 19.338 0.360077C20.3246 0.360077 21.2046 0.540077 21.978 0.900078C22.7646 1.24674 23.4313 1.72008 23.978 2.32008C24.5246 2.92008 24.938 3.60008 25.218 4.36008C25.5113 5.12008 25.658 5.90008 25.658 6.70008C25.658 7.63341 25.4713 8.50008 25.098 9.30008C24.7246 10.1001 24.2113 10.8001 23.558 11.4001C22.918 12.0001 22.1713 12.4734 21.318 12.8201C20.478 13.1534 19.5846 13.3201 18.638 13.3201ZM19.338 12.8801C20.178 12.8801 20.938 12.6667 21.618 12.2401C22.3113 11.8001 22.8513 11.1667 23.238 10.3401C23.638 9.50008 23.838 8.47341 23.838 7.26008C23.838 6.02008 23.618 4.92008 23.178 3.96008C22.7513 2.98674 22.138 2.22674 21.338 1.68008C20.5513 1.12008 19.6113 0.840077 18.518 0.840077C17.118 0.840077 16.0313 1.31341 15.258 2.26008C14.498 3.20674 14.118 4.50008 14.118 6.14008C14.118 7.08674 14.238 7.97341 14.478 8.80008C14.7313 9.61341 15.0913 10.3267 15.558 10.9401C16.0246 11.5534 16.578 12.0334 17.218 12.3801C17.858 12.7134 18.5646 12.8801 19.338 12.8801ZM31.1905 11.4601C31.1905 11.8467 31.2238 12.1401 31.2905 12.3401C31.3705 12.5401 31.5238 12.6734 31.7505 12.7401C31.9905 12.8067 32.3438 12.8401 32.8105 12.8401C32.8371 12.8401 32.8505 12.8801 32.8505 12.9601C32.8505 13.0401 32.8371 13.0801 32.8105 13.0801C32.4771 13.0801 32.1038 13.0734 31.6905 13.0601C31.2905 13.0467 30.8505 13.0401 30.3705 13.0401C29.9038 13.0401 29.4638 13.0467 29.0505 13.0601C28.6371 13.0734 28.2638 13.0801 27.9305 13.0801C27.9038 13.0801 27.8905 13.0401 27.8905 12.9601C27.8905 12.8801 27.9038 12.8401 27.9305 12.8401C28.3971 12.8401 28.7505 12.8067 28.9905 12.7401C29.2305 12.6734 29.3905 12.5401 29.4705 12.3401C29.5505 12.1401 29.5905 11.8467 29.5905 11.4601L29.5905 2.20008C29.5905 1.81341 29.5505 1.52674 29.4705 1.34008C29.3905 1.14008 29.2305 1.00674 28.9905 0.940077C28.7505 0.860077 28.3971 0.820077 27.9305 0.820077C27.9038 0.820077 27.8905 0.780078 27.8905 0.700078C27.8905 0.620078 27.9038 0.580078 27.9305 0.580078C28.2638 0.580078 28.6371 0.593411 29.0505 0.620078C29.4638 0.633411 29.9038 0.640077 30.3705 0.640077C30.8505 0.640077 31.2971 0.633411 31.7105 0.620078C32.1238 0.593411 32.4905 0.580078 32.8105 0.580078C32.8371 0.580078 32.8505 0.620078 32.8505 0.700078C32.8505 0.780078 32.8371 0.820077 32.8105 0.820077C32.3438 0.820077 31.9971 0.860077 31.7705 0.940077C31.5438 1.02008 31.3905 1.16008 31.3105 1.36008C31.2305 1.56008 31.1905 1.85341 31.1905 2.24008L31.1905 11.4601ZM36.5697 10.8001V1.04008L37.0897 1.08008V10.8001C37.0897 11.4934 37.2164 12.0067 37.4697 12.3401C37.723 12.6734 38.123 12.8401 38.6697 12.8401C38.6964 12.8401 38.7097 12.8801 38.7097 12.9601C38.7097 13.0401 38.6964 13.0801 38.6697 13.0801C38.3897 13.0801 38.103 13.0734 37.8097 13.0601C37.5297 13.0467 37.2097 13.0401 36.8497 13.0401C36.503 13.0401 36.163 13.0467 35.8297 13.0601C35.4964 13.0734 35.183 13.0801 34.8897 13.0801C34.863 13.0801 34.8497 13.0401 34.8497 12.9601C34.8497 12.8801 34.863 12.8401 34.8897 12.8401C35.4764 12.8401 35.903 12.6734 36.1697 12.3401C36.4364 12.0067 36.5697 11.4934 36.5697 10.8001ZM46.6897 13.3401C46.6897 13.3667 46.6564 13.3801 46.5897 13.3801C46.5364 13.3934 46.4964 13.3934 46.4697 13.3801L37.0497 2.22008C36.583 1.67341 36.1764 1.30674 35.8297 1.12008C35.4964 0.920077 35.163 0.820077 34.8297 0.820077C34.803 0.820077 34.7897 0.780078 34.7897 0.700078C34.7897 0.620078 34.803 0.580078 34.8297 0.580078C35.083 0.580078 35.3364 0.586745 35.5897 0.600078C35.843 0.613411 36.0764 0.620078 36.2897 0.620078C36.6097 0.620078 36.903 0.613411 37.1697 0.600078C37.4364 0.586745 37.6364 0.580078 37.7697 0.580078C37.943 0.580078 38.0697 0.660078 38.1497 0.820077C38.2297 0.966744 38.423 1.23341 38.7297 1.62008L46.5297 11.0201L46.6897 13.3401ZM46.6897 2.88008V13.3401L46.1897 12.7201V2.88008C46.1897 2.18674 46.063 1.67341 45.8097 1.34008C45.5697 0.993411 45.1764 0.820077 44.6297 0.820077C44.603 0.820077 44.5897 0.780078 44.5897 0.700078C44.5897 0.620078 44.603 0.580078 44.6297 0.580078C44.9097 0.580078 45.1964 0.593411 45.4897 0.620078C45.783 0.633411 46.103 0.640077 46.4497 0.640077C46.783 0.640077 47.1097 0.633411 47.4297 0.620078C47.7497 0.593411 48.0497 0.580078 48.3297 0.580078C48.3564 0.580078 48.3697 0.620078 48.3697 0.700078C48.3697 0.780078 48.3564 0.820077 48.3297 0.820077C47.7697 0.820077 47.3564 0.993411 47.0897 1.34008C46.823 1.67341 46.6897 2.18674 46.6897 2.88008ZM53.1191 0.980078C52.2924 0.980078 51.6457 1.21341 51.1791 1.68008C50.7124 2.13341 50.3657 2.86674 50.1391 3.88008C50.1257 3.90674 50.0791 3.92008 49.9991 3.92008C49.9324 3.92008 49.8991 3.90008 49.8991 3.86008C49.9257 3.68674 49.9524 3.44008 49.9791 3.12008C50.0191 2.80008 50.0524 2.45341 50.0791 2.08008C50.1057 1.70674 50.1257 1.34674 50.1391 1.00008C50.1657 0.653411 50.1791 0.366744 50.1791 0.140078C50.1791 0.0734112 50.2191 0.0400779 50.2991 0.0400779C50.3791 0.0400779 50.4191 0.0734112 50.4191 0.140078C50.4191 0.273411 50.4857 0.373411 50.6191 0.440078C50.7524 0.493411 50.9057 0.533411 51.0791 0.560077C51.2524 0.573411 51.3991 0.580078 51.5191 0.580078C52.6657 0.620078 54.0057 0.640077 55.5391 0.640077C56.4724 0.640077 57.2191 0.633411 57.7791 0.620078C58.3391 0.593411 58.8791 0.580078 59.3991 0.580078C59.8524 0.580078 60.1991 0.553411 60.4391 0.500078C60.6924 0.433411 60.8524 0.293411 60.9191 0.0800774C60.9324 0.026744 60.9724 7.72476e-05 61.0391 7.72476e-05C61.1191 7.72476e-05 61.1591 0.026744 61.1591 0.0800774C61.1324 0.280077 61.1057 0.560077 61.0791 0.920077C61.0657 1.28008 61.0457 1.65341 61.0191 2.04008C61.0057 2.42674 60.9924 2.78674 60.9791 3.12008C60.9657 3.45341 60.9591 3.70008 60.9591 3.86008C60.9591 3.90008 60.9191 3.92008 60.8391 3.92008C60.7724 3.92008 60.7391 3.90008 60.7391 3.86008C60.6457 2.82008 60.3791 2.08008 59.9391 1.64008C59.4991 1.20008 58.8457 0.980078 57.9791 0.980078C57.5124 0.980078 57.1591 1.01341 56.9191 1.08008C56.6924 1.13341 56.5391 1.24674 56.4591 1.42008C56.3924 1.59341 56.3591 1.86674 56.3591 2.24008V11.4601C56.3591 11.8467 56.3991 12.1401 56.4791 12.3401C56.5724 12.5401 56.7457 12.6734 56.9991 12.7401C57.2657 12.8067 57.6724 12.8401 58.2191 12.8401C58.2457 12.8401 58.2591 12.8801 58.2591 12.9601C58.2591 13.0401 58.2457 13.0801 58.2191 13.0801C57.8591 13.0801 57.4524 13.0734 56.9991 13.0601C56.5591 13.0467 56.0724 13.0401 55.5391 13.0401C55.0324 13.0401 54.5524 13.0467 54.0991 13.0601C53.6591 13.0734 53.2524 13.0801 52.8791 13.0801C52.8391 13.0801 52.8191 13.0401 52.8191 12.9601C52.8191 12.8801 52.8391 12.8401 52.8791 12.8401C53.3991 12.8401 53.7924 12.8067 54.0591 12.7401C54.3391 12.6734 54.5257 12.5401 54.6191 12.3401C54.7124 12.1401 54.7591 11.8467 54.7591 11.4601V2.20008C54.7591 1.84008 54.7191 1.57341 54.6391 1.40008C54.5591 1.21341 54.3991 1.10008 54.1591 1.06008C53.9191 1.00674 53.5724 0.980078 53.1191 0.980078Z" fill="#333333"/>
<path d="M17.6 63.9121C14.656 63.9121 12.032 63.2507 9.728 61.9281C7.424 60.5627 5.61067 58.6854 4.288 56.2961C3.008 53.8641 2.368 51.0907 2.368 47.9761C2.368 44.9467 3.008 42.2587 4.288 39.9121C5.61067 37.5654 7.424 35.7521 9.728 34.4721C12.0747 33.1494 14.72 32.4881 17.664 32.4881C20.5653 32.4881 23.1467 33.1494 25.408 34.4721C27.712 35.7947 29.4827 37.6507 30.72 40.0401C32 42.3867 32.64 45.0961 32.64 48.1681C32.64 51.2401 32 53.9707 30.72 56.3601C29.44 58.7494 27.648 60.6054 25.344 61.9281C23.0827 63.2507 20.5013 63.9121 17.6 63.9121ZM18.368 63.0161C21.6107 63.0161 24.0213 61.7787 25.6 59.3041C27.1787 56.7867 27.968 53.3307 27.968 48.9361C27.968 45.4801 27.4773 42.5787 26.496 40.2321C25.5147 37.8854 24.192 36.1574 22.528 35.0481C20.864 33.8961 19.008 33.3201 16.96 33.3201C13.8027 33.3201 11.328 34.6427 9.536 37.2881C7.744 39.8907 6.848 43.3041 6.848 47.5281C6.848 50.5147 7.31733 53.1814 8.256 55.5281C9.19467 57.8747 10.5387 59.7094 12.288 61.0321C14.0373 62.3547 16.064 63.0161 18.368 63.0161ZM49.912 69.6721C49.5707 70.3974 49.1227 70.9094 48.568 71.2081L44.472 73.1921C44.3867 73.2347 44.28 73.1921 44.152 73.0641C44.024 72.9361 43.9813 72.8294 44.024 72.7441L61.752 36.8401C61.88 36.5414 61.7733 36.3921 61.432 36.3921C54.264 36.3921 49.3147 36.4774 46.584 36.6481C43.896 36.8187 42.1253 37.1814 41.272 37.7361C40.4613 38.2481 39.8213 39.2507 39.352 40.7441C39.352 40.8721 39.2667 40.9361 39.096 40.9361C38.968 40.9361 38.84 40.9147 38.712 40.8721C38.584 40.7867 38.5413 40.7014 38.584 40.6161L40.824 31.4001C40.8667 31.3147 41.016 31.2934 41.272 31.3361C41.528 31.3361 41.6347 31.3787 41.592 31.4641C41.5493 31.6347 41.528 31.8481 41.528 32.1041C41.528 32.5307 41.72 32.8081 42.104 32.9361C42.5307 33.0641 43.3627 33.1281 44.6 33.1281H63.8C64.0133 33.1281 64.1627 33.2347 64.248 33.4481C64.376 33.6187 64.3973 33.7894 64.312 33.9601L49.912 69.6721Z" fill="#333333"/>
<path d="M152.813 98.3567C152.59 101.341 152.321 104.277 152.027 106.205C151.169 111.82 148.7 122.677 138.638 125.454V146.859H115.685L116.644 120.043C116.681 116.401 115.272 112.761 114.341 110.756C114.336 110.752 114.334 110.748 114.332 110.741C113.92 109.857 113.602 109.294 113.546 109.195C113.541 109.189 113.539 109.187 113.539 109.183H113.537C113.537 109.183 111.867 110.053 110.523 107.011C109.497 104.688 107.857 102.567 108.065 99.8479C108.225 97.7648 109.634 96.7665 111.226 96.7496C111.916 96.7412 112.639 96.9181 113.312 97.272C113.436 97.2783 113.56 97.2846 113.68 97.2909C121.195 97.689 123.573 96.5643 131.429 91.5114C133.191 90.3761 143.278 83.8657 146.27 84.5903C149.263 85.3127 149.379 90.6247 150.21 92.7983C150.986 94.833 151.181 97.0698 152.813 98.3567Z" fill="white" stroke="#333333" stroke-linecap="round" stroke-linejoin="round"/>
<path d="M157.052 137.444C155.508 141.848 151.148 144.797 146.605 145.837C143.993 146.436 141.316 146.505 138.639 146.313V125.453C148.7 122.677 151.169 111.819 152.027 106.204C152.322 104.277 152.591 101.341 152.814 98.3564C151.182 97.0695 150.986 94.8326 150.21 92.798C149.379 90.6244 149.264 85.3124 146.271 84.59C143.278 83.8654 133.192 90.3758 131.429 91.5111C123.574 96.564 121.195 97.6887 113.681 97.2906C113.561 97.2843 113.437 97.278 113.313 97.2717C112.64 96.9178 111.916 96.7409 111.226 96.7493C109.634 96.7662 108.225 97.7645 108.065 99.8476C107.857 102.567 109.498 104.688 110.524 107.011C111.868 110.052 113.538 109.18 113.538 109.18H113.54C113.54 109.18 113.542 109.189 113.546 109.195C113.603 109.294 113.921 109.856 114.333 110.741C114.335 110.747 114.337 110.752 114.341 110.756C115.273 112.761 116.682 116.401 116.644 120.042L115.685 146.859C115.685 146.859 112.003 147.609 109.395 147.444C107.67 147.337 106.013 146.836 104.299 146.697C103.357 146.621 102.473 146.813 101.622 146.257C98.4647 144.197 99.6929 139.074 100.404 136.031C100.875 134.013 101.272 131.877 100.772 129.87C100.381 128.299 99.4763 126.957 98.7549 125.535C97.7644 123.585 97.0935 121.336 97.3984 119.126C97.695 116.971 98.879 115.084 99.369 112.972C99.7855 111.181 99.6866 109.3 99.5289 107.462C98.8075 98.9714 97.3185 90.4727 101.007 82.4332C104.532 74.7517 111.542 67.0555 121.437 64.2121C134.662 60.4145 147.24 66.4194 154.683 78.5135C157.649 83.3305 158.448 90.34 157.891 95.9131C157.436 100.433 156.856 104.149 157.929 108.7C158.255 110.078 158.631 111.464 158.635 112.879C158.646 115.929 156.027 118.039 155.327 120.916C153.941 126.61 159.098 131.601 157.052 137.444Z" fill="#333333" stroke="#333333" stroke-linecap="round" stroke-linejoin="round"/>
<path d="M137.402 136.143C137.757 136.208 138.246 136.327 138.856 136.532C139.945 136.899 141.388 137.53 143.083 138.573C146.472 140.658 150.87 144.393 155.447 150.969C164.604 164.124 174.477 188.649 178.389 234.035C178.433 234.557 178.201 235.186 177.633 235.922C177.07 236.651 176.223 237.427 175.164 238.224C173.048 239.815 170.164 241.431 167.242 242.882C164.325 244.331 161.391 245.606 159.184 246.52C158.08 246.976 157.16 247.341 156.516 247.593C156.349 247.658 156.2 247.714 156.072 247.764L137.402 136.143Z" fill="white" stroke="#333333"/>
<path d="M60.4193 256.472H60.3752C54.6483 235.848 50.0004 214.79 49.0477 193.403C48.646 184.376 48.9131 174.765 52.7744 166.42C56.4991 158.372 63.9105 155.855 72.1653 154.625C86.7863 152.447 101.62 150.364 116.299 152.093C120.142 152.546 124.092 153.315 127.246 155.556C130.885 158.14 132.994 162.338 134.683 166.472C138.799 176.547 141.247 187.219 143.329 197.902C147.098 217.246 149.72 236.815 151.176 256.47C120.924 256.47 90.6707 256.47 60.4193 256.47V256.472Z" fill="#333333" stroke="#333333" stroke-linecap="round" stroke-linejoin="round"/>
<path d="M136.661 136.075C139.652 137.805 142.396 140.919 144.901 145.11C147.434 149.347 149.701 154.645 151.723 160.626C155.767 172.589 158.815 187.226 161.082 201.439C163.348 215.648 164.831 229.415 165.747 239.631C166.205 244.739 166.521 248.959 166.723 251.901C166.823 253.371 166.896 254.523 166.943 255.306C166.959 255.573 166.972 255.798 166.982 255.978H77.6875C75.5694 223.66 79.8336 183.323 83.8477 165.855C86.6072 153.846 93.1006 146.46 99.6094 142.037C106.124 137.609 112.651 136.151 115.461 136.01L136.661 136.075Z" fill="white" stroke="#333333"/>
<path d="M136.795 135.576L115.45 135.51C109.662 135.792 88.9422 141.452 83.3605 165.743C79.3162 183.343 75.0258 224.034 77.2194 256.478H167.511C167.511 256.478 164.987 208.31 155.71 172.391" fill="#F2F2F2"/>
<path d="M136.795 135.576L115.45 135.51C109.662 135.792 88.9422 141.452 83.3605 165.743C79.3162 183.343 75.0258 224.034 77.2194 256.478H167.511C167.511 256.478 164.987 208.31 155.71 172.391" stroke="#333333" stroke-linecap="round" stroke-linejoin="round"/>
<path d="M112.301 174.253C111.281 178.314 110.127 182.376 109.148 186.049C105.898 198.259 103.262 209.723 103.333 222.316C103.331 222.331 103.33 222.344 103.33 222.353C103.33 222.374 103.33 222.392 103.331 222.4C103.332 222.417 103.334 222.431 103.335 222.435C103.336 222.441 103.336 222.446 103.337 222.449L103.354 222.603C103.358 222.658 103.361 222.716 103.363 222.781C103.367 222.902 103.369 223.058 103.387 223.216L103.433 223.633L103.85 223.661C104.545 223.707 105.329 223.752 106.021 223.784C121.702 224.507 137.283 223.516 152.495 227.077L153.966 227.436C155.05 227.713 155.649 227.894 156.637 228.123C156.662 228.7 156.411 229.314 155.891 229.989C155.28 230.781 154.355 231.581 153.29 232.389C152.221 233.201 151.07 233.978 149.98 234.767C149.045 235.444 148.16 236.127 147.495 236.804L147.225 237.094C146.911 237.449 146.617 237.846 146.33 238.237C146.039 238.634 145.751 239.028 145.432 239.406C144.798 240.156 144.061 240.815 143.029 241.204C135.015 244.223 126.278 248.019 117.908 248.84C112.495 249.371 106.467 250.483 100.455 251.341C94.4198 252.203 88.3692 252.815 82.8115 252.376C79.3151 252.1 76.7303 250.601 74.8164 248.311C72.8904 246.006 71.6283 242.879 70.8438 239.343C69.2739 232.267 69.6481 223.712 70.252 217.288C71.7809 201.023 76.1304 182.204 81.9375 165.85C83.6879 160.922 86.3938 155.837 89.7598 151.457L112.301 174.253ZM103.471 222.71C103.465 222.705 103.459 222.701 103.455 222.696C103.451 222.691 103.448 222.686 103.444 222.682C103.451 222.691 103.461 222.7 103.471 222.71ZM103.37 222.56C103.373 222.567 103.378 222.58 103.386 222.594C103.379 222.582 103.375 222.572 103.372 222.566L103.37 222.56Z" fill="white" stroke="#333333"/>
<path d="M112.855 174.103C111.818 178.259 110.628 182.435 109.631 186.178C106.378 198.399 103.755 209.823 103.833 222.366C103.833 222.376 103.829 222.357 103.831 222.368C103.875 222.637 103.854 222.894 103.883 223.162C104.575 223.208 105.356 223.252 106.043 223.284C122.155 224.027 138.345 222.949 154.089 226.951C155.32 227.265 155.892 227.45 157.088 227.715C157.845 231.201 150.171 234.519 147.599 237.425C146.413 238.765 145.487 240.812 143.206 241.671C135.233 244.675 126.412 248.508 117.958 249.338C107.156 250.398 94.0029 253.761 82.7721 252.874C68.229 251.727 68.5445 230.106 69.7538 217.241C71.2869 200.93 74.9569 184.045 80.7763 167.656C82.6039 162.51 86.3138 155.387 89.8765 150.863" fill="#F2F2F2"/>
<path d="M112.855 174.103C111.818 178.259 110.628 182.435 109.631 186.178C106.378 198.399 103.755 209.823 103.833 222.366C103.833 222.376 103.829 222.357 103.831 222.368C103.875 222.637 103.854 222.894 103.883 223.162C104.575 223.208 105.356 223.252 106.043 223.284C122.155 224.027 138.345 222.949 154.089 226.951C155.32 227.265 155.892 227.45 157.088 227.715C157.845 231.201 150.171 234.519 147.599 237.425C146.413 238.765 145.487 240.812 143.206 241.671C135.233 244.675 126.412 248.508 117.958 249.338C107.156 250.398 94.0029 253.761 82.7721 252.874C68.229 251.727 68.5445 230.106 69.7538 217.241C71.2869 200.93 74.9569 184.045 80.7763 167.656C82.6039 162.51 86.3138 155.387 89.8765 150.863" stroke="#333333" stroke-linecap="round" stroke-linejoin="round"/>
<path d="M136.793 135.576C139.329 135.51 171.047 143.122 178.879 233.992Z" fill="#F2F2F2"/>
<path d="M136.793 135.576C139.329 135.51 171.047 143.122 178.879 233.992" stroke="#333333" stroke-linecap="round" stroke-linejoin="round"/>
<path d="M144.555 238.352C144.555 238.352 156.791 224.725 167.222 231.539C177.656 238.352 174.646 238.352 174.646 238.352H144.555Z" fill="white" stroke="#333333" stroke-linecap="round" stroke-linejoin="round"/>
<path d="M256.726 180.401H178.603C177.049 180.401 175.694 181.463 175.322 182.973L161.658 238.289H138.25C135.844 238.289 133.895 240.242 133.895 242.651C133.895 245.061 135.844 247.013 138.25 247.013H241.394C242.437 247.013 243.348 246.301 243.598 245.286L258.928 183.22C259.281 181.785 258.198 180.401 256.724 180.401H256.726Z" fill="white" stroke="#333333" stroke-linecap="round" stroke-linejoin="round"/>
<path d="M264.889 240.654C263.144 233.488 266.547 226.633 270.152 219.372C274.905 209.797 279.82 199.898 273.626 187.924C268.614 178.235 267.598 168.153 267.628 161.402C267.664 153.146 269.34 145.22 272.112 140.207L281.05 142.659C276.694 150.54 274.755 170.371 282.638 185.609C290.005 199.852 284.268 211.409 279.205 221.605C275.885 228.292 273.018 234.07 274.343 239.508L264.889 240.652V240.654Z" fill="#333333" stroke="#F2F2F2" stroke-linecap="round" stroke-linejoin="round"/>
<path d="M289.146 152.815L255.452 170.312C258.972 167.549 260.627 161.485 259.774 154.595C259.57 152.933 259.216 151.221 258.709 149.496C258.203 147.773 257.572 146.143 256.844 144.635C253.927 138.581 249.449 134.453 245.121 133.828L284.376 131.235C284.376 131.235 293.63 139.144 289.146 152.815Z" fill="#333333" stroke="#F2F2F2" stroke-linecap="round" stroke-linejoin="round"/>
<path d="M255.449 170.312C255.449 170.312 255.444 170.312 255.442 170.316L252.982 171.595L249.305 159.103L245.606 146.528L241.93 134.038L245.118 133.828C249.446 134.453 253.924 138.581 256.841 144.635C257.569 146.143 258.2 147.773 258.706 149.496C259.213 151.221 259.567 152.933 259.771 154.595C260.624 161.485 258.969 167.549 255.449 170.312Z" fill="white" stroke="#333333" stroke-linecap="round" stroke-linejoin="round"/>
<path d="M258.925 235.281H283.976C290.441 235.281 295.69 240.538 295.69 247.013H247.211C247.211 240.538 252.46 235.281 258.925 235.281Z" fill="#333333" stroke="#F2F2F2" stroke-linecap="round" stroke-linejoin="round"/>
<path d="M255.451 170.312C255.451 170.312 255.447 170.312 255.445 170.316C254.705 170.895 253.882 171.329 252.984 171.594C246.772 173.427 239.261 166.508 236.21 156.137C233.156 145.766 235.72 135.873 241.932 134.038C242.969 133.733 244.042 133.669 245.121 133.827C249.449 134.453 253.926 138.581 256.843 144.634C257.571 146.143 258.202 147.773 258.709 149.496C259.216 151.221 259.569 152.933 259.773 154.595C260.627 161.484 258.972 167.548 255.451 170.312Z" fill="white" stroke="#F2F2F2" stroke-linecap="round" stroke-linejoin="round"/>
<path d="M259.773 154.595C258.532 157.554 255.613 159.631 252.208 159.631C251.188 159.631 250.21 159.444 249.308 159.102C246.208 157.929 244.004 154.93 244.004 151.415C244.004 149.586 244.599 147.895 245.609 146.528C247.104 144.508 249.504 143.198 252.208 143.198C253.929 143.198 255.525 143.727 256.844 144.635C257.571 146.143 258.202 147.773 258.709 149.496C259.216 151.221 259.569 152.933 259.773 154.595Z" fill="#F2F2F2"/>
<path d="M138.636 125.453C137.482 125.773 136.224 125.984 134.859 126.07C131.038 126.308 127.65 125.006 124.758 123.031" fill="white"/>
<path d="M138.636 125.453C137.482 125.773 136.224 125.984 134.859 126.07C131.038 126.308 127.65 125.006 124.758 123.031" stroke="#333333" stroke-linecap="round" stroke-linejoin="round"/>
<path d="M309.301 246.946H40.6999C36.6005 246.946 33.2773 250.374 33.2773 254.602V255.424C33.2773 259.652 36.6005 263.08 40.6999 263.08H309.301C313.401 263.08 316.724 259.652 316.724 255.424V254.602C316.724 250.374 313.401 246.946 309.301 246.946Z" fill="white" stroke="#333333" stroke-linecap="round" stroke-linejoin="round"/>
</svg>
