<svg width="350" height="284" viewBox="0 0 350 284" fill="none" xmlns="http://www.w3.org/2000/svg">
<path d="M292.127 11.3801C292.127 11.7801 292.173 12.0867 292.267 12.3001C292.373 12.5001 292.587 12.6401 292.907 12.7201C293.227 12.8001 293.707 12.8401 294.347 12.8401C294.387 12.8401 294.407 12.8801 294.407 12.9601C294.407 13.0401 294.387 13.0801 294.347 13.0801C293.92 13.0801 293.453 13.0734 292.947 13.0601C292.453 13.0467 291.913 13.0401 291.327 13.0401C290.887 13.0401 290.453 13.0467 290.027 13.0601C289.613 13.0734 289.24 13.0801 288.907 13.0801C288.88 13.0801 288.867 13.0401 288.867 12.9601C288.867 12.8801 288.88 12.8401 288.907 12.8401C289.373 12.8401 289.72 12.8067 289.947 12.7401C290.187 12.6734 290.34 12.5401 290.407 12.3401C290.487 12.1401 290.527 11.8467 290.527 11.4601V2.20008C290.527 1.81341 290.487 1.52674 290.407 1.34008C290.34 1.14008 290.187 1.00674 289.947 0.940077C289.72 0.860077 289.373 0.820077 288.907 0.820077C288.88 0.820077 288.867 0.780078 288.867 0.700078C288.867 0.620078 288.88 0.580078 288.907 0.580078C289.24 0.580078 289.613 0.593411 290.027 0.620078C290.44 0.633411 290.867 0.640077 291.307 0.640077C291.653 0.640077 292.073 0.620078 292.567 0.580078C293.073 0.540078 293.58 0.520078 294.087 0.520078C294.86 0.520078 295.553 0.633411 296.167 0.860078C296.793 1.08674 297.293 1.44008 297.667 1.92008C298.04 2.40008 298.233 3.02674 298.247 3.80008C298.247 4.49341 298.12 5.09341 297.867 5.60008C297.613 6.10674 297.267 6.52674 296.827 6.86008C296.4 7.19341 295.92 7.44008 295.387 7.60008C294.867 7.76008 294.353 7.84008 293.847 7.84008C293.687 7.84008 293.52 7.83341 293.347 7.82008C293.187 7.80674 293.033 7.78008 292.887 7.74008C292.833 7.72674 292.813 7.68008 292.827 7.60008C292.853 7.50674 292.887 7.46674 292.927 7.48008C293.047 7.50674 293.167 7.52674 293.287 7.54008C293.42 7.55341 293.533 7.56008 293.627 7.56008C294.133 7.56008 294.6 7.44008 295.027 7.20008C295.453 6.96008 295.8 6.59341 296.067 6.10008C296.333 5.59341 296.467 4.96674 296.467 4.22008C296.467 3.50008 296.34 2.89341 296.087 2.40008C295.847 1.90674 295.507 1.52674 295.067 1.26008C294.627 0.993411 294.12 0.860078 293.547 0.860078C293.173 0.860078 292.88 0.886744 292.667 0.940077C292.467 0.993411 292.327 1.12008 292.247 1.32008C292.167 1.52008 292.127 1.82674 292.127 2.24008V11.3801ZM306.765 13.3201C305.805 13.3201 304.931 13.1534 304.145 12.8201C303.371 12.4734 302.705 12.0001 302.145 11.4001C301.598 10.8001 301.171 10.1134 300.865 9.34008C300.571 8.55341 300.425 7.72008 300.425 6.84008C300.425 5.76008 300.631 4.81341 301.045 4.00008C301.471 3.18674 302.031 2.51341 302.725 1.98008C303.418 1.43341 304.178 1.02674 305.005 0.760077C305.831 0.493411 306.651 0.360077 307.465 0.360077C308.451 0.360077 309.331 0.540077 310.105 0.900078C310.891 1.24674 311.558 1.72008 312.105 2.32008C312.651 2.92008 313.065 3.60008 313.345 4.36008C313.638 5.12008 313.785 5.90008 313.785 6.70008C313.785 7.63341 313.598 8.50008 313.225 9.30008C312.851 10.1001 312.338 10.8001 311.685 11.4001C311.045 12.0001 310.298 12.4734 309.445 12.8201C308.605 13.1534 307.711 13.3201 306.765 13.3201ZM307.465 12.8801C308.305 12.8801 309.065 12.6667 309.745 12.2401C310.438 11.8001 310.978 11.1667 311.365 10.3401C311.765 9.50008 311.965 8.47341 311.965 7.26008C311.965 6.02008 311.745 4.92008 311.305 3.96008C310.878 2.98674 310.265 2.22674 309.465 1.68008C308.678 1.12008 307.738 0.840077 306.645 0.840077C305.245 0.840077 304.158 1.31341 303.385 2.26008C302.625 3.20674 302.245 4.50008 302.245 6.14008C302.245 7.08674 302.365 7.97341 302.605 8.80008C302.858 9.61341 303.218 10.3267 303.685 10.9401C304.151 11.5534 304.705 12.0334 305.345 12.3801C305.985 12.7134 306.691 12.8801 307.465 12.8801ZM319.317 11.4601C319.317 11.8467 319.35 12.1401 319.417 12.3401C319.497 12.5401 319.65 12.6734 319.877 12.7401C320.117 12.8067 320.47 12.8401 320.937 12.8401C320.964 12.8401 320.977 12.8801 320.977 12.9601C320.977 13.0401 320.964 13.0801 320.937 13.0801C320.604 13.0801 320.23 13.0734 319.817 13.0601C319.417 13.0467 318.977 13.0401 318.497 13.0401C318.03 13.0401 317.59 13.0467 317.177 13.0601C316.764 13.0734 316.39 13.0801 316.057 13.0801C316.03 13.0801 316.017 13.0401 316.017 12.9601C316.017 12.8801 316.03 12.8401 316.057 12.8401C316.524 12.8401 316.877 12.8067 317.117 12.7401C317.357 12.6734 317.517 12.5401 317.597 12.3401C317.677 12.1401 317.717 11.8467 317.717 11.4601V2.20008C317.717 1.81341 317.677 1.52674 317.597 1.34008C317.517 1.14008 317.357 1.00674 317.117 0.940077C316.877 0.860077 316.524 0.820077 316.057 0.820077C316.03 0.820077 316.017 0.780078 316.017 0.700078C316.017 0.620078 316.03 0.580078 316.057 0.580078C316.39 0.580078 316.764 0.593411 317.177 0.620078C317.59 0.633411 318.03 0.640077 318.497 0.640077C318.977 0.640077 319.424 0.633411 319.837 0.620078C320.25 0.593411 320.617 0.580078 320.937 0.580078C320.964 0.580078 320.977 0.620078 320.977 0.700078C320.977 0.780078 320.964 0.820077 320.937 0.820077C320.47 0.820077 320.124 0.860077 319.897 0.940077C319.67 1.02008 319.517 1.16008 319.437 1.36008C319.357 1.56008 319.317 1.85341 319.317 2.24008V11.4601ZM324.696 10.8001V1.04008L325.216 1.08008V10.8001C325.216 11.4934 325.343 12.0067 325.596 12.3401C325.85 12.6734 326.25 12.8401 326.796 12.8401C326.823 12.8401 326.836 12.8801 326.836 12.9601C326.836 13.0401 326.823 13.0801 326.796 13.0801C326.516 13.0801 326.23 13.0734 325.936 13.0601C325.656 13.0467 325.336 13.0401 324.976 13.0401C324.63 13.0401 324.29 13.0467 323.956 13.0601C323.623 13.0734 323.31 13.0801 323.016 13.0801C322.99 13.0801 322.976 13.0401 322.976 12.9601C322.976 12.8801 322.99 12.8401 323.016 12.8401C323.603 12.8401 324.03 12.6734 324.296 12.3401C324.563 12.0067 324.696 11.4934 324.696 10.8001ZM334.816 13.3401C334.816 13.3667 334.783 13.3801 334.716 13.3801C334.663 13.3934 334.623 13.3934 334.596 13.3801L325.176 2.22008C324.71 1.67341 324.303 1.30674 323.956 1.12008C323.623 0.920077 323.29 0.820077 322.956 0.820077C322.93 0.820077 322.916 0.780078 322.916 0.700078C322.916 0.620078 322.93 0.580078 322.956 0.580078C323.21 0.580078 323.463 0.586745 323.716 0.600078C323.97 0.613411 324.203 0.620078 324.416 0.620078C324.736 0.620078 325.03 0.613411 325.296 0.600078C325.563 0.586745 325.763 0.580078 325.896 0.580078C326.07 0.580078 326.196 0.660078 326.276 0.820077C326.356 0.966744 326.55 1.23341 326.856 1.62008L334.656 11.0201L334.816 13.3401ZM334.816 2.88008V13.3401L334.316 12.7201V2.88008C334.316 2.18674 334.19 1.67341 333.936 1.34008C333.696 0.993411 333.303 0.820077 332.756 0.820077C332.73 0.820077 332.716 0.780078 332.716 0.700078C332.716 0.620078 332.73 0.580078 332.756 0.580078C333.036 0.580078 333.323 0.593411 333.616 0.620078C333.91 0.633411 334.23 0.640077 334.576 0.640077C334.91 0.640077 335.236 0.633411 335.556 0.620078C335.876 0.593411 336.176 0.580078 336.456 0.580078C336.483 0.580078 336.496 0.620078 336.496 0.700078C336.496 0.780078 336.483 0.820077 336.456 0.820077C335.896 0.820077 335.483 0.993411 335.216 1.34008C334.95 1.67341 334.816 2.18674 334.816 2.88008ZM341.246 0.980078C340.419 0.980078 339.772 1.21341 339.306 1.68008C338.839 2.13341 338.492 2.86674 338.266 3.88008C338.252 3.90674 338.206 3.92008 338.126 3.92008C338.059 3.92008 338.026 3.90008 338.026 3.86008C338.052 3.68674 338.079 3.44008 338.106 3.12008C338.146 2.80008 338.179 2.45341 338.206 2.08008C338.232 1.70674 338.252 1.34674 338.266 1.00008C338.292 0.653411 338.306 0.366744 338.306 0.140078C338.306 0.0734112 338.346 0.0400779 338.426 0.0400779C338.506 0.0400779 338.546 0.0734112 338.546 0.140078C338.546 0.273411 338.612 0.373411 338.746 0.440078C338.879 0.493411 339.032 0.533411 339.206 0.560077C339.379 0.573411 339.526 0.580078 339.646 0.580078C340.792 0.620078 342.132 0.640077 343.666 0.640077C344.599 0.640077 345.346 0.633411 345.906 0.620078C346.466 0.593411 347.006 0.580078 347.526 0.580078C347.979 0.580078 348.326 0.553411 348.566 0.500078C348.819 0.433411 348.979 0.293411 349.046 0.0800774C349.059 0.026744 349.099 7.72476e-05 349.166 7.72476e-05C349.246 7.72476e-05 349.286 0.026744 349.286 0.0800774C349.259 0.280077 349.232 0.560077 349.206 0.920077C349.192 1.28008 349.172 1.65341 349.146 2.04008C349.132 2.42674 349.119 2.78674 349.106 3.12008C349.092 3.45341 349.086 3.70008 349.086 3.86008C349.086 3.90008 349.046 3.92008 348.966 3.92008C348.899 3.92008 348.866 3.90008 348.866 3.86008C348.772 2.82008 348.506 2.08008 348.066 1.64008C347.626 1.20008 346.972 0.980078 346.106 0.980078C345.639 0.980078 345.286 1.01341 345.046 1.08008C344.819 1.13341 344.666 1.24674 344.586 1.42008C344.519 1.59341 344.486 1.86674 344.486 2.24008V11.4601C344.486 11.8467 344.526 12.1401 344.606 12.3401C344.699 12.5401 344.872 12.6734 345.126 12.7401C345.392 12.8067 345.799 12.8401 346.346 12.8401C346.372 12.8401 346.386 12.8801 346.386 12.9601C346.386 13.0401 346.372 13.0801 346.346 13.0801C345.986 13.0801 345.579 13.0734 345.126 13.0601C344.686 13.0467 344.199 13.0401 343.666 13.0401C343.159 13.0401 342.679 13.0467 342.226 13.0601C341.786 13.0734 341.379 13.0801 341.006 13.0801C340.966 13.0801 340.946 13.0401 340.946 12.9601C340.946 12.8801 340.966 12.8401 341.006 12.8401C341.526 12.8401 341.919 12.8067 342.186 12.7401C342.466 12.6734 342.652 12.5401 342.746 12.3401C342.839 12.1401 342.886 11.8467 342.886 11.4601V2.20008C342.886 1.84008 342.846 1.57341 342.766 1.40008C342.686 1.21341 342.526 1.10008 342.286 1.06008C342.046 1.00674 341.699 0.980078 341.246 0.980078Z" fill="#333333"/>
<path d="M299.258 63.9121C296.314 63.9121 293.69 63.2507 291.386 61.9281C289.082 60.5627 287.268 58.6854 285.946 56.2961C284.666 53.8641 284.026 51.0907 284.026 47.9761C284.026 44.9467 284.666 42.2587 285.946 39.9121C287.268 37.5654 289.082 35.7521 291.386 34.4721C293.732 33.1494 296.378 32.4881 299.322 32.4881C302.223 32.4881 304.804 33.1494 307.066 34.4721C309.37 35.7947 311.14 37.6507 312.378 40.0401C313.658 42.3867 314.298 45.0961 314.298 48.1681C314.298 51.2401 313.658 53.9707 312.378 56.3601C311.098 58.7494 309.306 60.6054 307.002 61.9281C304.74 63.2507 302.159 63.9121 299.258 63.9121ZM300.026 63.0161C303.268 63.0161 305.679 61.7787 307.258 59.3041C308.836 56.7867 309.626 53.3307 309.626 48.9361C309.626 45.4801 309.135 42.5787 308.154 40.2321C307.172 37.8854 305.85 36.1574 304.186 35.0481C302.522 33.8961 300.666 33.3201 298.618 33.3201C295.46 33.3201 292.986 34.6427 291.194 37.2881C289.402 39.8907 288.506 43.3041 288.506 47.5281C288.506 50.5147 288.975 53.1814 289.914 55.5281C290.852 57.8747 292.196 59.7094 293.946 61.0321C295.695 62.3547 297.722 63.0161 300.026 63.0161ZM338.866 44.2641C341.767 44.2641 343.943 45.0534 345.394 46.6321C346.844 48.2107 347.57 50.1521 347.57 52.4561C347.57 54.5041 346.972 56.4027 345.778 58.1521C344.583 59.9014 342.94 61.3094 340.85 62.3761C338.802 63.4001 336.583 63.9121 334.194 63.9121C331.719 63.9121 329.479 63.2294 327.474 61.8641C325.468 60.4987 323.89 58.5787 322.738 56.1041C321.628 53.6294 321.074 50.8347 321.074 47.7201C321.074 43.9654 321.927 40.4241 323.634 37.0961C325.34 33.7254 327.858 30.8881 331.186 28.5841C334.514 26.2374 338.482 24.7654 343.09 24.1681C343.26 24.1254 343.367 24.2107 343.41 24.4241C343.452 24.6374 343.41 24.7654 343.282 24.8081C339.399 25.5761 336.135 27.0481 333.49 29.2241C330.844 31.4001 328.86 34.0027 327.538 37.0321C326.215 40.0187 325.554 43.1547 325.554 46.4401C325.554 49.2561 325.98 51.9227 326.834 54.4401C327.73 56.9147 328.967 58.9201 330.546 60.4561C332.167 61.9494 334.002 62.6961 336.05 62.6961C338.226 62.6961 339.932 61.9281 341.17 60.3921C342.45 58.8134 343.09 56.7227 343.09 54.1201C343.09 51.6027 342.535 49.6401 341.426 48.2321C340.316 46.7814 338.695 46.0561 336.562 46.0561C335.41 46.0561 334.343 46.2907 333.362 46.7601C332.38 47.1867 331.314 47.9334 330.162 49.0001C330.119 49.0427 330.055 49.0641 329.97 49.0641C329.842 49.0641 329.714 49.0001 329.586 48.8721C329.458 48.7441 329.415 48.6374 329.458 48.5521C330.524 47.1441 331.868 46.0774 333.49 45.3521C335.154 44.6267 336.946 44.2641 338.866 44.2641Z" fill="#333333"/>
<path d="M71.7389 282.193C68.7328 266.239 67.2809 251.263 64.9142 235.204C62.769 220.645 61.4592 202.333 60.1437 187.664C58.9475 174.347 57.3024 157.111 62.627 144.505C71.0059 124.676 95.006 133.6 93.1507 153.577C90.9288 177.483 73.7193 209.075 71.7389 282.193Z" fill="white"/>
<path d="M71.7383 282.193C73.5453 277.96 72.0423 267.569 72.2724 262.694C72.656 254.573 73.3493 246.464 74.3466 238.395C77.5203 212.676 82.0975 179.135 101.236 159.641C115.045 145.574 132.482 161.252 124.177 177.643C114.238 197.253 98.0399 220.594 71.7411 282.193H71.7383Z" fill="white" stroke="#333333" stroke-linecap="round" stroke-linejoin="round"/>
<path d="M71.7391 282.193C70.1991 267.407 69.9406 247.419 67.8096 232.707C65.8775 219.37 64.4313 205.951 61.7435 192.733C59.3029 180.734 56.2343 165.181 48.256 155.515C35.709 140.312 16.9878 154.43 23.8523 171.472C32.0636 191.866 47.7417 220.56 71.7362 282.19L71.7391 282.193Z" fill="white"/>
<path d="M71.7374 282.633C71.5129 282.633 71.3225 282.463 71.3027 282.238C67.9727 248.478 61.3071 204.416 39.1338 163.019C39.0202 162.806 39.0997 162.541 39.3128 162.425C39.5259 162.311 39.793 162.391 39.9066 162.604C49.4902 180.498 56.7838 199.711 62.1992 221.341C66.4015 238.125 69.4501 256.158 71.7317 277.786C74.124 254.414 77.8887 234.854 83.2076 218.108C89.4839 198.35 97.9168 182.41 108.986 169.377C109.143 169.193 109.418 169.17 109.603 169.326C109.788 169.483 109.81 169.758 109.654 169.943C88.9611 194.304 77.0534 229.985 72.1749 282.233C72.155 282.457 71.9647 282.63 71.7402 282.63L71.7374 282.633Z" fill="#333333"/>
<path d="M71.7395 282.633C71.5008 282.633 71.3076 282.443 71.3019 282.204C69.1653 191.122 75.5951 152.736 75.6605 152.358C75.7031 152.12 75.9275 151.96 76.1662 152C76.4049 152.04 76.564 152.267 76.5242 152.506C76.4589 152.884 70.0433 191.204 72.1771 282.182C72.1827 282.423 71.9924 282.625 71.748 282.63C71.7452 282.63 71.7423 282.63 71.7367 282.63L71.7395 282.633Z" fill="white" stroke="#333333" stroke-linecap="round" stroke-linejoin="round"/>
<path d="M71.7385 282.946C71.1872 276.999 72.0141 263.171 67.7351 251.328C61.3451 233.641 52.7247 213.071 38.9786 199.779C31.5658 192.611 14.4613 180.214 6.30687 193.369C1.25794 201.515 6.55122 211.863 12.6571 216.469C64.5302 255.593 55.387 282.193 71.7385 282.946Z" fill="white"/>
<path d="M71.7417 282.946C71.0825 267.214 72.2247 254.294 77.7737 239.142C83.5813 223.29 91.909 206.052 107.374 198.529C114.341 195.139 125.595 192.252 130.425 202.038C135.724 212.778 125.805 220.017 118.583 226.075C109.59 233.618 101.387 242.102 94.1565 251.351C88.1387 259.045 84.9195 267.418 80.7315 276.135C79.3052 279.107 75.6172 282.539 71.7417 282.946Z" fill="white" stroke="#333333" stroke-linecap="round" stroke-linejoin="round"/>
<path d="M71.7389 282.633C71.7389 282.633 71.7332 282.633 71.7275 282.633C71.5144 282.628 71.3326 282.468 71.3042 282.255C67.7952 257.4 56.3648 238.576 47.3921 227.16C37.6636 214.784 28.6482 208.203 28.5573 208.141C28.3612 207.999 28.3158 207.726 28.4578 207.53C28.5999 207.334 28.8727 207.288 29.0687 207.43C29.1596 207.496 38.2574 214.13 48.0598 226.595C56.8137 237.727 67.8918 255.857 71.8042 279.732C72.8385 275.041 75.5291 264.003 80.3082 251.771C86.1384 236.846 96.3585 217.037 111.943 207.413C112.147 207.286 112.417 207.351 112.545 207.556C112.673 207.76 112.608 208.03 112.403 208.158C97.029 217.653 86.9113 237.281 81.1321 252.075C74.8558 268.143 72.1963 282.136 72.1708 282.275C72.131 282.483 71.952 282.633 71.7389 282.633Z" fill="#333333"/>
<path d="M190.962 117.447V282.763C190.797 282.559 190.626 282.354 190.456 282.152C188.885 280.271 187.237 278.513 185.503 276.873C184.202 275.637 182.85 274.467 181.449 273.364C162.833 258.678 135.594 255.547 93.8867 259.343V94.0292C143.33 89.5343 172.439 94.7679 190.962 117.45V117.447Z" fill="white" stroke="#F2F2F2" stroke-linecap="round" stroke-linejoin="round"/>
<path d="M190.747 282.784V282.946H73.0898V117.629C77.2296 116.794 83.1309 116.084 87.7025 115.496C84.83 116.288 82.9121 117.195 82.9121 117.195V279.63C138.342 275.732 168.113 278.542 181.74 280.823C183.297 281.085 184.644 281.341 185.794 281.576C188.408 282.113 190.002 282.557 190.747 282.784Z" fill="#333333" stroke="#333333" stroke-linecap="round" stroke-linejoin="round"/>
<path d="M73.0887 117.629H70.5742V282.946H73.0887V117.629Z" fill="#333333" stroke="white" stroke-linecap="round" stroke-linejoin="round"/>
<path d="M314.323 117.629H312.352V282.946H314.323V117.629Z" fill="white" stroke="#333333" stroke-linecap="round" stroke-linejoin="round"/>
<path d="M307.371 117.629V282.946H191.254V117.629C219.76 111.896 258.464 111.896 307.371 117.629Z" fill="white" stroke="#F2F2F2" stroke-linecap="round" stroke-linejoin="round"/>
<path d="M312.351 117.629H307.367V282.946H312.351V117.629Z" fill="white" stroke="#333333" stroke-linecap="round" stroke-linejoin="round"/>
<path d="M190.745 282.338V282.787C190 282.559 188.406 282.116 185.793 281.579C184.642 281.343 183.295 281.087 181.738 280.826C168.114 278.545 138.34 275.735 82.9102 279.633V117.195C82.9102 117.195 84.828 116.288 87.7005 115.495H87.7119C89.8201 115.223 91.9738 114.976 94.1758 114.754V259.525C135.88 255.729 163.119 258.86 181.738 273.547C183.139 274.652 184.491 275.82 185.793 277.056C187.526 278.692 189.174 280.454 190.745 282.335V282.338Z" fill="#F2F2F2" stroke="#F2F2F2" stroke-linecap="round" stroke-linejoin="round"/>
<path d="M213.559 207.751H315.901C321.953 207.751 326.863 212.658 326.863 218.713C326.863 224.765 321.956 229.675 315.901 229.675H213.559C216.3 222.367 216.3 215.062 213.559 207.754V207.751Z" fill="white" stroke="#333333" stroke-linecap="round" stroke-linejoin="round"/>
<path d="M279.994 221.605H235C234.821 221.605 234.676 221.46 234.676 221.281C234.676 221.102 234.821 220.958 235 220.958H279.994C280.173 220.958 280.318 221.102 280.318 221.281C280.318 221.46 280.173 221.605 279.994 221.605Z" fill="#333333"/>
<path d="M315.905 232.112H207.09V227.237H315.905C320.604 227.237 324.426 223.415 324.426 218.716C324.426 214.016 320.604 210.195 315.905 210.195H207.09V205.319H315.905C323.292 205.319 329.304 211.329 329.304 218.719C329.304 226.109 323.295 232.118 315.905 232.118V232.112Z" fill="#333333" stroke="#F2F2F2" stroke-linecap="round" stroke-linejoin="round"/>
<path d="M333.417 280.642H231.075C225.023 280.642 220.113 275.735 220.113 269.68C220.113 263.628 225.02 258.719 231.075 258.719H333.417C330.676 266.026 330.676 273.331 333.417 280.639V280.642Z" fill="white" stroke="#F2F2F2" stroke-linecap="round" stroke-linejoin="round"/>
<path d="M325.949 275.639H290.922C290.743 275.639 290.598 275.494 290.598 275.315C290.598 275.136 290.743 274.991 290.922 274.991H325.949C326.128 274.991 326.273 275.136 326.273 275.315C326.273 275.494 326.128 275.639 325.949 275.639Z" fill="#333333"/>
<path d="M311.978 267.439H266.984C266.805 267.439 266.66 267.294 266.66 267.115C266.66 266.936 266.805 266.791 266.984 266.791H311.978C312.157 266.791 312.302 266.936 312.302 267.115C312.302 267.294 312.157 267.439 311.978 267.439Z" fill="#333333"/>
<path d="M339.89 283.08H231.075C223.688 283.08 217.676 277.071 217.676 269.681C217.676 262.291 223.685 256.281 231.075 256.281H339.89V261.157H231.075C226.376 261.157 222.554 264.978 222.554 269.678C222.554 274.377 226.376 278.199 231.075 278.199H339.89V283.074V283.08Z" fill="#333333" stroke="#F2F2F2" stroke-linecap="round" stroke-linejoin="round"/>
<path d="M333.417 202.862H231.075C225.023 202.862 220.113 197.955 220.113 191.9C220.113 185.848 225.02 180.938 231.075 180.938H333.417C330.676 188.246 330.676 195.551 333.417 202.859V202.862Z" fill="white" stroke="#333333" stroke-linecap="round" stroke-linejoin="round"/>
<path d="M325.949 197.856H290.922C290.743 197.856 290.598 197.711 290.598 197.532C290.598 197.353 290.743 197.208 290.922 197.208H325.949C326.128 197.208 326.273 197.353 326.273 197.532C326.273 197.711 326.128 197.856 325.949 197.856Z" fill="#333333"/>
<path d="M303.595 193.759H239.226C239.047 193.759 238.902 193.614 238.902 193.435C238.902 193.256 239.047 193.111 239.226 193.111H303.595C303.774 193.111 303.919 193.256 303.919 193.435C303.919 193.614 303.774 193.759 303.595 193.759Z" fill="#333333"/>
<path d="M311.978 189.659H266.984C266.805 189.659 266.66 189.514 266.66 189.335C266.66 189.156 266.805 189.011 266.984 189.011H311.978C312.157 189.011 312.302 189.156 312.302 189.335C312.302 189.514 312.157 189.659 311.978 189.659Z" fill="#333333"/>
<path d="M339.89 205.3H231.075C223.688 205.3 217.676 199.291 217.676 191.9C217.676 184.51 223.685 178.501 231.075 178.501H339.89V183.377H231.075C226.376 183.377 222.554 187.198 222.554 191.898C222.554 196.597 226.376 200.419 231.075 200.419H339.89V205.294V205.3Z" fill="#333333" stroke="#F2F2F2" stroke-linecap="round" stroke-linejoin="round"/>
<path d="M231.277 233.25H333.62C339.672 233.25 342.686 238.156 342.686 244.211C342.686 250.263 339.672 255.173 333.62 255.173H231.277C234.019 247.865 234.019 240.56 231.277 233.252V233.25Z" fill="white" stroke="#333333" stroke-linecap="round" stroke-linejoin="round"/>
<path d="M325.47 243.004H261.101C260.922 243.004 260.777 242.859 260.777 242.68C260.777 242.501 260.922 242.356 261.101 242.356H325.47C325.649 242.356 325.794 242.501 325.794 242.68C325.794 242.859 325.649 243.004 325.47 243.004Z" fill="#333333"/>
<path d="M334.699 232.349C333.935 232.192 333.139 232.113 332.321 232.113H288.946H227.129V234.389H288.961C294.217 234.394 298.178 238.616 298.178 244.211C298.178 246.89 297.251 249.368 295.567 251.189C293.867 253.025 291.518 254.033 288.946 254.033H227.129V256.309H332.324C338.885 256.309 343.831 251.107 343.831 244.211C343.831 238.176 340.044 233.44 334.702 232.349H334.699Z" fill="#333333" stroke="#F2F2F2" stroke-linecap="round" stroke-linejoin="round"/>
<path d="M217.125 155.492H335.504C341.556 155.492 344.57 160.399 344.57 166.454C344.57 172.506 341.556 177.415 335.504 177.415H217.125C219.867 170.108 219.867 162.803 217.125 155.495V155.492Z" fill="white" stroke="#333333" stroke-linecap="round" stroke-linejoin="round"/>
<path d="M327.354 165.246H246.949C246.77 165.246 246.625 165.102 246.625 164.923C246.625 164.744 246.77 164.599 246.949 164.599H327.354C327.533 164.599 327.678 164.744 327.678 164.923C327.678 165.102 327.533 165.246 327.354 165.246Z" fill="#333333"/>
<path d="M336.579 154.591C335.815 154.435 335.019 154.355 334.201 154.355H290.826H212.973V156.631H290.84C296.097 156.637 300.058 160.859 300.058 166.454C300.058 169.133 299.131 171.61 297.446 173.432C295.747 175.264 293.398 176.276 290.826 176.276H212.973V178.552H334.204C340.764 178.552 345.711 173.349 345.711 166.454C345.711 160.419 341.924 155.682 336.582 154.591H336.579Z" fill="#333333" stroke="#F2F2F2" stroke-linecap="round" stroke-linejoin="round"/>
<path d="M294.689 184.303V189.627L293.129 192.284L297.289 194.085L298.306 189.306L298.365 183.209L294.689 184.303Z" fill="white" stroke="#333333" stroke-linecap="round" stroke-linejoin="round"/>
<path d="M312.954 184.303V189.627L314.514 192.284L310.354 194.085L308.84 192.622L309.337 189.306L309.277 183.209L312.954 184.303Z" fill="white" stroke="#333333" stroke-linecap="round" stroke-linejoin="round"/>
<path d="M319.969 153.782C317.94 145.982 314.516 143.82 314.516 143.82L311.317 145.698V145.633H296.443L293.354 143.817C293.354 143.817 289.931 145.98 287.902 153.779C285.873 161.578 293.925 185.911 293.925 185.911C293.925 185.911 297.838 186.255 299.236 185.263C299.236 185.263 300.369 169.869 297.758 157.785C297.758 157.785 298.346 156.66 300.205 154.688H307.669C309.527 156.66 310.115 157.785 310.115 157.785C307.504 169.869 308.638 185.263 308.638 185.263C310.035 186.255 313.948 185.911 313.948 185.911C313.948 185.911 322 161.578 319.971 153.779L319.969 153.782Z" fill="#333333" stroke="#F2F2F2" stroke-linecap="round" stroke-linejoin="round"/>
<path d="M294.034 189.78C294.034 189.78 296.691 191.613 298.58 189.718C298.58 189.718 298.793 191.195 299.103 192.32C299.438 193.542 298.302 195.264 297.796 196.264C296.762 198.304 296.821 199.719 295.551 201.614C295.014 202.418 294.437 203.339 293.557 203.759C292.716 204.16 290.897 204.399 290.11 203.981C288.602 203.177 286.411 201.535 288.996 197.423C290.71 194.699 292.451 193.63 294.037 189.78H294.034Z" fill="white" stroke="#333333" stroke-linecap="round" stroke-linejoin="round"/>
<path d="M313.606 189.78C313.606 189.78 310.95 191.613 309.06 189.718C309.06 189.718 308.847 191.195 308.537 192.32C308.202 193.542 309.339 195.264 309.844 196.264C310.879 198.304 310.819 199.719 312.089 201.614C313.208 203.288 314.373 204.265 316.49 203.924C317.536 203.756 318.306 203.541 318.9 202.626C320.306 200.461 319.013 197.784 317.649 195.994C316.965 195.096 316.217 194.25 315.558 193.329C315.32 192.997 313.353 189.956 313.609 189.78H313.606Z" fill="white" stroke="#333333" stroke-linecap="round" stroke-linejoin="round"/>
<path d="M311.458 87.8817C311.458 88.5352 311.379 89.1887 311.214 89.8195C310.964 90.76 310.808 91.7203 310.634 92.675C310.614 92.7773 310.595 92.8824 310.575 92.9847C310.532 93.1978 310.487 93.408 310.438 93.6183C310.364 93.749 310.256 93.7916 310.109 93.7064C310.097 93.6723 310.08 93.6382 310.063 93.6041C309.867 93.2546 309.629 93.1864 309.424 93.2177C309.276 93.2375 309.146 93.3114 309.06 93.3711C308.657 92.388 308.543 91.0327 308.512 90.1008C308.498 89.6036 308.035 89.2399 307.549 89.3507C305.77 89.7513 302.335 90.0354 300.605 90.1604C299.985 90.2059 299.46 90.6378 299.298 91.2401C299.002 92.334 298.769 92.9989 298.587 93.3796C298.536 93.3398 298.465 93.2972 298.386 93.2631C298.261 93.212 298.11 93.1836 297.959 93.2404C297.826 93.283 297.692 93.3938 297.576 93.6041C297.26 94.1666 297.806 95.2264 298.474 96.0135C298.587 96.6954 298.815 97.3773 299.133 98.0166C298.65 97.4881 298.221 96.7408 298.042 96.1754C297.641 94.911 296.59 92.155 296.499 90.8111C296.402 89.3564 296.371 87.9357 297.133 86.643C298.025 85.1342 299.522 84.4467 301.116 83.9097C302.275 83.5204 303.486 83.2789 304.702 83.1624C304.963 83.134 305.227 83.1141 305.489 83.0999C306.372 83.0516 307.293 83.0658 308.091 83.4437C308.89 83.8244 309.538 84.6512 309.45 85.532C310.032 85.461 310.643 85.7167 311.001 86.1827C311.007 86.1884 311.009 86.194 311.015 86.1997C311.367 86.6714 311.455 87.2908 311.458 87.8817Z" fill="#333333" stroke="#333333" stroke-linecap="round" stroke-linejoin="round"/>
<path d="M310.435 93.6182C310.292 94.2319 310.128 94.8371 309.98 95.4479C309.841 96.0219 309.324 97.2209 308.946 97.613C308.9 97.6613 308.852 97.7039 308.801 97.7408C309.088 97.1016 309.287 96.4253 309.369 95.752C309.898 95.053 310.287 94.2234 310.105 93.7062C310.253 93.7915 310.361 93.7489 310.435 93.6182Z" fill="white" stroke="#333333" stroke-linecap="round" stroke-linejoin="round"/>
<path d="M307.106 100.125V105.131H300.855V100.256C301.728 101.003 302.776 101.472 303.907 101.472C305.1 101.472 306.206 100.949 307.106 100.125Z" fill="white" stroke="#333333" stroke-linecap="round" stroke-linejoin="round"/>
<path d="M309.373 95.7524C309.291 96.4258 309.092 97.102 308.805 97.7413C308.401 98.6477 307.816 99.4802 307.103 100.125C306.202 100.949 305.097 101.472 303.904 101.472C302.773 101.472 301.724 101.003 300.852 100.256C300.148 99.6563 299.559 98.875 299.133 98.0169C298.815 97.3776 298.588 96.6957 298.474 96.0138C297.806 95.2268 297.261 94.167 297.576 93.6044C297.693 93.3942 297.826 93.2834 297.96 93.2407C298.11 93.1839 298.261 93.2123 298.386 93.2635C298.466 93.2976 298.537 93.3402 298.588 93.38C298.77 92.9992 299.003 92.3344 299.298 91.2405C299.46 90.6381 299.986 90.2063 300.605 90.1608C302.335 90.0358 305.77 89.7517 307.549 89.351C308.035 89.2402 308.498 89.6039 308.512 90.1011C308.543 91.0331 308.657 92.3884 309.061 93.3714C309.146 93.3118 309.277 93.2379 309.424 93.218C309.629 93.1868 309.868 93.2549 310.064 93.6044C310.081 93.6385 310.098 93.6726 310.109 93.7067C310.291 94.2238 309.902 95.0535 309.373 95.7524Z" fill="white" stroke="#333333" stroke-linecap="round" stroke-linejoin="round"/>
<path d="M310.578 92.9849C310.558 93.2576 310.518 93.4849 310.441 93.6185C310.49 93.4082 310.535 93.198 310.578 92.9849Z" fill="white" stroke="#333333" stroke-linecap="round" stroke-linejoin="round"/>
<path d="M293.128 137.8H291.301C291.343 136.513 291.429 135.186 291.551 133.842C292.079 135.161 292.591 136.488 293.128 137.8Z" fill="white" stroke="#333333" stroke-linecap="round" stroke-linejoin="round"/>
<path d="M316.578 137.8H315.035C315.498 136.729 315.944 135.646 316.388 134.561C316.473 135.644 316.538 136.726 316.578 137.8Z" fill="white" stroke="#333333" stroke-linecap="round" stroke-linejoin="round"/>
<path d="M324.618 129.214C323.478 123.625 321.62 118.374 318.728 113.419C316.318 109.294 313.412 105.398 308.323 104.466C307.198 104.259 305.255 104.273 304.004 104.233H303.894C302.643 104.262 300.7 104.248 299.569 104.449C294.478 105.364 291.574 109.274 289.19 113.411C286.332 118.377 284.59 123.653 283.539 129.239C283.311 130.444 283.229 131.447 283.513 132.731C284.775 138.414 289.227 143.292 293.804 146.688C294.148 146.77 294.64 146.369 294.929 146.222C295.069 145.006 295.211 143.79 295.316 142.571C294.492 141.016 293.79 139.417 293.128 137.8H315.034C314.318 139.459 313.554 141.102 312.684 142.704C312.79 143.94 312.912 145.173 313.051 146.406C313.338 146.557 313.824 146.963 314.165 146.881C318.859 143.437 323.407 138.528 324.7 132.726C324.993 131.413 324.865 130.419 324.618 129.214ZM291.551 133.842C291.17 132.89 290.781 131.939 290.363 130.998C290.545 127.952 291.554 125.276 293.128 122.77C292.506 126.128 291.895 130.041 291.551 133.842ZM316.387 134.561C316.051 130.339 315.404 126.125 314.75 122.594C316.461 125.159 317.566 127.901 317.839 131.055C317.341 132.223 316.864 133.393 316.387 134.561Z" fill="#F2F2F2" stroke="#333333" stroke-linecap="round" stroke-linejoin="round"/>
<path d="M315.057 152.145H292.818C292.128 152.145 291.54 151.682 291.437 151.057L289.289 138.112C289.162 137.34 289.815 136.641 290.67 136.641H317.202C318.057 136.641 318.711 137.337 318.583 138.112L316.435 151.057C316.333 151.682 315.745 152.145 315.054 152.145H315.057Z" fill="white" stroke="#333333" stroke-linecap="round" stroke-linejoin="round"/>
<path d="M291.551 133.842L292.659 136.644" stroke="#333333" stroke-linecap="round" stroke-linejoin="round"/>
<path d="M316.388 134.561L315.527 136.644" stroke="#333333" stroke-linecap="round" stroke-linejoin="round"/>
<path d="M258.535 283.08V273.422H236.637V283.08H231.406V154.353H236.637V164.636H258.535V154.353H263.765V283.08H258.535ZM258.535 268.191V256.161H236.637V268.191H258.535ZM258.535 250.931V238.903H236.637V250.931H258.535ZM258.535 233.673V221.643H236.637V233.673H258.535ZM258.535 216.412V204.385H236.637V216.412H258.535ZM258.535 199.154V187.124H236.637V199.154H258.535ZM258.535 181.893V169.866H236.637V181.893H258.535Z" fill="white" stroke="#333333" stroke-linecap="round" stroke-linejoin="round"/>
</svg>
