<svg width="470" height="232" viewBox="0 0 470 232" fill="none" xmlns="http://www.w3.org/2000/svg">
<path d="M56.1692 1.09279C55.3426 1.09279 54.6959 1.32613 54.2292 1.79279C53.7626 2.24613 53.4159 2.97946 53.1892 3.99279C53.1759 4.01946 53.1292 4.03279 53.0492 4.03279C52.9826 4.03279 52.9492 4.01279 52.9492 3.97279C52.9759 3.79946 53.0026 3.55279 53.0292 3.23279C53.0692 2.91279 53.1026 2.56613 53.1292 2.19279C53.1559 1.81946 53.1759 1.45946 53.1892 1.11279C53.2159 0.766126 53.2292 0.47946 53.2292 0.252794C53.2292 0.186127 53.2692 0.152794 53.3492 0.152794C53.4292 0.152794 53.4692 0.186127 53.4692 0.252794C53.4692 0.386127 53.5359 0.486127 53.6692 0.552793C53.8026 0.606127 53.9559 0.646127 54.1292 0.672793C54.3026 0.686127 54.4492 0.692794 54.5692 0.692794C55.7159 0.732793 57.0559 0.752793 58.5892 0.752793C59.5226 0.752793 60.2692 0.746126 60.8292 0.732793C61.3892 0.706127 61.9292 0.692794 62.4492 0.692794C62.9026 0.692794 63.2492 0.666127 63.4892 0.612794C63.7426 0.546127 63.9026 0.406127 63.9692 0.192793C63.9826 0.13946 64.0226 0.112793 64.0892 0.112793C64.1692 0.112793 64.2092 0.13946 64.2092 0.192793C64.1826 0.392793 64.1559 0.672793 64.1292 1.03279C64.1159 1.39279 64.0959 1.76613 64.0692 2.15279C64.0559 2.53946 64.0426 2.89946 64.0292 3.23279C64.0159 3.56613 64.0092 3.81279 64.0092 3.97279C64.0092 4.01279 63.9692 4.03279 63.8892 4.03279C63.8226 4.03279 63.7892 4.01279 63.7892 3.97279C63.6959 2.93279 63.4292 2.19279 62.9892 1.75279C62.5492 1.31279 61.8959 1.09279 61.0292 1.09279C60.5626 1.09279 60.2092 1.12613 59.9692 1.19279C59.7426 1.24613 59.5892 1.35946 59.5092 1.53279C59.4426 1.70613 59.4092 1.97946 59.4092 2.35279V11.5728C59.4092 11.9595 59.4492 12.2528 59.5292 12.4528C59.6226 12.6528 59.7959 12.7861 60.0492 12.8528C60.3159 12.9195 60.7226 12.9528 61.2692 12.9528C61.2959 12.9528 61.3092 12.9928 61.3092 13.0728C61.3092 13.1528 61.2959 13.1928 61.2692 13.1928C60.9092 13.1928 60.5026 13.1861 60.0492 13.1728C59.6092 13.1595 59.1226 13.1528 58.5892 13.1528C58.0826 13.1528 57.6026 13.1595 57.1492 13.1728C56.7092 13.1861 56.3026 13.1928 55.9292 13.1928C55.8892 13.1928 55.8692 13.1528 55.8692 13.0728C55.8692 12.9928 55.8892 12.9528 55.9292 12.9528C56.4492 12.9528 56.8426 12.9195 57.1092 12.8528C57.3892 12.7861 57.5759 12.6528 57.6692 12.4528C57.7626 12.2528 57.8092 11.9595 57.8092 11.5728V2.31279C57.8092 1.95279 57.7692 1.68613 57.6892 1.51279C57.6092 1.32613 57.4492 1.21279 57.2092 1.17279C56.9692 1.11946 56.6226 1.09279 56.1692 1.09279Z" fill="#333333"/>
<path d="M39.6198 10.9129V1.15287L40.1398 1.19287V10.9129C40.1398 11.6062 40.2665 12.1195 40.5198 12.4529C40.7732 12.7862 41.1732 12.9529 41.7198 12.9529C41.7465 12.9529 41.7598 12.9929 41.7598 13.0729C41.7598 13.1529 41.7465 13.1929 41.7198 13.1929C41.4398 13.1929 41.1532 13.1862 40.8598 13.1729C40.5798 13.1595 40.2598 13.1529 39.8998 13.1529C39.5532 13.1529 39.2132 13.1595 38.8798 13.1729C38.5465 13.1862 38.2332 13.1929 37.9398 13.1929C37.9132 13.1929 37.8998 13.1529 37.8998 13.0729C37.8998 12.9929 37.9132 12.9529 37.9398 12.9529C38.5265 12.9529 38.9532 12.7862 39.2198 12.4529C39.4865 12.1195 39.6198 11.6062 39.6198 10.9129ZM49.7398 13.4529C49.7398 13.4795 49.7065 13.4929 49.6398 13.4929C49.5865 13.5062 49.5465 13.5062 49.5198 13.4929L40.0998 2.33287C39.6332 1.7862 39.2265 1.41954 38.8798 1.23287C38.5465 1.03287 38.2132 0.93287 37.8798 0.93287C37.8532 0.93287 37.8398 0.892871 37.8398 0.812871C37.8398 0.732871 37.8532 0.692871 37.8798 0.692871C38.1332 0.692871 38.3865 0.699538 38.6398 0.712871C38.8932 0.726204 39.1265 0.732871 39.3398 0.732871C39.6598 0.732871 39.9532 0.726204 40.2198 0.712871C40.4865 0.699538 40.6865 0.692871 40.8198 0.692871C40.9932 0.692871 41.1198 0.772871 41.1998 0.93287C41.2798 1.07954 41.4732 1.3462 41.7798 1.73287L49.5798 11.1329L49.7398 13.4529ZM49.7398 2.99287V13.4529L49.2398 12.8329V2.99287C49.2398 2.29954 49.1132 1.7862 48.8598 1.45287C48.6198 1.1062 48.2265 0.93287 47.6798 0.93287C47.6532 0.93287 47.6398 0.892871 47.6398 0.812871C47.6398 0.732871 47.6532 0.692871 47.6798 0.692871C47.9598 0.692871 48.2465 0.706204 48.5398 0.732871C48.8332 0.746204 49.1532 0.75287 49.4998 0.75287C49.8332 0.75287 50.1598 0.746204 50.4798 0.732871C50.7998 0.706204 51.0998 0.692871 51.3798 0.692871C51.4065 0.692871 51.4198 0.732871 51.4198 0.812871C51.4198 0.892871 51.4065 0.93287 51.3798 0.93287C50.8198 0.93287 50.4065 1.1062 50.1398 1.45287C49.8732 1.7862 49.7398 2.29954 49.7398 2.99287Z" fill="#333333"/>
<path d="M34.2414 11.5729C34.2414 11.9595 34.2747 12.2529 34.3414 12.4529C34.4214 12.6529 34.5747 12.7862 34.8014 12.8529C35.0414 12.9195 35.3947 12.9529 35.8614 12.9529C35.8881 12.9529 35.9014 12.9929 35.9014 13.0729C35.9014 13.1529 35.8881 13.1929 35.8614 13.1929C35.5281 13.1929 35.1547 13.1862 34.7414 13.1729C34.3414 13.1595 33.9014 13.1529 33.4214 13.1529C32.9547 13.1529 32.5147 13.1595 32.1014 13.1729C31.6881 13.1862 31.3147 13.1929 30.9814 13.1929C30.9547 13.1929 30.9414 13.1529 30.9414 13.0729C30.9414 12.9929 30.9547 12.9529 30.9814 12.9529C31.4481 12.9529 31.8014 12.9195 32.0414 12.8529C32.2814 12.7862 32.4414 12.6529 32.5214 12.4529C32.6014 12.2529 32.6414 11.9595 32.6414 11.5729V2.31287C32.6414 1.9262 32.6014 1.63954 32.5214 1.45287C32.4414 1.25287 32.2814 1.11954 32.0414 1.05287C31.8014 0.97287 31.4481 0.93287 30.9814 0.93287C30.9547 0.93287 30.9414 0.892871 30.9414 0.812871C30.9414 0.732871 30.9547 0.692871 30.9814 0.692871C31.3147 0.692871 31.6881 0.706204 32.1014 0.732871C32.5147 0.746204 32.9547 0.75287 33.4214 0.75287C33.9014 0.75287 34.3481 0.746204 34.7614 0.732871C35.1747 0.706204 35.5414 0.692871 35.8614 0.692871C35.8881 0.692871 35.9014 0.732871 35.9014 0.812871C35.9014 0.892871 35.8881 0.93287 35.8614 0.93287C35.3947 0.93287 35.0481 0.97287 34.8214 1.05287C34.5947 1.13287 34.4414 1.27287 34.3614 1.47287C34.2814 1.67287 34.2414 1.9662 34.2414 2.35287V11.5729Z" fill="#333333"/>
<path d="M21.6877 13.4327C20.7277 13.4327 19.8543 13.266 19.0677 12.9327C18.2943 12.586 17.6277 12.1127 17.0677 11.5127C16.521 10.9127 16.0943 10.226 15.7877 9.45266C15.4943 8.66599 15.3477 7.83266 15.3477 6.95266C15.3477 5.87266 15.5543 4.92599 15.9677 4.11266C16.3943 3.29932 16.9543 2.62599 17.6477 2.09266C18.341 1.54599 19.101 1.13932 19.9277 0.872656C20.7543 0.605989 21.5743 0.472656 22.3877 0.472656C23.3743 0.472656 24.2543 0.652656 25.0277 1.01266C25.8143 1.35932 26.481 1.83266 27.0277 2.43266C27.5743 3.03266 27.9877 3.71266 28.2677 4.47266C28.561 5.23266 28.7077 6.01266 28.7077 6.81266C28.7077 7.74599 28.521 8.61266 28.1477 9.41266C27.7743 10.2127 27.261 10.9127 26.6077 11.5127C25.9677 12.1127 25.221 12.586 24.3677 12.9327C23.5277 13.266 22.6343 13.4327 21.6877 13.4327ZM22.3877 12.9927C23.2277 12.9927 23.9877 12.7793 24.6677 12.3527C25.361 11.9127 25.901 11.2793 26.2877 10.4527C26.6877 9.61266 26.8877 8.58599 26.8877 7.37266C26.8877 6.13266 26.6677 5.03266 26.2277 4.07266C25.801 3.09932 25.1877 2.33932 24.3877 1.79266C23.601 1.23266 22.661 0.952656 21.5677 0.952656C20.1677 0.952656 19.081 1.42599 18.3077 2.37266C17.5477 3.31932 17.1677 4.61266 17.1677 6.25266C17.1677 7.19932 17.2877 8.08599 17.5277 8.91266C17.781 9.72599 18.141 10.4393 18.6077 11.0527C19.0743 11.666 19.6277 12.146 20.2677 12.4927C20.9077 12.826 21.6143 12.9927 22.3877 12.9927Z" fill="#333333"/>
<path d="M7.05297 11.4928C7.05297 11.8928 7.09964 12.1995 7.19297 12.4128C7.29964 12.6128 7.51297 12.7528 7.83297 12.8328C8.15297 12.9128 8.63297 12.9528 9.27297 12.9528C9.31297 12.9528 9.33297 12.9928 9.33297 13.0728C9.33297 13.1528 9.31297 13.1928 9.27297 13.1928C8.8463 13.1928 8.37964 13.1861 7.87297 13.1728C7.37964 13.1595 6.83964 13.1528 6.25297 13.1528C5.81297 13.1528 5.37964 13.1595 4.95297 13.1728C4.53964 13.1861 4.1663 13.1928 3.83297 13.1928C3.8063 13.1928 3.79297 13.1528 3.79297 13.0728C3.79297 12.9928 3.8063 12.9528 3.83297 12.9528C4.29964 12.9528 4.6463 12.9195 4.87297 12.8528C5.11297 12.7861 5.2663 12.6528 5.33297 12.4528C5.41297 12.2528 5.45297 11.9595 5.45297 11.5728L5.45297 2.31281C5.45297 1.92615 5.41297 1.63948 5.33297 1.45281C5.2663 1.25281 5.11297 1.11948 4.87297 1.05281C4.6463 0.972812 4.29964 0.932812 3.83297 0.932812C3.8063 0.932812 3.79297 0.892812 3.79297 0.812813C3.79297 0.732813 3.8063 0.692813 3.83297 0.692813C4.1663 0.692813 4.53964 0.706146 4.95297 0.732812C5.3663 0.746146 5.79297 0.752812 6.23297 0.752812C6.57964 0.752812 6.99964 0.732812 7.49297 0.692813C7.99964 0.652813 8.5063 0.632812 9.01297 0.632812C9.7863 0.632812 10.4796 0.746146 11.093 0.972813C11.7196 1.19948 12.2196 1.55281 12.593 2.03281C12.9663 2.51281 13.1596 3.13948 13.173 3.91281C13.173 4.60615 13.0463 5.20615 12.793 5.71281C12.5396 6.21948 12.193 6.63948 11.753 6.97281C11.3263 7.30615 10.8463 7.55281 10.313 7.71281C9.79297 7.87281 9.27964 7.95281 8.77297 7.95281C8.61297 7.95281 8.4463 7.94615 8.27297 7.93281C8.11297 7.91948 7.95964 7.89281 7.81297 7.85281C7.75964 7.83948 7.73964 7.79281 7.75297 7.71281C7.77964 7.61948 7.81297 7.57948 7.85297 7.59281C7.97297 7.61948 8.09297 7.63948 8.21297 7.65281C8.3463 7.66615 8.45964 7.67281 8.55297 7.67281C9.05964 7.67281 9.5263 7.55281 9.95297 7.31281C10.3796 7.07281 10.7263 6.70615 10.993 6.21281C11.2596 5.70615 11.393 5.07948 11.393 4.33281C11.393 3.61281 11.2663 3.00615 11.013 2.51281C10.773 2.01948 10.433 1.63948 9.99297 1.37281C9.55297 1.10615 9.0463 0.972813 8.47297 0.972813C8.09964 0.972813 7.8063 0.999479 7.59297 1.05281C7.39297 1.10615 7.25297 1.23281 7.17297 1.43281C7.09297 1.63281 7.05297 1.93948 7.05297 2.35281L7.05297 11.4928Z" fill="#333333"/>
<path d="M43.8155 48.1749C50.3435 48.1749 55.1222 49.1136 58.1515 50.9909C61.2235 52.8683 62.7595 55.4923 62.7595 58.8629C62.7595 62.1483 61.2235 65.1136 58.1515 67.7589C55.1222 70.4469 50.1302 73.2203 43.1755 76.0789H43.1115C42.9409 76.0789 42.7915 75.9723 42.6635 75.7589C42.5782 75.5883 42.6209 75.4603 42.7915 75.3749C48.5515 72.8576 52.5835 70.3403 54.8875 67.8229C57.2342 65.3483 58.4075 62.7243 58.4075 59.9509C58.4075 56.7936 57.0849 54.3616 54.4395 52.6549C51.8369 50.9056 48.0822 50.0309 43.1755 50.0309C42.9622 50.0309 42.7915 49.9669 42.6635 49.8389C42.5355 49.6683 42.4929 49.4763 42.5355 49.2629L44.5835 37.8709C44.6262 37.5723 44.6689 37.4016 44.7115 37.3589C44.7969 37.2736 45.0315 37.2096 45.4155 37.1669C51.3035 36.5269 55.2502 36.0789 57.2555 35.8229C59.3035 35.5669 60.6049 35.3109 61.1595 35.0549C61.7569 34.7563 62.1622 34.2869 62.3755 33.6469C62.4609 33.5189 62.6102 33.4763 62.8235 33.5189C63.0369 33.5189 63.1222 33.6043 63.0795 33.7749L61.7995 38.5109C61.6289 39.0229 61.4155 39.3429 61.1595 39.4709C60.9462 39.5989 60.5622 39.6629 60.0075 39.6629L46.4395 39.9829C45.8422 39.9829 45.5222 40.2816 45.4795 40.8789L43.8795 49.7109L43.8155 48.1749Z" fill="#333333"/>
<path d="M20.1422 66.799C17.1982 66.799 14.5742 66.1377 12.2702 64.815C9.96616 63.4497 8.15282 61.5723 6.83016 59.183C5.55016 56.751 4.91016 53.9777 4.91016 50.863C4.91016 47.8337 5.55016 45.1457 6.83016 42.799C8.15282 40.4523 9.96616 38.639 12.2702 37.359C14.6168 36.0363 17.2622 35.375 20.2062 35.375C23.1075 35.375 25.6888 36.0363 27.9502 37.359C30.2542 38.6817 32.0248 40.5377 33.2622 42.927C34.5422 45.2737 35.1822 47.983 35.1822 51.055C35.1822 54.127 34.5422 56.8577 33.2622 59.247C31.9822 61.6363 30.1902 63.4923 27.8862 64.815C25.6248 66.1377 23.0435 66.799 20.1422 66.799ZM20.9102 65.903C24.1528 65.903 26.5635 64.6657 28.1422 62.191C29.7208 59.6737 30.5102 56.2177 30.5102 51.823C30.5102 48.367 30.0195 45.4657 29.0382 43.119C28.0568 40.7723 26.7342 39.0443 25.0702 37.935C23.4062 36.783 21.5502 36.207 19.5022 36.207C16.3448 36.207 13.8702 37.5297 12.0782 40.175C10.2862 42.7777 9.39016 46.191 9.39016 50.415C9.39016 53.4017 9.85949 56.0683 10.7982 58.415C11.7368 60.7617 13.0808 62.5963 14.8302 63.919C16.5795 65.2417 18.6062 65.903 20.9102 65.903Z" fill="#333333"/>
<path d="M286.339 27.5687L286.07 29.5686C285.999 30.1009 285.82 30.6332 285.556 31.136C284.176 32.294 282.35 32.8984 280.548 32.8272C279.669 32.793 278.776 32.5952 278.047 32.1045C277.905 32.0093 277.771 31.9039 277.644 31.7903C276.983 30.7404 276.662 29.4669 276.815 28.3274L277.057 26.5225C278.008 26.5465 278.242 25.4671 279.583 24.64C281.042 23.7417 281.816 24.9597 282.894 26.0382C283.83 26.9753 285.447 25.7961 286.339 27.5687Z" fill="white" stroke="#333333" stroke-linecap="round" stroke-linejoin="round"/>
<path d="M278.133 35.7904H282.23L282.974 29.9697H278.877L278.133 35.7904Z" fill="white" stroke="#333333" stroke-linecap="round" stroke-linejoin="round"/>
<path d="M306.516 62.132L305.9 64.0192L303.994 64.0164C303.994 64.0164 296.777 55.3921 289.383 50.9144C289.337 55.0612 289.888 60.9537 290.101 64.0063H269.101C269.242 59.8771 270.004 54.8736 270.743 50.8525C263.417 55.3727 255.49 64.0146 255.49 64.0146L252.717 64.0044L252.078 62.6893C252.078 62.6893 265.183 41.1339 277.991 35.7534H282.089C282.089 35.7534 293.776 38.0518 306.516 62.132Z" fill="#333333" stroke="#333333" stroke-linecap="round" stroke-linejoin="round"/>
<path d="M254.474 64.0033H245.516C245.812 62.3195 247.404 61.375 249.328 61.375C251.252 61.375 253.84 62.2021 254.474 64.0033Z" fill="white" stroke="#333333" stroke-linecap="round" stroke-linejoin="round"/>
<path d="M304.41 64.0221L313.352 64.0064C313.055 62.3225 311.468 61.4141 309.544 61.4141C307.619 61.4141 305.044 62.2209 304.41 64.0221Z" fill="white" stroke="#333333" stroke-linecap="round" stroke-linejoin="round"/>
<path d="M286.339 27.5687L286.07 29.5686C285.999 30.1009 285.82 30.6332 285.556 31.136C284.651 32.8605 282.749 34.2245 280.77 33.9593C279.449 33.7819 278.352 32.9141 277.644 31.7903C276.983 30.7404 276.662 29.4669 276.815 28.3274L277.057 26.5225C278.008 26.5465 278.242 25.4671 279.583 24.64C281.042 23.7417 281.816 24.9597 282.894 26.0382C283.83 26.9753 285.447 25.7961 286.339 27.5687Z" fill="white" stroke="#333333" stroke-linecap="round" stroke-linejoin="round"/>
<path d="M287.664 28.1418C287.556 28.3673 287.434 28.5854 287.298 28.7943C287.163 29.0022 286.996 29.1917 286.877 29.4089C286.746 29.6455 286.687 29.9061 286.528 30.1297C286.28 30.4781 285.959 30.7896 285.637 31.0687C285.611 31.0918 285.584 31.114 285.557 31.1362C285.821 30.6334 286 30.1011 286.071 29.5688L286.339 27.5689C285.448 25.7963 283.831 26.9755 282.895 26.0384C281.817 24.9599 281.043 23.7419 279.584 24.6402C278.243 25.4673 278.009 26.5467 277.058 26.5227L276.816 28.3276C276.663 29.4671 276.984 30.7406 277.645 31.7905C277.208 31.4005 276.854 30.9153 276.549 30.4116C276.21 29.8525 275.925 29.261 275.702 28.6464C275.393 27.7962 275.233 26.9977 275.294 26.0856C275.41 24.3472 275.8 22.2835 277.113 21.0294C277.743 20.4278 278.554 20.0433 279.389 19.7938C280.525 19.4537 281.76 19.3299 282.896 19.6663C283.997 19.9916 285.353 21.5543 285.456 21.6024C285.935 21.8224 286.545 21.9074 286.968 22.2355C287.02 22.2761 287.071 22.3214 287.12 22.3713C287.5 22.7558 287.765 23.3777 287.936 23.8518C288.447 25.264 288.306 26.7972 287.664 28.1418Z" fill="#333333" stroke="#333333" stroke-linecap="round" stroke-linejoin="round"/>
<path d="M376.736 21.7538H347.738L360.324 11.1022C360.863 10.6455 361.538 10.3779 362.237 10.377C362.277 10.377 362.317 10.377 362.358 10.3788C363.018 10.4032 363.648 10.6691 364.157 11.0995L376.736 21.7528V21.7538Z" fill="white" stroke="#F2F2F2" stroke-linecap="round" stroke-linejoin="round"/>
<path d="M358.822 48.4486L337.836 65.7941C337.464 65.1674 337.25 64.4349 337.25 63.6535V32.4415C337.25 31.8862 337.358 31.3562 337.555 30.8706L341.989 34.536L355.416 45.6342L358.822 48.4486Z" fill="white" stroke="#F2F2F2" stroke-linecap="round" stroke-linejoin="round"/>
<path d="M341.989 26.6221V34.5352L337.555 30.8703C337.658 30.6125 341.989 26.6221 341.989 26.6221Z" fill="white" stroke="#F2F2F2" stroke-linecap="round" stroke-linejoin="round"/>
<path d="M387.309 32.4412V63.6532C387.309 64.4427 387.091 65.1825 386.711 65.8128L365.668 48.4067L365.723 48.3615L369.02 45.6339L382.503 34.4805L386.967 30.7871C387.186 31.2945 387.308 31.8533 387.308 32.4412H387.309Z" fill="white" stroke="#F2F2F2" stroke-linecap="round" stroke-linejoin="round"/>
<path d="M386.708 65.813C385.973 67.0365 384.633 67.855 383.101 67.855H341.454C339.914 67.855 338.568 67.0284 337.836 65.794L358.821 48.4484L360.255 49.6331C360.808 50.0898 361.498 50.3575 362.214 50.3584C362.255 50.3584 362.296 50.3584 362.337 50.3566C363.014 50.3322 363.659 50.0663 364.181 49.6358L365.665 48.4077L386.708 65.8139V65.813Z" fill="white" stroke="#F2F2F2" stroke-linecap="round" stroke-linejoin="round"/>
<path d="M386.964 30.7867L382.5 34.4797V26.6353C382.5 26.6353 386.878 30.585 386.964 30.7876V30.7867Z" fill="white" stroke="#F2F2F2" stroke-linecap="round" stroke-linejoin="round"/>
<path d="M382.5 24.2209V34.4808L369.017 45.6343L365.72 48.3618L365.665 48.407L364.18 49.6351C363.659 50.0656 363.014 50.3315 362.337 50.3559C362.296 50.3568 362.255 50.3577 362.214 50.3577C361.497 50.3577 360.806 50.09 360.254 49.6324L358.821 48.4477L355.415 45.6334L341.988 34.5351V24.22C341.988 22.8571 343.093 21.7529 344.457 21.7529H380.032C381.395 21.7529 382.5 22.8571 382.5 24.22V24.2209Z" fill="white" stroke="#F2F2F2" stroke-linecap="round" stroke-linejoin="round"/>
<path d="M348.027 28.1782H376.723" stroke="#333333" stroke-linecap="round" stroke-linejoin="round"/>
<path d="M348.027 33.7593H376.723" stroke="#333333" stroke-linecap="round" stroke-linejoin="round"/>
<path d="M354.648 39.3403H370.1" stroke="#333333" stroke-linecap="round" stroke-linejoin="round"/>
<path d="M427.746 68.289V62.5368L433.553 61.3143C433.897 60.0129 434.403 58.7767 435.045 57.6289L431.87 52.762L435.939 48.6948L440.69 51.7926C441.955 51.0265 443.335 50.432 444.799 50.0417L446.036 44.1694H451.791L453.028 50.0417C454.521 50.4406 455.928 51.0514 457.214 51.8407L462.226 48.7034L466.22 52.8444L462.867 57.7833C463.447 58.8453 463.91 59.9812 464.237 61.1728L469.996 62.385V68.1371L464.306 69.3348C463.95 70.7237 463.411 72.0388 462.717 73.2527L465.916 78.1564L461.847 82.2237L456.993 79.0598C455.758 79.7907 454.414 80.3586 452.992 80.7352L451.778 86.4977H446.023L444.808 80.7275C443.383 80.3475 442.036 79.7753 440.799 79.0383L435.932 82.2099L431.863 78.1427L435.084 73.2064C434.432 72.0577 433.919 70.8189 433.568 69.5149L427.745 68.289H427.746ZM448.694 71.1715C452.077 71.2779 454.842 68.5155 454.736 65.1328C454.639 62.0684 452.144 59.5728 449.078 59.4733C445.69 59.3635 442.922 62.1311 443.032 65.5163C443.131 68.5798 445.629 71.0745 448.694 71.1706V71.1715Z" fill="white"/>
<path d="M407.053 80.277L403.544 78.5895L404.442 74.9349L408.322 75.0645C408.744 74.2907 409.258 73.5838 409.847 72.9549L408.588 69.3664L411.809 67.4164L414.345 70.1265C415.268 69.8374 416.238 69.6744 417.229 69.6546L418.932 66.1167L422.589 67.014L422.457 70.938C423.344 71.4245 424.143 72.0327 424.837 72.7345L428.511 71.5223L430.402 74.7762L427.501 77.3919C427.703 78.1572 427.82 78.9507 427.842 79.7597L431.312 81.4283L430.415 85.0838L426.612 84.9568C426.17 85.7829 425.621 86.5345 424.99 87.1985L426.258 90.8136L423.037 92.7636L420.446 89.996C419.547 90.268 418.605 90.419 417.643 90.4361L415.971 93.9089L412.315 93.0115L412.443 89.1553C411.597 88.6912 410.831 88.1173 410.16 87.4567L406.572 88.7126L404.621 85.4938L407.439 82.8593C407.205 82.0271 407.072 81.1606 407.052 80.2779L407.053 80.277ZM416.525 83.7197C418.627 84.2362 420.751 82.9082 421.191 80.7686C421.603 78.7723 420.342 76.7768 418.363 76.2853C416.305 75.7731 414.224 77.0308 413.718 79.088C413.214 81.1409 414.47 83.2153 416.525 83.7197Z" fill="#333333"/>
<path d="M431.859 230.876V129.161C431.859 125.15 428.605 121.897 424.592 121.897L189.595 122.26C186.947 122.26 184.799 124.407 184.799 127.054V158.285H137.398C134.749 158.285 132.602 160.431 132.602 163.079V230.876H431.859Z" fill="white"/>
<path d="M242.238 165.825C242.238 166.189 241.942 166.485 241.578 166.485C241.214 166.485 240.918 166.189 240.918 165.825C240.918 165.461 241.214 165.166 241.578 165.166C241.942 165.166 242.238 165.461 242.238 165.825Z" stroke="white" stroke-linecap="round" stroke-linejoin="round"/>
<path d="M252.527 156.473C252.892 156.473 253.187 156.178 253.187 155.814C253.187 155.449 252.892 155.154 252.527 155.154C252.163 155.154 251.867 155.449 251.867 155.814C251.867 156.178 252.163 156.473 252.527 156.473Z" stroke="white" stroke-linecap="round" stroke-linejoin="round"/>
<path d="M382.438 64.0068H212.906C206.881 64.0068 201.996 68.8893 201.996 74.9121V192.918C201.996 198.94 206.881 203.823 212.906 203.823H382.438C388.464 203.823 393.349 198.94 393.349 192.918V74.9121C393.349 68.8893 388.464 64.0068 382.438 64.0068Z" fill="white" stroke="#333333" stroke-linecap="round" stroke-linejoin="round"/>
<path d="M382.438 64.0068H212.906C206.881 64.0068 201.996 68.8893 201.996 74.9121V192.918C201.996 198.94 206.881 203.823 212.906 203.823H382.438C388.464 203.823 393.349 198.94 393.349 192.918V74.9121C393.349 68.8893 388.464 64.0068 382.438 64.0068Z" fill="#333333" stroke="#F2F2F2" stroke-linecap="round" stroke-linejoin="round"/>
<path d="M382.43 78.1845V189.645C382.43 191.947 380.56 193.816 378.257 193.816H217.088C214.785 193.816 212.916 191.947 212.916 189.645V78.1845C212.916 75.8823 214.785 74.0137 217.088 74.0137L378.257 74.0137C380.56 74.0137 382.43 75.8823 382.43 78.1845Z" fill="white" stroke="#333333" stroke-linecap="round" stroke-linejoin="round"/>
<path d="M319.345 203.823H276V219.778H319.345V203.823Z" fill="#333333" stroke="#F2F2F2" stroke-linecap="round" stroke-linejoin="round"/>
<path d="M255.964 217.562H339.377C346.729 217.562 352.697 223.528 352.697 230.876H242.645C242.645 223.528 248.613 217.562 255.964 217.562Z" fill="#333333" stroke="#F2F2F2" stroke-linecap="round" stroke-linejoin="round"/>
<path d="M294.773 151.183H363.875" stroke="#333333" stroke-linecap="round" stroke-linejoin="round"/>
<path d="M294.773 164.457H363.875" stroke="#333333" stroke-linecap="round" stroke-linejoin="round"/>
<path d="M294.773 177.729H356.633" stroke="#333333" stroke-linecap="round" stroke-linejoin="round"/>
<path d="M230.199 110.304H299.301" stroke="#333333" stroke-linecap="round" stroke-linejoin="round"/>
<path d="M230.199 133.096H363.877" stroke="#333333" stroke-linecap="round" stroke-linejoin="round"/>
<path d="M360.778 87.4556H315.562C313.852 87.4556 312.465 88.8417 312.465 90.5515V118.539C312.465 120.249 313.852 121.635 315.562 121.635H360.778C362.488 121.635 363.875 120.249 363.875 118.539V90.5515C363.875 88.8417 362.488 87.4556 360.778 87.4556Z" fill="white" stroke="#333333" stroke-linecap="round" stroke-linejoin="round"/>
<path d="M338.171 114.05C343.423 114.05 347.681 109.794 347.681 104.544C347.681 99.2941 343.423 95.0381 338.171 95.0381C332.918 95.0381 328.66 99.2941 328.66 104.544C328.66 109.794 332.918 114.05 338.171 114.05Z" fill="white" stroke="#333333" stroke-linecap="round" stroke-linejoin="round"/>
<path d="M341.574 103.693L336.623 101.181C335.987 100.859 335.234 101.321 335.234 102.033V107.057C335.234 107.77 335.987 108.232 336.623 107.909L341.574 105.398C342.272 105.044 342.272 104.048 341.574 103.694V103.693Z" fill="white" stroke="#333333" stroke-linecap="round" stroke-linejoin="round"/>
<path d="M296.554 87.4556H232.411C230.894 87.4556 229.664 88.6849 229.664 90.2013V97.9153C229.664 99.4318 230.894 100.661 232.411 100.661H296.554C298.071 100.661 299.301 99.4318 299.301 97.9153V90.2013C299.301 88.6849 298.071 87.4556 296.554 87.4556Z" fill="white" stroke="#333333" stroke-linecap="round" stroke-linejoin="round"/>
<path d="M361.004 177.729C361.004 177.807 360.941 177.87 360.863 177.87C360.786 177.87 360.723 177.807 360.723 177.729C360.723 177.652 360.786 177.589 360.863 177.589C360.941 177.589 361.004 177.652 361.004 177.729Z" stroke="#333333" stroke-linecap="round" stroke-linejoin="round"/>
<path d="M230.199 121.7H284.403" stroke="#333333" stroke-linecap="round" stroke-linejoin="round"/>
<path d="M288.824 121.7C288.824 121.778 288.761 121.84 288.683 121.84C288.606 121.84 288.543 121.778 288.543 121.7C288.543 121.622 288.606 121.56 288.683 121.56C288.761 121.56 288.824 121.622 288.824 121.7Z" stroke="#333333" stroke-linecap="round" stroke-linejoin="round"/>
<path d="M236.937 161.722H229.909C229.288 161.722 228.785 162.224 228.785 162.845V180.312C228.785 180.932 229.288 181.435 229.909 181.435H236.937C237.557 181.435 238.06 180.932 238.06 180.312V162.845C238.06 162.224 237.557 161.722 236.937 161.722Z" fill="white" stroke="#333333" stroke-linecap="round" stroke-linejoin="round"/>
<path d="M252.19 151.339H245.162C244.542 151.339 244.039 151.842 244.039 152.462V180.313C244.039 180.933 244.542 181.435 245.162 181.435H252.19C252.811 181.435 253.314 180.933 253.314 180.313V152.462C253.314 151.842 252.811 151.339 252.19 151.339Z" fill="white" stroke="#333333" stroke-linecap="round" stroke-linejoin="round"/>
<path d="M267.448 159.053H260.42C259.8 159.053 259.297 159.555 259.297 160.176V180.312C259.297 180.933 259.8 181.435 260.42 181.435H267.448C268.069 181.435 268.572 180.933 268.572 180.312V160.176C268.572 159.555 268.069 159.053 267.448 159.053Z" fill="white" stroke="#333333" stroke-linecap="round" stroke-linejoin="round"/>
<path d="M282.698 147.178H275.67C275.05 147.178 274.547 147.681 274.547 148.301V180.313C274.547 180.933 275.05 181.435 275.67 181.435H282.698C283.319 181.435 283.822 180.933 283.822 180.313V148.301C283.822 147.681 283.319 147.178 282.698 147.178Z" fill="white" stroke="#333333" stroke-linecap="round" stroke-linejoin="round"/>
<path d="M164.504 108.108C164.431 109.206 163.573 111.453 163.247 112.483C163.042 113.134 162.432 114.076 161.859 114.406C162.387 113.522 162.698 112.499 162.698 111.523V110.273C162.014 108.881 161.312 106.13 161.312 106.13C160.309 106.731 154.94 106.897 154.94 106.897C154.296 108.482 153.854 109.568 153.69 109.969V111.523C153.69 111.976 153.757 112.439 153.881 112.893C153.71 112.532 153.562 112.139 153.502 111.892C153.308 111.089 152.868 109.895 152.709 109.081C152.395 107.469 152.334 106.02 153.136 104.703C153.381 104.301 153.814 104.11 154.048 103.708C154.192 103.461 154.263 103.147 154.216 102.849C154.188 102.666 154.123 102.471 154.188 102.302C154.271 102.08 154.516 102.038 154.719 102.027C155.5 101.986 156.279 101.945 157.059 101.903C159.534 101.772 162.843 102.357 164.183 105.052C164.629 105.95 164.574 107.068 164.504 108.108Z" fill="#333333" stroke="#333333" stroke-linecap="round" stroke-linejoin="round"/>
<path d="M162.695 110.273V111.523C162.695 112.499 162.384 113.522 161.856 114.405C161.798 114.44 161.741 114.466 161.684 114.487C161.235 114.644 160.752 114.511 160.286 114.554C158.938 114.679 158.924 114.759 157.584 114.546C156.79 114.42 156.713 114.559 155.947 114.28C155.404 114.081 154.773 114.1 154.344 113.656C154.2 113.506 154.031 113.213 153.88 112.894H153.879C153.754 112.44 153.688 111.977 153.688 111.524V109.97C153.851 109.569 154.293 108.483 154.938 106.897C154.938 106.897 160.307 106.732 161.309 106.131C161.309 106.131 162.012 108.882 162.695 110.273V110.273Z" fill="white" stroke="#333333" stroke-linecap="round" stroke-linejoin="round"/>
<path d="M150.406 182.635V186.849L149.172 188.953L152.464 190.379L153.27 186.597L153.319 181.77L150.406 182.635Z" fill="white" stroke="#333333" stroke-linecap="round" stroke-linejoin="round"/>
<path d="M164.867 182.635V186.849L166.101 188.953L162.808 190.379L161.609 189.221L162.002 186.597L161.954 181.77L164.867 182.635Z" fill="white" stroke="#333333" stroke-linecap="round" stroke-linejoin="round"/>
<path d="M160.613 113.406H156.516V119.787H160.613V113.406Z" fill="white" stroke="#333333" stroke-linecap="round" stroke-linejoin="round"/>
<path d="M168.805 152.463C168.845 152.78 167.67 152.338 167.24 152.358C167.053 151.701 166.907 151.069 166.736 150.421C167.452 149.162 168.043 147.995 168.521 146.922H168.627C168.625 146.849 168.622 146.776 168.618 146.703C169.573 144.518 170.057 142.738 170.196 141.393C170.376 139.662 169.617 137.606 167.248 135.11C167.869 138.686 168.454 142.884 168.618 146.703C168.587 146.775 168.554 146.848 168.521 146.922H148.092C147.93 146.645 147.788 146.384 147.661 146.139C147.831 142.813 148.359 139.021 148.934 135.661C147.1 138.518 146.902 141.533 146.8 142.436C146.722 143.129 146.645 144.149 147.661 146.139C147.648 146.403 147.637 146.664 147.628 146.922H148.092C148.503 147.631 149.039 148.444 149.732 149.384C149.599 150.344 149.488 151.283 149.347 152.257C149.177 152.323 148.072 152.942 148.494 152.658C143.219 148.994 140.984 145.015 140.984 140.571C140.984 133.573 147.329 122.778 155.197 119.283L161.754 119.203C167.357 120.247 175.864 133.13 175.921 140.088C175.952 143.934 173.519 148.15 168.805 152.463Z" fill="#F2F2F2"/>
<path d="M168.521 146.922C168.043 147.995 167.452 149.162 166.736 150.421C166.907 151.069 167.053 151.701 167.24 152.358C167.67 152.338 168.845 152.78 168.805 152.463C173.519 148.15 175.952 143.934 175.921 140.088C175.864 133.13 167.357 120.247 161.754 119.203L155.197 119.283C147.329 122.778 140.984 133.573 140.984 140.571C140.984 145.015 143.219 148.994 148.494 152.658C148.072 152.942 149.177 152.323 149.347 152.257C149.488 151.283 149.599 150.344 149.732 149.384C149.039 148.444 148.503 147.631 148.092 146.922M168.521 146.922H168.627C168.625 146.849 168.622 146.776 168.618 146.703M168.521 146.922C168.554 146.848 168.587 146.775 168.618 146.703M168.521 146.922H148.092M168.618 146.703C169.573 144.518 170.057 142.738 170.196 141.393C170.376 139.662 169.617 137.606 167.248 135.11C167.869 138.686 168.454 142.884 168.618 146.703ZM148.092 146.922C147.93 146.645 147.788 146.384 147.661 146.139M148.092 146.922H147.628C147.637 146.664 147.648 146.403 147.661 146.139M147.661 146.139C147.831 142.813 148.359 139.021 148.934 135.661C147.1 138.518 146.902 141.533 146.8 142.436C146.722 143.129 146.645 144.149 147.661 146.139Z" stroke="#333333" stroke-linecap="round" stroke-linejoin="round"/>
<path d="M147.658 146.139C147.785 146.384 147.927 146.645 148.089 146.922H147.625C147.634 146.664 147.645 146.403 147.658 146.139Z" fill="white" stroke="#333333" stroke-linecap="round" stroke-linejoin="round"/>
<path d="M168.626 146.922H168.52C168.553 146.848 168.585 146.775 168.617 146.703C168.62 146.776 168.623 146.849 168.626 146.922Z" fill="white" stroke="#333333" stroke-linecap="round" stroke-linejoin="round"/>
<path d="M147.662 146.139C147.789 146.384 147.931 146.645 148.093 146.922H147.629C147.638 146.664 147.649 146.403 147.662 146.139Z" fill="white" stroke="#333333" stroke-linecap="round" stroke-linejoin="round"/>
<path d="M168.63 146.923H168.523C168.557 146.849 168.589 146.776 168.621 146.704C168.624 146.777 168.627 146.85 168.63 146.923Z" fill="white" stroke="#333333" stroke-linecap="round" stroke-linejoin="round"/>
<path d="M165.652 183.912C165.652 183.912 162.553 184.184 161.447 183.4C161.447 183.4 160.551 171.216 162.617 161.654C162.617 161.654 162.154 160.764 160.681 159.204H154.769C153.296 160.764 152.833 161.654 152.833 161.654C154.899 171.216 154.003 183.4 154.003 183.4C152.897 184.184 149.798 183.912 149.798 183.912C149.798 183.912 143.422 164.654 145.029 158.481C146.635 152.309 149.347 150.596 149.347 150.596L151.793 152.032L157.725 155.516L157.059 155.907C157.29 156.093 157.511 156.274 157.725 156.453C157.939 156.274 158.16 156.093 158.391 155.907L157.725 155.516L163.57 152.083L166.103 150.596C166.103 150.596 168.815 152.309 170.421 158.481C172.028 164.654 165.652 183.912 165.652 183.912Z" fill="#333333"/>
<path d="M157.725 155.516L151.793 152.032L149.347 150.596C149.347 150.596 146.635 152.309 145.029 158.481C143.422 164.654 149.798 183.912 149.798 183.912C149.798 183.912 152.897 184.184 154.003 183.4C154.003 183.4 154.899 171.216 152.833 161.654C152.833 161.654 153.296 160.764 154.769 159.204H160.681C162.154 160.764 162.617 161.654 162.617 161.654C160.551 171.216 161.447 183.4 161.447 183.4C162.553 184.184 165.652 183.912 165.652 183.912C165.652 183.912 172.028 164.654 170.421 158.481C168.815 152.309 166.103 150.596 166.103 150.596L163.57 152.083L157.725 155.516ZM157.725 155.516L157.059 155.907C157.29 156.093 157.511 156.274 157.725 156.453C157.939 156.274 158.16 156.093 158.391 155.907L157.725 155.516Z" stroke="#333333" stroke-linecap="round" stroke-linejoin="round"/>
<path d="M158.39 155.907C158.159 156.093 157.938 156.274 157.724 156.452C157.511 156.274 157.29 156.093 157.059 155.907L157.724 155.516L158.39 155.907Z" fill="white" stroke="#333333" stroke-linecap="round" stroke-linejoin="round"/>
<path d="M158.39 155.907C158.159 156.093 157.938 156.274 157.724 156.452C157.511 156.274 157.29 156.093 157.059 155.907L157.724 155.516L158.39 155.907Z" fill="white" stroke="#333333" stroke-linecap="round" stroke-linejoin="round"/>
<path d="M157.059 155.907L157.724 155.516L158.39 155.907C158.159 156.093 157.938 156.274 157.724 156.452C157.511 156.274 157.29 156.093 157.059 155.907Z" fill="white" stroke="#333333" stroke-linecap="round" stroke-linejoin="round"/>
<path d="M163.571 152.083L157.725 155.516L151.793 152.032H163.571V152.083Z" fill="white" stroke="#333333" stroke-linecap="round" stroke-linejoin="round"/>
<path d="M166.736 158.273H149.127C148.581 158.273 148.116 157.907 148.033 157.413L146.333 147.168C146.231 146.556 146.749 146.004 147.427 146.004H168.436C169.113 146.004 169.631 146.556 169.53 147.168L167.829 157.413C167.747 157.907 167.283 158.273 166.736 158.273H166.736Z" fill="white" stroke="#333333" stroke-linecap="round" stroke-linejoin="round"/>
<path d="M149.881 186.971C149.881 186.971 151.984 188.422 153.48 186.921C153.48 186.921 153.649 188.091 153.894 188.982C154.159 189.949 153.261 191.313 152.859 192.103C152.041 193.717 152.086 194.837 151.083 196.338C150.658 196.974 150.2 197.702 149.503 198.035C148.837 198.352 148.108 198.186 147.446 197.942C145.62 197.268 143.844 196.274 145.891 193.02C147.247 190.863 148.626 190.018 149.881 186.971Z" fill="white" stroke="#333333" stroke-linecap="round" stroke-linejoin="round"/>
<path d="M165.385 186.971C165.385 186.971 163.283 188.422 161.787 186.921C161.787 186.921 161.617 188.091 161.372 188.982C161.107 189.949 162.006 191.313 162.407 192.103C163.225 193.717 163.18 194.837 164.183 196.338C165.069 197.663 165.991 198.437 167.668 198.165C168.496 198.031 169.576 197.137 170.046 196.414C170.751 195.33 169.968 193.963 169.376 193.02C168.019 190.863 166.64 190.018 165.385 186.971Z" fill="white" stroke="#333333" stroke-linecap="round" stroke-linejoin="round"/>
<path d="M162.695 110.273V111.523C162.695 112.499 162.384 113.522 161.856 114.405C161.039 115.772 159.702 116.803 158.191 116.803C156.157 116.803 154.438 114.934 153.88 112.894H153.879C153.754 112.44 153.688 111.977 153.688 111.524V109.97C153.851 109.569 154.293 108.483 154.938 106.897C154.938 106.897 160.307 106.732 161.309 106.131C161.309 106.131 162.012 108.882 162.695 110.273V110.273Z" fill="white" stroke="#333333" stroke-linecap="round" stroke-linejoin="round"/>
<path opacity="0.32" d="M382.091 219.217C397.379 219.217 409.772 206.83 409.772 191.55C409.772 176.269 397.379 163.882 382.091 163.882C366.803 163.882 354.41 176.269 354.41 191.55C354.41 206.83 366.803 219.217 382.091 219.217Z" fill="white" stroke="#333333" stroke-linecap="round" stroke-linejoin="round"/>
<path d="M411.774 196.491L409.613 203.349L441.148 213.275L443.309 206.417L411.774 196.491Z" fill="#F2F2F2" stroke="#333333" stroke-linecap="round" stroke-linejoin="round"/>
<path d="M469.227 213.768L466.511 222.387C466.243 223.237 465.336 223.709 464.485 223.442L421.907 210.035C421.057 209.767 420.584 208.861 420.852 208.01L423.569 199.391C423.837 198.541 424.744 198.069 425.595 198.337L468.172 211.743C469.023 212.011 469.495 212.918 469.227 213.768Z" fill="#333333" stroke="#333333" stroke-linecap="round" stroke-linejoin="round"/>
<path d="M351.635 182.007C346.34 198.81 355.675 216.722 372.485 222.015C389.296 227.308 407.216 217.977 412.511 201.175C417.807 184.372 408.472 166.461 391.662 161.167C374.852 155.875 356.931 165.205 351.635 182.007ZM404.68 198.709C400.747 211.188 387.437 218.118 374.952 214.186C362.466 210.255 355.534 196.952 359.467 184.473C363.4 171.993 376.709 165.063 389.195 168.995C401.679 172.926 408.613 186.229 404.68 198.709Z" fill="#F2F2F2" stroke="#333333" stroke-linecap="round" stroke-linejoin="round"/>
<path d="M140.68 29.084H150.782" stroke="#333333" stroke-linecap="round" stroke-linejoin="round"/>
<path d="M145.73 24.0352V34.1317" stroke="#333333" stroke-linecap="round" stroke-linejoin="round"/>
<path d="M458.02 137.888H468.122" stroke="#333333" stroke-linecap="round" stroke-linejoin="round"/>
<path d="M463.07 132.839V142.936" stroke="#333333" stroke-linecap="round" stroke-linejoin="round"/>
<path d="M308.305 5.54883H318.407" stroke="#333333" stroke-linecap="round" stroke-linejoin="round"/>
<path d="M313.355 0.5V10.5975" stroke="#333333" stroke-linecap="round" stroke-linejoin="round"/>
<path d="M434.845 14.9855C435.216 13.4115 434.241 11.8343 432.666 11.4628C431.091 11.0913 429.513 12.0661 429.142 13.6402C428.77 15.2142 429.745 16.7914 431.32 17.1629C432.895 17.5344 434.473 16.5596 434.845 14.9855Z" stroke="#333333" stroke-linecap="round" stroke-linejoin="round"/>
<path d="M116.719 135.882C118.337 135.882 119.649 134.571 119.649 132.953C119.649 131.336 118.337 130.025 116.719 130.025C115.101 130.025 113.789 131.336 113.789 132.953C113.789 134.571 115.101 135.882 116.719 135.882Z" stroke="#333333" stroke-linecap="round" stroke-linejoin="round"/>
<path d="M221.269 20.3375C221.269 24.5708 219.968 28.5002 217.743 31.7486C215.185 35.4845 213.238 37.56 211.931 39.8336C211.103 41.2742 210.532 42.7944 210.225 44.8654C210.065 45.9434 209.148 46.7456 208.058 46.7456H194.053C192.964 46.7456 192.048 45.9461 191.883 44.8699C191.06 39.4917 188.427 37.8133 184.256 31.6446C181.431 27.4638 180.128 22.1706 181.143 16.5591C182.637 8.30863 189.162 1.85063 197.428 0.424456C210.193 -1.77765 221.268 7.98668 221.268 20.3375H221.269Z" fill="white"/>
<path d="M205.002 60.7231C205.002 62.1889 203.225 63.3771 201.034 63.3771C198.843 63.3771 197.066 62.1889 197.066 60.7231H205.002Z" fill="#333333"/>
<path d="M189.391 18.0103C190.278 13.1069 194.156 9.26877 199.069 8.42139" stroke="#F2F2F2" stroke-linecap="round" stroke-linejoin="round"/>
<path d="M208.558 53.2687H193.512C192.711 53.2687 192.062 52.6202 192.062 51.8199C192.062 51.0195 192.711 50.3711 193.512 50.3711H208.558C209.358 50.3711 210.007 51.0195 210.007 51.8199C210.007 52.6202 209.358 53.2687 208.558 53.2687Z" fill="#333333"/>
<path d="M207.021 58.4478H195.043C194.242 58.4478 193.594 57.7994 193.594 56.9991C193.594 56.1987 194.242 55.5503 195.043 55.5503H207.021C207.821 55.5503 208.47 56.1987 208.47 56.9991C208.47 57.7994 207.821 58.4478 207.021 58.4478Z" fill="#333333"/>
<path d="M119.069 48.1167H158.702C163.714 48.1167 167.777 52.1782 167.777 57.1874V81.9487C167.777 86.9579 163.714 91.0194 158.702 91.0194H144.96V97.33C144.96 98.322 143.747 98.8022 143.067 98.0806L136.418 91.0194H119.068C114.057 91.0194 109.993 86.9579 109.993 81.9487V57.1874C109.993 52.1782 114.057 48.1167 119.068 48.1167H119.069Z" fill="white"/>
<path d="M126.589 67.2559C127.744 67.2559 128.684 68.1945 128.684 69.3492C128.684 70.5039 127.745 71.4426 126.589 71.4426C125.434 71.4426 124.495 70.5039 124.495 69.3492C124.495 68.1945 125.434 67.2559 126.589 67.2559Z" fill="#333333"/>
<path d="M138.89 67.2559C140.044 67.2559 140.984 68.1945 140.984 69.3492C140.984 70.5039 140.045 71.4426 138.89 71.4426C137.735 71.4426 136.796 70.5039 136.796 69.3492C136.796 68.1945 137.735 67.2559 138.89 67.2559Z" fill="#333333"/>
<path d="M151.187 67.2559C152.341 67.2559 153.281 68.1945 153.281 69.3492C153.281 70.5039 152.342 71.4426 151.187 71.4426C150.032 71.4426 149.093 70.5039 149.093 69.3492C149.093 68.1945 150.032 67.2559 151.187 67.2559Z" fill="#333333"/>
</svg>
