<svg width="471" height="256" viewBox="0 0 471 256" fill="none" xmlns="http://www.w3.org/2000/svg">
<path d="M55.6692 0.98C54.8426 0.98 54.1959 1.21333 53.7292 1.68C53.2626 2.13333 52.9159 2.86667 52.6892 3.88C52.6759 3.90667 52.6292 3.92 52.5492 3.92C52.4826 3.92 52.4492 3.9 52.4492 3.86C52.4759 3.68667 52.5026 3.44 52.5292 3.12C52.5692 2.8 52.6026 2.45333 52.6292 2.08C52.6559 1.70667 52.6759 1.34667 52.6892 1C52.7159 0.653333 52.7292 0.366667 52.7292 0.140001C52.7292 0.073334 52.7692 0.0400007 52.8492 0.0400007C52.9292 0.0400007 52.9692 0.073334 52.9692 0.140001C52.9692 0.273334 53.0359 0.373334 53.1692 0.44C53.3026 0.493334 53.4559 0.533334 53.6292 0.56C53.8026 0.573334 53.9492 0.580001 54.0692 0.580001C55.2159 0.62 56.5559 0.64 58.0892 0.64C59.0226 0.64 59.7692 0.633334 60.3292 0.62C60.8892 0.593334 61.4292 0.580001 61.9492 0.580001C62.4026 0.580001 62.7492 0.553334 62.9892 0.500001C63.2426 0.433334 63.4026 0.293334 63.4692 0.0800002C63.4826 0.0266667 63.5226 0 63.5892 0C63.6692 0 63.7092 0.0266667 63.7092 0.0800002C63.6826 0.28 63.6559 0.56 63.6292 0.92C63.6159 1.28 63.5959 1.65333 63.5692 2.04C63.5559 2.42667 63.5426 2.78667 63.5292 3.12C63.5159 3.45333 63.5092 3.7 63.5092 3.86C63.5092 3.9 63.4692 3.92 63.3892 3.92C63.3226 3.92 63.2892 3.9 63.2892 3.86C63.1959 2.82 62.9292 2.08 62.4892 1.64C62.0492 1.2 61.3959 0.98 60.5292 0.98C60.0626 0.98 59.7092 1.01333 59.4692 1.08C59.2426 1.13333 59.0892 1.24667 59.0092 1.42C58.9426 1.59333 58.9092 1.86667 58.9092 2.24V11.46C58.9092 11.8467 58.9492 12.14 59.0292 12.34C59.1226 12.54 59.2959 12.6733 59.5492 12.74C59.8159 12.8067 60.2226 12.84 60.7692 12.84C60.7959 12.84 60.8092 12.88 60.8092 12.96C60.8092 13.04 60.7959 13.08 60.7692 13.08C60.4092 13.08 60.0026 13.0733 59.5492 13.06C59.1092 13.0467 58.6226 13.04 58.0892 13.04C57.5826 13.04 57.1026 13.0467 56.6492 13.06C56.2092 13.0733 55.8026 13.08 55.4292 13.08C55.3892 13.08 55.3692 13.04 55.3692 12.96C55.3692 12.88 55.3892 12.84 55.4292 12.84C55.9492 12.84 56.3426 12.8067 56.6092 12.74C56.8892 12.6733 57.0759 12.54 57.1692 12.34C57.2626 12.14 57.3092 11.8467 57.3092 11.46V2.2C57.3092 1.84 57.2692 1.57333 57.1892 1.4C57.1092 1.21333 56.9492 1.1 56.7092 1.06C56.4692 1.00667 56.1226 0.98 55.6692 0.98Z" fill="#333333"/>
<path d="M39.1198 10.8001V1.04008L39.6398 1.08008V10.8001C39.6398 11.4934 39.7665 12.0067 40.0198 12.3401C40.2732 12.6734 40.6732 12.8401 41.2198 12.8401C41.2465 12.8401 41.2598 12.8801 41.2598 12.9601C41.2598 13.0401 41.2465 13.0801 41.2198 13.0801C40.9398 13.0801 40.6532 13.0734 40.3598 13.0601C40.0798 13.0467 39.7598 13.0401 39.3998 13.0401C39.0532 13.0401 38.7132 13.0467 38.3798 13.0601C38.0465 13.0734 37.7332 13.0801 37.4398 13.0801C37.4132 13.0801 37.3998 13.0401 37.3998 12.9601C37.3998 12.8801 37.4132 12.8401 37.4398 12.8401C38.0265 12.8401 38.4532 12.6734 38.7198 12.3401C38.9865 12.0067 39.1198 11.4934 39.1198 10.8001ZM49.2398 13.3401C49.2398 13.3667 49.2065 13.3801 49.1398 13.3801C49.0865 13.3934 49.0465 13.3934 49.0198 13.3801L39.5998 2.22008C39.1332 1.67341 38.7265 1.30674 38.3798 1.12008C38.0465 0.920077 37.7132 0.820077 37.3798 0.820077C37.3532 0.820077 37.3398 0.780078 37.3398 0.700078C37.3398 0.620078 37.3532 0.580078 37.3798 0.580078C37.6332 0.580078 37.8865 0.586745 38.1398 0.600078C38.3932 0.613411 38.6265 0.620078 38.8398 0.620078C39.1598 0.620078 39.4532 0.613411 39.7198 0.600078C39.9865 0.586745 40.1865 0.580078 40.3198 0.580078C40.4932 0.580078 40.6198 0.660078 40.6998 0.820077C40.7798 0.966744 40.9732 1.23341 41.2798 1.62008L49.0798 11.0201L49.2398 13.3401ZM49.2398 2.88008V13.3401L48.7398 12.7201V2.88008C48.7398 2.18674 48.6132 1.67341 48.3598 1.34008C48.1198 0.993411 47.7265 0.820077 47.1798 0.820077C47.1532 0.820077 47.1398 0.780078 47.1398 0.700078C47.1398 0.620078 47.1532 0.580078 47.1798 0.580078C47.4598 0.580078 47.7465 0.593411 48.0398 0.620078C48.3332 0.633411 48.6532 0.640077 48.9998 0.640077C49.3332 0.640077 49.6598 0.633411 49.9798 0.620078C50.2998 0.593411 50.5998 0.580078 50.8798 0.580078C50.9065 0.580078 50.9198 0.620078 50.9198 0.700078C50.9198 0.780078 50.9065 0.820077 50.8798 0.820077C50.3198 0.820077 49.9065 0.993411 49.6398 1.34008C49.3732 1.67341 49.2398 2.18674 49.2398 2.88008Z" fill="#333333"/>
<path d="M33.7414 11.4601C33.7414 11.8467 33.7747 12.1401 33.8414 12.3401C33.9214 12.5401 34.0747 12.6734 34.3014 12.7401C34.5414 12.8067 34.8947 12.8401 35.3614 12.8401C35.3881 12.8401 35.4014 12.8801 35.4014 12.9601C35.4014 13.0401 35.3881 13.0801 35.3614 13.0801C35.0281 13.0801 34.6547 13.0734 34.2414 13.0601C33.8414 13.0467 33.4014 13.0401 32.9214 13.0401C32.4547 13.0401 32.0147 13.0467 31.6014 13.0601C31.1881 13.0734 30.8147 13.0801 30.4814 13.0801C30.4547 13.0801 30.4414 13.0401 30.4414 12.9601C30.4414 12.8801 30.4547 12.8401 30.4814 12.8401C30.9481 12.8401 31.3014 12.8067 31.5414 12.7401C31.7814 12.6734 31.9414 12.5401 32.0214 12.3401C32.1014 12.1401 32.1414 11.8467 32.1414 11.4601V2.20008C32.1414 1.81341 32.1014 1.52674 32.0214 1.34008C31.9414 1.14008 31.7814 1.00674 31.5414 0.940077C31.3014 0.860077 30.9481 0.820077 30.4814 0.820077C30.4547 0.820077 30.4414 0.780078 30.4414 0.700078C30.4414 0.620078 30.4547 0.580078 30.4814 0.580078C30.8147 0.580078 31.1881 0.593411 31.6014 0.620078C32.0147 0.633411 32.4547 0.640077 32.9214 0.640077C33.4014 0.640077 33.8481 0.633411 34.2614 0.620078C34.6747 0.593411 35.0414 0.580078 35.3614 0.580078C35.3881 0.580078 35.4014 0.620078 35.4014 0.700078C35.4014 0.780078 35.3881 0.820077 35.3614 0.820077C34.8947 0.820077 34.5481 0.860077 34.3214 0.940077C34.0947 1.02008 33.9414 1.16008 33.8614 1.36008C33.7814 1.56008 33.7414 1.85341 33.7414 2.24008V11.4601Z" fill="#333333"/>
<path d="M21.1877 13.3199C20.2277 13.3199 19.3543 13.1532 18.5677 12.8199C17.7943 12.4732 17.1277 11.9999 16.5677 11.3999C16.021 10.7999 15.5943 10.1132 15.2877 9.33986C14.9943 8.5532 14.8477 7.71986 14.8477 6.83986C14.8477 5.75986 15.0543 4.8132 15.4677 3.99986C15.8943 3.18653 16.4543 2.5132 17.1477 1.97986C17.841 1.4332 18.601 1.02653 19.4277 0.759863C20.2543 0.493196 21.0743 0.359863 21.8877 0.359863C22.8743 0.359863 23.7543 0.539863 24.5277 0.899863C25.3143 1.24653 25.981 1.71986 26.5277 2.31986C27.0743 2.91986 27.4877 3.59986 27.7677 4.35986C28.061 5.11986 28.2077 5.89986 28.2077 6.69986C28.2077 7.6332 28.021 8.49986 27.6477 9.29986C27.2743 10.0999 26.761 10.7999 26.1077 11.3999C25.4677 11.9999 24.721 12.4732 23.8677 12.8199C23.0277 13.1532 22.1343 13.3199 21.1877 13.3199ZM21.8877 12.8799C22.7277 12.8799 23.4877 12.6665 24.1677 12.2399C24.861 11.7999 25.401 11.1665 25.7877 10.3399C26.1877 9.49986 26.3877 8.4732 26.3877 7.25986C26.3877 6.01986 26.1677 4.91986 25.7277 3.95986C25.301 2.98653 24.6877 2.22653 23.8877 1.67986C23.101 1.11986 22.161 0.839863 21.0677 0.839863C19.6677 0.839863 18.581 1.3132 17.8077 2.25986C17.0477 3.20653 16.6677 4.49986 16.6677 6.13986C16.6677 7.08653 16.7877 7.9732 17.0277 8.79986C17.281 9.6132 17.641 10.3265 18.1077 10.9399C18.5743 11.5532 19.1277 12.0332 19.7677 12.3799C20.4077 12.7132 21.1143 12.8799 21.8877 12.8799Z" fill="#333333"/>
<path d="M6.55297 11.38C6.55297 11.78 6.59964 12.0867 6.69297 12.3C6.79964 12.5 7.01297 12.64 7.33297 12.72C7.65297 12.8 8.13297 12.84 8.77297 12.84C8.81297 12.84 8.83297 12.88 8.83297 12.96C8.83297 13.04 8.81297 13.08 8.77297 13.08C8.3463 13.08 7.87964 13.0734 7.37297 13.06C6.87964 13.0467 6.33964 13.04 5.75297 13.04C5.31297 13.04 4.87964 13.0467 4.45297 13.06C4.03964 13.0734 3.6663 13.08 3.33297 13.08C3.3063 13.08 3.29297 13.04 3.29297 12.96C3.29297 12.88 3.3063 12.84 3.33297 12.84C3.79964 12.84 4.1463 12.8067 4.37297 12.74C4.61297 12.6734 4.7663 12.54 4.83297 12.34C4.91297 12.14 4.95297 11.8467 4.95297 11.46L4.95297 2.20002C4.95297 1.81335 4.91297 1.52669 4.83297 1.34002C4.7663 1.14002 4.61297 1.00669 4.37297 0.940019C4.1463 0.860019 3.79964 0.820019 3.33297 0.820019C3.3063 0.820019 3.29297 0.780019 3.29297 0.70002C3.29297 0.62002 3.3063 0.58002 3.33297 0.58002C3.6663 0.58002 4.03964 0.593353 4.45297 0.620019C4.8663 0.633353 5.29297 0.640019 5.73297 0.640019C6.07964 0.640019 6.49964 0.620019 6.99297 0.58002C7.49964 0.54002 8.0063 0.52002 8.51297 0.52002C9.2863 0.52002 9.97964 0.633353 10.593 0.86002C11.2196 1.08669 11.7196 1.44002 12.093 1.92002C12.4663 2.40002 12.6596 3.02669 12.673 3.80002C12.673 4.49335 12.5463 5.09335 12.293 5.60002C12.0396 6.10669 11.693 6.52669 11.253 6.86002C10.8263 7.19335 10.3463 7.44002 9.81297 7.60002C9.29297 7.76002 8.77964 7.84002 8.27297 7.84002C8.11297 7.84002 7.9463 7.83335 7.77297 7.82002C7.61297 7.80669 7.45964 7.78002 7.31297 7.74002C7.25964 7.72669 7.23964 7.68002 7.25297 7.60002C7.27964 7.50669 7.31297 7.46669 7.35297 7.48002C7.47297 7.50669 7.59297 7.52669 7.71297 7.54002C7.8463 7.55335 7.95964 7.56002 8.05297 7.56002C8.55964 7.56002 9.0263 7.44002 9.45297 7.20002C9.87964 6.96002 10.2263 6.59335 10.493 6.10002C10.7596 5.59335 10.893 4.96669 10.893 4.22002C10.893 3.50002 10.7663 2.89335 10.513 2.40002C10.273 1.90669 9.93297 1.52669 9.49297 1.26002C9.05297 0.993353 8.5463 0.86002 7.97297 0.86002C7.59964 0.86002 7.3063 0.886686 7.09297 0.940019C6.89297 0.993352 6.75297 1.12002 6.67297 1.32002C6.59297 1.52002 6.55297 1.82669 6.55297 2.24002L6.55297 11.38Z" fill="#333333"/>
<path d="M44.0898 64.0461C43.9618 64.0461 43.8978 63.9181 43.8978 63.6621C43.8978 63.4061 43.9618 63.2781 44.0898 63.2781C45.8392 63.2781 47.1192 63.1715 47.9298 62.9581C48.7832 62.7021 49.3592 62.2755 49.6578 61.6781C49.9992 61.0808 50.1698 60.1421 50.1698 58.8621L50.1698 41.5181C50.1698 39.9395 50.0632 38.8301 49.8498 38.1901C49.6365 37.5501 49.1885 37.2301 48.5058 37.2301C47.7378 37.2301 46.2658 37.7208 44.0898 38.7021H44.0258C43.8125 38.7021 43.6632 38.5955 43.5778 38.3821C43.4925 38.1688 43.5352 38.0408 43.7058 37.9981L53.3698 33.4541C53.4125 33.4115 53.4765 33.3901 53.5618 33.3901C53.6472 33.3901 53.7325 33.4541 53.8178 33.5821C53.9032 33.6675 53.9458 33.7741 53.9458 33.9021L53.9458 58.8621C53.9458 60.1848 54.0738 61.1448 54.3298 61.7421C54.6285 62.3395 55.2045 62.7448 56.0578 62.9581C56.9112 63.1715 58.2552 63.2781 60.0898 63.2781C60.1752 63.2781 60.2178 63.4061 60.2178 63.6621C60.2178 63.9181 60.1752 64.0461 60.0898 64.0461C58.6818 64.0461 57.5938 64.0248 56.8258 63.9821L52.0898 63.9181L47.4178 63.9821C46.6072 64.0248 45.4978 64.0461 44.0898 64.0461Z" fill="#333333"/>
<path d="M22.0172 64.8781C19.0732 64.8781 16.4492 64.2168 14.1452 62.8941C11.8412 61.5288 10.0278 59.6514 8.70516 57.2621C7.42516 54.8301 6.78516 52.0568 6.78516 48.9421C6.78516 45.9128 7.42516 43.2248 8.70516 40.8781C10.0278 38.5314 11.8412 36.7181 14.1452 35.4381C16.4918 34.1154 19.1372 33.4541 22.0812 33.4541C24.9825 33.4541 27.5638 34.1154 29.8252 35.4381C32.1292 36.7608 33.8998 38.6168 35.1372 41.0061C36.4172 43.3528 37.0572 46.0621 37.0572 49.1341C37.0572 52.2061 36.4172 54.9368 35.1372 57.3261C33.8572 59.7154 32.0652 61.5714 29.7612 62.8941C27.4998 64.2168 24.9185 64.8781 22.0172 64.8781ZM22.7852 63.9821C26.0278 63.9821 28.4385 62.7448 30.0172 60.2701C31.5958 57.7528 32.3852 54.2968 32.3852 49.9021C32.3852 46.4461 31.8945 43.5448 30.9132 41.1981C29.9318 38.8514 28.6092 37.1234 26.9452 36.0141C25.2812 34.8621 23.4252 34.2861 21.3772 34.2861C18.2198 34.2861 15.7452 35.6088 13.9532 38.2541C12.1612 40.8568 11.2652 44.2701 11.2652 48.4941C11.2652 51.4808 11.7345 54.1474 12.6732 56.4941C13.6118 58.8408 14.9558 60.6754 16.7052 61.9981C18.4545 63.3208 20.4812 63.9821 22.7852 63.9821Z" fill="#333333"/>
<path d="M388.656 253.855C385.137 235.186 383.438 217.66 380.669 198.867C378.157 181.828 376.628 160.398 375.088 143.232C373.69 127.646 371.763 107.48 377.995 92.7247C387.798 69.5197 415.885 79.963 413.712 103.344C411.114 131.321 390.974 168.291 388.656 253.855Z" fill="white" stroke="#F2F2F2" stroke-linecap="round" stroke-linejoin="round"/>
<path d="M388.656 253.851C390.771 248.896 389.013 236.737 389.279 231.034C389.725 221.528 390.539 212.044 391.705 202.6C395.421 172.502 400.774 133.252 423.173 110.438C439.333 93.9772 459.738 112.324 450.018 131.504C438.388 154.453 419.429 181.769 388.656 253.855V253.851Z" fill="white" stroke="#F2F2F2" stroke-linecap="round" stroke-linejoin="round"/>
<path d="M388.662 253.855C386.86 236.553 386.558 213.161 384.067 195.946C381.807 180.34 380.115 164.634 376.97 149.166C374.115 135.124 370.523 116.923 361.187 105.611C346.505 87.8178 324.598 104.341 332.629 124.286C342.239 148.152 360.585 181.731 388.666 253.855H388.662Z" fill="white" stroke="#F2F2F2" stroke-linecap="round" stroke-linejoin="round"/>
<path d="M388.66 254.367C388.397 254.367 388.175 254.167 388.151 253.904C384.254 214.394 376.451 162.831 350.502 114.39C350.368 114.141 350.464 113.829 350.713 113.695C350.963 113.56 351.274 113.653 351.406 113.906C362.62 134.844 371.154 157.329 377.493 182.642C382.41 202.282 385.978 223.387 388.649 248.696C391.452 221.342 395.853 198.455 402.079 178.856C409.425 155.734 419.29 137.079 432.246 121.83C432.429 121.615 432.751 121.588 432.969 121.771C433.184 121.954 433.211 122.276 433.028 122.494C408.812 151.004 394.874 192.756 389.168 253.9C389.144 254.163 388.923 254.364 388.66 254.364V254.367Z" fill="#333333"/>
<path d="M388.658 254.368C388.381 254.368 388.153 254.147 388.146 253.866C385.644 147.278 393.17 102.356 393.246 101.913C393.295 101.632 393.561 101.449 393.838 101.494C394.118 101.543 394.305 101.809 394.257 102.086C394.181 102.525 386.672 147.375 389.17 253.839C389.177 254.122 388.952 254.358 388.668 254.365C388.665 254.365 388.661 254.365 388.655 254.365L388.658 254.368Z" fill="#333333"/>
<path d="M388.663 254.734C388.019 247.776 388.984 231.592 383.977 217.736C376.499 197.037 366.409 172.967 350.326 157.409C341.65 149.021 321.636 134.512 312.092 149.907C306.182 159.44 312.38 171.548 319.525 176.939C380.23 222.723 369.53 253.852 388.663 254.734Z" fill="white" stroke="#F2F2F2" stroke-linecap="round" stroke-linejoin="round"/>
<path d="M388.661 254.734C387.889 236.322 389.225 221.203 395.72 203.473C402.516 184.922 412.26 164.752 430.358 155.945C438.511 151.98 451.681 148.599 457.335 160.053C463.536 172.62 451.926 181.091 443.476 188.182C432.953 197.009 423.354 206.94 414.89 217.76C407.848 226.764 404.08 236.564 399.18 246.765C397.509 250.243 393.197 254.26 388.661 254.734Z" fill="white" stroke="#F2F2F2" stroke-linecap="round" stroke-linejoin="round"/>
<path d="M388.661 254.368H388.65C388.398 254.361 388.19 254.174 388.156 253.928C384.048 224.841 370.67 202.812 360.172 189.455C348.787 174.97 338.237 167.271 338.129 167.195C337.901 167.029 337.849 166.707 338.015 166.479C338.181 166.25 338.503 166.198 338.732 166.364C338.839 166.441 349.483 174.206 360.957 188.791C371.203 201.819 384.166 223.034 388.744 250.973C389.955 245.485 393.104 232.567 398.696 218.252C405.516 200.788 417.478 177.604 435.714 166.344C435.953 166.195 436.271 166.268 436.42 166.51C436.569 166.752 436.493 167.067 436.254 167.216C418.26 178.327 406.422 201.296 399.658 218.609C392.311 237.408 389.2 253.786 389.169 253.949C389.124 254.191 388.913 254.368 388.664 254.368H388.661Z" fill="#333333"/>
<path d="M117.672 165.6H238.977C246.15 165.6 251.967 171.416 251.967 178.59C251.967 185.763 246.15 191.58 238.977 191.58H117.672C120.921 182.919 120.921 174.257 117.672 165.596V165.6Z" fill="white" stroke="#333333" stroke-linecap="round" stroke-linejoin="round"/>
<path d="M168.038 175.188H126.521C126.306 175.188 126.137 175.015 126.137 174.804C126.137 174.593 126.31 174.42 126.521 174.42H168.038C168.249 174.42 168.422 174.593 168.422 174.804C168.422 175.015 168.249 175.188 168.038 175.188Z" fill="#333333"/>
<path d="M229.322 184.316H153.025C152.814 184.316 152.641 184.143 152.641 183.932C152.641 183.721 152.814 183.548 153.025 183.548H229.322C229.533 183.548 229.706 183.721 229.706 183.932C229.706 184.143 229.533 184.316 229.322 184.316Z" fill="#333333"/>
<path d="M238.977 194.472H110V188.694H238.977C244.548 188.694 249.078 184.164 249.078 178.593C249.078 173.022 244.548 168.492 238.977 168.492H110V162.713H238.977C247.735 162.713 254.86 169.838 254.86 178.596C254.86 187.354 247.735 194.479 238.977 194.479V194.472Z" fill="#333333" stroke="#F2F2F2" stroke-linecap="round" stroke-linejoin="round"/>
<path d="M259.725 251.993H138.42C131.247 251.993 125.43 246.177 125.43 239.003C125.43 231.83 131.247 226.013 138.42 226.013H259.725C256.476 234.674 256.476 243.336 259.725 251.997V251.993Z" fill="white" stroke="#333333" stroke-linecap="round" stroke-linejoin="round"/>
<path d="M241.052 243.627H164.755C164.544 243.627 164.371 243.454 164.371 243.243C164.371 243.031 164.544 242.858 164.755 242.858H241.052C241.263 242.858 241.436 243.031 241.436 243.243C241.436 243.454 241.263 243.627 241.052 243.627Z" fill="#333333"/>
<path d="M185.843 235.571H144.326C144.114 235.571 143.941 235.398 143.941 235.187C143.941 234.976 144.114 234.803 144.326 234.803H185.843C186.054 234.803 186.227 234.976 186.227 235.187C186.227 235.398 186.054 235.571 185.843 235.571Z" fill="#333333"/>
<path d="M267.395 254.882H138.418C129.66 254.882 122.535 247.757 122.535 238.999C122.535 230.241 129.66 223.116 138.418 223.116H267.395V228.895H138.418C132.847 228.895 128.317 233.425 128.317 238.996C128.317 244.567 132.847 249.096 138.418 249.096H267.395V254.875V254.882Z" fill="#333333" stroke="#F2F2F2" stroke-linecap="round" stroke-linejoin="round"/>
<path d="M253.487 160.591H132.181C125.008 160.591 119.191 154.774 119.191 147.601C119.191 140.428 125.008 134.611 132.181 134.611H253.487C250.238 143.272 250.238 151.933 253.487 160.594V160.591Z" fill="white" stroke="#333333" stroke-linecap="round" stroke-linejoin="round"/>
<path d="M229.268 152.327H187.751C187.54 152.327 187.367 152.154 187.367 151.943C187.367 151.732 187.54 151.559 187.751 151.559H229.268C229.483 151.559 229.652 151.732 229.652 151.943C229.652 152.154 229.479 152.327 229.268 152.327Z" fill="#333333"/>
<path d="M183.913 144.552H142.396C142.185 144.552 142.012 144.379 142.012 144.168C142.012 143.957 142.185 143.784 142.396 143.784H183.913C184.124 143.784 184.297 143.957 184.297 144.168C184.297 144.379 184.124 144.552 183.913 144.552Z" fill="#333333"/>
<path d="M261.157 163.481H132.18C123.422 163.481 116.297 156.356 116.297 147.598C116.297 138.84 123.422 131.715 132.18 131.715H261.157V137.494H132.18C126.609 137.494 122.079 142.024 122.079 147.595C122.079 153.166 126.609 157.695 132.18 157.695H261.157V163.474V163.481Z" fill="#333333" stroke="#F2F2F2" stroke-linecap="round" stroke-linejoin="round"/>
<path d="M455.432 251.993H334.127C326.954 251.993 321.137 246.176 321.137 239.003C321.137 231.83 326.954 226.013 334.127 226.013H455.432C452.183 234.674 452.183 243.335 455.432 251.996V251.993Z" fill="white" stroke="#333333" stroke-linecap="round" stroke-linejoin="round"/>
<path d="M425.341 243.239H349.044C348.83 243.239 348.66 243.066 348.66 242.855C348.66 242.644 348.833 242.471 349.044 242.471H425.341C425.556 242.471 425.725 242.644 425.725 242.855C425.725 243.066 425.552 243.239 425.341 243.239Z" fill="#333333"/>
<path d="M402.686 237.731H361.169C360.958 237.731 360.785 237.558 360.785 237.346C360.785 237.135 360.958 236.962 361.169 236.962H402.686C402.897 236.962 403.07 237.135 403.07 237.346C403.07 237.558 402.897 237.731 402.686 237.731Z" fill="#333333"/>
<path d="M463.11 254.882H334.133C325.375 254.882 318.25 247.757 318.25 238.999C318.25 230.241 325.375 223.116 334.133 223.116H463.11V228.895H334.133C328.562 228.895 324.032 233.425 324.032 238.996C324.032 244.567 328.562 249.096 334.133 249.096H463.11V254.875V254.882Z" fill="#333333" stroke="#F2F2F2" stroke-linecap="round" stroke-linejoin="round"/>
<path d="M138.66 195.822H259.965C267.139 195.822 270.713 201.639 270.713 208.812C270.713 215.985 267.142 221.802 259.965 221.802H138.66C141.909 213.141 141.909 204.48 138.66 195.818V195.822Z" fill="white" stroke="#333333" stroke-linecap="round" stroke-linejoin="round"/>
<path d="M189.022 202.521H147.505C147.294 202.521 147.121 202.348 147.121 202.137C147.121 201.925 147.294 201.752 147.505 201.752H189.022C189.233 201.752 189.406 201.925 189.406 202.137C189.406 202.348 189.233 202.521 189.022 202.521Z" fill="#333333"/>
<path d="M250.306 207.379H174.009C173.798 207.379 173.625 207.206 173.625 206.995C173.625 206.784 173.798 206.611 174.009 206.611H250.306C250.517 206.611 250.69 206.784 250.69 206.995C250.69 207.206 250.517 207.379 250.306 207.379Z" fill="#333333"/>
<path d="M189.022 214.359H147.505C147.294 214.359 147.121 214.186 147.121 213.974C147.121 213.763 147.294 213.59 147.505 213.59H189.022C189.233 213.59 189.406 213.763 189.406 213.974C189.406 214.186 189.233 214.359 189.022 214.359Z" fill="#333333"/>
<path d="M261.244 194.752C260.341 194.569 259.397 194.472 258.424 194.472H207.014H133.742V197.171H207.028C213.257 197.178 217.952 202.181 217.952 208.811C217.952 211.988 216.852 214.926 214.859 217.081C212.845 219.255 210.059 220.452 207.011 220.452H133.738V223.151H258.424C266.2 223.151 272.061 216.985 272.061 208.811C272.061 201.659 267.574 196.043 261.241 194.752H261.244Z" fill="#333333" stroke="#F2F2F2" stroke-linecap="round" stroke-linejoin="round"/>
<path d="M317.594 195.846H457.907C465.08 195.846 468.654 201.663 468.654 208.836C468.654 216.01 465.083 221.826 457.907 221.826H317.594C320.843 213.165 320.843 204.504 317.594 195.843V195.846Z" fill="white" stroke="#333333" stroke-linecap="round" stroke-linejoin="round"/>
<path d="M386.971 202.549H326.447C326.232 202.549 326.062 202.376 326.062 202.165C326.062 201.954 326.236 201.781 326.447 201.781H386.971C387.182 201.781 387.355 201.954 387.355 202.165C387.355 202.376 387.182 202.549 386.971 202.549Z" fill="#333333"/>
<path d="M448.251 207.407H352.947C352.736 207.407 352.562 207.234 352.562 207.023C352.562 206.812 352.736 206.639 352.947 206.639H448.251C448.466 206.639 448.635 206.812 448.635 207.023C448.635 207.234 448.462 207.407 448.251 207.407Z" fill="#333333"/>
<path d="M386.971 216.459H326.447C326.232 216.459 326.062 216.286 326.062 216.075C326.062 215.864 326.236 215.691 326.447 215.691H386.971C387.182 215.691 387.355 215.864 387.355 216.075C387.355 216.286 387.182 216.459 386.971 216.459Z" fill="#333333"/>
<path d="M459.182 194.777C458.279 194.593 457.334 194.497 456.362 194.497H404.951H312.671V197.196H404.965C411.194 197.203 415.89 202.206 415.89 208.836C415.89 212.013 414.789 214.951 412.796 217.106C410.782 219.279 407.997 220.477 404.948 220.477H312.668V223.176H456.362C464.137 223.176 469.999 217.009 469.999 208.836C469.999 201.684 465.511 196.068 459.178 194.777H459.182Z" fill="#333333" stroke="#F2F2F2" stroke-linecap="round" stroke-linejoin="round"/>
<path d="M211.97 21.4978C205.997 19.0375 199.232 19.3593 193.416 22.3871C185.391 26.5603 180.785 35.391 181.958 44.3498C182.716 50.1459 185.613 55.2914 190.115 58.8417C191.869 60.2258 193.36 61.2639 194.675 62.1809C198.208 64.6447 200.156 66.0011 201.931 70.4788C202.188 71.1224 202.897 71.458 203.558 71.247L220.898 65.7104C221.005 65.6758 221.105 65.6308 221.195 65.572C221.669 65.2779 221.918 64.7 221.777 64.136C221.123 61.4923 221.039 59.558 221.493 57.461C221.78 56.1253 222.264 54.7758 222.877 53.0664C223.396 51.62 223.981 49.9798 224.59 47.9486C225.856 43.727 225.815 39.2631 224.469 35.0484C222.503 28.896 217.949 23.9546 211.973 21.4909L211.97 21.4978Z" fill="white"/>
<path d="M222.087 72.8973C221.966 72.9734 221.834 73.0357 221.693 73.0807L207.152 77.721C206.235 78.0151 205.253 77.5064 204.958 76.5895C204.664 75.6725 205.173 74.6897 206.09 74.3956L220.63 69.7553C221.547 69.4612 222.53 69.9698 222.824 70.8868C223.073 71.6619 222.748 72.4855 222.087 72.8973Z" fill="#333333"/>
<path d="M222.747 79.2991C222.626 79.3753 222.494 79.4375 222.352 79.4825L210.777 83.1782C209.86 83.4723 208.878 82.9636 208.583 82.0466C208.289 81.1296 208.798 80.1469 209.715 79.8528L221.29 76.1572C222.207 75.863 223.189 76.3717 223.484 77.2887C223.733 78.0638 223.408 78.8874 222.747 79.2991Z" fill="#333333"/>
<path d="M220.577 83.3033L214.563 85.2238C214.32 85.2999 214.12 85.4695 214.006 85.6944C213.888 85.9193 213.867 86.1823 213.943 86.4211C214.466 88.0613 216.597 88.7948 218.791 88.0924C219.238 87.9505 219.653 87.7568 220.03 87.5214C220.483 87.2377 220.878 86.8951 221.186 86.5076C221.826 85.7013 222.04 84.7566 221.774 83.9192C221.615 83.4175 221.079 83.1407 220.573 83.2998L220.577 83.3033Z" fill="#333333"/>
<path d="M193.133 44.9521C192.884 45.1078 192.603 45.2116 192.295 45.2532C191.143 45.4019 190.088 44.5922 189.939 43.4399C189.171 37.5678 192.188 31.7821 197.448 29.045C198.479 28.5086 199.749 28.91 200.285 29.9412C200.822 30.9724 200.42 32.2389 199.389 32.7787C195.693 34.7026 193.569 38.7685 194.109 42.8967C194.219 43.741 193.814 44.5334 193.136 44.9556L193.133 44.9521Z" fill="#F2F2F2"/>
<path d="M195.411 13.9264C195.249 14.0302 195.069 14.1133 194.875 14.1756C193.626 14.5735 192.29 13.8849 191.892 12.6357L188.847 3.09558C188.449 1.8464 189.138 0.51071 190.387 0.112772C191.636 -0.285166 192.972 0.403441 193.37 1.65262L196.415 11.1927C196.751 12.2482 196.311 13.3658 195.411 13.9299V13.9264Z" fill="white"/>
<path d="M213.964 13.8263C213.338 14.2173 212.542 14.3107 211.805 14.0097C210.591 13.5114 210.013 12.1273 210.511 10.9127L214.31 1.64593C214.809 0.431358 216.193 -0.146516 217.407 0.351771C218.622 0.850059 219.2 2.23419 218.702 3.44877L214.902 12.7155C214.705 13.1931 214.373 13.5737 213.964 13.8298V13.8263Z" fill="white"/>
<path d="M180.174 24.429C179.426 24.8962 178.444 24.9238 177.648 24.4221L169.184 19.0724C168.076 18.3734 167.744 16.9063 168.447 15.799C169.146 14.6916 170.613 14.3595 171.72 15.0619L180.184 20.4116C181.291 21.1106 181.624 22.5777 180.921 23.685C180.724 23.9965 180.464 24.2491 180.174 24.429Z" fill="white"/>
<path d="M302.167 58.9922C301.022 60.7916 297.426 65.6775 292.71 65.0408C292.357 64.9924 292.021 64.9267 291.703 64.8436V74.1311C292.565 74.0688 293.426 73.9477 294.278 73.8128C295.163 73.6744 296.06 73.5186 296.949 73.6294C298.333 73.7989 299.707 74.1346 301.087 74.3768H301.762L301.34 62.6428C301.326 61.276 301.78 59.9092 302.167 58.9922Z" fill="white" stroke="#333333" stroke-linecap="round" stroke-linejoin="round"/>
<path d="M301.34 62.6428L301.762 74.3768H291.703V64.8436C292.021 64.9267 292.357 64.9924 292.71 65.0408C297.426 65.6775 301.022 60.7916 302.167 58.9922C301.78 59.9092 301.326 61.276 301.34 62.6428Z" fill="white" stroke="#333333" stroke-linecap="round" stroke-linejoin="round"/>
<path d="M305.249 54.4451C305.249 55.6389 304.47 56.5109 303.948 57.4936C303.262 58.7774 302.56 58.3449 302.56 58.3449C302.56 58.3449 302.425 58.5906 302.166 58.992C301.02 60.7913 297.425 65.6773 292.708 65.0406C292.355 64.9922 292.02 64.9264 291.701 64.8434C286.836 63.5734 286.04 58.421 285.836 55.8292C285.726 54.452 285.729 51.9225 285.75 50.0262C286.061 48.8117 286.421 47.5936 287.238 47.4621C288.885 47.1992 293.387 49.9294 294.179 50.4C297.605 52.4346 299.684 52.8499 302.868 52.9398C302.875 53.1786 302.878 53.2305 302.878 53.2305C303.916 52.6734 305.242 53.0679 305.249 54.4451Z" fill="white" stroke="#333333" stroke-linecap="round" stroke-linejoin="round"/>
<path d="M308.281 66.9579C308.063 67.8368 308.236 68.7711 308.44 69.6535C308.752 70.9857 309.285 73.228 307.9 74.1277C307.527 74.3699 307.139 74.2868 306.727 74.318C305.976 74.3768 305.25 74.5983 304.495 74.6433C303.347 74.7125 302.212 74.5775 301.087 74.3768H301.762L301.34 62.6428C301.326 61.276 301.779 59.9092 302.167 58.9922C302.426 58.5908 302.561 58.3451 302.561 58.3451C302.561 58.3451 303.263 58.7776 303.949 57.4939C304.471 56.5111 305.253 55.6391 305.25 54.4453C305.243 53.0681 303.918 52.6736 302.879 53.2307C302.879 53.2307 302.876 53.1788 302.869 52.9401C299.686 52.8501 297.606 52.4349 294.18 50.4002C293.388 49.9296 288.886 47.1994 287.239 47.4624C286.422 47.5939 286.062 48.8119 285.751 50.0265C285.73 51.9227 285.727 54.4522 285.837 55.8294C286.041 58.4212 286.837 63.5737 291.703 64.8436V74.1311C290.523 74.2142 289.343 74.183 288.194 73.92C286.201 73.4633 284.294 72.1691 283.619 70.2417C282.726 67.6845 284.989 65.5045 284.384 63.0131C284.079 61.7535 282.931 60.8296 282.938 59.4939C282.938 58.8745 283.107 58.269 283.249 57.6669C283.723 55.6737 283.47 54.0508 283.273 52.0715C283.031 49.632 283.387 46.5661 284.688 44.4588C287.955 39.1749 293.471 36.5519 299.263 38.2233C303.596 39.469 306.665 42.8428 308.205 46.2028C309.817 49.722 309.16 53.4418 308.838 57.1547C308.769 57.961 308.724 58.7811 308.904 59.5666C309.118 60.4905 309.637 61.3175 309.765 62.2587C309.897 63.2276 309.603 64.2104 309.167 65.0616C308.852 65.6845 308.454 66.2727 308.281 66.9579Z" fill="#333333" stroke="#333333" stroke-linecap="round" stroke-linejoin="round"/>
<path d="M254.353 65.5709L253.802 60.9582C253.802 60.9582 250.401 56.6363 250.716 54.259C251.031 51.8818 256.076 48.5356 256.076 48.5356C256.076 48.5356 255.592 42.6081 256.425 41.262C257.259 39.9194 258.176 40.5042 258.249 41.5423C258.322 42.577 258.588 48.4907 258.823 48.8125C259.059 49.1343 260.045 51.951 260.464 53.3939C260.886 54.8369 258.512 60.3942 258.512 60.3942L259.554 64.948L254.353 65.5674V65.5709Z" fill="white" stroke="#333333" stroke-linecap="round" stroke-linejoin="round"/>
<path d="M255.095 58.4698C255.071 58.4698 255.047 58.4698 255.019 58.4629C254.77 58.4213 254.604 58.186 254.642 57.9403C254.659 57.8331 255.064 55.4627 256.414 54.2343C255.891 53.0578 255.414 51.6737 255.743 51.1131C256.03 50.6252 256.414 50.5595 256.625 50.5664C257.559 50.5906 258.552 52.1304 259.217 53.4212C259.331 53.6461 259.244 53.9194 259.023 54.0371C258.798 54.1513 258.525 54.0648 258.407 53.8433C257.604 52.2931 256.85 51.4834 256.604 51.4834C256.604 51.4834 256.604 51.4834 256.601 51.4834C256.601 51.4834 256.573 51.5076 256.528 51.5803C256.469 51.8259 256.864 53.0544 257.386 54.1824C257.48 54.3831 257.414 54.6184 257.234 54.7465C256.168 55.4974 255.649 57.4178 255.538 58.0926C255.5 58.3175 255.31 58.4732 255.089 58.4732L255.095 58.4698Z" fill="#333333"/>
<path d="M293.667 86.3566C293.546 86.4293 293.401 86.5089 293.276 86.5712L265.23 100.772L264.711 101.035C261.887 102.464 258.441 101.336 257.012 98.5128C256.707 97.9072 256.517 97.2497 256.437 96.6096L252.641 64.1828C252.382 62.0167 253.953 61.2485 256.116 60.9889C258.105 60.7467 259.614 60.6671 260.098 62.5565L266.171 86.2701L286.549 74.2697C289.885 72.3042 294.186 73.415 296.152 76.7542C298.117 80.0934 297.006 84.3912 293.667 86.3566Z" fill="#F2F2F2" stroke="#333333" stroke-linecap="round" stroke-linejoin="round"/>
<path d="M288.007 75.0764C274.231 93.7933 280.487 91.2811 280.408 109.732C280.391 113.355 279.259 132.694 279.114 136.314C278.636 148.12 303.236 136.435 315.215 136.144C315.638 120.891 310.942 102.569 310.886 88.807C310.866 83.5957 309.378 78.1077 306.45 73.7615C305.872 72.9033 305.222 72.0521 304.423 71.3842C303.322 70.4603 301.872 70.4846 300.516 70.4257C299.114 70.3669 297.723 70.2631 296.318 70.3012C293.779 70.3704 290.934 71.097 288.003 75.0764H288.007Z" fill="#F2F2F2" stroke="#333333" stroke-linecap="round" stroke-linejoin="round"/>
<path d="M291.199 245.816C288.878 245.954 286.556 246.093 284.234 246.235C284.047 242.809 283.787 239.387 283.562 235.961C285.884 235.829 288.206 235.698 290.532 235.566C290.756 238.985 291.013 242.401 291.199 245.819V245.816Z" fill="white" stroke="#333333" stroke-linecap="round" stroke-linejoin="round"/>
<path d="M279.116 136.314C278.94 153.138 280.102 166.602 279.718 184.257C279.331 201.911 281.275 219.853 282.76 238.217C285.798 238.529 288.847 237.937 291.892 237.909C293.459 218.746 294.632 203.154 293.508 183.99C295.348 168.114 296.355 152.259 298.695 136.47C292.134 136.397 279.119 136.311 279.119 136.311L279.116 136.314Z" fill="#333333" stroke="#333333" stroke-linecap="round" stroke-linejoin="round"/>
<path d="M318.984 245.262C316.669 245.408 314.354 245.543 312.043 245.688C311.845 242.269 311.558 238.854 311.312 235.435C313.634 235.304 315.956 235.169 318.278 235.037C318.507 238.446 318.78 241.854 318.984 245.266V245.262Z" fill="white" stroke="#333333" stroke-linecap="round" stroke-linejoin="round"/>
<path d="M295.176 136.31C296.096 153.044 297.899 166.003 299.522 183.599C301.145 201.195 306.131 219.635 310.225 237.681C313.246 237.902 316.149 237.151 319.121 236.999C317.972 218.147 317.554 201.783 313.695 183.395C314.256 167.695 314.221 151.799 315.218 136.144C308.571 136.058 301.858 136.68 295.176 136.31Z" fill="#333333" stroke="#333333" stroke-linecap="round" stroke-linejoin="round"/>
<path d="M280.756 248.397C279.908 248.986 278.953 249.425 277.946 249.66C277.04 249.872 272.41 249.705 271.51 249.958C270.354 250.283 269.427 251.069 268.79 252.069C267.763 253.678 267.825 255.259 267.825 255.259H292.307C294.712 253.048 291.898 244.944 291.898 244.944C291.898 244.944 288.428 246.276 284.14 244.653C283.857 244.643 282.819 246.394 282.625 246.643C282.102 247.311 281.469 247.906 280.76 248.397H280.756Z" fill="white" stroke="#333333" stroke-linecap="round" stroke-linejoin="round"/>
<path d="M308.334 248.397C307.487 248.986 306.531 249.425 305.525 249.66C304.618 249.872 299.988 249.705 299.088 249.958C297.933 250.283 297.005 251.069 296.369 252.069C295.341 253.678 295.403 255.259 295.403 255.259H319.885C322.29 253.048 319.477 244.944 319.477 244.944C319.477 244.944 316.006 246.276 311.718 244.653C311.435 244.643 310.397 246.394 310.203 246.643C309.68 247.311 309.047 247.906 308.338 248.397H308.334Z" fill="white" stroke="#333333" stroke-linecap="round" stroke-linejoin="round"/>
<path d="M312.503 167.349C313.998 166.259 315.316 164.933 316.32 163.386C317.223 161.992 318.282 160.303 318.344 158.59C318.434 156.14 317.074 153.147 317.348 151.694C317.621 150.241 317.801 147.974 317.801 147.974H312.448L312.174 148.881L308.908 158.77C308.908 158.77 308.818 159.587 309.361 159.95C309.905 160.314 311.676 157.5 311.676 157.5C311.676 157.5 311.894 161.494 310.538 163.944C310.033 164.857 310.088 165.878 310.583 166.781C310.732 167.054 310.936 167.428 311.178 167.632C311.344 167.771 311.579 167.819 311.787 167.764C311.943 167.722 312.085 167.636 312.219 167.546C312.316 167.483 312.41 167.418 312.503 167.349Z" fill="white" stroke="#333333" stroke-linecap="round" stroke-linejoin="round"/>
<path d="M310.054 150.615L310.562 130.226L310.742 121.499L310.832 117.136C310.857 116.305 310.846 115.939 310.805 115.427C310.763 114.939 310.697 114.454 310.597 113.977C310.403 113.025 310.095 112.105 309.684 111.243L307.86 107.482L304.057 99.6232L296.451 83.9064C294.59 80.055 297.662 77.1103 300.05 73.56C302.483 69.9405 308.535 73.3074 310.396 77.1587C310.504 77.3836 310.604 77.6224 310.69 77.8508L316.732 94.232L319.753 102.423L321.324 106.689C321.968 108.534 322.393 110.447 322.584 112.378C322.677 113.343 322.715 114.309 322.694 115.274C322.681 116.215 322.573 117.299 322.494 117.918L322.002 122.254L321.02 130.925L318.774 150.708C318.341 152.487 316.576 152.459 314.14 152.182C311.85 151.923 309.94 152.134 310.05 150.618L310.054 150.615Z" fill="#F2F2F2"/>
<path d="M303.715 70.9268C306.172 72.1725 309.231 74.7504 310.394 77.1588C310.501 77.3837 310.601 77.6225 310.688 77.8509L316.73 94.2321L319.751 102.423L321.322 106.689C321.965 108.534 322.391 110.447 322.581 112.378C322.675 113.343 322.713 114.309 322.692 115.274C322.678 116.216 322.571 117.299 322.491 117.918L322 122.254L321.017 130.925L318.771 150.708C318.339 152.487 316.574 152.459 314.138 152.182C311.847 151.923 309.937 152.134 310.048 150.618L310.557 130.23L310.736 121.503L310.826 117.139C310.851 116.309 310.84 115.942 310.799 115.43C310.757 114.942 310.692 114.458 310.591 113.98C310.397 113.029 310.089 112.108 309.678 111.247L307.854 107.485L304.051 99.6267L296.445 83.9099" fill="#F2F2F2"/>
<path d="M303.715 70.9268C306.172 72.1725 309.231 74.7504 310.394 77.1588C310.501 77.3837 310.601 77.6225 310.688 77.8509L316.73 94.2321L319.751 102.423L321.322 106.689C321.965 108.534 322.391 110.447 322.581 112.378C322.675 113.343 322.713 114.309 322.692 115.274C322.678 116.216 322.571 117.299 322.491 117.918L322 122.254L321.017 130.925L318.771 150.708C318.339 152.487 316.574 152.459 314.138 152.182C311.847 151.923 309.937 152.134 310.048 150.618L310.557 130.23L310.736 121.503L310.826 117.139C310.851 116.309 310.84 115.942 310.799 115.43C310.757 114.942 310.692 114.458 310.591 113.98C310.397 113.029 310.089 112.108 309.678 111.247L307.854 107.485L304.051 99.6267L296.445 83.9099" stroke="#333333" stroke-linecap="round" stroke-linejoin="round"/>
</svg>
