<svg width="471" height="224" viewBox="0 0 471 224" fill="none" xmlns="http://www.w3.org/2000/svg">
<path d="M55.6692 1.48C54.8426 1.48 54.1959 1.71333 53.7292 2.18C53.2626 2.63333 52.9159 3.36667 52.6892 4.38C52.6759 4.40667 52.6292 4.42 52.5492 4.42C52.4826 4.42 52.4492 4.4 52.4492 4.36C52.4759 4.18667 52.5026 3.94 52.5292 3.62C52.5692 3.3 52.6026 2.95333 52.6292 2.58C52.6559 2.20667 52.6759 1.84667 52.6892 1.5C52.7159 1.15333 52.7292 0.866667 52.7292 0.640001C52.7292 0.573334 52.7692 0.540001 52.8492 0.540001C52.9292 0.540001 52.9692 0.573334 52.9692 0.640001C52.9692 0.773334 53.0359 0.873334 53.1692 0.94C53.3026 0.993334 53.4559 1.03333 53.6292 1.06C53.8026 1.07333 53.9492 1.08 54.0692 1.08C55.2159 1.12 56.5559 1.14 58.0892 1.14C59.0226 1.14 59.7692 1.13333 60.3292 1.12C60.8892 1.09333 61.4292 1.08 61.9492 1.08C62.4026 1.08 62.7492 1.05333 62.9892 1C63.2426 0.933334 63.4026 0.793334 63.4692 0.58C63.4826 0.526667 63.5226 0.5 63.5892 0.5C63.6692 0.5 63.7092 0.526667 63.7092 0.58C63.6826 0.78 63.6559 1.06 63.6292 1.42C63.6159 1.78 63.5959 2.15333 63.5692 2.54C63.5559 2.92667 63.5426 3.28667 63.5292 3.62C63.5159 3.95333 63.5092 4.2 63.5092 4.36C63.5092 4.4 63.4692 4.42 63.3892 4.42C63.3226 4.42 63.2892 4.4 63.2892 4.36C63.1959 3.32 62.9292 2.58 62.4892 2.14C62.0492 1.7 61.3959 1.48 60.5292 1.48C60.0626 1.48 59.7092 1.51333 59.4692 1.58C59.2426 1.63333 59.0892 1.74667 59.0092 1.92C58.9426 2.09333 58.9092 2.36667 58.9092 2.74V11.96C58.9092 12.3467 58.9492 12.64 59.0292 12.84C59.1226 13.04 59.2959 13.1733 59.5492 13.24C59.8159 13.3067 60.2226 13.34 60.7692 13.34C60.7959 13.34 60.8092 13.38 60.8092 13.46C60.8092 13.54 60.7959 13.58 60.7692 13.58C60.4092 13.58 60.0026 13.5733 59.5492 13.56C59.1092 13.5467 58.6226 13.54 58.0892 13.54C57.5826 13.54 57.1026 13.5467 56.6492 13.56C56.2092 13.5733 55.8026 13.58 55.4292 13.58C55.3892 13.58 55.3692 13.54 55.3692 13.46C55.3692 13.38 55.3892 13.34 55.4292 13.34C55.9492 13.34 56.3426 13.3067 56.6092 13.24C56.8892 13.1733 57.0759 13.04 57.1692 12.84C57.2626 12.64 57.3092 12.3467 57.3092 11.96V2.7C57.3092 2.34 57.2692 2.07333 57.1892 1.9C57.1092 1.71333 56.9492 1.6 56.7092 1.56C56.4692 1.50667 56.1226 1.48 55.6692 1.48Z" fill="#333333"/>
<path d="M39.1198 11.3001V1.54008L39.6398 1.58008V11.3001C39.6398 11.9934 39.7665 12.5067 40.0198 12.8401C40.2732 13.1734 40.6732 13.3401 41.2198 13.3401C41.2465 13.3401 41.2598 13.3801 41.2598 13.4601C41.2598 13.5401 41.2465 13.5801 41.2198 13.5801C40.9398 13.5801 40.6532 13.5734 40.3598 13.5601C40.0798 13.5467 39.7598 13.5401 39.3998 13.5401C39.0532 13.5401 38.7132 13.5467 38.3798 13.5601C38.0465 13.5734 37.7332 13.5801 37.4398 13.5801C37.4132 13.5801 37.3998 13.5401 37.3998 13.4601C37.3998 13.3801 37.4132 13.3401 37.4398 13.3401C38.0265 13.3401 38.4532 13.1734 38.7198 12.8401C38.9865 12.5067 39.1198 11.9934 39.1198 11.3001ZM49.2398 13.8401C49.2398 13.8667 49.2065 13.8801 49.1398 13.8801C49.0865 13.8934 49.0465 13.8934 49.0198 13.8801L39.5998 2.72008C39.1332 2.17341 38.7265 1.80674 38.3798 1.62008C38.0465 1.42008 37.7132 1.32008 37.3798 1.32008C37.3532 1.32008 37.3398 1.28008 37.3398 1.20008C37.3398 1.12008 37.3532 1.08008 37.3798 1.08008C37.6332 1.08008 37.8865 1.08674 38.1398 1.10008C38.3932 1.11341 38.6265 1.12008 38.8398 1.12008C39.1598 1.12008 39.4532 1.11341 39.7198 1.10008C39.9865 1.08674 40.1865 1.08008 40.3198 1.08008C40.4932 1.08008 40.6198 1.16008 40.6998 1.32008C40.7798 1.46674 40.9732 1.73341 41.2798 2.12008L49.0798 11.5201L49.2398 13.8401ZM49.2398 3.38008V13.8401L48.7398 13.2201V3.38008C48.7398 2.68674 48.6132 2.17341 48.3598 1.84008C48.1198 1.49341 47.7265 1.32008 47.1798 1.32008C47.1532 1.32008 47.1398 1.28008 47.1398 1.20008C47.1398 1.12008 47.1532 1.08008 47.1798 1.08008C47.4598 1.08008 47.7465 1.09341 48.0398 1.12008C48.3332 1.13341 48.6532 1.14008 48.9998 1.14008C49.3332 1.14008 49.6598 1.13341 49.9798 1.12008C50.2998 1.09341 50.5998 1.08008 50.8798 1.08008C50.9065 1.08008 50.9198 1.12008 50.9198 1.20008C50.9198 1.28008 50.9065 1.32008 50.8798 1.32008C50.3198 1.32008 49.9065 1.49341 49.6398 1.84008C49.3732 2.17341 49.2398 2.68674 49.2398 3.38008Z" fill="#333333"/>
<path d="M33.7414 11.9601C33.7414 12.3467 33.7747 12.6401 33.8414 12.8401C33.9214 13.0401 34.0747 13.1734 34.3014 13.2401C34.5414 13.3067 34.8947 13.3401 35.3614 13.3401C35.3881 13.3401 35.4014 13.3801 35.4014 13.4601C35.4014 13.5401 35.3881 13.5801 35.3614 13.5801C35.0281 13.5801 34.6547 13.5734 34.2414 13.5601C33.8414 13.5467 33.4014 13.5401 32.9214 13.5401C32.4547 13.5401 32.0147 13.5467 31.6014 13.5601C31.1881 13.5734 30.8147 13.5801 30.4814 13.5801C30.4547 13.5801 30.4414 13.5401 30.4414 13.4601C30.4414 13.3801 30.4547 13.3401 30.4814 13.3401C30.9481 13.3401 31.3014 13.3067 31.5414 13.2401C31.7814 13.1734 31.9414 13.0401 32.0214 12.8401C32.1014 12.6401 32.1414 12.3467 32.1414 11.9601V2.70008C32.1414 2.31341 32.1014 2.02674 32.0214 1.84008C31.9414 1.64008 31.7814 1.50674 31.5414 1.44008C31.3014 1.36008 30.9481 1.32008 30.4814 1.32008C30.4547 1.32008 30.4414 1.28008 30.4414 1.20008C30.4414 1.12008 30.4547 1.08008 30.4814 1.08008C30.8147 1.08008 31.1881 1.09341 31.6014 1.12008C32.0147 1.13341 32.4547 1.14008 32.9214 1.14008C33.4014 1.14008 33.8481 1.13341 34.2614 1.12008C34.6747 1.09341 35.0414 1.08008 35.3614 1.08008C35.3881 1.08008 35.4014 1.12008 35.4014 1.20008C35.4014 1.28008 35.3881 1.32008 35.3614 1.32008C34.8947 1.32008 34.5481 1.36008 34.3214 1.44008C34.0947 1.52008 33.9414 1.66008 33.8614 1.86008C33.7814 2.06008 33.7414 2.35341 33.7414 2.74008V11.9601Z" fill="#333333"/>
<path d="M21.1877 13.8199C20.2277 13.8199 19.3543 13.6532 18.5677 13.3199C17.7943 12.9732 17.1277 12.4999 16.5677 11.8999C16.021 11.2999 15.5943 10.6132 15.2877 9.83986C14.9943 9.0532 14.8477 8.21986 14.8477 7.33986C14.8477 6.25986 15.0543 5.3132 15.4677 4.49986C15.8943 3.68653 16.4543 3.0132 17.1477 2.47986C17.841 1.9332 18.601 1.52653 19.4277 1.25986C20.2543 0.993196 21.0743 0.859863 21.8877 0.859863C22.8743 0.859863 23.7543 1.03986 24.5277 1.39986C25.3143 1.74653 25.981 2.21986 26.5277 2.81986C27.0743 3.41986 27.4877 4.09986 27.7677 4.85986C28.061 5.61986 28.2077 6.39986 28.2077 7.19986C28.2077 8.1332 28.021 8.99986 27.6477 9.79986C27.2743 10.5999 26.761 11.2999 26.1077 11.8999C25.4677 12.4999 24.721 12.9732 23.8677 13.3199C23.0277 13.6532 22.1343 13.8199 21.1877 13.8199ZM21.8877 13.3799C22.7277 13.3799 23.4877 13.1665 24.1677 12.7399C24.861 12.2999 25.401 11.6665 25.7877 10.8399C26.1877 9.99986 26.3877 8.9732 26.3877 7.75986C26.3877 6.51986 26.1677 5.41986 25.7277 4.45986C25.301 3.48653 24.6877 2.72653 23.8877 2.17986C23.101 1.61986 22.161 1.33986 21.0677 1.33986C19.6677 1.33986 18.581 1.8132 17.8077 2.75986C17.0477 3.70653 16.6677 4.99986 16.6677 6.63986C16.6677 7.58653 16.7877 8.4732 17.0277 9.29986C17.281 10.1132 17.641 10.8265 18.1077 11.4399C18.5743 12.0532 19.1277 12.5332 19.7677 12.8799C20.4077 13.2132 21.1143 13.3799 21.8877 13.3799Z" fill="#333333"/>
<path d="M6.55297 11.88C6.55297 12.28 6.59964 12.5867 6.69297 12.8C6.79964 13 7.01297 13.14 7.33297 13.22C7.65297 13.3 8.13297 13.34 8.77297 13.34C8.81297 13.34 8.83297 13.38 8.83297 13.46C8.83297 13.54 8.81297 13.58 8.77297 13.58C8.3463 13.58 7.87964 13.5734 7.37297 13.56C6.87964 13.5467 6.33964 13.54 5.75297 13.54C5.31297 13.54 4.87964 13.5467 4.45297 13.56C4.03964 13.5734 3.6663 13.58 3.33297 13.58C3.3063 13.58 3.29297 13.54 3.29297 13.46C3.29297 13.38 3.3063 13.34 3.33297 13.34C3.79964 13.34 4.1463 13.3067 4.37297 13.24C4.61297 13.1734 4.7663 13.04 4.83297 12.84C4.91297 12.64 4.95297 12.3467 4.95297 11.96L4.95297 2.70002C4.95297 2.31335 4.91297 2.02669 4.83297 1.84002C4.7663 1.64002 4.61297 1.50669 4.37297 1.44002C4.1463 1.36002 3.79964 1.32002 3.33297 1.32002C3.3063 1.32002 3.29297 1.28002 3.29297 1.20002C3.29297 1.12002 3.3063 1.08002 3.33297 1.08002C3.6663 1.08002 4.03964 1.09335 4.45297 1.12002C4.8663 1.13335 5.29297 1.14002 5.73297 1.14002C6.07964 1.14002 6.49964 1.12002 6.99297 1.08002C7.49964 1.04002 8.0063 1.02002 8.51297 1.02002C9.2863 1.02002 9.97964 1.13335 10.593 1.36002C11.2196 1.58669 11.7196 1.94002 12.093 2.42002C12.4663 2.90002 12.6596 3.52669 12.673 4.30002C12.673 4.99335 12.5463 5.59335 12.293 6.10002C12.0396 6.60669 11.693 7.02669 11.253 7.36002C10.8263 7.69335 10.3463 7.94002 9.81297 8.10002C9.29297 8.26002 8.77964 8.34002 8.27297 8.34002C8.11297 8.34002 7.9463 8.33335 7.77297 8.32002C7.61297 8.30669 7.45964 8.28002 7.31297 8.24002C7.25964 8.22669 7.23964 8.18002 7.25297 8.10002C7.27964 8.00669 7.31297 7.96669 7.35297 7.98002C7.47297 8.00669 7.59297 8.02669 7.71297 8.04002C7.8463 8.05335 7.95964 8.06002 8.05297 8.06002C8.55964 8.06002 9.0263 7.94002 9.45297 7.70002C9.87964 7.46002 10.2263 7.09335 10.493 6.60002C10.7596 6.09335 10.893 5.46669 10.893 4.72002C10.893 4.00002 10.7663 3.39335 10.513 2.90002C10.273 2.40669 9.93297 2.02669 9.49297 1.76002C9.05297 1.49335 8.5463 1.36002 7.97297 1.36002C7.59964 1.36002 7.3063 1.38669 7.09297 1.44002C6.89297 1.49335 6.75297 1.62002 6.67297 1.82002C6.59297 2.02002 6.55297 2.32669 6.55297 2.74002L6.55297 11.88Z" fill="#333333"/>
<path d="M39.6425 64.5035C43.9092 60.9621 47.2585 57.9541 49.6905 55.4795C52.1225 53.0048 53.8932 50.7648 55.0025 48.7595C56.1545 46.7541 56.7305 44.7701 56.7305 42.8075C56.7305 40.6741 56.1332 38.9888 54.9385 37.7515C53.7865 36.4715 52.1225 35.8315 49.9465 35.8315C45.7225 35.8315 42.7999 38.4981 41.1785 43.8315C41.1785 43.9168 41.0932 43.9595 40.9225 43.9595C40.7945 43.9595 40.6665 43.9381 40.5385 43.8955C40.4105 43.8101 40.3679 43.7461 40.4105 43.7035L42.9065 33.9755C42.9492 33.8901 43.0772 33.8688 43.2905 33.9115C43.5465 33.9541 43.6532 34.0181 43.6105 34.1035C43.5679 34.3168 43.5465 34.5728 43.5465 34.8715C43.5465 35.6395 43.9092 36.0235 44.6345 36.0235C45.0612 36.0235 45.7225 35.8741 46.6185 35.5755C47.5999 35.2341 48.4745 34.9781 49.2425 34.8075C50.0532 34.6368 50.9705 34.5515 51.9945 34.5515C54.7252 34.5515 56.9012 35.2768 58.5225 36.7275C60.1865 38.1781 61.0185 40.0768 61.0185 42.4235C61.0185 44.2581 60.4425 46.0501 59.2905 47.7995C58.1812 49.5488 56.5599 51.3835 54.4265 53.3035C52.3359 55.2235 49.0505 58.0181 44.5705 61.6875C44.3999 61.8155 44.3359 61.9221 44.3785 62.0075C44.4639 62.0928 44.6132 62.1355 44.8265 62.1355C50.5865 62.1355 54.5332 62.0715 56.6665 61.9435C58.7999 61.8155 60.2932 61.4741 61.1465 60.9195C61.9999 60.3648 62.5972 59.3835 62.9385 57.9755C62.9812 57.8901 63.1092 57.8688 63.3225 57.9115C63.5359 57.9115 63.6425 57.9541 63.6425 58.0395L62.8105 64.5675C62.8105 64.7381 62.7465 64.9088 62.6185 65.0795C62.5332 65.2075 62.4052 65.2715 62.2345 65.2715H40.0905C39.8772 65.2715 39.7065 65.1861 39.5785 65.0155C39.4932 64.8448 39.5145 64.6741 39.6425 64.5035Z" fill="#333333"/>
<path d="M18.5914 66.1037C15.6474 66.1037 13.0234 65.4424 10.7194 64.1197C8.41538 62.7544 6.60204 60.877 5.27938 58.4877C3.99937 56.0557 3.35938 53.2824 3.35938 50.1677C3.35938 47.1384 3.99937 44.4504 5.27938 42.1037C6.60204 39.757 8.41538 37.9437 10.7194 36.6637C13.066 35.341 15.7114 34.6797 18.6554 34.6797C21.5567 34.6797 24.138 35.341 26.3994 36.6637C28.7034 37.9864 30.474 39.8424 31.7114 42.2317C32.9914 44.5784 33.6314 47.2877 33.6314 50.3597C33.6314 53.4317 32.9914 56.1624 31.7114 58.5517C30.4314 60.941 28.6394 62.797 26.3354 64.1197C24.074 65.4424 21.4927 66.1037 18.5914 66.1037ZM19.3594 65.2077C22.602 65.2077 25.0127 63.9704 26.5914 61.4957C28.17 58.9784 28.9594 55.5224 28.9594 51.1277C28.9594 47.6717 28.4687 44.7704 27.4874 42.4237C26.506 40.077 25.1834 38.349 23.5194 37.2397C21.8554 36.0877 19.9994 35.5117 17.9514 35.5117C14.794 35.5117 12.3194 36.8344 10.5274 39.4797C8.73538 42.0824 7.83938 45.4957 7.83938 49.7197C7.83938 52.7064 8.30871 55.373 9.24738 57.7197C10.186 60.0664 11.53 61.901 13.2794 63.2237C15.0287 64.5464 17.0554 65.2077 19.3594 65.2077Z" fill="#333333"/>
<path d="M357.299 149.435H324.934V162.426H357.299V149.435Z" fill="#333333" stroke="#F2F2F2" stroke-linecap="round" stroke-linejoin="round"/>
<path d="M402.935 66.6643V142.83C402.935 146.479 399.977 149.437 396.328 149.437H284.395C280.745 149.437 277.785 146.479 277.785 142.83V66.6643C277.785 63.0149 280.745 60.0571 284.395 60.0571H396.328C399.977 60.0571 402.935 63.0149 402.935 66.6643Z" fill="#333333" stroke="#F2F2F2" stroke-linecap="round" stroke-linejoin="round"/>
<path d="M396.262 139.595V69.899C396.262 68.1504 394.844 66.7329 393.096 66.7329H287.628C285.879 66.7329 284.461 68.1504 284.461 69.899V139.595C284.461 141.343 285.879 142.761 287.628 142.761H393.096C394.844 142.761 396.262 141.343 396.262 139.595Z" fill="white" stroke="#333333" stroke-linecap="round" stroke-linejoin="round"/>
<path d="M374.939 169.961H307.297C307.297 167.879 308.141 165.998 309.503 164.634C310.867 163.27 312.748 162.428 314.83 162.428H367.404C371.565 162.428 374.937 165.8 374.937 169.961H374.939Z" fill="#333333" stroke="#F2F2F2" stroke-linecap="round" stroke-linejoin="round"/>
<path d="M314.255 91.5815L298.781 90.6322C299.033 86.4522 300.942 82.719 303.861 80.0791L314.255 91.5794V91.5815Z" fill="white" stroke="#333333" stroke-linecap="round" stroke-linejoin="round"/>
<path d="M314.257 76.0791V91.5811L303.863 80.0808C306.613 77.5934 310.26 76.0791 314.257 76.0791Z" fill="white" stroke="#333333" stroke-linecap="round" stroke-linejoin="round"/>
<path d="M314.256 91.5812L308.725 106.067C302.895 103.84 298.754 98.1949 298.754 91.5812C298.754 91.2633 298.763 90.9454 298.782 90.6318L314.256 91.5812Z" fill="white" stroke="#333333" stroke-linecap="round" stroke-linejoin="round"/>
<path d="M328.692 97.2479C326.43 103.007 320.82 107.084 314.258 107.084C312.309 107.084 310.445 106.723 308.727 106.068L314.258 91.5815L328.692 97.2479Z" fill="white" stroke="#333333" stroke-linecap="round" stroke-linejoin="round"/>
<path d="M334.213 88.3165C334.213 90.3162 333.835 92.2279 333.145 93.9828L318.711 88.3165V72.8145C327.273 72.8145 334.213 79.7546 334.213 88.3165Z" fill="white" stroke="#333333" stroke-linecap="round" stroke-linejoin="round"/>
<path d="M379.163 87.002H347.504C345.077 87.002 343.109 85.0344 343.109 82.6072C343.109 80.18 345.077 78.2124 347.504 78.2124H379.163C381.591 78.2124 383.558 80.18 383.558 82.6072C383.558 85.0344 381.591 87.002 379.163 87.002Z" fill="white" stroke="#333333" stroke-linecap="round" stroke-linejoin="round"/>
<path d="M344.748 92.2573H381.921C382.071 92.2574 382.191 92.38 382.191 92.5259C382.191 92.6728 382.072 92.7953 381.921 92.7954H344.748C344.598 92.7954 344.477 92.672 344.477 92.5259C344.477 92.3791 344.597 92.2573 344.748 92.2573Z" fill="white" stroke="#333333"/>
<path d="M344.748 98.0889H381.921C382.07 98.089 382.191 98.2112 382.191 98.3604C382.191 98.5084 382.073 98.6288 381.921 98.6289H344.748C344.598 98.6289 344.477 98.5063 344.477 98.3604C344.477 98.2115 344.599 98.0889 344.748 98.0889Z" fill="white" stroke="#333333"/>
<path d="M344.748 103.923H381.921C382.071 103.923 382.191 104.046 382.191 104.192C382.191 104.339 382.072 104.461 381.921 104.461H344.748C344.598 104.461 344.477 104.338 344.477 104.192C344.477 104.045 344.597 103.923 344.748 103.923Z" fill="white" stroke="#333333"/>
<path d="M349.77 120.656H344.845C344.411 120.656 344.059 121.008 344.059 121.442V133.686C344.059 134.12 344.411 134.472 344.845 134.472H349.77C350.204 134.472 350.556 134.12 350.556 133.686V121.442C350.556 121.008 350.204 120.656 349.77 120.656Z" fill="white" stroke="#333333" stroke-linecap="round" stroke-linejoin="round"/>
<path d="M360.458 113.379H355.532C355.098 113.379 354.746 113.731 354.746 114.165V133.686C354.746 134.12 355.098 134.472 355.532 134.472H360.458C360.892 134.472 361.244 134.12 361.244 133.686V114.165C361.244 113.731 360.892 113.379 360.458 113.379Z" fill="white" stroke="#333333" stroke-linecap="round" stroke-linejoin="round"/>
<path d="M371.141 118.785H366.216C365.782 118.785 365.43 119.137 365.43 119.571V133.685C365.43 134.119 365.782 134.471 366.216 134.471H371.141C371.575 134.471 371.927 134.119 371.927 133.685V119.571C371.927 119.137 371.575 118.785 371.141 118.785Z" fill="white" stroke="#333333" stroke-linecap="round" stroke-linejoin="round"/>
<path d="M381.833 110.464H376.907C376.473 110.464 376.121 110.816 376.121 111.25V133.686C376.121 134.12 376.473 134.472 376.907 134.472H381.833C382.267 134.472 382.619 134.12 382.619 133.686V111.25C382.619 110.816 382.267 110.464 381.833 110.464Z" fill="white" stroke="#333333" stroke-linecap="round" stroke-linejoin="round"/>
<path d="M298.936 110.192C299.084 110.193 299.204 110.312 299.204 110.464V134.202H332.783C332.93 134.202 333.052 134.323 333.052 134.474C333.052 134.616 332.944 134.729 332.805 134.74H298.936C298.786 134.74 298.664 134.618 298.664 134.472V110.464C298.664 110.314 298.785 110.192 298.936 110.192Z" fill="white" stroke="#333333"/>
<path d="M317.061 127.003C316.473 127.003 315.996 126.524 315.996 125.938C315.996 125.352 316.475 124.873 317.061 124.873C317.648 124.873 318.127 125.352 318.127 125.938C318.127 126.524 317.648 127.003 317.061 127.003ZM317.061 125.702C316.933 125.702 316.825 125.807 316.825 125.938C316.825 126.069 316.93 126.174 317.061 126.174C317.193 126.174 317.298 126.069 317.298 125.938C317.298 125.807 317.193 125.702 317.061 125.702Z" fill="white" stroke="#333333" stroke-miterlimit="10"/>
<path d="M310.175 117.782C309.586 117.782 309.109 117.303 309.109 116.717C309.109 116.13 309.588 115.651 310.175 115.651C310.761 115.651 311.24 116.13 311.24 116.717C311.24 117.303 310.761 117.782 310.175 117.782ZM310.175 116.48C310.046 116.48 309.939 116.586 309.939 116.717C309.939 116.848 310.044 116.953 310.175 116.953C310.306 116.953 310.411 116.848 310.411 116.717C310.411 116.586 310.306 116.48 310.175 116.48Z" fill="white" stroke="#333333" stroke-miterlimit="10"/>
<path d="M303.284 124.086C302.696 124.086 302.219 123.607 302.219 123.021C302.219 122.435 302.698 121.956 303.284 121.956C303.871 121.956 304.35 122.435 304.35 123.021C304.35 123.607 303.871 124.086 303.284 124.086ZM303.284 122.785C303.153 122.785 303.048 122.89 303.048 123.021C303.048 123.152 303.153 123.257 303.284 123.257C303.415 123.257 303.52 123.152 303.52 123.021C303.52 122.89 303.415 122.785 303.284 122.785Z" fill="white" stroke="#333333" stroke-miterlimit="10"/>
<path d="M323.948 121.425C323.36 121.425 322.883 120.946 322.883 120.359C322.883 119.773 323.362 119.294 323.948 119.294C324.535 119.294 325.014 119.773 325.014 120.359C325.014 120.946 324.535 121.425 323.948 121.425ZM323.948 120.123C323.819 120.123 323.712 120.228 323.712 120.359C323.712 120.49 323.817 120.596 323.948 120.596C324.079 120.596 324.185 120.49 324.185 120.359C324.185 120.228 324.079 120.123 323.948 120.123Z" fill="white" stroke="#333333" stroke-miterlimit="10"/>
<path d="M330.843 118.693C330.254 118.693 329.777 118.214 329.777 117.627C329.777 117.041 330.256 116.562 330.843 116.562C331.429 116.562 331.908 117.041 331.908 117.627C331.908 118.214 331.429 118.693 330.843 118.693ZM330.843 117.391C330.714 117.391 330.606 117.496 330.606 117.627C330.606 117.758 330.712 117.864 330.843 117.864C330.974 117.864 331.079 117.758 331.079 117.627C331.079 117.496 330.974 117.391 330.843 117.391Z" fill="white" stroke="#333333" stroke-miterlimit="10"/>
<path d="M317.066 126.202C317.055 126.202 317.044 126.202 317.034 126.202C316.963 126.193 316.896 126.154 316.853 126.096L310.141 117.111L303.469 123.216C303.362 123.315 303.192 123.308 303.093 123.199C302.994 123.089 303.001 122.922 303.11 122.823L309.999 116.518C310.055 116.467 310.13 116.443 310.203 116.45C310.278 116.456 310.347 116.495 310.392 116.555L317.115 125.553L323.789 120.151C323.811 120.134 323.832 120.121 323.858 120.11L330.746 117.345C330.882 117.292 331.038 117.356 331.092 117.494C331.148 117.631 331.081 117.786 330.944 117.84L324.092 120.589L317.233 126.141C317.186 126.18 317.126 126.202 317.066 126.202Z" fill="white" stroke="#333333" stroke-miterlimit="10"/>
<path d="M442.981 140.184H442.755L443.057 134.713C443.182 132.423 441.4 130.496 439.155 130.496H417.835C415.589 130.496 413.805 132.423 413.932 134.713L415.668 166.213C415.785 168.329 417.497 169.982 419.57 169.982H437.419C439.492 169.982 441.205 168.329 441.321 166.213L441.549 162.105H442.981C447.412 162.105 451.019 158.422 451.019 153.893V148.396C451.019 143.867 447.412 140.184 442.981 140.184ZM447.331 153.893C447.331 156.345 445.379 158.337 442.981 158.337H441.755L442.547 143.951H442.981C445.379 143.951 447.331 145.946 447.331 148.396V153.893Z" fill="#333333" stroke="#333333" stroke-linecap="round" stroke-linejoin="round"/>
<path d="M404.457 169.983H382.709C381.859 169.983 381.338 169.098 381.775 168.406C385.12 163.094 387.187 162.803 393.581 162.803C399.974 162.803 402.046 163.094 405.391 168.406C405.827 169.1 405.305 169.983 404.457 169.983Z" fill="white" stroke="#333333" stroke-linecap="round" stroke-linejoin="round"/>
<path d="M281.105 162.803H352.924C354.23 162.803 355.292 163.818 355.292 165.07V167.715C355.292 168.965 354.232 169.983 352.924 169.983H281.105V162.805V162.803Z" fill="white" stroke="#333333" stroke-linecap="round" stroke-linejoin="round"/>
<path d="M451.513 173.953H437.633V222.735H451.513V173.953Z" fill="white" stroke="#333333" stroke-linecap="round" stroke-linejoin="round"/>
<path d="M462.944 169.961H208.791C204.894 169.961 201.734 173.12 201.734 177.017V177.337C201.734 181.234 204.894 184.393 208.791 184.393H462.944C466.841 184.393 470 181.234 470 177.337V177.017C470 173.12 466.841 169.961 462.944 169.961Z" fill="white" stroke="#333333" stroke-linecap="round" stroke-linejoin="round"/>
<path d="M263.523 155.301C263.523 155.301 272.062 150.062 279.825 151.613C287.587 153.166 299.036 158.405 299.036 158.405C299.036 158.405 300.492 161.218 295.155 160.151C289.817 159.083 287.198 159.18 287.198 159.18C287.198 159.18 283.152 159.429 277.679 163.195C271.589 167.381 266.273 166.292 266.273 166.292C266.38 162.11 266.853 158.884 263.523 155.301Z" fill="white" stroke="#333333" stroke-linecap="round" stroke-linejoin="round"/>
<path d="M189.566 91.2888L239.91 159.09L227.557 154.474L262.024 153.084C270.865 153.415 273.872 157.039 274.334 162.681C274.746 167.716 268.708 170.663 263.985 171.9L231.975 180.312C227.774 181.416 223.502 179.99 220.774 176.976L219.622 175.696L163.094 112.958C156.764 105.932 157.327 95.1037 164.353 88.7736C171.379 82.4435 182.207 83.0062 188.537 90.0323C188.895 90.4318 189.248 90.8657 189.564 91.2867L189.566 91.2888Z" fill="white" stroke="#333333" stroke-linecap="round" stroke-linejoin="round"/>
<path d="M295.981 159.29C295.554 158.718 295.738 157.898 296.374 157.571C299.027 156.203 305.454 153.381 311.423 154.575C318.204 155.93 327.799 160.102 330.117 161.135C330.613 161.356 330.916 161.897 330.781 162.424C330.609 163.087 329.756 163.715 326.755 163.115C321.418 162.048 318.799 162.144 318.799 162.144C318.799 162.144 314.752 162.394 309.279 166.159C304.893 169.177 300.904 169.454 299.018 169.372C298.381 169.344 297.884 168.812 297.906 168.176C298.02 164.894 298.131 162.17 295.983 159.294L295.981 159.29Z" fill="white" stroke="#333333" stroke-linecap="round" stroke-linejoin="round"/>
<path d="M197.791 56.043H172.711V91.4825H197.791V56.043Z" fill="white" stroke="#333333" stroke-linecap="round" stroke-linejoin="round"/>
<path d="M185.326 67.9275C190.41 69.2055 195.832 68.4065 200.239 65.569C206.735 61.389 211.869 53.4565 212.442 43.5586L212.648 27.1309C212.807 14.5029 201.853 4.1281 188.183 3.95626C174.513 3.78442 163.303 13.8821 163.144 26.5101L162.938 42.9379C164.239 44.5918 164.482 50.6878 169.899 57.8062C173.729 62.8389 179.191 66.3874 185.326 67.9275Z" fill="white"/>
<path d="M188.52 68.4534C192.614 68.7842 196.745 67.8176 200.239 65.5665C206.735 61.3866 211.869 53.4541 212.442 43.5562L212.648 27.1284C212.807 14.5004 201.853 4.12566 188.183 3.95382C174.513 3.78198 163.303 13.8796 163.144 26.5076L162.938 42.9354C164.239 44.5893 164.482 50.6853 169.899 57.8037" fill="white"/>
<path d="M188.52 68.4534C192.614 68.7842 196.745 67.8176 200.239 65.5665C206.735 61.3866 211.869 53.4541 212.442 43.5562L212.648 27.1284C212.807 14.5004 201.853 4.12566 188.183 3.95382C174.513 3.78198 163.303 13.8796 163.144 26.5076L162.938 42.9354C164.239 44.5893 164.482 50.6853 169.899 57.8037" stroke="#333333" stroke-linecap="round" stroke-linejoin="round"/>
<path d="M174.982 78.6396C157.407 78.6396 137.865 89.9832 136.301 215.208C136.25 219.328 139.577 222.694 143.695 222.694H238.043C238.043 222.694 237.772 94.423 200.64 79.1681C199.768 78.8093 198.831 78.6396 197.89 78.6396H174.982Z" fill="#F2F2F2" stroke="#333333" stroke-linecap="round" stroke-linejoin="round"/>
<path d="M172.232 64.0567C171.131 59.6082 167.629 57.327 165.065 53.6626C160.797 47.5644 158.99 39.7802 158.245 32.477C156.92 19.5096 164.916 7.29192 177.012 2.45251C182.465 0.270162 187.687 0.502146 193.418 0.682577C199.271 0.865155 208.774 -1.48258 210.394 6.59813C211.749 6.30386 213.175 7.01054 214.062 8.07594C219.619 14.7562 213.177 23.202 206.529 25.5498C204.061 26.4219 201.46 27.1285 199.398 28.7417C196.144 31.2892 194.215 35.1298 193.296 39.1572C193.296 39.1572 191.145 38.3088 190.063 38.3926C187.249 38.6117 185.945 40.5556 186.1 43.348C186.306 47.0747 190.183 48.0284 190.587 51.1451C191.487 58.0788 184.175 63.9579 179.501 64.6409C178.857 64.7354 172.355 64.5378 172.237 64.0588L172.232 64.0567Z" fill="#333333" stroke="#333333" stroke-linecap="round" stroke-linejoin="round"/>
<path d="M216.849 93.8573C219.557 98.1082 222.494 102.144 225.172 106.417C227.855 110.685 230.512 114.97 233.169 119.257L241.112 132.134C241.112 132.134 247.569 142.524 247.642 142.638C253.128 151.464 254.381 155.764 265.462 156.269C269.644 156.46 273.831 156.488 278.017 156.52C281.946 156.551 285.93 156.804 289.85 156.458C295.227 155.983 299.845 160.49 301.058 165.454C301.436 167 302.173 169.451 301.329 170.931C300.753 171.943 299.583 172.57 298.59 173.088C296.331 174.267 293.878 175.105 291.476 175.938C286.691 177.596 281.769 178.797 276.902 180.159L269.593 182.152L267.762 182.64L267.535 182.7L267.421 182.73C267.389 182.739 267.309 182.756 267.256 182.767L266.532 182.919L265.077 183.207C264.59 183.291 264.096 183.344 263.604 183.409C263.11 183.465 262.618 183.542 262.122 183.568L260.629 183.647C260.38 183.658 260.131 183.669 259.882 183.673L259.134 183.66L257.635 183.615C257.136 183.591 256.638 183.533 256.14 183.486C255.644 183.43 255.141 183.396 254.647 183.31C254.153 183.231 253.657 183.145 253.163 183.057C252.916 183.009 252.666 182.971 252.422 182.917L251.689 182.741C251.202 182.623 250.712 182.498 250.224 182.371C249.741 182.234 249.262 182.073 248.783 181.918C248.306 181.755 247.818 181.613 247.354 181.418C243.585 179.966 240.041 177.85 236.941 175.169C236.563 174.826 236.187 174.478 235.813 174.125C235.442 173.773 235.062 173.425 234.718 173.045C234.02 172.293 233.307 171.548 232.682 170.734C232.359 170.332 232.042 169.928 231.728 169.52L231.133 168.749L229.979 167.25L225.372 161.248L216.183 149.226L207.037 137.174C203.997 133.15 200.958 129.127 197.944 125.085C194.927 121.046 191.896 117.017 188.908 112.957C183.304 105.345 183.222 86.8291 190.833 81.2251C198.445 75.621 207.116 79.6377 216.2 92.9058C216.411 93.2129 216.653 93.548 216.853 93.8573H216.849Z" fill="#F2F2F2"/>
<path d="M197.941 125.085C200.954 129.127 203.994 133.15 207.033 137.174L216.179 149.226L225.368 161.248L229.976 167.25L231.129 168.749L231.724 169.52C232.04 169.928 232.358 170.332 232.678 170.734C233.303 171.548 234.016 172.293 234.714 173.045C235.058 173.425 235.438 173.773 235.809 174.125C236.183 174.478 236.559 174.823 236.937 175.169C240.037 177.848 243.581 179.966 247.351 181.418C247.817 181.613 248.302 181.755 248.779 181.918C249.26 182.073 249.737 182.234 250.22 182.371C250.708 182.498 251.195 182.623 251.685 182.741L252.418 182.917C252.663 182.973 252.912 183.012 253.159 183.057C253.653 183.145 254.149 183.231 254.643 183.31C255.137 183.396 255.638 183.43 256.136 183.486C256.634 183.531 257.13 183.591 257.631 183.615L259.13 183.66L259.878 183.673C260.127 183.669 260.376 183.658 260.625 183.647L262.118 183.568C262.614 183.542 263.106 183.465 263.6 183.409C264.092 183.344 264.586 183.289 265.074 183.207L266.528 182.919L267.252 182.767C267.305 182.754 267.387 182.739 267.417 182.73L267.531 182.7L267.759 182.64L269.589 182.152L276.898 180.159C281.766 178.797 286.687 177.596 291.472 175.938C293.874 175.105 296.327 174.267 298.586 173.088C299.579 172.57 300.749 171.941 301.325 170.931C302.169 169.451 301.432 167 301.054 165.454C299.841 160.49 295.223 155.983 289.846 156.458C285.928 156.804 281.944 156.553 278.013 156.52C273.829 156.488 269.64 156.46 265.458 156.269C254.377 155.762 253.122 151.464 247.638 142.638C247.568 142.522 241.109 132.134 241.109 132.134L233.165 119.257C230.508 114.972 227.851 110.685 225.168 106.417C222.49 102.144 219.554 98.1082 216.845 93.8574C216.647 93.5481 216.402 93.213 216.192 92.9058C209.379 82.9542 202.005 78.5895 195.846 78.6411H192.848" fill="#F2F2F2"/>
<path d="M197.941 125.085C200.954 129.127 203.994 133.15 207.033 137.174L216.179 149.226L225.368 161.248L229.976 167.25L231.129 168.749L231.724 169.52C232.04 169.928 232.358 170.332 232.678 170.734C233.303 171.548 234.016 172.293 234.714 173.045C235.058 173.425 235.438 173.773 235.809 174.125C236.183 174.478 236.559 174.823 236.937 175.169C240.037 177.848 243.581 179.966 247.351 181.418C247.817 181.613 248.302 181.755 248.779 181.918C249.26 182.073 249.737 182.234 250.22 182.371C250.708 182.498 251.195 182.623 251.685 182.741L252.418 182.917C252.663 182.973 252.912 183.012 253.159 183.057C253.653 183.145 254.149 183.231 254.643 183.31C255.137 183.396 255.638 183.43 256.136 183.486C256.634 183.531 257.13 183.591 257.631 183.615L259.13 183.66L259.878 183.673C260.127 183.669 260.376 183.658 260.625 183.647L262.118 183.568C262.614 183.542 263.106 183.465 263.6 183.409C264.092 183.344 264.586 183.289 265.074 183.207L266.528 182.919L267.252 182.767C267.305 182.754 267.387 182.739 267.417 182.73L267.531 182.7L267.759 182.64L269.589 182.152L276.898 180.159C281.766 178.797 286.687 177.596 291.472 175.938C293.874 175.105 296.327 174.267 298.586 173.088C299.579 172.57 300.749 171.941 301.325 170.931C302.169 169.451 301.432 167 301.054 165.454C299.841 160.49 295.223 155.983 289.846 156.458C285.928 156.804 281.944 156.553 278.013 156.52C273.829 156.488 269.64 156.46 265.458 156.269C254.377 155.762 253.122 151.464 247.638 142.638C247.568 142.522 241.109 132.134 241.109 132.134L233.165 119.257C230.508 114.972 227.851 110.685 225.168 106.417C222.49 102.144 219.554 98.1082 216.845 93.8574C216.647 93.5481 216.402 93.213 216.192 92.9058C209.379 82.9542 202.005 78.5895 195.846 78.6411H192.848" stroke="#333333" stroke-linecap="round" stroke-linejoin="round"/>
<path d="M124.083 222.631C118.055 200.545 111.63 178.543 110.208 155.55C109.171 138.784 111.445 117.607 130.005 111.43C153.687 103.552 183.637 114.938 190.264 139.39C195.394 158.318 197.683 177.529 198.907 197.049C199.064 199.561 200.938 222.631 200.938 222.631H124.085H124.083Z" fill="#333333" stroke="#333333" stroke-linecap="round" stroke-linejoin="round"/>
</svg>
