<svg width="350" height="278" viewBox="0 0 350 278" fill="none" xmlns="http://www.w3.org/2000/svg">
<path d="M4 11.3801C4 11.7801 4.04667 12.0867 4.14 12.3001C4.24667 12.5001 4.46 12.6401 4.78 12.7201C5.1 12.8001 5.58 12.8401 6.22 12.8401C6.26 12.8401 6.28 12.8801 6.28 12.9601C6.28 13.0401 6.26 13.0801 6.22 13.0801C5.79333 13.0801 5.32667 13.0734 4.82 13.0601C4.32667 13.0467 3.78667 13.0401 3.2 13.0401C2.76 13.0401 2.32667 13.0467 1.9 13.0601C1.48667 13.0734 1.11333 13.0801 0.78 13.0801C0.753333 13.0801 0.74 13.0401 0.74 12.9601C0.74 12.8801 0.753333 12.8401 0.78 12.8401C1.24667 12.8401 1.59333 12.8067 1.82 12.7401C2.06 12.6734 2.21333 12.5401 2.28 12.3401C2.36 12.1401 2.4 11.8467 2.4 11.4601L2.4 2.20008C2.4 1.81341 2.36 1.52674 2.28 1.34008C2.21333 1.14008 2.06 1.00674 1.82 0.940077C1.59333 0.860077 1.24667 0.820077 0.78 0.820077C0.753333 0.820077 0.74 0.780078 0.74 0.700078C0.74 0.620078 0.753333 0.580078 0.78 0.580078C1.11333 0.580078 1.48667 0.593411 1.9 0.620078C2.31333 0.633411 2.74 0.640077 3.18 0.640077C3.52667 0.640077 3.94667 0.620078 4.44 0.580078C4.94667 0.540078 5.45333 0.520078 5.96 0.520078C6.73333 0.520078 7.42667 0.633411 8.04 0.860078C8.66667 1.08674 9.16667 1.44008 9.54 1.92008C9.91333 2.40008 10.1067 3.02674 10.12 3.80008C10.12 4.49341 9.99333 5.09341 9.74 5.60008C9.48667 6.10674 9.14 6.52674 8.7 6.86008C8.27333 7.19341 7.79333 7.44008 7.26 7.60008C6.74 7.76008 6.22667 7.84008 5.72 7.84008C5.56 7.84008 5.39333 7.83341 5.22 7.82008C5.06 7.80674 4.90667 7.78008 4.76 7.74008C4.70667 7.72674 4.68667 7.68008 4.7 7.60008C4.72667 7.50674 4.76 7.46674 4.8 7.48008C4.92 7.50674 5.04 7.52674 5.16 7.54008C5.29333 7.55341 5.40667 7.56008 5.5 7.56008C6.00667 7.56008 6.47333 7.44008 6.9 7.20008C7.32667 6.96008 7.67333 6.59341 7.94 6.10008C8.20667 5.59341 8.34 4.96674 8.34 4.22008C8.34 3.50008 8.21333 2.89341 7.96 2.40008C7.72 1.90674 7.38 1.52674 6.94 1.26008C6.5 0.993411 5.99333 0.860078 5.42 0.860078C5.04667 0.860078 4.75333 0.886744 4.54 0.940077C4.34 0.993411 4.2 1.12008 4.12 1.32008C4.04 1.52008 4 1.82674 4 2.24008L4 11.3801ZM18.638 13.3201C17.678 13.3201 16.8046 13.1534 16.018 12.8201C15.2446 12.4734 14.578 12.0001 14.018 11.4001C13.4713 10.8001 13.0446 10.1134 12.738 9.34008C12.4446 8.55341 12.298 7.72008 12.298 6.84008C12.298 5.76008 12.5046 4.81341 12.918 4.00008C13.3446 3.18674 13.9046 2.51341 14.598 1.98008C15.2913 1.43341 16.0513 1.02674 16.878 0.760077C17.7046 0.493411 18.5246 0.360077 19.338 0.360077C20.3246 0.360077 21.2046 0.540077 21.978 0.900078C22.7646 1.24674 23.4313 1.72008 23.978 2.32008C24.5246 2.92008 24.938 3.60008 25.218 4.36008C25.5113 5.12008 25.658 5.90008 25.658 6.70008C25.658 7.63341 25.4713 8.50008 25.098 9.30008C24.7246 10.1001 24.2113 10.8001 23.558 11.4001C22.918 12.0001 22.1713 12.4734 21.318 12.8201C20.478 13.1534 19.5846 13.3201 18.638 13.3201ZM19.338 12.8801C20.178 12.8801 20.938 12.6667 21.618 12.2401C22.3113 11.8001 22.8513 11.1667 23.238 10.3401C23.638 9.50008 23.838 8.47341 23.838 7.26008C23.838 6.02008 23.618 4.92008 23.178 3.96008C22.7513 2.98674 22.138 2.22674 21.338 1.68008C20.5513 1.12008 19.6113 0.840077 18.518 0.840077C17.118 0.840077 16.0313 1.31341 15.258 2.26008C14.498 3.20674 14.118 4.50008 14.118 6.14008C14.118 7.08674 14.238 7.97341 14.478 8.80008C14.7313 9.61341 15.0913 10.3267 15.558 10.9401C16.0246 11.5534 16.578 12.0334 17.218 12.3801C17.858 12.7134 18.5646 12.8801 19.338 12.8801ZM31.1905 11.4601C31.1905 11.8467 31.2238 12.1401 31.2905 12.3401C31.3705 12.5401 31.5238 12.6734 31.7505 12.7401C31.9905 12.8067 32.3438 12.8401 32.8105 12.8401C32.8371 12.8401 32.8505 12.8801 32.8505 12.9601C32.8505 13.0401 32.8371 13.0801 32.8105 13.0801C32.4771 13.0801 32.1038 13.0734 31.6905 13.0601C31.2905 13.0467 30.8505 13.0401 30.3705 13.0401C29.9038 13.0401 29.4638 13.0467 29.0505 13.0601C28.6371 13.0734 28.2638 13.0801 27.9305 13.0801C27.9038 13.0801 27.8905 13.0401 27.8905 12.9601C27.8905 12.8801 27.9038 12.8401 27.9305 12.8401C28.3971 12.8401 28.7505 12.8067 28.9905 12.7401C29.2305 12.6734 29.3905 12.5401 29.4705 12.3401C29.5505 12.1401 29.5905 11.8467 29.5905 11.4601L29.5905 2.20008C29.5905 1.81341 29.5505 1.52674 29.4705 1.34008C29.3905 1.14008 29.2305 1.00674 28.9905 0.940077C28.7505 0.860077 28.3971 0.820077 27.9305 0.820077C27.9038 0.820077 27.8905 0.780078 27.8905 0.700078C27.8905 0.620078 27.9038 0.580078 27.9305 0.580078C28.2638 0.580078 28.6371 0.593411 29.0505 0.620078C29.4638 0.633411 29.9038 0.640077 30.3705 0.640077C30.8505 0.640077 31.2971 0.633411 31.7105 0.620078C32.1238 0.593411 32.4905 0.580078 32.8105 0.580078C32.8371 0.580078 32.8505 0.620078 32.8505 0.700078C32.8505 0.780078 32.8371 0.820077 32.8105 0.820077C32.3438 0.820077 31.9971 0.860077 31.7705 0.940077C31.5438 1.02008 31.3905 1.16008 31.3105 1.36008C31.2305 1.56008 31.1905 1.85341 31.1905 2.24008L31.1905 11.4601ZM36.5697 10.8001V1.04008L37.0897 1.08008V10.8001C37.0897 11.4934 37.2164 12.0067 37.4697 12.3401C37.723 12.6734 38.123 12.8401 38.6697 12.8401C38.6964 12.8401 38.7097 12.8801 38.7097 12.9601C38.7097 13.0401 38.6964 13.0801 38.6697 13.0801C38.3897 13.0801 38.103 13.0734 37.8097 13.0601C37.5297 13.0467 37.2097 13.0401 36.8497 13.0401C36.503 13.0401 36.163 13.0467 35.8297 13.0601C35.4964 13.0734 35.183 13.0801 34.8897 13.0801C34.863 13.0801 34.8497 13.0401 34.8497 12.9601C34.8497 12.8801 34.863 12.8401 34.8897 12.8401C35.4764 12.8401 35.903 12.6734 36.1697 12.3401C36.4364 12.0067 36.5697 11.4934 36.5697 10.8001ZM46.6897 13.3401C46.6897 13.3667 46.6564 13.3801 46.5897 13.3801C46.5364 13.3934 46.4964 13.3934 46.4697 13.3801L37.0497 2.22008C36.583 1.67341 36.1764 1.30674 35.8297 1.12008C35.4964 0.920077 35.163 0.820077 34.8297 0.820077C34.803 0.820077 34.7897 0.780078 34.7897 0.700078C34.7897 0.620078 34.803 0.580078 34.8297 0.580078C35.083 0.580078 35.3364 0.586745 35.5897 0.600078C35.843 0.613411 36.0764 0.620078 36.2897 0.620078C36.6097 0.620078 36.903 0.613411 37.1697 0.600078C37.4364 0.586745 37.6364 0.580078 37.7697 0.580078C37.943 0.580078 38.0697 0.660078 38.1497 0.820077C38.2297 0.966744 38.423 1.23341 38.7297 1.62008L46.5297 11.0201L46.6897 13.3401ZM46.6897 2.88008V13.3401L46.1897 12.7201V2.88008C46.1897 2.18674 46.063 1.67341 45.8097 1.34008C45.5697 0.993411 45.1764 0.820077 44.6297 0.820077C44.603 0.820077 44.5897 0.780078 44.5897 0.700078C44.5897 0.620078 44.603 0.580078 44.6297 0.580078C44.9097 0.580078 45.1964 0.593411 45.4897 0.620078C45.783 0.633411 46.103 0.640077 46.4497 0.640077C46.783 0.640077 47.1097 0.633411 47.4297 0.620078C47.7497 0.593411 48.0497 0.580078 48.3297 0.580078C48.3564 0.580078 48.3697 0.620078 48.3697 0.700078C48.3697 0.780078 48.3564 0.820077 48.3297 0.820077C47.7697 0.820077 47.3564 0.993411 47.0897 1.34008C46.823 1.67341 46.6897 2.18674 46.6897 2.88008ZM53.1191 0.980078C52.2924 0.980078 51.6457 1.21341 51.1791 1.68008C50.7124 2.13341 50.3657 2.86674 50.1391 3.88008C50.1257 3.90674 50.0791 3.92008 49.9991 3.92008C49.9324 3.92008 49.8991 3.90008 49.8991 3.86008C49.9257 3.68674 49.9524 3.44008 49.9791 3.12008C50.0191 2.80008 50.0524 2.45341 50.0791 2.08008C50.1057 1.70674 50.1257 1.34674 50.1391 1.00008C50.1657 0.653411 50.1791 0.366744 50.1791 0.140078C50.1791 0.0734112 50.2191 0.0400779 50.2991 0.0400779C50.3791 0.0400779 50.4191 0.0734112 50.4191 0.140078C50.4191 0.273411 50.4857 0.373411 50.6191 0.440078C50.7524 0.493411 50.9057 0.533411 51.0791 0.560077C51.2524 0.573411 51.3991 0.580078 51.5191 0.580078C52.6657 0.620078 54.0057 0.640077 55.5391 0.640077C56.4724 0.640077 57.2191 0.633411 57.7791 0.620078C58.3391 0.593411 58.8791 0.580078 59.3991 0.580078C59.8524 0.580078 60.1991 0.553411 60.4391 0.500078C60.6924 0.433411 60.8524 0.293411 60.9191 0.0800774C60.9324 0.026744 60.9724 7.72476e-05 61.0391 7.72476e-05C61.1191 7.72476e-05 61.1591 0.026744 61.1591 0.0800774C61.1324 0.280077 61.1057 0.560077 61.0791 0.920077C61.0657 1.28008 61.0457 1.65341 61.0191 2.04008C61.0057 2.42674 60.9924 2.78674 60.9791 3.12008C60.9657 3.45341 60.9591 3.70008 60.9591 3.86008C60.9591 3.90008 60.9191 3.92008 60.8391 3.92008C60.7724 3.92008 60.7391 3.90008 60.7391 3.86008C60.6457 2.82008 60.3791 2.08008 59.9391 1.64008C59.4991 1.20008 58.8457 0.980078 57.9791 0.980078C57.5124 0.980078 57.1591 1.01341 56.9191 1.08008C56.6924 1.13341 56.5391 1.24674 56.4591 1.42008C56.3924 1.59341 56.3591 1.86674 56.3591 2.24008V11.4601C56.3591 11.8467 56.3991 12.1401 56.4791 12.3401C56.5724 12.5401 56.7457 12.6734 56.9991 12.7401C57.2657 12.8067 57.6724 12.8401 58.2191 12.8401C58.2457 12.8401 58.2591 12.8801 58.2591 12.9601C58.2591 13.0401 58.2457 13.0801 58.2191 13.0801C57.8591 13.0801 57.4524 13.0734 56.9991 13.0601C56.5591 13.0467 56.0724 13.0401 55.5391 13.0401C55.0324 13.0401 54.5524 13.0467 54.0991 13.0601C53.6591 13.0734 53.2524 13.0801 52.8791 13.0801C52.8391 13.0801 52.8191 13.0401 52.8191 12.9601C52.8191 12.8801 52.8391 12.8401 52.8791 12.8401C53.3991 12.8401 53.7924 12.8067 54.0591 12.7401C54.3391 12.6734 54.5257 12.5401 54.6191 12.3401C54.7124 12.1401 54.7591 11.8467 54.7591 11.4601V2.20008C54.7591 1.84008 54.7191 1.57341 54.6391 1.40008C54.5591 1.21341 54.3991 1.10008 54.1591 1.06008C53.9191 1.00674 53.5724 0.980078 53.1191 0.980078Z" fill="#333333"/>
<path d="M17.6 63.9121C14.656 63.9121 12.032 63.2507 9.728 61.9281C7.424 60.5627 5.61067 58.6854 4.288 56.2961C3.008 53.8641 2.368 51.0907 2.368 47.9761C2.368 44.9467 3.008 42.2587 4.288 39.9121C5.61067 37.5654 7.424 35.7521 9.728 34.4721C12.0747 33.1494 14.72 32.4881 17.664 32.4881C20.5653 32.4881 23.1467 33.1494 25.408 34.4721C27.712 35.7947 29.4827 37.6507 30.72 40.0401C32 42.3867 32.64 45.0961 32.64 48.1681C32.64 51.2401 32 53.9707 30.72 56.3601C29.44 58.7494 27.648 60.6054 25.344 61.9281C23.0827 63.2507 20.5013 63.9121 17.6 63.9121ZM18.368 63.0161C21.6107 63.0161 24.0213 61.7787 25.6 59.3041C27.1787 56.7867 27.968 53.3307 27.968 48.9361C27.968 45.4801 27.4773 42.5787 26.496 40.2321C25.5147 37.8854 24.192 36.1574 22.528 35.0481C20.864 33.8961 19.008 33.3201 16.96 33.3201C13.8027 33.3201 11.328 34.6427 9.536 37.2881C7.744 39.8907 6.848 43.3041 6.848 47.5281C6.848 50.5147 7.31733 53.1814 8.256 55.5281C9.19467 57.8747 10.5387 59.7094 12.288 61.0321C14.0373 62.3547 16.064 63.0161 18.368 63.0161ZM39.672 63.0801C39.544 63.0801 39.48 62.9521 39.48 62.6961C39.48 62.4401 39.544 62.3121 39.672 62.3121C41.4213 62.3121 42.7013 62.2054 43.512 61.9921C44.3653 61.7361 44.9413 61.3094 45.24 60.7121C45.5813 60.1147 45.752 59.1761 45.752 57.8961L45.752 40.5521C45.752 38.9734 45.6453 37.8641 45.432 37.2241C45.2187 36.5841 44.7707 36.2641 44.088 36.2641C43.32 36.2641 41.848 36.7547 39.672 37.7361H39.608C39.3947 37.7361 39.2453 37.6294 39.16 37.4161C39.0747 37.2027 39.1173 37.0747 39.288 37.0321L48.952 32.4881C48.9947 32.4454 49.0587 32.4241 49.144 32.4241C49.2293 32.4241 49.3147 32.4881 49.4 32.6161C49.4853 32.7014 49.528 32.8081 49.528 32.9361L49.528 57.8961C49.528 59.2187 49.656 60.1787 49.912 60.7761C50.2107 61.3734 50.7867 61.7787 51.64 61.9921C52.4933 62.2054 53.8373 62.3121 55.672 62.3121C55.7573 62.3121 55.8 62.4401 55.8 62.6961C55.8 62.9521 55.7573 63.0801 55.672 63.0801C54.264 63.0801 53.176 63.0587 52.408 63.0161L47.672 62.9521L43 63.0161C42.1893 63.0587 41.08 63.0801 39.672 63.0801Z" fill="#333333"/>
<path d="M252.302 261.98C249.545 247.353 248.213 233.62 246.044 218.896C244.076 205.546 242.878 188.755 241.671 175.305C240.576 163.093 239.066 147.292 243.949 135.732C251.63 117.55 273.637 125.733 271.934 144.052C269.898 165.973 254.118 194.939 252.302 261.98Z" fill="white" stroke="#F2F2F2" stroke-linecap="round" stroke-linejoin="round"/>
<path d="M252.293 261.977C253.95 258.095 252.572 248.567 252.781 244.099C253.131 236.651 253.768 229.22 254.682 221.821C257.593 198.239 261.788 167.485 279.337 149.61C291.999 136.713 307.987 151.088 300.371 166.116C291.259 184.097 276.404 205.499 252.293 261.98V261.977Z" fill="white" stroke="#F2F2F2" stroke-linecap="round" stroke-linejoin="round"/>
<path d="M252.301 261.98C250.888 248.424 250.652 230.096 248.7 216.608C246.93 204.38 245.604 192.074 243.139 179.954C240.903 168.952 238.088 154.691 230.774 145.828C219.27 131.887 202.105 144.833 208.398 160.461C215.927 179.16 230.302 205.47 252.303 261.98H252.301Z" fill="white" stroke="#F2F2F2" stroke-linecap="round" stroke-linejoin="round"/>
<path d="M252.304 262.382C252.098 262.382 251.924 262.224 251.905 262.018C248.852 231.062 242.739 190.662 222.407 152.707C222.301 152.512 222.377 152.268 222.573 152.162C222.768 152.056 223.012 152.13 223.115 152.328C231.902 168.733 238.588 186.351 243.555 206.183C247.407 221.572 250.203 238.108 252.296 257.938C254.492 236.506 257.94 218.574 262.818 203.217C268.574 185.101 276.304 170.485 286.454 158.536C286.598 158.368 286.85 158.346 287.021 158.49C287.189 158.634 287.211 158.886 287.067 159.057C268.094 181.395 257.173 214.108 252.702 262.016C252.683 262.222 252.51 262.379 252.304 262.379V262.382Z" fill="#333333"/>
<path d="M252.304 262.382C252.087 262.382 251.908 262.208 251.903 261.989C249.943 178.475 255.84 143.278 255.899 142.931C255.937 142.711 256.146 142.567 256.363 142.602C256.582 142.64 256.729 142.849 256.691 143.066C256.631 143.41 250.748 178.551 252.705 261.967C252.711 262.189 252.535 262.374 252.312 262.379C252.31 262.379 252.307 262.379 252.301 262.379L252.304 262.382Z" fill="#333333"/>
<path d="M252.298 262.669C251.793 257.217 252.55 244.536 248.627 233.68C242.768 217.462 234.862 198.603 222.26 186.413C215.463 179.841 199.781 168.473 192.304 180.535C187.673 188.004 192.529 197.491 198.127 201.715C245.69 237.587 237.307 261.977 252.298 262.669Z" fill="white" stroke="#F2F2F2" stroke-linecap="round" stroke-linejoin="round"/>
<path d="M252.29 262.669C251.686 248.243 252.732 236.397 257.821 222.505C263.146 207.97 270.781 192.166 284.961 185.266C291.348 182.159 301.667 179.51 306.097 188.484C310.956 198.332 301.86 204.969 295.239 210.524C286.994 217.44 279.473 225.222 272.841 233.7C267.324 240.754 264.372 248.432 260.533 256.425C259.223 259.15 255.845 262.298 252.29 262.669Z" fill="white" stroke="#F2F2F2" stroke-linecap="round" stroke-linejoin="round"/>
<path d="M252.297 262.381H252.289C252.091 262.376 251.928 262.229 251.901 262.037C248.683 239.246 238.201 221.987 229.975 211.521C221.055 200.172 212.789 194.14 212.705 194.08C212.526 193.95 212.485 193.698 212.615 193.519C212.746 193.34 212.998 193.299 213.177 193.429C213.261 193.489 221.6 199.573 230.591 211.001C238.619 221.208 248.775 237.831 252.362 259.721C253.311 255.421 255.778 245.3 260.159 234.084C265.503 220.4 274.876 202.235 289.164 193.413C289.351 193.296 289.601 193.353 289.717 193.543C289.834 193.733 289.774 193.98 289.587 194.096C275.489 202.802 266.214 220.799 260.913 234.363C255.157 249.093 252.72 261.926 252.695 262.053C252.66 262.243 252.495 262.381 252.299 262.381H252.297Z" fill="#333333"/>
<path d="M39.9727 192.83H135.017C140.638 192.83 145.195 197.387 145.195 203.008C145.195 208.628 140.638 213.186 135.017 213.186H39.9727C42.5185 206.4 42.5185 199.613 39.9727 192.827V192.83Z" fill="white" stroke="#333333" stroke-linecap="round" stroke-linejoin="round"/>
<path d="M79.4357 200.343H46.9064C46.7383 200.343 46.6055 200.207 46.6055 200.042C46.6055 199.876 46.7411 199.741 46.9064 199.741H79.4357C79.6011 199.741 79.7367 199.876 79.7367 200.042C79.7367 200.207 79.6011 200.343 79.4357 200.343Z" fill="#333333"/>
<path d="M127.448 207.495H67.6682C67.5028 207.495 67.3672 207.359 67.3672 207.194C67.3672 207.029 67.5028 206.893 67.6682 206.893H127.448C127.613 206.893 127.749 207.029 127.749 207.194C127.749 207.359 127.613 207.495 127.448 207.495Z" fill="#333333"/>
<path d="M135.02 215.452H33.9648V210.925H135.02C139.385 210.925 142.934 207.376 142.934 203.011C142.934 198.646 139.385 195.097 135.02 195.097H33.9648V190.569H135.02C141.882 190.569 147.465 196.151 147.465 203.013C147.465 209.875 141.882 215.458 135.02 215.458V215.452Z" fill="#333333" stroke="#F2F2F2" stroke-linecap="round" stroke-linejoin="round"/>
<path d="M151.274 260.521H56.2287C50.6084 260.521 46.0508 255.963 46.0508 250.343C46.0508 244.723 50.6084 240.165 56.2287 240.165H151.274C148.728 246.951 148.728 253.737 151.274 260.524V260.521Z" fill="white" stroke="#333333" stroke-linecap="round" stroke-linejoin="round"/>
<path d="M136.632 253.966H76.8518C76.6864 253.966 76.5508 253.83 76.5508 253.665C76.5508 253.499 76.6864 253.364 76.8518 253.364H136.632C136.797 253.364 136.932 253.499 136.932 253.665C136.932 253.83 136.797 253.966 136.632 253.966Z" fill="#333333"/>
<path d="M93.3771 247.654H60.8479C60.6825 247.654 60.5469 247.518 60.5469 247.353C60.5469 247.187 60.6825 247.052 60.8479 247.052H93.3771C93.5425 247.052 93.6781 247.187 93.6781 247.353C93.6781 247.518 93.5425 247.654 93.3771 247.654Z" fill="#333333"/>
<path d="M157.289 262.785H56.2336C49.3715 262.785 43.7891 257.202 43.7891 250.34C43.7891 243.478 49.3715 237.896 56.2336 237.896H157.289V242.423H56.2336C51.8685 242.423 48.3195 245.972 48.3195 250.337C48.3195 254.702 51.8685 258.251 56.2336 258.251H157.289V262.779V262.785Z" fill="#333333" stroke="#F2F2F2" stroke-linecap="round" stroke-linejoin="round"/>
<path d="M146.395 188.906H51.3498C45.7294 188.906 41.1719 184.349 41.1719 178.728C41.1719 173.108 45.7294 168.55 51.3498 168.55H146.395C143.849 175.336 143.849 182.123 146.395 188.909V188.906Z" fill="white" stroke="#333333" stroke-linecap="round" stroke-linejoin="round"/>
<path d="M127.42 182.431H94.8908C94.7254 182.431 94.5898 182.296 94.5898 182.131C94.5898 181.965 94.7254 181.83 94.8908 181.83H127.42C127.588 181.83 127.721 181.965 127.721 182.131C127.721 182.296 127.585 182.431 127.42 182.431Z" fill="#333333"/>
<path d="M91.881 176.339H59.3517C59.1863 176.339 59.0508 176.204 59.0508 176.038C59.0508 175.873 59.1863 175.737 59.3517 175.737H91.881C92.0464 175.737 92.182 175.873 92.182 176.038C92.182 176.204 92.0464 176.339 91.881 176.339Z" fill="#333333"/>
<path d="M152.402 191.17H51.3468C44.4847 191.17 38.9023 185.588 38.9023 178.726C38.9023 171.864 44.4847 166.281 51.3468 166.281H152.402V170.809H51.3468C46.9818 170.809 43.4328 174.358 43.4328 178.723C43.4328 183.088 46.9818 186.637 51.3468 186.637H152.402V191.165V191.17Z" fill="#333333" stroke="#F2F2F2" stroke-linecap="round" stroke-linejoin="round"/>
<path d="M304.625 260.521H209.58C203.96 260.521 199.402 255.963 199.402 250.343C199.402 244.723 203.96 240.165 209.58 240.165H304.625C302.079 246.951 302.079 253.737 304.625 260.524V260.521Z" fill="white" stroke="#333333" stroke-linecap="round" stroke-linejoin="round"/>
<path d="M281.05 253.662H221.27C221.102 253.662 220.969 253.527 220.969 253.362C220.969 253.196 221.104 253.061 221.27 253.061H281.05C281.218 253.061 281.35 253.196 281.35 253.362C281.35 253.527 281.215 253.662 281.05 253.662Z" fill="#333333"/>
<path d="M263.295 249.346H230.766C230.6 249.346 230.465 249.21 230.465 249.045C230.465 248.88 230.6 248.744 230.766 248.744H263.295C263.46 248.744 263.596 248.88 263.596 249.045C263.596 249.21 263.46 249.346 263.295 249.346Z" fill="#333333"/>
<path d="M310.637 262.785H209.581C202.719 262.785 197.137 257.202 197.137 250.34C197.137 243.478 202.719 237.896 209.581 237.896H310.637V242.423H209.581C205.216 242.423 201.667 245.972 201.667 250.337C201.667 254.702 205.216 258.251 209.581 258.251H310.637V262.779V262.785Z" fill="#333333" stroke="#F2F2F2" stroke-linecap="round" stroke-linejoin="round"/>
<path d="M56.418 216.51H151.463C157.083 216.51 159.884 221.067 159.884 226.688C159.884 232.308 157.086 236.865 151.463 236.865H56.418C58.9638 230.079 58.9638 223.293 56.418 216.507V216.51Z" fill="white" stroke="#333333" stroke-linecap="round" stroke-linejoin="round"/>
<path d="M95.8732 221.758H63.3439C63.1785 221.758 63.043 221.623 63.043 221.457C63.043 221.292 63.1785 221.156 63.3439 221.156H95.8732C96.0386 221.156 96.1741 221.292 96.1741 221.457C96.1741 221.623 96.0386 221.758 95.8732 221.758Z" fill="#333333"/>
<path d="M143.885 225.565H84.1057C83.9403 225.565 83.8047 225.429 83.8047 225.264C83.8047 225.098 83.9403 224.963 84.1057 224.963H143.885C144.051 224.963 144.186 225.098 144.186 225.264C144.186 225.429 144.051 225.565 143.885 225.565Z" fill="#333333"/>
<path d="M95.8732 231.033H63.3439C63.1785 231.033 63.043 230.897 63.043 230.732C63.043 230.567 63.1785 230.431 63.3439 230.431H95.8732C96.0386 230.431 96.1741 230.567 96.1741 230.732C96.1741 230.897 96.0386 231.033 95.8732 231.033Z" fill="#333333"/>
<path d="M152.474 215.671C151.766 215.528 151.026 215.452 150.264 215.452H109.983H52.573V217.566H109.994C114.874 217.572 118.553 221.492 118.553 226.687C118.553 229.176 117.691 231.478 116.13 233.167C114.552 234.869 112.369 235.808 109.981 235.808H52.5703V237.922H150.264C156.356 237.922 160.949 233.091 160.949 226.687C160.949 221.083 157.432 216.683 152.471 215.671H152.474Z" fill="#333333" stroke="#F2F2F2" stroke-linecap="round" stroke-linejoin="round"/>
<path d="M196.629 216.529H306.566C312.187 216.529 314.987 221.086 314.987 226.707C314.987 232.327 312.19 236.884 306.566 236.884H196.629C199.175 230.098 199.175 223.312 196.629 216.526V216.529Z" fill="white" stroke="#333333" stroke-linecap="round" stroke-linejoin="round"/>
<path d="M250.989 221.78H203.567C203.399 221.78 203.266 221.645 203.266 221.479C203.266 221.314 203.401 221.178 203.567 221.178H250.989C251.154 221.178 251.29 221.314 251.29 221.479C251.29 221.645 251.154 221.78 250.989 221.78Z" fill="#333333"/>
<path d="M298.997 225.587H224.324C224.159 225.587 224.023 225.451 224.023 225.286C224.023 225.12 224.159 224.985 224.324 224.985H298.997C299.165 224.985 299.298 225.12 299.298 225.286C299.298 225.451 299.162 225.587 298.997 225.587Z" fill="#333333"/>
<path d="M250.989 232.679H203.567C203.399 232.679 203.266 232.543 203.266 232.378C203.266 232.213 203.401 232.077 203.567 232.077H250.989C251.154 232.077 251.29 232.213 251.29 232.378C251.29 232.543 251.154 232.679 250.989 232.679Z" fill="#333333"/>
<path d="M307.562 215.691C306.854 215.547 306.114 215.471 305.352 215.471H265.071H192.768V217.586H265.082C269.962 217.591 273.641 221.512 273.641 226.707C273.641 229.195 272.779 231.497 271.218 233.186C269.64 234.889 267.457 235.827 265.069 235.827H192.766V237.942H305.352C311.444 237.942 316.037 233.11 316.037 226.707C316.037 221.102 312.52 216.702 307.559 215.691H307.562Z" fill="#333333" stroke="#F2F2F2" stroke-linecap="round" stroke-linejoin="round"/>
<path d="M113.863 79.9239C109.184 77.9962 103.883 78.2483 99.3259 80.6207C93.0385 83.8904 89.4299 90.8094 90.349 97.8288C90.9427 102.37 93.212 106.402 96.7393 109.183C98.1139 110.268 99.2824 111.081 100.313 111.8C103.081 113.73 104.607 114.793 105.998 118.301C106.199 118.806 106.755 119.069 107.272 118.903L120.858 114.565C120.942 114.538 121.021 114.503 121.092 114.457C121.463 114.226 121.658 113.774 121.547 113.332C121.035 111.26 120.97 109.745 121.325 108.102C121.55 107.055 121.929 105.998 122.409 104.658C122.816 103.525 123.274 102.24 123.751 100.648C124.744 97.3408 124.711 93.8433 123.656 90.541C122.116 85.7205 118.548 81.8488 113.866 79.9184L113.863 79.9239Z" fill="white"/>
<path d="M121.787 120.196C121.692 120.256 121.589 120.305 121.478 120.34L110.085 123.976C109.367 124.206 108.597 123.807 108.366 123.089C108.136 122.371 108.534 121.601 109.253 121.37L120.645 117.734C121.364 117.504 122.134 117.902 122.364 118.621C122.559 119.228 122.305 119.873 121.787 120.196Z" fill="#333333"/>
<path d="M122.307 125.212C122.212 125.272 122.109 125.321 121.998 125.356L112.929 128.252C112.21 128.482 111.44 128.083 111.21 127.365C110.979 126.646 111.378 125.876 112.096 125.646L121.166 122.75C121.884 122.52 122.654 122.919 122.884 123.637C123.08 124.244 122.825 124.89 122.307 125.212Z" fill="#333333"/>
<path d="M120.612 128.349L115.899 129.854C115.71 129.914 115.552 130.047 115.463 130.223C115.371 130.399 115.354 130.605 115.414 130.792C115.823 132.077 117.494 132.652 119.212 132.102C119.562 131.991 119.888 131.839 120.183 131.654C120.538 131.432 120.847 131.164 121.089 130.86C121.59 130.228 121.758 129.488 121.55 128.832C121.425 128.439 121.005 128.222 120.609 128.347L120.612 128.349Z" fill="#333333"/>
<path d="M99.0954 98.3007C98.9002 98.4227 98.6806 98.5041 98.4393 98.5366C97.5364 98.6532 96.7095 98.0188 96.5929 97.1159C95.991 92.515 98.3552 87.9818 102.476 85.8372C103.284 85.417 104.279 85.7315 104.699 86.5394C105.12 87.3474 104.805 88.3397 103.997 88.7626C101.102 90.2701 99.437 93.4558 99.8599 96.6903C99.9467 97.3518 99.6295 97.9727 99.0981 98.3034L99.0954 98.3007Z" fill="#F2F2F2"/>
<path d="M100.876 73.9917C100.749 74.073 100.608 74.1381 100.456 74.1869C99.4771 74.4987 98.4306 73.9591 98.1188 72.9804L95.7329 65.5055C95.4211 64.5268 95.9607 63.4802 96.9394 63.1684C97.9182 62.8566 98.9647 63.3962 99.2765 64.3749L101.662 71.8498C101.925 72.6767 101.581 73.5524 100.876 73.9944V73.9917Z" fill="white"/>
<path d="M115.405 73.9135C114.914 74.2199 114.29 74.2931 113.713 74.0572C112.761 73.6668 112.308 72.5823 112.699 71.6307L115.676 64.37C116.066 63.4184 117.151 62.9656 118.102 63.356C119.054 63.7464 119.507 64.8309 119.116 65.7826L116.139 73.0432C115.985 73.4174 115.725 73.7156 115.405 73.9162V73.9135Z" fill="white"/>
<path d="M88.9342 82.2208C88.3485 82.5868 87.5785 82.6085 86.955 82.2154L80.3233 78.0238C79.4557 77.4762 79.1954 76.3266 79.7458 75.459C80.2935 74.5914 81.443 74.3312 82.3106 74.8815L88.9423 79.0731C89.8099 79.6208 90.0701 80.7703 89.5198 81.6379C89.3652 81.8819 89.1619 82.0798 88.9342 82.2208Z" fill="white"/>
<path d="M184.523 109.301C183.626 110.711 180.809 114.539 177.113 114.04C176.837 114.003 176.574 113.951 176.324 113.886V121.163C176.999 121.114 177.674 121.019 178.341 120.913C179.035 120.805 179.738 120.683 180.434 120.77C181.519 120.903 182.595 121.166 183.677 121.355H184.206L183.875 112.162C183.864 111.091 184.219 110.02 184.523 109.301Z" fill="white" stroke="#333333" stroke-linecap="round" stroke-linejoin="round"/>
<path d="M183.875 112.162L184.206 121.355H176.324V113.886C176.574 113.951 176.837 114.003 177.113 114.04C180.809 114.539 183.626 110.711 184.523 109.301C184.219 110.02 183.864 111.091 183.875 112.162Z" fill="white" stroke="#333333" stroke-linecap="round" stroke-linejoin="round"/>
<path d="M186.939 105.739C186.939 106.674 186.329 107.357 185.92 108.127C185.383 109.133 184.832 108.794 184.832 108.794C184.832 108.794 184.727 108.987 184.523 109.301C183.626 110.711 180.809 114.539 177.114 114.04C176.837 114.002 176.574 113.951 176.325 113.886C172.513 112.891 171.889 108.854 171.729 106.823C171.642 105.744 171.645 103.762 171.661 102.276C171.905 101.325 172.187 100.37 172.827 100.267C174.118 100.061 177.645 102.2 178.266 102.569C180.95 104.163 182.579 104.489 185.074 104.559C185.079 104.746 185.082 104.787 185.082 104.787C185.895 104.35 186.934 104.66 186.939 105.739Z" fill="white" stroke="#333333" stroke-linecap="round" stroke-linejoin="round"/>
<path d="M189.314 115.542C189.143 116.231 189.279 116.963 189.439 117.655C189.683 118.698 190.1 120.455 189.016 121.16C188.723 121.35 188.419 121.285 188.097 121.309C187.508 121.355 186.939 121.529 186.348 121.564C185.448 121.618 184.559 121.513 183.677 121.355H184.206L183.875 112.162C183.864 111.091 184.22 110.02 184.523 109.301C184.727 108.987 184.832 108.794 184.832 108.794C184.832 108.794 185.383 109.133 185.92 108.127C186.329 107.357 186.942 106.674 186.939 105.739C186.934 104.66 185.895 104.351 185.082 104.787C185.082 104.787 185.079 104.746 185.074 104.559C182.579 104.489 180.95 104.163 178.266 102.569C177.645 102.201 174.118 100.061 172.827 100.267C172.187 100.37 171.905 101.325 171.661 102.276C171.645 103.762 171.642 105.744 171.729 106.823C171.889 108.854 172.513 112.891 176.325 113.886V121.163C175.4 121.228 174.476 121.204 173.575 120.997C172.014 120.64 170.52 119.626 169.991 118.115C169.292 116.112 171.065 114.404 170.59 112.452C170.352 111.465 169.452 110.741 169.457 109.694C169.457 109.209 169.59 108.735 169.701 108.263C170.073 106.701 169.875 105.43 169.72 103.879C169.53 101.967 169.81 99.5652 170.829 97.9141C173.388 93.7741 177.71 91.719 182.249 93.0285C185.643 94.0045 188.048 96.648 189.254 99.2806C190.518 102.038 190.003 104.952 189.751 107.862C189.696 108.493 189.661 109.136 189.802 109.751C189.97 110.475 190.377 111.123 190.477 111.861C190.58 112.62 190.35 113.39 190.008 114.057C189.761 114.545 189.45 115.006 189.314 115.542Z" fill="#333333" stroke="#333333" stroke-linecap="round" stroke-linejoin="round"/>
<path d="M147.069 114.456L146.638 110.842C146.638 110.842 143.973 107.455 144.219 105.593C144.466 103.73 148.419 101.108 148.419 101.108C148.419 101.108 148.039 96.464 148.693 95.4093C149.346 94.3574 150.065 94.8156 150.122 95.629C150.179 96.4396 150.387 101.073 150.572 101.325C150.756 101.577 151.529 103.784 151.857 104.915C152.188 106.045 150.328 110.4 150.328 110.4L151.144 113.968L147.069 114.453V114.456Z" fill="white" stroke="#333333" stroke-linecap="round" stroke-linejoin="round"/>
<path d="M147.645 108.892C147.626 108.892 147.607 108.892 147.585 108.887C147.39 108.854 147.26 108.67 147.289 108.477C147.303 108.393 147.62 106.536 148.678 105.573C148.268 104.652 147.894 103.567 148.152 103.128C148.377 102.746 148.678 102.694 148.843 102.7C149.575 102.719 150.353 103.925 150.874 104.936C150.963 105.113 150.895 105.327 150.722 105.419C150.546 105.508 150.331 105.441 150.239 105.267C149.61 104.052 149.019 103.418 148.827 103.418C148.827 103.418 148.827 103.418 148.824 103.418C148.824 103.418 148.802 103.437 148.767 103.494C148.721 103.686 149.03 104.649 149.439 105.533C149.513 105.69 149.461 105.874 149.32 105.975C148.485 106.563 148.078 108.068 147.992 108.596C147.962 108.773 147.813 108.895 147.639 108.895L147.645 108.892Z" fill="#333333"/>
<path d="M177.873 130.742C177.778 130.799 177.665 130.861 177.567 130.91L155.592 142.037L155.186 142.243C152.973 143.363 150.273 142.479 149.153 140.267C148.915 139.792 148.766 139.277 148.703 138.775L145.729 113.369C145.526 111.671 146.757 111.069 148.451 110.866C150.01 110.676 151.192 110.614 151.572 112.094L156.33 130.674L172.296 121.272C174.91 119.732 178.28 120.602 179.82 123.218C181.36 125.835 180.49 129.202 177.873 130.742Z" fill="#F2F2F2" stroke="#333333" stroke-linecap="round" stroke-linejoin="round"/>
<path d="M173.429 121.904C162.636 136.569 167.538 134.6 167.475 149.057C167.462 151.895 166.575 167.048 166.461 169.884C166.087 179.135 185.361 169.979 194.747 169.751C195.078 157.8 191.399 143.444 191.356 132.662C191.339 128.579 190.174 124.279 187.88 120.873C187.427 120.201 186.917 119.534 186.291 119.011C185.429 118.287 184.293 118.306 183.23 118.26C182.132 118.214 181.042 118.132 179.941 118.162C177.951 118.216 175.723 118.786 173.426 121.904H173.429Z" fill="#F2F2F2" stroke="#333333" stroke-linecap="round" stroke-linejoin="round"/>
<path d="M175.933 255.681C174.114 255.789 172.294 255.898 170.475 256.009C170.329 253.325 170.125 250.644 169.949 247.959C171.768 247.856 173.588 247.753 175.41 247.65C175.586 250.329 175.787 253.005 175.933 255.684V255.681Z" fill="white" stroke="#333333" stroke-linecap="round" stroke-linejoin="round"/>
<path d="M166.471 169.884C166.333 183.066 167.244 193.615 166.943 207.448C166.64 221.281 168.163 235.338 169.326 249.727C171.707 249.971 174.095 249.507 176.481 249.486C177.71 234.471 178.629 222.254 177.747 207.239C179.19 194.8 179.979 182.377 181.812 170.006C176.671 169.949 166.474 169.881 166.474 169.881L166.471 169.884Z" fill="#333333" stroke="#333333" stroke-linecap="round" stroke-linejoin="round"/>
<path d="M197.706 255.247C195.892 255.361 194.079 255.467 192.267 255.581C192.113 252.902 191.888 250.226 191.695 247.547C193.515 247.444 195.334 247.338 197.153 247.235C197.332 249.906 197.546 252.576 197.706 255.25V255.247Z" fill="white" stroke="#333333" stroke-linecap="round" stroke-linejoin="round"/>
<path d="M179.055 169.881C179.776 182.993 181.188 193.146 182.46 206.933C183.732 220.72 187.638 235.168 190.846 249.307C193.213 249.48 195.487 248.892 197.816 248.773C196.916 234.002 196.588 221.18 193.565 206.773C194.004 194.472 193.977 182.017 194.758 169.751C189.55 169.683 184.29 170.171 179.055 169.881Z" fill="#333333" stroke="#333333" stroke-linecap="round" stroke-linejoin="round"/>
<path d="M167.753 257.704C167.089 258.165 166.341 258.509 165.552 258.693C164.842 258.859 161.214 258.728 160.509 258.926C159.604 259.181 158.877 259.797 158.378 260.58C157.573 261.841 157.622 263.08 157.622 263.08H176.804C178.688 261.347 176.484 254.998 176.484 254.998C176.484 254.998 173.764 256.042 170.405 254.77C170.183 254.762 169.369 256.134 169.218 256.329C168.808 256.852 168.312 257.319 167.756 257.704H167.753Z" fill="white" stroke="#333333" stroke-linecap="round" stroke-linejoin="round"/>
<path d="M189.355 257.704C188.691 258.165 187.943 258.509 187.154 258.693C186.443 258.859 182.816 258.728 182.111 258.926C181.205 259.181 180.479 259.797 179.98 260.58C179.174 261.841 179.223 263.08 179.223 263.08H198.405C200.289 261.347 198.085 254.998 198.085 254.998C198.085 254.998 195.366 256.042 192.007 254.77C191.784 254.762 190.971 256.134 190.819 256.329C190.41 256.852 189.914 257.319 189.358 257.704H189.355Z" fill="white" stroke="#333333" stroke-linecap="round" stroke-linejoin="round"/>
<path d="M192.626 194.201C193.797 193.347 194.83 192.308 195.616 191.096C196.324 190.004 197.154 188.681 197.203 187.339C197.273 185.419 196.208 183.074 196.422 181.935C196.636 180.796 196.777 179.021 196.777 179.021H192.583L192.368 179.731L189.809 187.48C189.809 187.48 189.739 188.119 190.164 188.404C190.59 188.689 191.978 186.485 191.978 186.485C191.978 186.485 192.149 189.613 191.086 191.533C190.69 192.249 190.734 193.048 191.121 193.756C191.238 193.97 191.398 194.263 191.588 194.423C191.718 194.531 191.902 194.569 192.065 194.526C192.187 194.493 192.298 194.426 192.404 194.355C192.48 194.306 192.553 194.255 192.626 194.201Z" fill="white" stroke="#333333" stroke-linecap="round" stroke-linejoin="round"/>
<path d="M190.712 181.089L191.11 165.114L191.251 158.277L191.322 154.858C191.341 154.207 191.333 153.92 191.3 153.518C191.268 153.136 191.216 152.757 191.137 152.382C190.986 151.637 190.744 150.916 190.422 150.241L188.993 147.294L186.013 141.136L180.054 128.822C178.595 125.804 181.003 123.497 182.874 120.715C184.78 117.879 189.522 120.517 190.98 123.535C191.064 123.711 191.143 123.898 191.211 124.077L195.944 136.912L198.311 143.33L199.542 146.673C200.046 148.118 200.38 149.617 200.529 151.13C200.602 151.886 200.632 152.643 200.616 153.399C200.605 154.137 200.521 154.985 200.459 155.471L200.074 158.868L199.304 165.662L197.544 181.162C197.205 182.556 195.822 182.534 193.914 182.317C192.119 182.114 190.622 182.279 190.709 181.092L190.712 181.089Z" fill="#F2F2F2"/>
<path d="M185.743 118.652C187.668 119.628 190.065 121.648 190.976 123.535C191.06 123.711 191.138 123.899 191.206 124.078L195.94 136.912L198.307 143.33L199.538 146.673C200.042 148.118 200.376 149.617 200.525 151.13C200.598 151.887 200.628 152.643 200.612 153.399C200.601 154.137 200.517 154.985 200.454 155.471L200.069 158.868L199.299 165.662L197.54 181.162C197.201 182.556 195.818 182.534 193.909 182.317C192.115 182.114 190.618 182.279 190.705 181.092L191.103 165.117L191.244 158.28L191.315 154.861C191.334 154.21 191.326 153.923 191.293 153.521C191.261 153.139 191.209 152.76 191.13 152.385C190.979 151.64 190.737 150.919 190.415 150.244L188.986 147.296L186.006 141.139L180.047 128.825" fill="#F2F2F2"/>
<path d="M185.743 118.652C187.668 119.628 190.065 121.648 190.976 123.535C191.06 123.711 191.138 123.899 191.206 124.078L195.94 136.912L198.307 143.33L199.538 146.673C200.042 148.118 200.376 149.617 200.525 151.13C200.598 151.887 200.628 152.643 200.612 153.399C200.601 154.137 200.517 154.985 200.454 155.471L200.069 158.868L199.299 165.662L197.54 181.162C197.201 182.556 195.818 182.534 193.909 182.317C192.115 182.114 190.618 182.279 190.705 181.092L191.103 165.117L191.244 158.28L191.315 154.861C191.334 154.21 191.326 153.923 191.293 153.521C191.261 153.139 191.209 152.76 191.13 152.385C190.979 151.64 190.737 150.919 190.415 150.244L188.986 147.296L186.006 141.139L180.047 128.825" stroke="#333333" stroke-linecap="round" stroke-linejoin="round"/>
</svg>
