<svg width="175" height="103" viewBox="0 0 175 103" fill="none" xmlns="http://www.w3.org/2000/svg">
<path d="M78.2499 24.4717H0.515625V102.143H78.2499V24.4717Z" fill="#C2C2C2"/>
<path d="M78.2483 102.491H0.513952C0.313993 102.491 0.164062 102.329 0.164062 102.142V24.4707C0.164062 24.2709 0.32649 24.1211 0.513952 24.1211H78.2483C78.4482 24.1211 78.5982 24.2834 78.5982 24.4707V102.142C78.5982 102.342 78.4357 102.491 78.2483 102.491ZM0.863918 101.792H77.8983V24.8204H0.863918V101.792Z" fill="#333333"/>
<path d="M78.4108 36.2588H0.351562V61.8962H78.4108V36.2588Z" fill="#4D4D4D"/>
<path d="M78.4091 62.2459H0.34989C0.14993 62.2459 0 62.0835 0 61.8962V36.2588C0 36.059 0.162427 35.9092 0.34989 35.9092H78.4091C78.6091 35.9092 78.759 36.0715 78.759 36.2588V61.8962C78.759 62.096 78.5966 62.2459 78.4091 62.2459ZM0.699856 61.5466H78.0592V36.6085H0.699856V61.5466Z" fill="#333333"/>
<path d="M17.2342 36.2588H8.46094V61.8962H17.2342V36.2588Z" fill="white"/>
<path d="M35.8592 36.2588H27.0859V61.8962H35.8592V36.2588Z" fill="white"/>
<path d="M54.0701 36.2588H45.2969V61.8962H54.0701V36.2588Z" fill="white"/>
<path d="M71.8358 36.2588H63.0625V61.8962H71.8358V36.2588Z" fill="white"/>
<path d="M78.4108 24.4715H0.351562L26.5713 0.370117H104.643L78.4108 24.4715Z" fill="#C2C2C2"/>
<path d="M78.4062 24.8212H0.346991C0.197021 24.8212 0.0720341 24.7338 0.0220442 24.5964C-0.0279457 24.4591 0.00955585 24.3092 0.109536 24.2093L26.3417 0.107922C26.4042 0.045483 26.4917 0.0205078 26.5792 0.0205078H104.638C104.788 0.0205078 104.913 0.107923 104.963 0.245288C105.013 0.382653 104.976 0.532504 104.876 0.632406L78.6437 24.7338C78.5812 24.7962 78.4937 24.8212 78.4062 24.8212ZM1.24685 24.1219H78.2688L103.739 0.73231H26.7167L1.24685 24.1219Z" fill="#333333"/>
<path d="M104.674 78.9537L78.2422 102.143V24.534L104.674 0.371094V78.9537Z" fill="#C2C2C2"/>
<path d="M78.2452 102.492C78.2452 102.492 78.1452 102.492 78.0952 102.455C77.9703 102.405 77.8828 102.268 77.8828 102.13V24.5216C77.8828 24.4217 77.9203 24.3343 77.9952 24.2594L104.427 0.0964758C104.527 -0.00342264 104.677 -0.0283963 104.802 0.0340402C104.927 0.0839894 105.015 0.221352 105.015 0.358713V78.9413C105.015 79.0412 104.965 79.1411 104.89 79.2036L78.4576 102.392C78.3952 102.455 78.3077 102.48 78.2202 102.48L78.2452 102.492ZM78.5952 24.684V101.356L104.315 78.7915V1.1579L78.5952 24.6715V24.684Z" fill="#333333"/>
<path d="M148.303 72.2979H78.2422V102.143H148.303V72.2979Z" fill="#C2C2C2"/>
<path d="M148.301 102.492H78.2406C78.0406 102.492 77.8906 102.33 77.8906 102.143V72.2979C77.8906 72.0981 78.0531 71.9482 78.2406 71.9482H148.301C148.501 71.9482 148.651 72.1106 148.651 72.2979V102.143C148.651 102.342 148.489 102.492 148.301 102.492ZM78.5906 101.793H147.952V72.6475H78.5906V101.793Z" fill="#333333"/>
<path d="M148.303 72.299H78.2422L103.849 46.3994H173.91L148.303 72.299Z" fill="#C2C2C2"/>
<path d="M148.301 72.6487H78.2406C78.1031 72.6487 77.9656 72.5613 77.9156 72.4365C77.8656 72.3116 77.8906 72.1492 77.9906 72.0493L103.598 46.1497C103.66 46.0873 103.748 46.0498 103.848 46.0498H173.909C174.046 46.0498 174.184 46.1372 174.234 46.2621C174.284 46.387 174.259 46.5493 174.159 46.6492L148.551 72.5488C148.489 72.6113 148.401 72.6487 148.301 72.6487ZM79.0779 71.9494H148.151L173.059 46.7491H103.985L79.0779 71.9494Z" fill="#333333"/>
<path d="M174.02 76.2323L148.312 102.143V72.2988L174.02 46.3877V76.2323Z" fill="#C2C2C2"/>
<path d="M148.311 102.493C148.311 102.493 148.223 102.493 148.173 102.468C148.048 102.418 147.961 102.281 147.961 102.143V72.2986C147.961 72.2112 147.998 72.1113 148.061 72.0488L173.768 46.1377C173.868 46.0378 174.018 46.0003 174.156 46.0628C174.281 46.1127 174.368 46.2501 174.368 46.3874V76.2321C174.368 76.3195 174.331 76.4194 174.268 76.4818L148.561 102.393C148.498 102.455 148.398 102.493 148.311 102.493ZM148.661 72.4359V101.282L173.668 76.0822V47.2366L148.661 72.4359Z" fill="#333333"/>
<path d="M110.342 82.2764H88.2344V101.795H110.342V82.2764Z" fill="#666666"/>
</svg>
