<svg width="240" height="240" viewBox="0 0 240 240" fill="none" xmlns="http://www.w3.org/2000/svg">
<mask id="mask0_1_29157" style="mask-type:luminance" maskUnits="userSpaceOnUse" x="0" y="0" width="240" height="240">
<path d="M120 240C186.274 240 240 186.274 240 120C240 53.7258 186.274 0 120 0C53.7258 0 0 53.7258 0 120C0 186.274 53.7258 240 120 240Z" fill="white"/>
</mask>
<g mask="url(#mask0_1_29157)">
<path d="M245.087 -59.9697H-332.953V246.05H245.087V-59.9697Z" fill="#D5F7FE"/>
<path d="M-285.344 245.951H74.5562V126.141L27.3662 126.211C23.0562 125.471 18.8362 123.381 14.8763 120.031L-0.0137634 107.411C-7.44376 101.121 -15.6938 99.3506 -23.6537 102.341C-32.2937 105.591 -41.2538 103.221 -49.1237 95.6206L-55.4438 89.5106C-59.9938 85.1106 -65.4837 86.5206 -69.2737 93.0506C-72.8037 99.1406 -77.8438 100.811 -82.2437 97.3506L-95.4438 86.9306C-103.484 80.5906 -112.624 82.0306 -120.014 90.8106C-126.194 98.1506 -133.264 102.301 -140.524 102.861C-144.964 103.201 -149.404 102.191 -153.684 99.8706C-163.804 94.3706 -174.634 96.5306 -183.954 105.891C-196.614 118.601 -210.394 126.661 -224.594 129.651L-285.344 142.431V245.951Z" fill="#F29F7B"/>
<path d="M245.087 164.03H-332.953V242.23H245.087V164.03Z" fill="#F29F7B"/>
<path d="M245.097 246.06H-332.953V190.7C-283.543 174.91 -233.623 166.91 -157.923 189.25C-19.3531 230.15 -52.4231 143.09 245.097 143.09V246.05V246.06Z" fill="#EC7963"/>
<path d="M105.118 30.2803H7.57812L17.6381 21.1803C23.0181 16.3203 31.5481 17.9503 34.7481 24.4603L34.9181 24.8103L34.9981 24.7103C45.8881 10.8203 66.8881 10.7603 77.8481 24.5803C80.9981 18.0303 89.5481 16.3303 94.9681 21.1803L105.118 30.2703V30.2803Z" fill="#FFE193"/>
<path d="M123.454 13.8906H89.5938V152.141H123.454V13.8906Z" fill="#A95C68"/>
<path d="M123.453 152.14H146.633V34.6204C146.633 19.7604 136.993 13.9004 123.453 13.9004V152.15V152.14Z" fill="#DFA47B"/>
<path d="M123.454 35.1807H89.5938V38.3107H123.454V35.1807Z" fill="#C9CED0"/>
<path d="M123.454 41.4512H89.5938V44.5812H123.454V41.4512Z" fill="#C9CED0"/>
<path d="M123.454 47.7207H89.5938V50.8507H123.454V47.7207Z" fill="#C9CED0"/>
<path d="M123.454 53.9912H89.5938V57.1212H123.454V53.9912Z" fill="#C9CED0"/>
<path d="M123.454 60.2607H89.5938V63.3907H123.454V60.2607Z" fill="#C9CED0"/>
<path d="M123.454 66.5312H89.5938V69.6612H123.454V66.5312Z" fill="#C9CED0"/>
<path d="M123.454 72.791H89.5938V75.921H123.454V72.791Z" fill="#C9CED0"/>
<path d="M123.454 79.0605H89.5938V82.1905H123.454V79.0605Z" fill="#C9CED0"/>
<path d="M123.454 85.3311H89.5938V88.4611H123.454V85.3311Z" fill="#C9CED0"/>
<path d="M123.454 23.6309H89.5938V26.7609H123.454V23.6309Z" fill="#C9CED0"/>
<path d="M123.454 91.7207H89.5938V94.8507H123.454V91.7207Z" fill="#C9CED0"/>
<path d="M123.454 97.9902H89.5938V101.12H123.454V97.9902Z" fill="#C9CED0"/>
<path d="M123.454 104.261H89.5938V107.391H123.454V104.261Z" fill="#C9CED0"/>
<path d="M123.454 110.53H89.5938V113.66H123.454V110.53Z" fill="#C9CED0"/>
<path d="M123.454 116.801H89.5938V119.931H123.454V116.801Z" fill="#C9CED0"/>
<path d="M123.454 123.07H89.5938V126.2H123.454V123.07Z" fill="#C9CED0"/>
<path d="M123.454 129.341H89.5938V132.471H123.454V129.341Z" fill="#C9CED0"/>
<path d="M123.454 135.601H89.5938V138.731H123.454V135.601Z" fill="#C9CED0"/>
<path d="M123.454 141.871H89.5938V145.001H123.454V141.871Z" fill="#C9CED0"/>
<path d="M123.452 38.3203H142.312V35.1903H123.452V38.3203Z" fill="#FFC975"/>
<path d="M123.449 26.7705H131.109V23.6405H123.449V26.7705Z" fill="#FFC975"/>
<path d="M123.452 44.5908H142.312V41.4608H123.452V44.5908Z" fill="#FFC975"/>
<path d="M123.452 50.8506H142.312V47.7206H123.452V50.8506Z" fill="#FFC975"/>
<path d="M123.452 57.1211H142.312V53.9911H123.452V57.1211Z" fill="#FFC975"/>
<path d="M123.452 63.3906H142.312V60.2606H123.452V63.3906Z" fill="#FFC975"/>
<path d="M123.452 69.6504H142.312V66.5204H123.452V69.6504Z" fill="#FFC975"/>
<path d="M123.452 75.9307H142.312V72.8007H123.452V75.9307Z" fill="#FFC975"/>
<path d="M123.452 82.2002H142.312V79.0702H123.452V82.2002Z" fill="#FFC975"/>
<path d="M123.452 88.4707H142.312V85.3407H123.452V88.4707Z" fill="#FFC975"/>
<path d="M123.452 94.8604H142.312V91.7303H123.452V94.8604Z" fill="#FFC975"/>
<path d="M123.452 101.131H142.312V98.0009H123.452V101.131Z" fill="#FFC975"/>
<path d="M123.452 107.4H142.312V104.27H123.452V107.4Z" fill="#FFC975"/>
<path d="M123.452 113.66H142.312V110.53H123.452V113.66Z" fill="#FFC975"/>
<path d="M123.452 119.931H142.312V116.801H123.452V119.931Z" fill="#FFC975"/>
<path d="M123.452 126.2H142.312V123.07H123.452V126.2Z" fill="#FFC975"/>
<path d="M123.452 132.471H142.312V129.341H123.452V132.471Z" fill="#FFC975"/>
<path d="M123.452 138.74H142.312V135.61H123.452V138.74Z" fill="#FFC975"/>
<path d="M123.452 145.011H142.312V141.881H123.452V145.011Z" fill="#FFC975"/>
<path d="M70.6778 79.0498H16.7578V188.05H70.6778V79.0498Z" fill="#7F3353"/>
<path d="M89.6597 79.0498H70.6797V188.05H89.6597V79.0498Z" fill="#EC7963"/>
<path d="M70.665 70.5H22.375V79.06H70.665V70.5Z" fill="#280B44"/>
<path d="M83.0997 70.5H70.6797V79.06H83.0997V70.5Z" fill="#74C0B9"/>
<path d="M65.0575 85.1699H62.1875V188.05H65.0575V85.1699Z" fill="#EC7963"/>
<path d="M57.1044 85.1699H54.2344V188.05H57.1044V85.1699Z" fill="#EC7963"/>
<path d="M49.1434 85.1699H46.2734V188.05H49.1434V85.1699Z" fill="#EC7963"/>
<path d="M41.1903 85.1699H38.3203V188.05H41.1903V85.1699Z" fill="#EC7963"/>
<path d="M33.245 85.1699H30.375V188.05H33.245V85.1699Z" fill="#EC7963"/>
<path d="M25.2841 85.1699H22.4141V188.05H25.2841V85.1699Z" fill="#EC7963"/>
<path d="M77.9091 85.1699H75.0391V188.05H77.9091V85.1699Z" fill="#FFC975"/>
<path d="M85.8153 85.1699H82.9453V188.05H85.8153V85.1699Z" fill="#FFC975"/>
<path d="M123.702 134.12H104.672V188.05H123.702V134.12Z" fill="#280B44"/>
<path d="M104.675 134.12H74.625V188.05H104.675V134.12Z" fill="#74C0B9"/>
<path d="M98.7528 140.66H95.8828V188.05H98.7528V140.66Z" fill="white"/>
<path d="M90.8075 140.66H87.9375V188.05H90.8075V140.66Z" fill="white"/>
<path d="M82.8466 140.66H79.9766V188.05H82.8466V140.66Z" fill="white"/>
<path d="M111.933 139.7H109.062V188.05H111.933V139.7Z" fill="#EC7963"/>
<path d="M119.245 139.7H116.375V188.05H119.245V139.7Z" fill="#EC7963"/>
<path d="M33.7455 192.8C24.9255 192.8 18.5455 184.37 20.9355 175.88L22.1255 171.67V160.93C22.1255 157.59 24.8355 154.88 28.1755 154.88C35.4955 154.88 41.4255 160.81 41.4255 168.13V185.14C41.4255 189.38 37.9955 192.81 33.7555 192.81L33.7455 192.8Z" fill="#FFDD37"/>
<path d="M31.5472 202.389C31.1672 202.389 30.8672 202.089 30.8672 201.709V168.589C30.8672 168.209 31.1672 167.909 31.5472 167.909C31.9272 167.909 32.2272 168.209 32.2272 168.589V201.709C32.2272 202.089 31.9272 202.389 31.5472 202.389Z" fill="#7F3353"/>
<path d="M31.5452 179.35L26.4352 173.39C26.1952 173.1 26.2252 172.68 26.5052 172.43C26.7952 172.19 27.2252 172.22 27.4652 172.5L31.5452 177.25L35.6252 172.5C35.8652 172.22 36.2952 172.18 36.5852 172.43C36.8652 172.67 36.9052 173.1 36.6552 173.39L31.5452 179.35Z" fill="#7F3353"/>
<path d="M31.5471 169.69L28.2071 165.44C27.9771 165.14 28.0271 164.72 28.3171 164.49C28.6171 164.26 29.0371 164.31 29.2671 164.6L31.5371 167.49L33.8071 164.6C34.0371 164.31 34.4671 164.25 34.7571 164.49C35.0571 164.72 35.1071 165.15 34.8671 165.44L31.5271 169.69H31.5471Z" fill="#7F3353"/>
<path d="M31.5461 189.93L25.2561 182.81C25.0061 182.53 25.0361 182.1 25.3161 181.85C25.5961 181.6 26.0261 181.63 26.2761 181.91L31.5461 187.88L36.8161 181.91C37.0661 181.63 37.4961 181.6 37.7761 181.85C38.0561 182.1 38.0861 182.53 37.8361 182.81L31.5461 189.93Z" fill="#7F3353"/>
<path d="M68.0941 185.45C61.0041 185.45 55.6341 178.89 57.2041 171.97C59.0541 163.82 63.6842 155.67 67.2242 147.53C74.2542 154.77 76.7742 162.85 78.9342 171.77C80.6242 178.75 75.2741 185.45 68.0941 185.45Z" fill="#FFDD37"/>
<path d="M68.0941 196.82C67.7141 196.82 67.4141 196.52 67.4141 196.14V164.21C67.4141 163.83 67.7141 163.53 68.0941 163.53C68.4741 163.53 68.7741 163.83 68.7741 164.21V196.14C68.7741 196.52 68.4741 196.82 68.0941 196.82Z" fill="#7F3353"/>
<path d="M68.0958 180.25L62.3958 173.71C62.1458 173.43 62.1758 173 62.4658 172.75C62.7458 172.5 63.1758 172.53 63.4258 172.82L68.0958 178.18L72.7658 172.82C73.0158 172.54 73.4458 172.51 73.7258 172.75C74.0058 173 74.0358 173.43 73.7958 173.71L68.0958 180.25Z" fill="#7F3353"/>
<path d="M-9.855 208.45H23.875L23.875 135.22H-9.855L-9.855 208.45Z" fill="#74C0B9"/>
<path d="M18.0737 123.07H-15.6562L-9.85625 135.22H23.8737L18.0737 123.07Z" fill="white"/>
<path d="M5.56313 145H8.45312V139.59H5.56313V145Z" fill="#FFDD37"/>
<path d="M5.56313 153.66H8.45312V148.25H5.56313V153.66Z" fill="#FFDD37"/>
<path d="M5.56313 162.32H8.45312V156.91H5.56313V162.32Z" fill="#FFDD37"/>
<path d="M5.56313 170.97H8.45312V165.56H5.56313V170.97Z" fill="#FFDD37"/>
<path d="M5.56313 179.63H8.45312V174.22H5.56313V179.63Z" fill="#FFDD37"/>
<path d="M5.56313 188.28H8.45312V182.87H5.56313V188.28Z" fill="#FFDD37"/>
<path d="M5.56313 196.939H8.45312V191.529H5.56313V196.939Z" fill="#FFDD37"/>
<path d="M16.3834 145H19.2734V139.59H16.3834V145Z" fill="#FFDD37"/>
<path d="M16.3834 153.66H19.2734V148.25H16.3834V153.66Z" fill="#FFDD37"/>
<path d="M16.3834 162.32H19.2734V156.91H16.3834V162.32Z" fill="#FFDD37"/>
<path d="M16.3834 170.97H19.2734V165.56H16.3834V170.97Z" fill="#FFDD37"/>
<path d="M16.3834 179.63H19.2734V174.22H16.3834V179.63Z" fill="#FFDD37"/>
<path d="M16.3834 188.28H19.2734V182.87H16.3834V188.28Z" fill="#FFDD37"/>
<path d="M16.3834 196.939H19.2734V191.529H16.3834V196.939Z" fill="#FFDD37"/>
<path d="M179.722 176.66H217.922L217.922 32.1302H179.722V176.66Z" fill="#EC7963"/>
<path d="M161.707 176.66H179.727L179.727 32.1302H161.707L161.707 176.66Z" fill="#7F3353"/>
<path d="M213.302 41.2295H184.352V43.9795H213.302V41.2295Z" fill="#FFC975"/>
<path d="M213.302 50.1699H184.352V52.9199H213.302V50.1699Z" fill="#FFC975"/>
<path d="M213.302 59.1094H184.352V61.8594H213.302V59.1094Z" fill="#FFC975"/>
<path d="M213.302 68.0391H184.352V70.7891H213.302V68.0391Z" fill="#FFC975"/>
<path d="M213.302 76.9795H184.352V79.7295H213.302V76.9795Z" fill="#FFC975"/>
<path d="M213.302 85.9199H184.352V88.6699H213.302V85.9199Z" fill="#FFC975"/>
<path d="M213.302 94.8594H184.352V97.6094H213.302V94.8594Z" fill="#FFC975"/>
<path d="M213.302 103.789H184.352V106.539H213.302V103.789Z" fill="#FFC975"/>
<path d="M213.302 112.729H184.352V115.479H213.302V112.729Z" fill="#FFC975"/>
<path d="M213.302 121.67H184.352V124.42H213.302V121.67Z" fill="#FFC975"/>
<path d="M213.302 130.609H184.352V133.359H213.302V130.609Z" fill="#FFC975"/>
<path d="M213.302 139.539H184.352V142.289H213.302V139.539Z" fill="#FFC975"/>
<path d="M213.302 148.479H184.352V151.229H213.302V148.479Z" fill="#FFC975"/>
<path d="M213.302 157.42H184.352V160.17H213.302V157.42Z" fill="#FFC975"/>
<path d="M175.346 41.2295H166.086V43.9795H175.346V41.2295Z" fill="white"/>
<path d="M175.346 50.1699H166.086V52.9199H175.346V50.1699Z" fill="white"/>
<path d="M175.346 59.1094H166.086V61.8594H175.346V59.1094Z" fill="white"/>
<path d="M175.346 68.0391H166.086V70.7891H175.346V68.0391Z" fill="white"/>
<path d="M175.346 76.9795H166.086V79.7295H175.346V76.9795Z" fill="white"/>
<path d="M175.346 85.9199H166.086V88.6699H175.346V85.9199Z" fill="white"/>
<path d="M175.346 94.8594H166.086V97.6094H175.346V94.8594Z" fill="white"/>
<path d="M175.346 103.789H166.086V106.539H175.346V103.789Z" fill="white"/>
<path d="M175.346 112.729H166.086V115.479H175.346V112.729Z" fill="white"/>
<path d="M175.346 121.67H166.086V124.42H175.346V121.67Z" fill="white"/>
<path d="M175.346 130.609H166.086V133.359H175.346V130.609Z" fill="white"/>
<path d="M175.346 139.539H166.086V142.289H175.346V139.539Z" fill="white"/>
<path d="M175.346 148.479H166.086V151.229H175.346V148.479Z" fill="white"/>
<path d="M175.346 157.42H166.086V160.17H175.346V157.42Z" fill="white"/>
<path d="M179.722 32.1201L217.922 32.1201V17.0501L179.722 17.0501V32.1201Z" fill="#EC7963"/>
<path d="M179.723 17.0596L161.703 32.1196H179.723V17.0596Z" fill="#7F3353"/>
<path d="M179.204 102.98H123.164V185.73H179.204V102.98Z" fill="#280B44"/>
<path d="M142.274 82.79H198.314L179.204 102.98H123.164L142.274 82.79Z" fill="#74C0B9"/>
<path d="M198.323 82.79L198.483 102.98H179.203L198.323 82.79Z" fill="white"/>
<path d="M198.473 102.98H179.203V185.73H198.473V102.98Z" fill="white"/>
<path d="M191.245 110.25H186.445V119.24H191.245V110.25Z" fill="#7F3353"/>
<path d="M191.245 124.63H186.445V133.62H191.245V124.63Z" fill="#7F3353"/>
<path d="M191.245 139.02H186.445V148.01H191.245V139.02Z" fill="#7F3353"/>
<path d="M191.245 153.4H186.445V162.39H191.245V153.4Z" fill="#FFC46F"/>
<path d="M191.245 167.78H186.445V176.77H191.245V167.78Z" fill="#FFC46F"/>
<path d="M171.573 110.25H166.773V119.24H171.573V110.25Z" fill="#EC7963"/>
<path d="M171.573 124.63H166.773V133.62H171.573V124.63Z" fill="#EC7963"/>
<path d="M171.573 139.02H166.773V148.01H171.573V139.02Z" fill="#EC7963"/>
<path d="M171.573 153.4H166.773V162.39H171.573V153.4Z" fill="#EC7963"/>
<path d="M171.573 167.78H166.773V176.77H171.573V167.78Z" fill="#EC7963"/>
<path d="M153.581 110.25H148.781V119.24H153.581V110.25Z" fill="#EC7963"/>
<path d="M153.581 124.63H148.781V133.62H153.581V124.63Z" fill="#EC7963"/>
<path d="M153.581 139.02H148.781V148.01H153.581V139.02Z" fill="#EC7963"/>
<path d="M153.581 153.4H148.781V162.39H153.581V153.4Z" fill="#EC7963"/>
<path d="M153.581 167.78H148.781V176.77H153.581V167.78Z" fill="#EC7963"/>
<path d="M135.605 110.25H130.805V119.24H135.605V110.25Z" fill="#EC7963"/>
<path d="M135.605 124.63H130.805V133.62H135.605V124.63Z" fill="#EC7963"/>
<path d="M135.605 139.02H130.805V148.01H135.605V139.02Z" fill="#EC7963"/>
<path d="M135.605 153.4H130.805V162.39H135.605V153.4Z" fill="#EC7963"/>
<path d="M135.605 167.78H130.805V176.77H135.605V167.78Z" fill="#EC7963"/>
<path d="M151.461 88.8096L164.041 103.24H138.891L151.461 88.8096Z" fill="#280B44"/>
<path d="M151.461 88.8096L164.041 103.24L163.611 88.8096H151.461Z" fill="#B7FFEB"/>
<path d="M151.465 102.6C153.075 102.6 154.375 101.3 154.375 99.6903C154.375 98.0803 153.075 96.7803 151.465 96.7803C149.855 96.7803 148.555 98.0803 148.555 99.6903C148.555 101.3 149.855 102.6 151.465 102.6Z" fill="#EC7963"/>
<path d="M161.326 169.09C153.636 172.22 146.106 172.37 138.766 169.09C142.206 151.91 140.756 141.38 150.046 132.23C160.006 141.32 158.236 151.91 161.326 169.09Z" fill="#FFDD37"/>
<path d="M150.047 179.57C149.667 179.57 149.367 179.27 149.367 178.89V147.56C149.367 147.18 149.667 146.88 150.047 146.88C150.427 146.88 150.727 147.18 150.727 147.56V178.89C150.727 179.27 150.427 179.57 150.047 179.57Z" fill="#7F3353"/>
<path d="M150.045 158.32L144.935 152.36C144.695 152.07 144.725 151.65 145.005 151.4C145.295 151.16 145.725 151.19 145.965 151.47L150.045 156.22L154.125 151.47C154.365 151.19 154.795 151.15 155.085 151.4C155.365 151.64 155.405 152.07 155.155 152.36L150.045 158.32Z" fill="#7F3353"/>
<path d="M150.047 148.66L146.707 144.41C146.477 144.11 146.527 143.69 146.817 143.46C147.117 143.23 147.537 143.28 147.767 143.57L150.037 146.46L152.307 143.57C152.537 143.28 152.967 143.22 153.257 143.46C153.547 143.69 153.607 144.12 153.367 144.41L150.027 148.66H150.047Z" fill="#7F3353"/>
<path d="M150.046 168.901L143.756 161.781C143.506 161.501 143.536 161.071 143.816 160.821C144.096 160.571 144.526 160.601 144.776 160.881L150.046 166.851L155.316 160.881C155.566 160.601 155.996 160.571 156.276 160.821C156.556 161.071 156.586 161.501 156.336 161.781L150.046 168.901Z" fill="#7F3353"/>
<path d="M229.208 169.081C221.518 172.211 213.988 172.361 206.648 169.081C210.088 151.901 208.638 141.371 217.928 132.221C227.888 141.311 226.118 151.901 229.208 169.081Z" fill="#A95C68"/>
<path d="M217.93 179.571C217.55 179.571 217.25 179.271 217.25 178.891V147.561C217.25 147.181 217.55 146.881 217.93 146.881C218.31 146.881 218.61 147.181 218.61 147.561V178.891C218.61 179.271 218.31 179.571 217.93 179.571Z" fill="#7F3353"/>
<path d="M217.928 158.31L212.818 152.35C212.578 152.06 212.608 151.64 212.888 151.39C213.178 151.14 213.608 151.18 213.848 151.46L217.928 156.21L222.008 151.46C222.248 151.18 222.678 151.14 222.968 151.39C223.248 151.63 223.288 152.06 223.038 152.35L217.928 158.31Z" fill="#7F3353"/>
<path d="M217.93 148.651L214.59 144.401C214.36 144.101 214.41 143.681 214.7 143.451C215 143.221 215.42 143.271 215.66 143.561L217.93 146.451L220.2 143.561C220.43 143.271 220.86 143.211 221.15 143.451C221.44 143.681 221.5 144.111 221.26 144.401L217.92 148.651H217.93Z" fill="#7F3353"/>
<path d="M217.929 168.891L211.639 161.771C211.389 161.491 211.419 161.061 211.699 160.811C211.979 160.561 212.409 160.591 212.659 160.871L217.929 166.841L223.199 160.871C223.449 160.591 223.879 160.561 224.159 160.811C224.439 161.061 224.469 161.491 224.219 161.771L217.929 168.891Z" fill="#7F3353"/>
<path d="M102.434 152.1L123.034 167.35H81.8438L102.434 152.1Z" fill="#B7FFEB"/>
<path d="M123.034 167.35H81.8438V211.02H123.034V167.35Z" fill="#B7FFEB"/>
<path d="M116.716 175.729H110.766V181.679H116.716V175.729Z" fill="#7F3353"/>
<path d="M105.419 175.729H99.4688V181.679H105.419V175.729Z" fill="#7F3353"/>
<path d="M102.433 167.35C104.073 167.35 105.413 166.02 105.413 164.37C105.413 162.73 104.083 161.39 102.433 161.39C100.793 161.39 99.4531 162.72 99.4531 164.37C99.4531 166.01 100.783 167.35 102.433 167.35Z" fill="#7F3353"/>
<path d="M94.1062 175.729H88.1562V181.679H94.1062V175.729Z" fill="#7F3353"/>
<path d="M116.716 187.83H110.766V193.78H116.716V187.83Z" fill="#7F3353"/>
<path d="M105.419 187.83H99.4688V193.78H105.419V187.83Z" fill="#7F3353"/>
<path d="M94.1062 187.83H88.1562V193.78H94.1062V187.83Z" fill="#7F3353"/>
<path d="M116.716 199.93H110.766V205.88H116.716V199.93Z" fill="#7F3353"/>
<path d="M105.419 199.93H99.4688V205.88H105.419V199.93Z" fill="#7F3353"/>
<path d="M94.1062 199.93H88.1562V205.88H94.1062V199.93Z" fill="#7F3353"/>
<path d="M81.8438 156.09L102.434 140.96V152.1L81.8438 167.24V156.09Z" fill="#280B44"/>
<path d="M123.037 156.09L102.438 140.96V152.1L123.037 167.24V156.09Z" fill="#74C0B9"/>
<path d="M92.6069 201.2C84.9169 204.33 77.3869 204.48 70.0469 201.2C73.4869 184.02 72.0369 173.49 81.3269 164.34C91.2869 173.43 89.5169 184.02 92.6069 201.2Z" fill="#A95C68"/>
<path d="M81.3284 211.679C80.9484 211.679 80.6484 211.379 80.6484 210.999V179.669C80.6484 179.289 80.9484 178.989 81.3284 178.989C81.7084 178.989 82.0084 179.289 82.0084 179.669V210.999C82.0084 211.379 81.7084 211.679 81.3284 211.679Z" fill="#7F3353"/>
<path d="M81.3265 190.43L76.2165 184.47C75.9765 184.18 76.0065 183.76 76.2865 183.51C76.5765 183.27 77.0065 183.3 77.2465 183.58L81.3265 188.33L85.4065 183.58C85.6465 183.3 86.0765 183.26 86.3665 183.51C86.6465 183.75 86.6865 184.18 86.4365 184.47L81.3265 190.43Z" fill="#7F3353"/>
<path d="M81.3284 180.77L77.9883 176.52C77.7583 176.22 77.8083 175.8 78.0983 175.57C78.3983 175.34 78.8184 175.39 79.0484 175.68L81.3183 178.57L83.5883 175.68C83.8183 175.39 84.2484 175.33 84.5384 175.57C84.8284 175.8 84.8884 176.23 84.6484 176.52L81.3083 180.77H81.3284Z" fill="#7F3353"/>
<path d="M81.3274 201.01L75.0374 193.89C74.7874 193.61 74.8174 193.18 75.0974 192.93C75.3774 192.68 75.8074 192.71 76.0574 192.99L81.3274 198.96L86.5974 192.99C86.8474 192.71 87.2774 192.68 87.5574 192.93C87.8374 193.18 87.8674 193.61 87.6174 193.89L81.3274 201.01Z" fill="#7F3353"/>
<path d="M229.286 166.87H186.016L201.576 182.35H244.846L229.286 166.87Z" fill="#FFDD37"/>
<path d="M213.714 220.2H244.844V182.35H213.714V220.2Z" fill="#74C0B9"/>
<path d="M143.514 220.2H217.914V166.88H143.514V220.2Z" fill="#B7FFEB"/>
<path d="M202.346 151.28H159.086L174.646 166.87H217.916L202.346 151.28Z" fill="#7F3353"/>
<path d="M159.076 151.28L143.516 166.87H174.646L159.076 151.28Z" fill="#74C0B9"/>
<path d="M143.518 220.2H174.648V166.88H143.518V220.2Z" fill="#74C0B9"/>
<path d="M181.977 177.7H186.477V173.2H181.977V177.7Z" fill="#F29F7B"/>
<path d="M190.523 177.7H195.023V173.2H190.523V177.7Z" fill="#F29F7B"/>
<path d="M199.07 177.7H203.57V173.2H199.07V177.7Z" fill="#F29F7B"/>
<path d="M207.617 177.7H212.117V173.2H207.617V177.7Z" fill="#F29F7B"/>
<path d="M181.977 186.851H186.477V182.351H181.977V186.851Z" fill="#F29F7B"/>
<path d="M190.523 186.851H195.023V182.351H190.523V186.851Z" fill="#F29F7B"/>
<path d="M199.07 186.851H203.57V182.351H199.07V186.851Z" fill="#F29F7B"/>
<path d="M207.617 186.851H212.117V182.351H207.617V186.851Z" fill="#F29F7B"/>
<path d="M181.977 196H186.477V191.5H181.977V196Z" fill="#F29F7B"/>
<path d="M190.523 196H195.023V191.5H190.523V196Z" fill="#F29F7B"/>
<path d="M199.07 196H203.57V191.5H199.07V196Z" fill="#F29F7B"/>
<path d="M207.617 196H212.117V191.5H207.617V196Z" fill="#F29F7B"/>
<path d="M181.977 205.15H186.477V200.65H181.977V205.15Z" fill="#F29F7B"/>
<path d="M190.523 205.15H195.023V200.65H190.523V205.15Z" fill="#F29F7B"/>
<path d="M199.07 205.15H203.57V200.65H199.07V205.15Z" fill="#F29F7B"/>
<path d="M207.617 205.15H212.117V200.65H207.617V205.15Z" fill="#F29F7B"/>
<path d="M148.289 177.7H152.789V173.2H148.289V177.7Z" fill="#280B44"/>
<path d="M156.828 177.7H161.328V173.2H156.828V177.7Z" fill="#280B44"/>
<path d="M165.383 177.7H169.883V173.2H165.383V177.7Z" fill="#280B44"/>
<path d="M148.289 186.851H152.789V182.351H148.289V186.851Z" fill="#280B44"/>
<path d="M156.828 186.851H161.328V182.351H156.828V186.851Z" fill="#280B44"/>
<path d="M165.383 186.851H169.883V182.351H165.383V186.851Z" fill="#280B44"/>
<path d="M148.289 196H152.789V191.5H148.289V196Z" fill="#280B44"/>
<path d="M156.828 196H161.328V191.5H156.828V196Z" fill="#280B44"/>
<path d="M165.383 196H169.883V191.5H165.383V196Z" fill="#280B44"/>
<path d="M217.914 196H222.414V191.5H217.914V196Z" fill="#280B44"/>
<path d="M226.461 196H230.961V191.5H226.461V196Z" fill="#280B44"/>
<path d="M235.008 196H239.508V191.5H235.008V196Z" fill="#280B44"/>
<path d="M217.914 205.15H222.414V200.65H217.914V205.15Z" fill="#280B44"/>
<path d="M226.461 205.15H230.961V200.65H226.461V205.15Z" fill="#280B44"/>
<path d="M235.008 205.15H239.508V200.65H235.008V205.15Z" fill="#280B44"/>
<path d="M131.55 220.21C122.73 220.21 116.35 211.78 118.74 203.29L119.93 199.08V188.34C119.93 185 122.64 182.29 125.98 182.29C133.3 182.29 139.23 188.22 139.23 195.54V212.55C139.23 216.79 135.8 220.22 131.56 220.22L131.55 220.21Z" fill="#FFDD37"/>
<path d="M129.36 229.799C128.98 229.799 128.68 229.499 128.68 229.119V195.999C128.68 195.619 128.98 195.319 129.36 195.319C129.74 195.319 130.04 195.619 130.04 195.999V229.119C130.04 229.499 129.74 229.799 129.36 229.799Z" fill="#7F3353"/>
<path d="M129.358 206.76L124.248 200.8C124.008 200.51 124.038 200.09 124.318 199.84C124.598 199.6 125.028 199.63 125.278 199.91L129.358 204.66L133.438 199.91C133.678 199.63 134.108 199.59 134.398 199.84C134.678 200.08 134.718 200.51 134.468 200.8L129.358 206.76Z" fill="#7F3353"/>
<path d="M129.36 197.1L126.02 192.85C125.79 192.55 125.84 192.13 126.13 191.9C126.43 191.67 126.85 191.72 127.08 192.01L129.35 194.9L131.62 192.01C131.85 191.72 132.28 191.66 132.57 191.9C132.86 192.13 132.92 192.56 132.68 192.85L129.34 197.1H129.36Z" fill="#7F3353"/>
<path d="M129.359 217.34L123.069 210.22C122.819 209.94 122.849 209.51 123.129 209.26C123.409 209.01 123.839 209.04 124.089 209.32L129.359 215.29L134.629 209.32C134.879 209.04 135.309 209.01 135.589 209.26C135.869 209.51 135.899 209.94 135.649 210.22L129.359 217.34Z" fill="#7F3353"/>
<path d="M71.5473 222.231C64.4573 222.231 59.0873 215.671 60.6573 208.751C62.5073 200.601 67.1373 192.451 70.6773 184.311C77.7073 191.551 80.2273 199.631 82.3873 208.551C84.0773 215.531 78.7273 222.231 71.5473 222.231Z" fill="#FFDD37"/>
<path d="M71.5472 233.601C71.1672 233.601 70.8672 233.301 70.8672 232.921V200.991C70.8672 200.611 71.1672 200.311 71.5472 200.311C71.9272 200.311 72.2272 200.611 72.2272 200.991V232.921C72.2272 233.301 71.9272 233.601 71.5472 233.601Z" fill="#7F3353"/>
<path d="M71.5489 217.031L65.8489 210.491C65.5989 210.211 65.6289 209.781 65.9189 209.531C66.1989 209.281 66.6289 209.311 66.8789 209.601L71.5489 214.961L76.2189 209.601C76.4689 209.321 76.8989 209.291 77.1789 209.531C77.4589 209.781 77.4889 210.211 77.2489 210.491L71.5489 217.031Z" fill="#7F3353"/>
<path d="M-332.953 246.06H245.097V217.63C177.277 212.63 129.627 219.99 71.8669 226.32C5.29688 233.62 -123.653 198.03 -332.943 188.38V246.05L-332.953 246.06Z" fill="#A95C68"/>
<path d="M126.217 246.06H245.097V209.24L241.887 206.93C224.967 194.75 201.837 209.45 205.687 229.94L194.187 216.52C180.237 200.25 153.567 209.75 153.047 231.18L146.747 227.88C134.797 221.62 121.447 233.44 126.207 246.06H126.217Z" fill="#7F3353"/>
<path d="M231.774 246.06V214.64C231.774 214.26 231.474 213.96 231.094 213.96C230.714 213.96 230.414 214.26 230.414 214.64V246.06H231.774Z" fill="#280B44"/>
<path d="M231.099 225.33C230.899 225.33 230.709 225.24 230.569 225.08L222.579 215.32C222.339 215.03 222.379 214.6 222.669 214.36C222.959 214.12 223.389 214.16 223.629 214.45L231.619 224.21C231.859 224.5 231.819 224.93 231.519 225.17C231.389 225.27 231.239 225.32 231.089 225.32L231.099 225.33Z" fill="#280B44"/>
<path d="M143.596 246.059H145.356L138.386 237.549C138.146 237.259 137.716 237.219 137.426 237.459C137.136 237.699 137.096 238.129 137.336 238.419L143.596 246.069V246.059Z" fill="#280B44"/>
<path d="M231.099 243.54C230.909 243.54 230.709 243.46 230.579 243.3L215.829 225.76C215.589 225.47 215.629 225.04 215.909 224.8C216.199 224.56 216.629 224.6 216.869 224.88L231.619 242.42C231.859 242.71 231.819 243.14 231.539 243.38C231.409 243.49 231.259 243.54 231.099 243.54Z" fill="#280B44"/>
<path d="M178.087 246.06V218.34C178.087 217.96 177.787 217.66 177.407 217.66C177.027 217.66 176.727 217.96 176.727 218.34V246.06H178.087Z" fill="#280B44"/>
<path d="M177.419 242.18C177.229 242.18 177.029 242.1 176.899 241.94L162.939 225.35C162.699 225.06 162.739 224.63 163.019 224.39C163.309 224.15 163.739 224.19 163.979 224.47L177.939 241.06C178.179 241.35 178.139 241.78 177.859 242.02C177.729 242.13 177.579 242.18 177.419 242.18Z" fill="#280B44"/>
<path d="M177.407 242.18C177.257 242.18 177.097 242.13 176.967 242.02C176.677 241.78 176.647 241.35 176.887 241.06L190.007 225.47C190.247 225.18 190.677 225.15 190.967 225.39C191.257 225.63 191.287 226.06 191.047 226.35L177.927 241.94C177.797 242.1 177.597 242.18 177.407 242.18Z" fill="#280B44"/>
</g>
</svg>
