<svg width="123" height="100" viewBox="0 0 123 100" fill="none" xmlns="http://www.w3.org/2000/svg">
<g clip-path="url(#clip0_1_27768)">
<path d="M72.8413 100C61.6943 100 51.1292 96.3921 42.3099 89.5771C41.3012 88.8012 40.3184 87.9736 39.3744 87.1201C38.5597 86.383 38.495 85.1416 39.2321 84.3269C39.9692 83.5122 41.2107 83.4476 42.0254 84.1847C42.8918 84.9735 43.8099 85.7365 44.7281 86.4477C52.8491 92.7324 62.5737 96.0429 72.8413 96.0429C98.2261 96.0429 118.878 75.3912 118.878 50.0065C118.878 24.6217 98.239 3.95707 72.8413 3.95707C63.634 3.95707 54.7371 6.68563 47.1204 11.8324C46.4221 12.3109 45.7238 12.8023 45.0513 13.3195C44.1849 13.9791 42.9435 13.8109 42.2711 12.9445C41.6115 12.0781 41.7797 10.8367 42.6461 10.1642C43.3832 9.60817 44.1332 9.06505 44.8962 8.54778C53.1853 2.96133 62.8452 0 72.8413 0C100.411 0 122.848 22.4363 122.848 50.0065C122.848 77.5766 100.411 100.013 72.8413 100.013V100Z" fill="#00A542"/>
<path d="M75.2225 49.7868H72.843H70.4766V39.6872V29.6006L72.843 26.8203L75.2225 29.6006V39.6872V49.7868Z" fill="#00A542"/>
<path d="M76.4116 50.5895C76.7309 48.6226 75.3952 46.7694 73.4284 46.4501C71.4615 46.1308 69.6083 47.4665 69.289 49.4333C68.9698 51.4002 70.3054 53.2534 72.2722 53.5727C74.2391 53.892 76.0924 52.5563 76.4116 50.5895Z" fill="#00A542" stroke="#00A542" stroke-width="3.67" stroke-linecap="round" stroke-linejoin="round"/>
<path d="M61.04 59.0456L58.1562 57.1835L58.4407 53.6919L64.9971 50.5108L71.5534 47.3296L72.8465 50.0064L74.1526 52.6703L67.5963 55.8515L61.04 59.0456Z" fill="#00A542"/>
<path d="M72.8816 24.4537C72.6747 24.4537 72.4678 24.2985 72.3126 24.1433C72.1704 23.9881 72.0799 23.7166 72.0799 23.5097L72.1445 16.824C72.1445 16.3844 72.5066 16.1387 72.9334 16.1387H74.1877C74.6274 16.1387 74.9766 16.4102 74.9766 16.8499L75.0024 23.3933C75.0024 23.3933 75.0024 23.5226 75.0024 23.5614C75.0024 24.0011 74.6533 24.4537 74.2136 24.4537H72.8558H72.8816ZM74.6921 77.1111H73.3342C73.1273 77.1111 72.9204 77.0982 72.7782 77.2404C72.6359 77.3956 72.5454 77.5379 72.5454 77.7577L72.5713 84.5597C72.5713 84.9994 72.9334 85.4261 73.3601 85.4261H74.6145C75.0541 85.4261 75.4033 84.9735 75.4033 84.5468L75.468 77.7706C75.468 77.5637 75.3904 77.4344 75.2352 77.2792C75.08 77.1241 74.886 77.1241 74.6662 77.1241L74.6921 77.1111ZM57.7517 24.583C57.8293 24.6089 57.8939 24.6089 57.9715 24.6089C58.1138 24.6089 58.2431 24.5701 58.3724 24.5054L59.6656 23.7554C59.8466 23.6519 59.9888 23.4709 60.0406 23.264C60.0923 23.0571 60.0664 22.8372 59.95 22.6562L58.0362 19.488C57.8163 19.1259 57.3379 18.9966 56.9628 19.2164L55.8766 19.85C55.5145 20.0569 55.3723 20.5225 55.5662 20.8975L57.2861 24.1821C57.3896 24.3761 57.5577 24.5183 57.7646 24.5701L57.7517 24.583ZM90.3134 74.2662C90.21 74.0722 90.0419 73.93 89.835 73.8782C89.628 73.8136 89.4082 73.8394 89.2142 73.9558L87.9211 74.7059C87.74 74.8093 87.5978 74.9904 87.5461 75.1973C87.4943 75.4042 87.5202 75.624 87.6366 75.805L89.5505 78.9733C89.6927 79.219 89.9643 79.3612 90.2229 79.3612C90.3522 79.3612 90.4945 79.3224 90.6238 79.2578L91.71 78.6241C92.0721 78.4172 92.2144 77.9517 92.0204 77.5767L90.3005 74.292L90.3134 74.2662ZM43.8502 33.8291L46.9797 35.8206C47.109 35.8981 47.2512 35.9499 47.4064 35.9499C47.4711 35.9499 47.5357 35.9499 47.6004 35.924C47.8073 35.8723 47.9883 35.743 48.0918 35.549L48.8418 34.2558C48.9453 34.0748 48.9711 33.855 48.9194 33.648C48.8677 33.4411 48.7254 33.273 48.5444 33.1696L45.2986 31.385C44.9235 31.1781 44.4451 31.3074 44.2252 31.6824L43.5916 32.7687C43.3847 33.1308 43.4881 33.6093 43.8502 33.8291ZM103.749 64.6451L100.62 62.6536C100.439 62.5372 100.219 62.4984 100.012 62.5502C99.8052 62.6019 99.6242 62.7312 99.5207 62.9252L98.7707 64.2183C98.6672 64.3994 98.6414 64.6192 98.6931 64.8261C98.7448 65.033 98.8871 65.2011 99.0681 65.3046L102.314 67.0891C102.43 67.1538 102.56 67.1926 102.689 67.1926C102.961 67.1926 103.232 67.0504 103.374 66.7917L104.008 65.7055C104.215 65.3434 104.099 64.8649 103.749 64.6451ZM45.3503 50.9893C45.5572 50.9893 45.6606 50.8729 45.8029 50.7307C45.9581 50.5755 45.9322 50.3557 45.9322 50.1358V48.778C45.9322 48.5711 45.9451 48.2737 45.8029 48.1314C45.6606 47.9892 45.5572 47.8211 45.3373 47.8211L38.5095 47.9375C38.0698 47.9375 37.6172 48.3771 37.6172 48.8168V50.0712C37.6172 50.5108 38.0698 50.8859 38.4965 50.8859L45.3244 50.9764L45.3503 50.9893ZM105.831 47.6012L99.1457 47.5366C98.9388 47.5366 98.6543 47.6142 98.5121 47.7693C98.3569 47.9245 98.2017 48.1185 98.2017 48.3383V49.6962C98.2017 49.9031 98.3827 50.1617 98.5379 50.3169C98.6802 50.4591 98.9905 50.6014 99.1974 50.6014L105.831 50.5108C106.271 50.5108 106.517 50.097 106.517 49.6574V48.403C106.517 47.9633 106.271 47.6142 105.831 47.6142V47.6012ZM48.3245 63.3648C48.2211 63.1838 48.0401 63.0416 47.8331 62.9898C47.6262 62.9381 47.4064 62.964 47.2254 63.0804L44.0571 64.9942C43.695 65.2141 43.5657 65.6925 43.7856 66.0676L44.4192 67.1538C44.5615 67.4124 44.833 67.5547 45.1046 67.5547C45.2339 67.5547 45.3503 67.5288 45.4667 67.4642L48.7513 65.7443C48.9453 65.6408 49.0875 65.4727 49.1392 65.2658C49.2039 65.0589 49.178 64.8391 49.0616 64.6451L48.3116 63.3519L48.3245 63.3648ZM99.2492 35.1093C99.3526 35.2904 99.5336 35.4326 99.7405 35.4843C99.8052 35.4973 99.8699 35.5102 99.9345 35.5102C100.077 35.5102 100.219 35.4714 100.348 35.3938L103.517 33.4799C103.879 33.2601 104.008 32.7816 103.788 32.4066L103.154 31.3204C102.948 30.9583 102.482 30.816 102.107 31.01L98.8224 32.7299C98.6284 32.8334 98.4862 33.0015 98.4345 33.2084C98.3698 33.4153 98.3957 33.6351 98.5121 33.8291L99.2621 35.1222L99.2492 35.1093ZM60.0923 74.9516L58.7991 74.2015C58.6181 74.0981 58.3983 74.0722 58.1913 74.1239C57.9844 74.1757 57.8163 74.3179 57.7129 74.5119L55.9283 77.7577C55.7214 78.1327 55.8507 78.6112 56.2257 78.831L57.312 79.4647C57.4413 79.5423 57.5706 79.5681 57.7129 79.5681C57.9715 79.5681 58.2301 79.4388 58.3853 79.206L60.3768 76.0766C60.4932 75.8956 60.532 75.6757 60.4802 75.4688C60.4285 75.2619 60.2992 75.0809 60.1052 74.9774L60.0923 74.9516ZM89.1754 24.3761C89.253 24.3761 89.3177 24.3761 89.3824 24.3502C89.5893 24.2985 89.7574 24.1563 89.8608 23.9752L91.6454 20.7294C91.8523 20.3544 91.723 19.8759 91.3479 19.6561L90.2617 19.0224C89.8996 18.8155 89.4211 18.9319 89.2013 19.281L87.2098 22.4105C87.0935 22.5915 87.0547 22.8114 87.1064 23.0183C87.1581 23.2252 87.2874 23.4062 87.4814 23.5097L88.7746 24.2597C88.8909 24.3244 89.0332 24.3632 89.1754 24.3632V24.3761Z" fill="#00A542"/>
<path d="M40.3854 16.5264H1.97853C0.879348 16.5264 0 15.6341 0 14.5479C0 13.4616 0.89228 12.5693 1.97853 12.5693H40.3854C41.4845 12.5693 42.3639 13.4616 42.3639 14.5479C42.3639 15.6341 41.4716 16.5264 40.3854 16.5264ZM33.2601 26.0311C33.2601 24.9319 32.3678 24.0526 31.2815 24.0526H9.50472C8.40553 24.0526 7.52619 24.9449 7.52619 26.0311C7.52619 27.1174 8.41847 28.0097 9.50472 28.0097H31.2815C32.3807 28.0097 33.2601 27.1174 33.2601 26.0311ZM31.2815 72.3521C31.2815 71.2529 30.3892 70.3736 29.303 70.3736H12.2721C11.1729 70.3736 10.2935 71.2658 10.2935 72.3521C10.2935 73.4383 11.1858 74.3306 12.2721 74.3306H29.303C30.4022 74.3306 31.2815 73.4383 31.2815 72.3521ZM26.9236 37.5144C26.9236 36.4152 26.0313 35.5358 24.945 35.5358H15.8412C14.742 35.5358 13.8627 36.4281 13.8627 37.5144C13.8627 38.6006 14.7549 39.4929 15.8412 39.4929H24.945C26.0442 39.4929 26.9236 38.6006 26.9236 37.5144ZM26.9236 49.3856C26.9236 48.2864 26.0313 47.407 24.945 47.407H9.50472C8.40553 47.407 7.52619 48.2993 7.52619 49.3856C7.52619 50.4718 8.41847 51.3641 9.50472 51.3641H24.945C26.0442 51.3641 26.9236 50.4718 26.9236 49.3856ZM39.5965 83.8353C39.5965 82.7362 38.7043 81.8568 37.618 81.8568H1.97853C0.879348 81.8568 0 82.7491 0 83.8353C0 84.9216 0.89228 85.8139 1.97853 85.8139H37.6051C38.7043 85.8139 39.5836 84.9216 39.5836 83.8353H39.5965ZM26.9236 60.8688C26.9236 59.7696 26.0313 58.8903 24.945 58.8903H14.2506C13.1514 58.8903 12.2721 59.7826 12.2721 60.8688C12.2721 61.9551 13.1644 62.8474 14.2506 62.8474H24.945C26.0442 62.8474 26.9236 61.9551 26.9236 60.8688Z" fill="#00A542"/>
</g>
<defs>
<clipPath id="clip0_1_27768">
<rect width="122.85" height="100" fill="white"/>
</clipPath>
</defs>
</svg>
