<svg width="160" height="103" viewBox="0 0 160 103" fill="none" xmlns="http://www.w3.org/2000/svg">
<path d="M5.86719 11.4756L28.7998 41.2203H129.566L152.561 11.4756H5.86719Z" fill="#666666"/>
<path d="M129.786 41.6702H28.57L28.4326 41.4954L4.9375 11.0264H153.494L129.786 41.6827V41.6702ZM29.0199 40.7586H129.336L151.619 11.9379H6.78709L29.0199 40.7586Z" fill="#333333"/>
<path d="M56.1861 41.896L41.4141 12.7881L42.2264 12.376L57.0109 41.4839L56.1861 41.896Z" fill="#333333"/>
<path d="M139.943 27.771H18.4183L16.2188 24.9238H142.155L139.943 27.771Z" fill="#4D4D4D"/>
<path d="M140.163 28.2332H18.1885L15.2891 24.4619H143.087L140.175 28.2332H140.163ZM18.6383 27.3216H139.713L141.213 25.386H17.1386L18.6383 27.3216Z" fill="#333333"/>
<path d="M56.062 43.7551L38.0156 7.94146L40.5652 6.65527L58.599 42.4564L56.062 43.7551Z" fill="#4D4D4D"/>
<path d="M55.8572 44.3675L37.3984 7.74222L40.7603 6.04395L59.2191 42.6692L55.8572 44.38V44.3675ZM38.6232 8.14181L56.2572 43.1312L57.9818 42.2571L40.3478 7.26771L38.6232 8.14181Z" fill="#333333"/>
<path d="M101.839 43.6318L99.2891 42.3331L117.185 9.74121L119.722 11.0399L101.839 43.6318Z" fill="#4D4D4D"/>
<path d="M102.026 44.2307L98.6641 42.52L116.998 9.12891L120.36 10.8272L102.026 44.2182V44.2307ZM99.9138 42.1329L101.638 43.007L119.085 11.2143L117.36 10.3402L99.9138 42.1329Z" fill="#333333"/>
<path d="M142.057 63.4365L129.959 66.1962L129.859 98.3385L142.057 101.897V63.4365Z" fill="#B3B3B3"/>
<path d="M142.524 102.509L129.414 98.6751V98.338L129.514 65.846L142.524 62.874V102.509ZM130.326 97.9883L141.599 101.285V64.0104L130.414 66.5578L130.326 97.9883Z" fill="#333333"/>
<path d="M129.866 66.4451V55.5187L147.699 45.8036V41.2207L129.866 50.9358V41.2207H124.467V52.1221H103.609V41.2207H98.2099V52.1221H60.4177V41.2207H55.0189V52.1221H34.4982V41.2207H29.0993V50.9358L11.2656 41.2207V45.8036L29.0993 55.5187V66.4451V66.1953L17.0019 63.4356V101.897L29.1993 98.3376H129.878V66.4576L129.866 66.4451ZM124.467 56.2679V66.4451H103.609V56.2679H124.467ZM98.2099 56.2679V66.4451H60.4177V56.2679H98.2099ZM34.4982 56.2679H55.0189V66.4451H34.4982V56.2679Z" fill="#B3B3B3"/>
<path d="M16.5441 102.508V62.8735L28.654 65.6332V55.7932L10.8203 46.0781V40.4463L28.654 50.1614V40.7585H34.9652V51.6599H54.5736V40.7585H60.8848V51.6599H97.752V40.7585H104.063V51.6599H124.009V40.7585H130.32V50.1614L148.154 40.4463V46.0781L130.32 55.7932V98.7995H29.2414L16.5315 102.521L16.5441 102.508ZM17.4564 64.0223V101.297L29.1914 97.8879H129.42V55.2562L147.254 45.5411V41.9947L129.42 51.7098V41.6825H124.934V52.584H103.163V41.6825H98.6768V52.584H59.9724V41.6825H55.4859V52.584H34.0404V41.6825H29.5539V51.7098L11.7201 41.9947V45.5411L29.5539 55.2562V66.9194H28.6415V66.5697L17.4439 64.0223H17.4564ZM124.934 66.9194H103.163V55.8306H124.934V66.9194ZM104.076 66.0078H124.021V56.7422H104.076V66.0078ZM98.6768 66.9194H59.9724V55.8306H98.6768V66.9194ZM60.8848 66.0078H97.752V56.7422H60.8848V66.0078ZM55.4859 66.9194H34.0404V55.8306H55.4859V66.9194ZM34.9652 66.0078H54.5736V56.7422H34.9652V66.0078Z" fill="#333333"/>
<path d="M152.855 63.4352V11.4755H155.38V0.449219H4.03675V11.4755H6.16132V63.4352H0.4375V101.896H16.984V63.4352H11.2603V11.4755H76.9714V63.4352H71.2477V101.896H87.7942V63.4352H82.0704V11.4755H147.769V63.4352H142.033V101.896H158.592V63.4352H152.855Z" fill="#CCCCCC"/>
<path d="M159.042 102.358H141.57V62.986H147.307V11.9379H82.5326V62.986H88.269V102.358H70.7977V62.986H76.5339V11.9379H11.7351V62.986H17.4713V102.358H0V62.986H5.73625V11.9379H3.61176V0H155.867V11.9379H153.343V62.986H159.079V102.358H159.042ZM142.483 101.447H158.129V63.91H152.393V11.0388H154.917V0.924058H4.48651V11.0388H6.61108V63.91H0.874831V101.447H16.5215V63.91H10.7852V11.0388H77.4212V63.91H71.6849V101.447H87.3317V63.91H81.5953V11.0388H148.206V63.91H142.47V101.447H142.483Z" fill="#333333"/>
</svg>
