<svg width="124" height="100" viewBox="0 0 124 100" fill="none" xmlns="http://www.w3.org/2000/svg">
<g clip-path="url(#clip0_1_27784)">
<path d="M122.935 30.0581H0.530437C0.237485 30.0581 0 30.2956 0 30.5885V99.4696C0 99.7625 0.237485 100 0.530437 100H122.935C123.228 100 123.466 99.7625 123.466 99.4696V30.5885C123.466 30.2956 123.228 30.0581 122.935 30.0581Z" fill="#00A542"/>
<path d="M83.6187 68.0599C83.6187 80.6136 73.6288 90.7803 61.2898 90.7803C48.9508 90.7803 38.9609 80.601 38.9609 68.0599C38.9609 64.1701 39.9334 60.5075 41.6131 57.3123L61.2898 20.0933L80.9539 57.3123C82.6336 60.5201 83.606 64.1701 83.606 68.0599H83.6187Z" fill="white" stroke="#00A542" stroke-width="2.36" stroke-linecap="round" stroke-linejoin="round"/>
<path d="M61.2927 80.689C54.4602 80.689 48.8906 75.0184 48.8906 68.0596" stroke="#00A542" stroke-width="2.36" stroke-linecap="round" stroke-linejoin="round"/>
<path d="M111.518 39.4294C111.518 46.6913 105.684 52.5767 98.4975 52.5767C91.3114 52.5767 85.4766 46.6913 85.4766 39.4294C85.4766 37.1813 86.0449 35.0596 87.0174 33.2031L98.4975 11.6572L109.978 33.2031C110.963 35.0596 111.531 37.1813 111.531 39.4294H111.518Z" fill="white" stroke="#00A542" stroke-width="2.36" stroke-linecap="round" stroke-linejoin="round"/>
<path d="M98.4963 45.1382C95.4147 45.1382 92.9141 42.5744 92.9141 39.4297" stroke="#00A542" stroke-width="2.36" stroke-linecap="round" stroke-linejoin="round"/>
<path d="M37.1044 29.2624C37.1044 36.5243 31.2696 42.4097 24.0835 42.4097C16.8973 42.4097 11.0625 36.5243 11.0625 29.2624C11.0625 27.0144 11.6308 24.8926 12.6033 23.0361L24.0835 1.49023L35.5636 23.0361C36.5487 24.8926 37.1171 27.0144 37.1171 29.2624H37.1044Z" fill="white" stroke="#00A542" stroke-width="2.36" stroke-linecap="round" stroke-linejoin="round"/>
<path d="M24.0822 34.9712C21.0006 34.9712 18.5 32.4074 18.5 29.2627" stroke="#00A542" stroke-width="2.36" stroke-linecap="round" stroke-linejoin="round"/>
</g>
<defs>
<clipPath id="clip0_1_27784">
<rect width="123.466" height="100" fill="white"/>
</clipPath>
</defs>
</svg>
