<svg width="103" height="110" viewBox="0 0 103 110" fill="none" xmlns="http://www.w3.org/2000/svg">
<path d="M54.9899 109.992C54.3339 109.992 53.8043 109.462 53.8043 108.806V102.831C53.8043 101.795 53.5435 100.578 53.2115 99.0368C52.6187 96.302 51.8125 92.5634 51.8125 86.8883C51.8125 84.1456 53.8201 80.6679 57.78 76.5499C60.6255 73.5938 63.4235 71.4044 63.542 71.3174L74.1097 64.0853C75.9829 61.7931 77.2081 59.8724 78.1961 58.3154C81.1205 53.6994 82.6381 51.8262 90.8662 51.8262C91.214 51.8262 91.5459 51.9763 91.7751 52.2451C92.0043 52.5138 92.0992 52.8616 92.036 53.2094C91.9806 53.5334 90.6528 61.3031 87.9654 67.4366C87.9022 67.5788 87.8152 67.7053 87.7046 67.816C87.6413 67.8792 81.4525 73.823 77.7851 77.7355C77.3345 78.2097 76.5836 78.2334 76.1094 77.7908C75.6352 77.3403 75.6114 76.5894 76.0541 76.1152C79.4212 72.5268 84.8591 67.2706 85.8946 66.2747C87.752 61.9512 88.9376 56.6871 89.4356 54.2211C83.4917 54.4029 82.5828 55.8414 80.2037 59.5879C79.1603 61.2319 77.872 63.2712 75.8407 65.7293C75.7695 65.8163 75.6905 65.8874 75.5956 65.9506L64.9489 73.2381C62.0008 75.5382 54.1916 82.5727 54.1916 86.8962C54.1916 92.3184 54.9662 95.9147 55.5353 98.5388C55.8989 100.222 56.1834 101.55 56.1834 102.839V108.814C56.1834 109.47 55.6538 110 54.9978 110L54.9899 109.992Z" fill="#00A542"/>
<path d="M76.92 109.992C76.2639 109.992 75.7344 109.463 75.7344 108.807V98.8397C75.7344 92.1687 84.0573 84.4939 90.7441 78.3367C93.8029 75.5229 97.6048 72.0135 97.6601 70.9386C97.6601 68.2512 99.4622 50.7201 99.644 48.8943L97.7944 32.2247C96.6247 32.4223 95.6446 32.9756 94.8225 33.8925C90.9417 38.2239 92.0403 48.7836 92.0561 48.8864C92.0561 48.9259 92.0561 48.9733 92.0561 49.0129V52.9965C92.0561 53.6525 91.5266 54.1821 90.8705 54.1821C90.2145 54.1821 89.6849 53.6525 89.6849 52.9965V49.0761C89.5743 48.0248 88.5942 37.2833 93.052 32.3117C94.5617 30.6202 96.514 29.7666 98.8457 29.7666C99.4464 29.7666 99.9601 30.2171 100.023 30.8178L102.015 48.752C102.023 48.839 102.023 48.918 102.015 49.0049C101.991 49.1946 100.031 68.2749 100.031 70.9306C100.031 72.8987 97.3992 75.4201 92.3486 80.0677C86.3415 85.6084 78.1056 93.1962 78.1056 98.8318V108.799C78.1056 109.455 77.576 109.984 76.92 109.984V109.992Z" fill="#00A542"/>
<path d="M47.0223 109.992C46.3662 109.992 45.8367 109.462 45.8367 108.806V102.831C45.8367 101.542 46.1212 100.215 46.4848 98.531C47.0539 95.9069 47.8285 92.3106 47.8285 86.8884C47.8285 82.557 40.0193 75.5304 37.0158 73.1908L26.4244 65.9428C26.3296 65.8796 26.2505 65.8084 26.1794 65.7215C24.1481 63.2634 22.8518 61.2241 21.8164 59.5801C19.4373 55.8336 18.5283 54.3951 12.5924 54.2133C13.0904 56.6793 14.2839 61.9434 16.1334 66.2669C17.1688 67.2628 22.5989 72.5189 25.9739 76.1074C26.4244 76.5816 26.4007 77.3325 25.9186 77.783C25.4443 78.2256 24.6934 78.2098 24.2429 77.7277C20.5676 73.8073 14.3866 67.8635 14.3234 67.8082C14.2127 67.6975 14.1179 67.571 14.0626 67.4288C11.3831 61.2953 10.0473 53.5256 9.992 53.2016C9.93667 52.8538 10.0315 52.506 10.2528 52.2373C10.4821 51.9685 10.8061 51.8184 11.1618 51.8184C19.382 51.8184 20.8995 53.6916 23.8319 58.3075C24.8199 59.8646 26.0371 61.7932 27.9183 64.0775L38.4306 71.2701C38.6045 71.4045 41.4104 73.5939 44.2559 76.55C48.2158 80.6601 50.2234 84.1378 50.2234 86.8884C50.2234 92.5635 49.4172 96.3021 48.8244 99.0369C48.4924 100.578 48.2316 101.803 48.2316 102.831V108.806C48.2316 109.462 47.702 109.992 47.046 109.992H47.0223Z" fill="#00A542"/>
<path d="M25.1011 109.992C24.4451 109.992 23.9155 109.463 23.9155 108.807V98.8396C23.9155 93.204 15.6796 85.6162 9.67253 80.0755C4.62977 75.42 1.98983 72.9066 1.98983 70.9385C1.98983 68.2827 0.021736 49.2025 0.005928 49.0128C-0.001976 48.9258 -0.001976 48.8468 0.005928 48.7598L1.99774 30.8256C2.06097 30.2249 2.57473 29.7744 3.17543 29.7744C5.50712 29.7744 7.4594 30.628 8.96907 32.3195C13.4269 37.2911 12.4389 48.0327 12.3362 49.0839V53.0043C12.3362 53.6603 11.8066 54.1899 11.1506 54.1899C10.4945 54.1899 9.96498 53.6603 9.96498 53.0043V49.0207C9.96498 48.9811 9.96498 48.9337 9.96498 48.8942C9.97288 48.7914 11.0794 38.2317 7.19857 33.9003C6.37656 32.9834 5.39646 32.4302 4.22667 32.2326L2.37713 48.9021C2.56682 50.72 4.36103 68.259 4.36103 70.9464C4.41636 72.0213 8.21819 75.5228 11.277 78.3445C17.9638 84.5096 26.2867 92.1765 26.2867 98.8475V108.814C26.2867 109.47 25.7572 110 25.1011 110V109.992Z" fill="#00A542"/>
<path d="M51.0082 62.1571C33.8723 62.1571 19.9297 48.2144 19.9297 31.0785C19.9297 13.9427 33.8723 0 51.0082 0C68.1441 0 82.0868 13.9427 82.0868 31.0785C82.0868 48.2144 68.1441 62.1571 51.0082 62.1571ZM51.0082 2.3633C35.1765 2.3633 22.3009 15.2389 22.3009 31.0706C22.3009 46.9023 35.1765 59.778 51.0082 59.778C66.8399 59.778 79.7156 46.9023 79.7156 31.0706C79.7156 15.2389 66.8399 2.3633 51.0082 2.3633Z" fill="#00A542"/>
<path d="M22.4904 27.4425C22.0556 27.4425 21.613 27.3714 21.1625 27.2291C20.5381 27.0236 20.1982 26.3597 20.4037 25.7353C20.6092 25.1109 21.2731 24.771 21.8976 24.9765C23.676 25.5535 25.6915 23.1823 27.6359 20.8822C29.928 18.1712 32.3071 15.3731 35.1605 16.6694C38.4802 18.1791 39.3101 17.5467 40.8355 14.2429C41.539 12.7253 40.6063 10.8995 39.6183 8.96299C38.7252 7.2162 37.8004 5.40619 37.9585 3.53294C38.0138 2.87691 38.5987 2.41057 39.2389 2.45009C39.895 2.50542 40.3771 3.07451 40.3218 3.73054C40.219 4.93195 40.9541 6.36257 41.7287 7.88804C42.8748 10.1328 44.171 12.67 42.9854 15.2388C41.1517 19.2145 39.1204 21.0719 34.1804 18.8272C32.9474 18.266 31.169 20.3764 29.4459 22.4156C27.4304 24.7947 25.1856 27.4505 22.4904 27.4505V27.4425Z" fill="#00A542"/>
<path d="M39.8732 60.015C39.8179 60.015 39.7626 60.015 39.7072 59.9992C39.0591 59.9044 38.6086 59.3037 38.7034 58.6555C38.9801 56.7428 36.4113 52.1743 35.0281 49.724C34.2061 48.2697 33.7397 47.424 33.55 46.8549C33.1153 45.5428 34.0085 44.4362 34.949 43.2664C35.9607 42.0176 37.0989 40.6028 36.8381 38.856C36.4745 36.4295 34.0875 36.1766 29.1791 36.5243C26.9581 36.6903 25.4879 36.0422 24.3102 35.5205C23.2669 35.0621 22.5793 34.7617 21.5597 35.0384C20.9273 35.2123 20.2792 34.8408 20.1053 34.2085C19.9314 33.5761 20.3029 32.928 20.9352 32.7541C22.769 32.2483 24.0968 32.8332 25.2745 33.3469C26.3574 33.8212 27.3691 34.2717 29.021 34.1531C32.7754 33.8844 38.4426 33.4813 39.1935 38.5003C39.6045 41.2746 37.9842 43.2823 36.7986 44.7445C36.435 45.195 35.8896 45.8669 35.8185 46.1514C35.9766 46.5624 36.5456 47.5741 37.091 48.5542C39.3832 52.6248 41.4066 56.4819 41.0509 58.9875C40.964 59.5803 40.4581 60.0071 39.8811 60.0071L39.8732 60.015Z" fill="#00A542"/>
<path d="M58.0763 61.3197C57.9894 61.3197 57.9024 61.3118 57.8155 61.2881C57.1752 61.1458 56.7721 60.5135 56.9144 59.8732C57.6416 56.6247 56.0608 54.0085 54.7882 51.906C54.2903 51.084 53.8635 50.3726 53.6026 49.6929C52.7727 47.4798 51.0496 42.8875 50.196 37.4259C49.4925 32.9206 54.8198 31.3635 58.3371 30.336C59.5464 29.9803 61.1984 29.4982 61.5066 29.1583C61.6647 28.8817 61.6173 28.692 61.5383 28.5339C61.1826 27.8304 59.5781 26.874 56.2584 26.5025C51.2235 25.9414 50.8995 23.9733 50.9627 20.8038C50.9706 20.3849 50.9785 19.9264 50.9706 19.4364C50.9153 15.8005 57.0962 14.4806 62.0599 13.4135C63.5617 13.0895 64.9844 12.7891 65.6325 12.5204C66.4862 12.1726 66.7707 11.5877 67.2054 10.576C67.6955 9.43781 68.312 8.02299 70.2406 7.38277C70.865 7.17726 71.5289 7.51713 71.7344 8.13365C71.9399 8.75806 71.6 9.422 70.9835 9.6275C70.0983 9.91995 69.8296 10.4732 69.379 11.5087C68.9048 12.6073 68.312 13.9747 66.5257 14.7019C65.6799 15.0496 64.2967 15.3421 62.55 15.7136C59.7836 16.3064 53.3102 17.6896 53.3339 19.381C53.3339 19.9027 53.3339 20.3849 53.326 20.8275C53.2786 23.3726 53.2707 23.7599 56.5192 24.1234C60.242 24.5345 62.7792 25.7121 63.6565 27.4352C64.1308 28.36 64.0912 29.3954 63.5459 30.3439C62.9214 31.4426 61.2774 31.9247 59.0169 32.5886C55.2704 33.6873 52.1957 34.778 52.5514 37.0386C53.3655 42.2631 55.0333 46.6973 55.8316 48.8314C56.0134 49.3135 56.3848 49.93 56.8275 50.6572C58.1632 52.8624 60.1788 56.19 59.2382 60.3712C59.1117 60.9245 58.6217 61.296 58.0842 61.296L58.0763 61.3197Z" fill="#00A542"/>
<path d="M63.3845 59.4859C63.1869 59.4859 62.9893 59.4384 62.8075 59.3357C62.2384 59.0116 62.0329 58.2924 62.357 57.7233C64.167 54.5063 64.088 51.5898 64.001 48.768C63.8983 45.0769 63.7876 41.2592 68.5774 38.2478C69.5101 37.6629 70.1582 35.8213 70.7273 34.201C71.4703 32.0906 72.1738 30.0988 73.7783 29.4586C75.7464 28.6761 76.932 30.4545 77.7935 31.7586C78.5918 32.9679 79.4217 34.2168 80.7338 34.3986C81.3819 34.4934 81.8325 35.0862 81.7455 35.7343C81.6586 36.3825 81.0658 36.8409 80.4097 36.746C78.0385 36.4141 76.7581 34.4776 75.8254 33.0628C75.4934 32.5648 74.9402 31.727 74.6872 31.6401C74.0628 31.9009 73.4305 33.6872 72.9721 34.9835C72.237 37.0701 71.4782 39.22 69.85 40.2475C66.2062 42.5397 66.2774 45.1243 66.3801 48.6969C66.4671 51.6925 66.5619 55.0912 64.4278 58.8773C64.2065 59.2646 63.8034 59.478 63.3924 59.478L63.3845 59.4859Z" fill="#00A542"/>
</svg>
