<svg width="110" height="110" viewBox="0 0 110 110" fill="none" xmlns="http://www.w3.org/2000/svg">
<path d="M68.9268 92.1089H41.0837C40.3673 92.1089 39.7891 91.5306 39.7891 90.8143V82.8566C39.7891 82.1403 40.3673 81.562 41.0837 81.562C41.8 81.562 42.3783 82.1403 42.3783 82.8566V89.5196H67.6322V82.8566C67.6322 82.1403 68.2104 81.562 68.9268 81.562C69.6431 81.562 70.2214 82.1403 70.2214 82.8566V90.8143C70.2214 91.5306 69.6431 92.1089 68.9268 92.1089Z" fill="#00A542"/>
<path d="M68.9268 100.066H41.0837C40.3673 100.066 39.7891 99.4882 39.7891 98.7718V90.8142C39.7891 90.0978 40.3673 89.5195 41.0837 89.5195C41.8 89.5195 42.3783 90.0978 42.3783 90.8142V97.4772H67.6322V90.8142C67.6322 90.0978 68.2104 89.5195 68.9268 89.5195C69.6431 89.5195 70.2214 90.0978 70.2214 90.8142V98.7718C70.2214 99.4882 69.6431 100.066 68.9268 100.066Z" fill="#00A542"/>
<path d="M54.9974 110.001C52.926 110.001 50.9409 109.362 49.2493 108.162C49.1975 108.128 49.1544 108.093 49.1112 108.05C46.9103 106.773 39.7812 102.008 39.7812 98.7546C39.7812 98.0382 40.3595 97.46 41.0759 97.46C41.7922 97.46 42.3705 98.0382 42.3705 98.7546C42.3705 100.118 47.7648 104.287 50.6043 105.961C50.6561 105.987 50.6993 106.022 50.7511 106.048C53.2454 107.826 56.7495 107.826 59.2438 106.048C59.287 106.013 59.3387 105.987 59.3905 105.961C62.2301 104.287 67.6244 100.127 67.6244 98.7546C67.6244 98.0382 68.2026 97.46 68.919 97.46C69.6353 97.46 70.2136 98.0382 70.2136 98.7546C70.2136 102 63.0845 106.764 60.8837 108.05C60.8405 108.093 60.7974 108.128 60.7456 108.162C59.0539 109.362 57.0688 110.001 54.9974 110.001Z" fill="#00A542"/>
<path d="M69.6211 84.1421H40.3194C37.7905 84.1421 35.7364 82.0879 35.7364 79.5591V77.574C35.7364 73.4571 34.6144 69.4092 32.4826 65.8792L24.9047 53.33C24.9047 53.33 24.8529 53.2609 24.8356 53.2264C21.5559 47.7717 19.8125 41.5057 19.8125 35.1103C19.8125 15.7513 35.5638 0 54.9228 0C74.2817 0 90.1107 15.7513 90.1107 35.1103C90.1107 41.4971 88.3759 47.7631 85.0876 53.2264C85.0617 53.2609 85.0444 53.2955 85.0185 53.33L77.4493 65.8792C75.3261 69.4092 74.1954 73.4485 74.1954 77.574V79.5591C74.1954 82.0879 72.1413 84.1421 69.6125 84.1421H69.6211ZM26.9675 51.7419C26.9675 51.7419 27.0279 51.8282 27.0624 51.88L34.7007 64.5414C37.0742 68.4685 38.3257 72.9824 38.3257 77.574V79.5591C38.3257 80.6552 39.2233 81.5528 40.3194 81.5528H69.6211C70.7172 81.5528 71.6148 80.6552 71.6148 79.5591V77.574C71.6148 72.9824 72.8663 68.4771 75.2398 64.5414L82.7745 52.0526C82.8004 52.0095 82.8263 51.9663 82.8522 51.9232L82.9126 51.8368C82.9126 51.8368 82.9385 51.7937 82.9557 51.7764C85.9506 46.7446 87.5387 40.9879 87.5387 35.1103C87.5387 17.1754 72.9526 2.58925 55.0177 2.58925C37.0828 2.58925 22.419 17.1754 22.419 35.1103C22.419 40.9792 23.9985 46.7274 26.9847 51.7419H26.9675Z" fill="#00A542"/>
<path d="M54.9918 62.263C54.6465 62.263 54.3186 62.1249 54.0769 61.8832L40.1554 47.9616C39.6461 47.4524 39.6461 46.6325 40.1554 46.1319C40.6646 45.6313 41.4845 45.6227 41.9851 46.1319L54.9918 59.1386L67.9985 46.1319C68.5077 45.6227 69.3276 45.6227 69.8282 46.1319C70.3288 46.6411 70.3374 47.4611 69.8282 47.9616L55.9066 61.8832C55.665 62.1249 55.337 62.263 54.9918 62.263Z" fill="#00A542"/>
<path d="M54.9978 62.2628C54.2814 62.2628 53.7031 61.6846 53.7031 60.9682V21.1887C53.7031 20.4723 54.2814 19.894 54.9978 19.894C55.7141 19.894 56.2924 20.4723 56.2924 21.1887V60.9682C56.2924 61.6846 55.7141 62.2628 54.9978 62.2628Z" fill="#00A542"/>
<path d="M108.706 36.4052H98.7634C98.047 36.4052 97.4688 35.8269 97.4688 35.1105C97.4688 34.3942 98.047 33.8159 98.7634 33.8159H108.706C109.422 33.8159 110.001 34.3942 110.001 35.1105C110.001 35.8269 109.422 36.4052 108.706 36.4052Z" fill="#00A542"/>
<path d="M11.2374 36.4052H1.29463C0.578267 36.4052 0 35.8269 0 35.1105C0 34.3942 0.578267 33.8159 1.29463 33.8159H11.2374C11.9537 33.8159 12.532 34.3942 12.532 35.1105C12.532 35.8269 11.9537 36.4052 11.2374 36.4052Z" fill="#00A542"/>
<path d="M92.8725 14.5002C92.4237 14.5002 91.9921 14.2672 91.7504 13.8529C91.3966 13.2315 91.6037 12.4461 92.2251 12.0836L100.839 7.11219C101.452 6.74969 102.254 6.96546 102.608 7.58689C102.962 8.20831 102.755 8.99372 102.133 9.35621L93.5198 14.3276C93.3126 14.4484 93.0969 14.5002 92.8725 14.5002Z" fill="#00A542"/>
<path d="M17.0485 14.4998C16.8328 14.4998 16.6084 14.448 16.4012 14.3272L7.78764 9.35579C7.16622 9.00193 6.95908 8.20789 7.31294 7.58647C7.67544 6.96505 8.46085 6.75791 9.08227 7.11177L17.6958 12.0831C18.3173 12.437 18.5244 13.231 18.1705 13.8525C17.9289 14.2667 17.4973 14.4998 17.0485 14.4998Z" fill="#00A542"/>
<path d="M101.525 63.2639C101.309 63.2639 101.085 63.2121 100.878 63.0913L92.2642 58.12C91.6428 57.7661 91.4356 56.972 91.7895 56.3506C92.152 55.7292 92.9374 55.5221 93.5588 55.8759L102.172 60.8473C102.794 61.2012 103.001 61.9952 102.647 62.6166C102.405 63.0309 101.974 63.2639 101.525 63.2639Z" fill="#00A542"/>
<path d="M8.41152 63.2639C7.96271 63.2639 7.53117 63.0309 7.28951 62.6166C6.93564 61.9952 7.14278 61.2098 7.7642 60.8473L16.3778 55.8759C16.9992 55.5221 17.7932 55.7292 18.1471 56.3506C18.501 56.972 18.2938 57.7575 17.6724 58.12L9.05883 63.0913C8.85169 63.2121 8.63592 63.2639 8.41152 63.2639Z" fill="#00A542"/>
</svg>
