<svg width="110" height="110" viewBox="0 0 110 110" fill="none" xmlns="http://www.w3.org/2000/svg">
<path d="M82.8023 110C82.0284 110 81.4037 109.375 81.4037 108.601V64.6741L58.3911 73.8213V108.601C58.3911 109.375 57.7663 110 56.9924 110C56.2185 110 55.5938 109.375 55.5938 108.601V72.8702C55.5938 72.3014 55.9481 71.7792 56.4796 71.5741L82.2895 61.3173C82.7184 61.1494 83.2033 61.196 83.5949 61.4571C83.9772 61.7182 84.2103 62.1471 84.2103 62.6134V108.601C84.2103 109.375 83.5856 110 82.8117 110H82.8023Z" fill="#00A542"/>
<path d="M100.664 94.1209H90.7424C89.9685 94.1209 89.3438 93.4961 89.3438 92.7222V82.7917C89.3438 82.0178 89.9685 81.3931 90.7424 81.3931H100.664C101.437 81.3931 102.062 82.0178 102.062 82.7917V92.7222C102.062 93.4961 101.437 94.1209 100.664 94.1209ZM92.1411 91.3235H99.2649V84.1904H92.1411V91.3235Z" fill="#00A542"/>
<path d="M74.8589 94.1209H64.9377C64.1638 94.1209 63.5391 93.4961 63.5391 92.7222V82.7917C63.5391 82.0178 64.1638 81.3931 64.9377 81.3931H74.8589C75.6328 81.3931 76.2575 82.0178 76.2575 82.7917V92.7222C76.2575 93.4961 75.6328 94.1209 74.8589 94.1209ZM66.3364 91.3235H73.4602V84.1904H66.3364V91.3235Z" fill="#00A542"/>
<path d="M56.9936 74.2685H5.38303C4.60911 74.2685 3.98438 73.6438 3.98438 72.8699C3.98438 72.0959 4.60911 71.4712 5.38303 71.4712H56.9936C57.7675 71.4712 58.3923 72.0959 58.3923 72.8699C58.3923 73.6438 57.7675 74.2685 56.9936 74.2685Z" fill="#00A542"/>
<path d="M49.0386 110C48.2646 110 47.6399 109.375 47.6399 108.601V94.1201H40.5161V108.601C40.5161 109.375 39.8913 110 39.1174 110C38.3435 110 37.7188 109.375 37.7188 108.601V92.7214C37.7188 91.9475 38.3435 91.3228 39.1174 91.3228H49.0386C49.8125 91.3228 50.4372 91.9475 50.4372 92.7214V108.601C50.4372 109.375 49.8125 110 49.0386 110Z" fill="#00A542"/>
<path d="M108.598 110H1.39561C1.00398 110 0.621683 109.832 0.3606 109.543C0.0995168 109.254 -0.0310294 108.862 0.00626824 108.461L7.95066 29.0547C8.02526 28.3367 8.62201 27.7959 9.33999 27.7959H25.2194C25.9374 27.7959 26.5435 28.3367 26.6088 29.0547L34.5345 107.202H107.19V65.0003L83.6275 74.334C82.9095 74.623 82.0983 74.2687 81.8092 73.5507C81.5295 72.8327 81.8745 72.0215 82.5925 71.7325L108.067 61.6435C108.496 61.4756 108.981 61.5222 109.372 61.7833C109.754 62.0444 109.988 62.4733 109.988 62.9396V108.601C109.988 109.375 109.363 110 108.589 110H108.598ZM2.94346 107.202H31.7279L23.9513 30.5932H10.5988L2.93414 107.202H2.94346Z" fill="#00A542"/>
<path d="M55.0073 74.2689C54.2334 74.2689 53.6087 73.6441 53.6087 72.8702V52.4311H46.4848V72.8702C46.4848 73.6441 45.8601 74.2689 45.0862 74.2689C44.3122 74.2689 43.6875 73.6441 43.6875 72.8702V51.0324C43.6875 50.2585 44.3122 49.6338 45.0862 49.6338H55.0073C55.7812 49.6338 56.406 50.2585 56.406 51.0324V72.8702C56.406 73.6441 55.7812 74.2689 55.0073 74.2689Z" fill="#00A542"/>
<path d="M23.2356 24.6445H11.3283C10.5544 24.6445 9.92969 24.0198 9.92969 23.2458C9.92969 22.4719 10.5544 21.8472 11.3283 21.8472H23.2356C24.0095 21.8472 24.6343 22.4719 24.6343 23.2458C24.6343 24.0198 24.0095 24.6445 23.2356 24.6445Z" fill="#00A542"/>
<path d="M39.1175 14.7136C38.9776 14.7136 38.8378 14.695 38.6979 14.6484C37.9613 14.4153 37.551 13.632 37.7841 12.8954C39.248 8.24251 42.6048 4.51275 46.7728 2.93693C50.055 1.68746 55.5564 1.14664 63.0719 5.65033C63.7339 6.05128 63.9484 6.90912 63.5474 7.57116C63.1558 8.23319 62.2886 8.44765 61.6266 8.0467C56.3676 4.89505 51.7055 4.05586 47.7612 5.55709C44.3951 6.83453 41.6631 9.89293 40.4509 13.7439C40.2644 14.3407 39.7143 14.723 39.1175 14.723V14.7136Z" fill="#00A542"/>
<path d="M92.8977 32.5888C88.3846 32.5888 83.9183 31.3952 80.8785 29.0828C80.2631 28.6166 80.1419 27.7401 80.6081 27.1247C81.0743 26.5093 81.9508 26.388 82.5662 26.8543C87.0979 30.2856 95.7323 30.7892 101.439 27.9545C104.068 26.6491 107.211 24.0756 107.211 19.2735C107.211 11.6648 104.395 8.66236 102.409 7.49682C102.632 9.92116 102.567 13.6229 100.6 16.1032C99.2476 17.8189 97.2615 18.6861 94.7159 18.6861C88.7669 18.6861 86.7808 14.5927 85.0279 10.9841C82.9858 6.77884 81.0557 2.80664 73.4097 2.80664C68.6635 2.80664 65.3534 4.40112 63.5724 7.53411C62.4442 9.50156 62.3696 11.3571 62.3602 11.3758C62.3323 12.131 61.7075 12.7278 60.9616 12.7278C60.9429 12.7278 60.9336 12.7278 60.915 12.7278C60.141 12.6998 59.5443 12.0658 59.5629 11.2918C59.5629 11.1893 59.6468 8.74628 61.1388 6.14478C62.7332 3.34746 66.1553 0 73.4097 0C82.7993 0 85.4288 5.40815 87.5361 9.75332C89.4383 13.6696 90.7064 15.8795 94.7066 15.8795C96.385 15.8795 97.5878 15.3853 98.399 14.3596C100.264 12.0005 99.6858 7.301 99.3035 5.68788C99.2009 5.24964 99.3128 4.78342 99.6205 4.43841C99.9189 4.09341 100.376 3.92557 100.823 3.97219C101.196 4.00949 110.008 5.14707 110.008 19.2549C110.008 24.1222 107.406 28.0944 102.688 30.4442C99.807 31.8708 96.3477 32.5701 92.907 32.5701L92.8977 32.5888Z" fill="#00A542"/>
<path d="M69.7021 34.3601C65.1518 34.3601 60.1073 32.7097 55.9579 28.1501C55.4358 27.5813 55.4824 26.6955 56.0512 26.1733C56.6199 25.6511 57.5058 25.6977 58.0279 26.2665C62.5036 31.1805 68.8349 32.8309 74.9517 30.677C79.8191 28.9706 83.1292 25.2315 83.3903 21.1568C83.4369 20.3828 84.0803 19.814 84.8729 19.8513C85.6468 19.898 86.2249 20.5693 86.1783 21.3339C85.8426 26.5276 81.7958 31.2364 75.8748 33.3065C74.0473 33.9498 71.9306 34.3415 69.7021 34.3415V34.3601Z" fill="#00A542"/>
<path d="M45.519 32.3829C37.9942 32.3829 35.3927 27.2265 33.3041 23.0772C30.5813 17.6783 28.6046 13.7714 17.8629 18.5642C17.8069 18.5921 17.7416 18.6108 17.6857 18.6294C17.4619 18.6947 17.2195 18.704 16.9864 18.6481C16.9864 18.6481 16.9024 18.6294 16.8558 18.6108C16.6414 18.5362 16.4549 18.415 16.3057 18.2658C16.2404 18.2005 16.1845 18.1259 16.1285 18.042C16.0073 17.8462 15.9234 17.6224 15.9141 17.3893C15.9141 17.3427 15.9141 17.296 15.9141 17.2401C15.9141 16.9324 16.0353 16.6154 16.2218 16.3636C17.6298 13.7714 22.1894 6.43312 29.509 4.4377C33.6584 3.30944 37.9569 4.08337 42.2835 6.7315C42.9455 7.13245 43.1506 7.99962 42.7497 8.65233C42.3487 9.31436 41.4816 9.51949 40.8289 9.11855C37.183 6.88069 33.6211 6.21866 30.255 7.14177C25.9751 8.30732 22.7395 11.7294 20.7161 14.508C30.6186 11.4869 33.3787 16.9417 35.8403 21.8277C37.9383 25.9957 39.7566 29.5949 45.5563 29.5949C56.4379 29.5949 57.6128 22.3778 57.6128 19.2821C57.6128 18.5082 58.2375 17.8835 59.0114 17.8835C59.7854 17.8835 60.4101 18.5082 60.4101 19.2821C60.4101 25.6227 56.5032 32.3922 45.5563 32.3922L45.519 32.3829Z" fill="#00A542"/>
</svg>
