<svg width="104" height="100" viewBox="0 0 104 100" fill="none" xmlns="http://www.w3.org/2000/svg">
<g clip-path="url(#clip0_1_27804)">
<path d="M16.4397 68.5254L38.9012 68.487V88.8331H19.5166C15.8884 88.8331 12.773 86.7306 11.4397 83.6408C10.991 82.6024 10.7474 81.4613 10.7474 80.2562C10.7474 78.6152 11.2089 77.0895 12.0038 75.7819L16.4397 68.5383L26.9653 51.346L34.4269 56.346L27.2089 32.3203L1.91406 34.5254L12.0166 41.3075L3.26022 55.3203C2.42688 56.6408 1.91406 57.5767 1.91406 59.2434C1.91406 60.4485 2.20893 62.2177 2.64483 63.2562L11.4269 83.6408" stroke="#00A542" stroke-width="3" stroke-linecap="round" stroke-linejoin="round"/>
<path d="M51.6941 10.3332L38.9121 29.6537L24.1172 20.4102L33.8223 5.87169C35.3736 3.4999 38.1556 1.92298 41.3223 1.92298C44.489 1.92298 47.3223 3.52554 48.8736 5.9358L51.6941 10.3332ZM51.6941 10.3332L62.2582 26.7948L53.6941 31.4999L77.7326 35.1922L86.9762 12.9999L77.5018 17.9871L69.5659 5.85887C68.0146 3.48708 65.2326 1.91016 62.0659 1.91016H41.3223" stroke="#00A542" stroke-width="3" stroke-linecap="round" stroke-linejoin="round"/>
<path d="M87.3007 68.5256L74.0443 49.9999L90.6853 40.7563L100.48 55.3333C101.314 56.6538 101.788 58.2051 101.788 59.8717C101.788 61.0769 101.544 62.2179 101.083 63.2563C99.7494 66.3589 96.634 68.5384 93.0058 68.5384H87.3135L66.6597 68.4999V59.2563L50.7109 78.6922L66.6597 98.0897V88.8461H84.2366C87.8648 88.8461 91.2109 86.3974 92.5443 83.2948L101.096 63.2563" stroke="#00A542" stroke-width="3" stroke-linecap="round" stroke-linejoin="round"/>
</g>
<defs>
<clipPath id="clip0_1_27804">
<rect width="103.692" height="100" fill="white"/>
</clipPath>
</defs>
</svg>
