<svg width="217" height="67" viewBox="0 0 217 67" fill="none" xmlns="http://www.w3.org/2000/svg">
<path d="M31.9436 34.2155L36.1802 14.0859H3.98673L9.52314 34.2155H0.25V65.8208H41.4417V34.2155H31.9436Z" fill="#C2C2C2"/>
<path d="M41.4416 66.0836H0.262474C0.125002 66.0836 0 65.9712 0 65.8214V34.216C0 34.0786 0.112505 33.9537 0.262474 33.9537H9.18565L3.73677 14.1489C3.71178 14.074 3.73674 13.9866 3.78673 13.9241C3.83672 13.8617 3.91172 13.8242 3.99921 13.8242H36.2052C36.2802 13.8242 36.3552 13.8617 36.4051 13.9241C36.4551 13.9866 36.4676 14.0615 36.4551 14.1364L32.281 33.9537H41.4541C41.5916 33.9537 41.7166 34.0661 41.7166 34.216V65.8214C41.7166 65.9587 41.6041 66.0836 41.4541 66.0836H41.4416ZM0.512401 65.5716H41.1792V34.4782H31.9435C31.8686 34.4782 31.7936 34.4408 31.7436 34.3783C31.6936 34.3159 31.6811 34.241 31.6936 34.166L35.8678 14.3487H4.32415L9.77303 34.1535C9.79803 34.2285 9.77302 34.3159 9.72303 34.3783C9.67304 34.4408 9.59808 34.4782 9.5106 34.4782H0.499929V65.5716H0.512401Z" fill="#333333"/>
<path d="M184.643 56.3438H55.4453V65.822H184.643V56.3438Z" fill="#C2C2C2"/>
<path d="M184.64 66.0838H55.4422C55.3047 66.0838 55.1797 65.9714 55.1797 65.8215V56.3433C55.1797 56.2059 55.2922 56.0811 55.4422 56.0811H184.64C184.777 56.0811 184.902 56.1934 184.902 56.3433V65.8215C184.902 65.9589 184.79 66.0838 184.64 66.0838ZM55.7046 65.5718H184.378V56.6055H55.7046V65.5718Z" fill="#333333"/>
<path d="M213.619 15.6348H182.188V25.138H213.619V15.6348Z" fill="#C2C2C2"/>
<path d="M213.615 25.3871H182.184C182.047 25.3871 181.922 25.2747 181.922 25.1248V15.6216C181.922 15.4843 182.034 15.3594 182.184 15.3594H213.615C213.753 15.3594 213.878 15.4718 213.878 15.6216V25.1248C213.878 25.2622 213.765 25.3871 213.615 25.3871ZM182.447 24.8751H213.353V15.8963H182.447V24.8751Z" fill="#333333"/>
<path d="M210.9 25.125H193.703V32.9423H210.9V25.125Z" fill="#C2C2C2"/>
<path d="M210.896 33.2041H193.7C193.562 33.2041 193.438 33.0917 193.438 32.9419V25.1245C193.438 24.9872 193.55 24.8623 193.7 24.8623H210.896C211.034 24.8623 211.159 24.9747 211.159 25.1245V32.9419C211.159 33.0793 211.046 33.2041 210.896 33.2041ZM193.95 32.6921H210.634V25.3868H193.95V32.6921Z" fill="#333333"/>
<path d="M216.451 35.4014H188.781V65.8204H216.451V35.4014Z" fill="#C2C2C2"/>
<path d="M216.452 66.0832H188.77C188.633 66.0832 188.508 65.9708 188.508 65.821V35.4019C188.508 35.2645 188.62 35.1396 188.77 35.1396H216.452C216.59 35.1396 216.715 35.252 216.715 35.4019V65.821C216.715 65.9583 216.602 66.0832 216.452 66.0832ZM189.033 65.5712H216.19V35.6766H189.033V65.5712Z" fill="#333333"/>
<path d="M179.745 31.0059H176.383V56.331H179.745V31.0059Z" fill="#C2C2C2"/>
<path d="M179.741 56.5938H176.38C176.242 56.5938 176.117 56.4814 176.117 56.3316V31.0064C176.117 30.869 176.23 30.7441 176.38 30.7441H179.741C179.879 30.7441 180.004 30.8565 180.004 31.0064V56.3316C180.004 56.4689 179.891 56.5938 179.741 56.5938ZM176.642 56.0818H179.492V31.2686H176.642V56.0818Z" fill="#333333"/>
<path d="M161.37 31.0059H158.008V56.331H161.37V31.0059Z" fill="#C2C2C2"/>
<path d="M161.366 56.5938H158.005C157.867 56.5938 157.742 56.4814 157.742 56.3316V31.0064C157.742 30.869 157.855 30.7441 158.005 30.7441H161.366C161.504 30.7441 161.629 30.8565 161.629 31.0064V56.3316C161.629 56.4689 161.516 56.5938 161.366 56.5938ZM158.267 56.0818H161.116V31.2686H158.267V56.0818Z" fill="#333333"/>
<path d="M47.7815 26.9104C47.7815 24.6752 48.219 22.6023 49.0688 20.7666C50.4435 17.8071 52.768 15.497 55.9924 13.9236C58.4169 12.7373 61.2288 12.1004 64.1282 12.1004H73.9513V20.1548H89.0857V0.25H73.9513V8.30432H64.1282C60.6539 8.30432 57.2546 9.06604 54.3177 10.5146C50.2935 12.4876 47.3691 15.3971 45.632 19.1683C44.5447 21.5159 43.9948 24.1132 43.9948 26.9104V41.4831H41.4453V59.4398H52.868V41.4831H47.7815V26.9104Z" fill="#C2C2C2"/>
<path d="M52.8648 59.7018H41.4421C41.3047 59.7018 41.1797 59.5894 41.1797 59.4396V41.4828C41.1797 41.3455 41.2922 41.2206 41.4421 41.2206H43.7292V26.9101C43.7292 24.0755 44.2916 21.4407 45.3913 19.0681C47.166 15.247 50.1279 12.2875 54.2021 10.2895C57.1765 8.82852 60.6132 8.05431 64.125 8.05431H73.6856V0.262232C73.6856 0.124872 73.7981 0 73.9481 0H89.0825C89.22 0 89.345 0.112385 89.345 0.262232V20.167C89.345 20.3044 89.2325 20.4292 89.0825 20.4292H73.9481C73.8106 20.4292 73.6856 20.3168 73.6856 20.167V12.3749H64.125C61.2631 12.3749 58.4887 12.9993 56.1017 14.1606C52.9398 15.709 50.6528 17.9817 49.303 20.8788C48.4657 22.6769 48.0408 24.7124 48.0408 26.9101V41.2206H52.8648C53.0023 41.2206 53.1273 41.333 53.1273 41.4828V59.4396C53.1273 59.5769 53.0148 59.7018 52.8648 59.7018ZM41.6921 59.1898H52.6024V41.7451H47.7784C47.6409 41.7451 47.5159 41.6327 47.5159 41.4828V26.9101C47.5159 24.6374 47.9533 22.5271 48.8281 20.654C50.2279 17.6321 52.5899 15.2969 55.8642 13.6861C58.3262 12.4748 61.1757 11.838 64.1126 11.838H73.9356C74.073 11.838 74.198 11.9503 74.198 12.1002V19.8923H88.8075V0.511975H74.198V8.30406C74.198 8.44142 74.0855 8.56629 73.9356 8.56629H64.1126C60.6758 8.56629 57.3139 9.31553 54.4145 10.7516C50.4528 12.6996 47.5659 15.5717 45.8413 19.2929C44.7665 21.603 44.2291 24.1629 44.2291 26.9226V41.4953C44.2291 41.6327 44.1166 41.7575 43.9666 41.7575H41.6796V59.2023L41.6921 59.1898Z" fill="#333333"/>
<path d="M155.424 0.25V7.95466C154.35 7.84228 150.3 7.51761 145.751 8.45416C138.565 9.92766 133.629 13.7987 131.454 19.6553C131.367 19.8925 131.329 20.1423 131.329 20.392H72.3912C65.3926 20.392 59.7188 26.0613 59.7188 33.0542V43.6933C59.7188 50.6862 65.3926 56.3555 72.3912 56.3555H138.615C145.614 56.3555 151.288 50.6862 151.288 43.6933V33.0542C151.288 26.0613 145.614 20.392 138.615 20.392H135.716C140.14 10.4022 154.987 12.1629 155.149 12.1879C155.237 12.1879 155.324 12.1879 155.424 12.1879V31.0187H182.194V0.26249H155.424V0.25Z" fill="#C2C2C2"/>
<path d="M138.615 56.5925H72.3911C65.2676 56.5925 59.4688 50.7983 59.4688 43.6806V33.0414C59.4688 25.9236 65.2676 20.1295 72.3911 20.1295H131.092C131.117 19.9297 131.154 19.7424 131.217 19.5676C133.416 13.6236 138.428 9.69015 145.701 8.20416C149.925 7.34253 153.737 7.55482 155.162 7.67969V0.262232C155.162 0.124872 155.274 0 155.424 0H182.194C182.331 0 182.456 0.112385 182.456 0.262232V31.0185C182.456 31.1558 182.344 31.2807 182.194 31.2807H155.424C155.287 31.2807 155.162 31.1683 155.162 31.0185V12.4374C155.162 12.4374 155.137 12.4374 155.124 12.4374C154.974 12.4124 140.702 10.6517 136.128 20.1295H138.615C145.739 20.1295 151.538 25.9236 151.538 33.0414V43.6806C151.538 50.7983 145.739 56.5925 138.615 56.5925ZM72.3911 20.6415C65.555 20.6415 59.9812 26.1984 59.9812 33.0414V43.6806C59.9812 50.5111 65.5425 56.0805 72.3911 56.0805H138.615C145.451 56.0805 151.025 50.5236 151.025 43.6806V33.0414C151.025 26.2108 145.464 20.6415 138.615 20.6415H135.716C135.628 20.6415 135.541 20.5916 135.503 20.5291C135.466 20.4667 135.453 20.3668 135.478 20.2794C137.328 16.1086 141.302 13.3364 146.989 12.275C151.363 11.4509 155.149 11.9254 155.187 11.9254C155.249 11.9254 155.312 11.9254 155.362 11.9254C155.424 11.9254 155.524 11.9504 155.574 12.0003C155.624 12.0502 155.674 12.1127 155.674 12.1876V30.7562H181.931V0.524464H155.674V7.9669C155.674 8.04182 155.649 8.10426 155.587 8.15421C155.537 8.20416 155.462 8.22914 155.387 8.21665C154.275 8.10426 150.275 7.79208 145.801 8.70365C138.715 10.1522 133.829 13.9608 131.692 19.7424C131.617 19.9422 131.579 20.1545 131.579 20.3793C131.579 20.5166 131.467 20.6415 131.317 20.6415H72.3786H72.3911Z" fill="#333333"/>
</svg>
