<svg width="129" height="110" viewBox="0 0 129 110" fill="none" xmlns="http://www.w3.org/2000/svg">
<path d="M1.26263 95.9858C0.867025 95.9858 0.479842 95.8006 0.235747 95.4555C-0.168273 94.8916 -0.0420177 94.1004 0.530343 93.6964L16.6995 82.1482C18.2567 79.8503 31.6146 60.752 45.6543 60.752C57.7159 60.752 66.133 68.9754 67.4461 70.3306L80.846 77.0306C82.782 76.5424 90.1637 74.7748 94.7174 74.7748C99.7508 74.7748 102.284 78.3941 102.924 80.3132C103.109 80.8603 102.89 81.4664 102.411 81.7778C101.805 82.165 87.4198 91.3228 80.7029 91.3228C75.5854 91.3228 62.177 86.7775 61.6046 86.584C60.9481 86.3567 60.5946 85.6412 60.8134 84.9847C61.0322 84.3282 61.7561 83.9662 62.4126 84.1935C62.5473 84.2356 75.9978 88.7976 80.6945 88.7976C85.3912 88.7976 95.4917 83.0909 100.096 80.2459C99.4141 79.118 97.8401 77.3083 94.709 77.3083C89.8691 77.3083 81.0985 79.5809 81.006 79.6062C80.7114 79.6819 80.3999 79.6483 80.1222 79.5136L66.1077 72.5022C65.9731 72.4349 65.8468 72.3423 65.7458 72.2244C65.6616 72.1318 57.3792 63.2855 45.6458 63.2855C32.3721 63.2855 18.7954 83.5454 18.6607 83.7474C18.5765 83.8736 18.4671 83.9915 18.3409 84.0757L1.9865 95.7586C1.76765 95.9185 1.50672 95.9942 1.25421 95.9942L1.26263 95.9858Z" fill="#00A542"/>
<path d="M33.9632 110C33.7444 110 33.5255 109.941 33.3235 109.824C32.7259 109.47 32.5239 108.696 32.8774 108.098C33.172 107.593 40.276 95.7923 50.3176 95.7923C53.9032 95.7923 59.4585 96.8528 65.3505 97.9723C71.7895 99.2012 78.439 100.464 83.0263 100.464C88.1355 100.464 104.22 92.3244 110.264 89.0418L125.684 71.4164C125.036 70.8946 124.001 70.2717 122.746 70.2717C119.868 70.2717 115.272 73.6638 111.207 76.6603C106.762 79.9429 103.926 81.9546 101.721 81.9546C101.022 81.9546 100.458 81.3907 100.458 80.692C100.458 79.9934 101.022 79.4295 101.721 79.4295C103.21 79.4295 106.661 76.8791 109.708 74.6317C114.296 71.2481 119.035 67.7466 122.746 67.7466C126.139 67.7466 128.319 70.4485 128.411 70.5579C128.79 71.0377 128.773 71.7194 128.369 72.174L112.015 90.8683C111.914 90.9777 111.796 91.0787 111.67 91.146C110.786 91.6258 89.8946 102.98 83.0263 102.98C78.2033 102.98 71.4276 101.693 64.8707 100.447C59.105 99.3527 53.6591 98.309 50.3176 98.309C41.6985 98.309 35.1163 109.26 35.049 109.369C34.8133 109.765 34.3925 109.992 33.9632 109.992V110Z" fill="#00A542"/>
<path d="M118.269 71.6853C118.185 71.6853 118.101 71.6853 118.016 71.6601C117.335 71.5254 116.889 70.8605 117.023 70.1787L118.867 60.9704C114.616 61.1724 113.084 62.4013 109.784 67.3842C109.397 67.965 108.615 68.1249 108.034 67.7377C107.453 67.3506 107.293 66.5678 107.68 65.987C111.569 60.1203 113.707 58.4116 120.415 58.4116C120.794 58.4116 121.156 58.58 121.392 58.8746C121.627 59.1692 121.728 59.5479 121.653 59.9267L119.506 70.6753C119.388 71.2729 118.858 71.6938 118.269 71.6938V71.6853Z" fill="#00A542"/>
<path d="M50.5125 63.7481C50.0327 63.7481 49.5782 63.4788 49.3678 63.0158C49.0732 62.3846 49.3509 61.6354 49.9822 61.3408C51.1774 60.7853 53.4921 58.8746 55.7226 57.0229C59.9312 53.5382 62.5994 51.4087 64.3501 51.4087C66.3113 51.4087 68.222 53.151 69.9054 54.6914C70.5114 55.2469 71.3447 56.0044 71.6477 56.1223C72.3295 56.2485 72.7588 56.8966 72.6325 57.5868C72.5063 58.277 71.8161 58.7147 71.1343 58.5885C70.2589 58.4285 69.4004 57.6457 68.2136 56.5599C67.0689 55.5162 65.3434 53.9422 64.3586 53.9422C63.3401 54.0096 59.5861 57.1239 57.3387 58.9841C54.8725 61.0294 52.541 62.9569 51.0428 63.6471C50.8744 63.7229 50.6892 63.765 50.5125 63.765V63.7481Z" fill="#00A542"/>
<path d="M65.6723 54.3208C65.3609 54.3208 65.041 54.203 64.7969 53.9673C64.2919 53.4875 64.2751 52.6879 64.7548 52.1829C73.9547 42.5453 77.7087 42.0571 78.3652 42.0571C80.9745 42.0571 84.4087 44.7085 87.4473 47.0569C88.6172 47.9575 90.0734 49.0854 90.5279 49.2285C91.1929 49.4389 91.5632 50.1459 91.3528 50.8109C91.1424 51.4758 90.4353 51.8462 89.7704 51.6358C88.9287 51.3664 87.8092 50.5247 85.9069 49.0601C83.6007 47.2757 80.116 44.5907 78.3652 44.5907C76.6145 44.5907 70.874 49.4389 66.5813 53.942C66.3372 54.203 66.0006 54.3292 65.6723 54.3292V54.3208Z" fill="#00A542"/>
<path d="M111.077 76.4155C110.378 76.4155 109.814 75.8516 109.814 75.153C109.814 68.2341 105.202 63.7226 102.155 60.743C100.993 59.6067 100.135 58.7734 99.7308 57.9737C97.8622 55.2971 94.3859 51.5852 92.3827 51.5852C89.9586 51.5852 87.2399 54.5817 86.3897 55.7432C85.9773 56.3072 85.1861 56.4334 84.6222 56.021C84.0582 55.6085 83.9319 54.8173 84.3444 54.2534C84.7316 53.7231 88.2499 49.0601 92.3743 49.0601C96.4986 49.0601 101.313 55.8442 101.852 56.6186C101.894 56.6775 101.928 56.7448 101.961 56.8122C102.146 57.2162 103.047 58.0916 103.914 58.9417C107.062 62.0224 112.331 67.1736 112.331 75.1614C112.331 75.86 111.767 76.424 111.069 76.424L111.077 76.4155Z" fill="#00A542"/>
<path d="M87.0157 30.711C85.7026 30.711 84.3475 30.6773 82.9586 30.6353C81.4772 30.5932 79.9453 30.5595 78.3797 30.5595C77.6811 30.5595 77.1172 29.9956 77.1172 29.2969C77.1172 14.6681 91.1737 8.54887 100.475 4.50026C103.808 3.0441 106.964 1.67212 107.705 0.561068C108.042 0.0476267 108.706 -0.13755 109.27 0.106545C109.834 0.359058 110.129 0.973504 109.977 1.57112C109.397 3.84372 108.959 6.15 108.53 8.37211C107.208 15.232 105.954 21.7132 101.081 26.4015C97.2424 30.0966 92.4783 30.711 87.0241 30.711H87.0157ZM79.676 28.0428C80.8207 28.0596 81.9317 28.0849 83.0175 28.1101C89.8859 28.2869 95.3065 28.43 99.313 24.5834C103.614 20.4422 104.793 14.3482 106.038 7.89234C106.266 6.73078 106.493 5.56081 106.737 4.36558C105.323 5.13154 103.538 5.90591 101.476 6.80653C92.5625 10.6868 80.4588 15.9559 79.676 28.0344V28.0428Z" fill="#00A542"/>
<path d="M78.3691 30.5595C78.0997 30.5595 77.8304 30.4753 77.5947 30.2985C77.0392 29.8693 76.9382 29.078 77.3674 28.5309C82.9648 21.267 91.6849 18.8345 92.0552 18.7419C92.7286 18.5567 93.4188 18.9523 93.604 19.6257C93.7892 20.299 93.3936 20.9892 92.7202 21.1744C92.636 21.1997 84.4378 23.4975 79.3707 30.0713C79.1182 30.3911 78.7478 30.5595 78.3691 30.5595Z" fill="#00A542"/>
<path d="M78.3704 44.5824C77.6718 44.5824 77.1078 44.0184 77.1078 43.3198V30.6101C58.1442 31.1656 52.6646 21.4523 51.4189 13.1362C51.3684 12.7743 51.4694 12.4039 51.7135 12.1262C51.9576 11.8484 52.3027 11.6885 52.6731 11.6885C55.3413 11.6885 62.218 11.9578 68.4046 14.424C75.7527 17.3616 79.6413 22.5044 79.6413 29.3054V43.3282C79.6413 44.0269 79.0774 44.5908 78.3788 44.5908L78.3704 44.5824ZM54.1881 14.2388C56.2671 23.6996 64.1119 28.4721 77.0573 28.0849C76.0473 16.1495 60.1474 14.4577 54.1881 14.2388Z" fill="#00A542"/>
<path d="M76.0353 69.0256C77.3276 69.0256 78.3752 67.978 78.3752 66.6856C78.3752 65.3933 77.3276 64.3457 76.0353 64.3457C74.7429 64.3457 73.6953 65.3933 73.6953 66.6856C73.6953 67.978 74.7429 69.0256 76.0353 69.0256Z" fill="#00A542"/>
<path d="M94.7228 66.6853C96.0151 66.6853 97.0627 65.6376 97.0627 64.3453C97.0627 63.053 96.0151 62.0054 94.7228 62.0054C93.4305 62.0054 92.3828 63.053 92.3828 64.3453C92.3828 65.6376 93.4305 66.6853 94.7228 66.6853Z" fill="#00A542"/>
</svg>
