<svg width="110" height="110" viewBox="0 0 110 110" fill="none" xmlns="http://www.w3.org/2000/svg">
<path d="M30.4512 92.0835C30.2866 92.0835 30.122 92.0488 29.9574 91.9882C29.2903 91.7196 28.9784 90.9572 29.247 90.2901C29.4116 89.883 29.5676 89.5191 29.7148 89.1812C30.2693 87.899 30.6072 87.128 30.6072 86.0277C30.6072 83.4374 29.5589 81.1502 27.7396 79.7554C27.1678 79.3222 27.0552 78.5079 27.497 77.9361C27.9302 77.3643 28.7445 77.2603 29.3163 77.6935C31.7854 79.5821 33.2062 82.6143 33.2062 86.0277C33.2062 87.6651 32.721 88.7914 32.1059 90.2122C31.9673 90.5414 31.8114 90.8879 31.6554 91.2778C31.4475 91.7803 30.9624 92.0835 30.4512 92.0835Z" fill="#00A542"/>
<path d="M22.8187 96.0604C18.3224 96.0604 14.3979 93.1495 13.0723 88.8091C12.8644 88.1247 13.2456 87.397 13.93 87.189C14.6144 86.9811 15.3422 87.3623 15.5501 88.0467C16.5464 91.2869 19.466 93.4614 22.8187 93.4614C23.971 93.4614 25.0799 93.2101 26.1195 92.699C26.7606 92.3871 27.5403 92.6557 27.8609 93.2968C28.1727 93.9379 27.9042 94.7176 27.2631 95.0381C25.8683 95.7139 24.3781 96.0604 22.8274 96.0604H22.8187Z" fill="#00A542"/>
<path d="M14.2677 84.4858C14.1464 84.4858 14.0251 84.4685 13.9038 84.4338C13.2194 84.2346 12.8209 83.5068 13.0201 82.8224C14.2936 78.4647 18.3135 75.4238 22.8098 75.4238C23.5289 75.4238 24.1093 76.0043 24.1093 76.7233C24.1093 77.4424 23.5289 78.0229 22.8098 78.0229C19.4657 78.0229 16.4595 80.2927 15.5152 83.5501C15.3506 84.1219 14.8308 84.4858 14.2677 84.4858Z" fill="#00A542"/>
<path d="M21.2416 80.3967C20.9557 80.3967 20.6612 80.3014 20.4186 80.1021C19.8641 79.6516 19.7775 78.8286 20.228 78.2742L21.3023 76.9573L19.9075 75.9177C19.327 75.4845 19.2144 74.6788 19.6389 74.0984C20.0721 73.5179 20.8864 73.4053 21.4582 73.8298L23.9446 75.6751C24.2305 75.883 24.4124 76.2036 24.4558 76.5588C24.4991 76.914 24.3951 77.2605 24.1785 77.5378L22.2552 79.9029C21.9953 80.2148 21.6228 80.3794 21.2416 80.3794V80.3967Z" fill="#00A542"/>
<path d="M30.4439 92.0836C30.2966 92.0836 30.1407 92.0576 29.9934 92.0056C29.6122 91.867 29.3176 91.5551 29.1963 91.1653L28.252 88.0811C28.0441 87.3967 28.4253 86.6689 29.1097 86.461C29.7941 86.2531 30.5219 86.6343 30.7298 87.3187L31.1716 88.7655L32.4105 87.9685C33.0083 87.5786 33.814 87.7519 34.2038 88.3583C34.5937 88.9648 34.4204 89.7618 33.814 90.1516L31.1283 91.8757C30.9117 92.0143 30.6691 92.0836 30.4266 92.0836H30.4439Z" fill="#00A542"/>
<path d="M13.2344 92.7939C13.0958 92.7939 12.9485 92.7679 12.8099 92.7246C12.1341 92.4907 11.7702 91.7456 12.0128 91.0699L13.0784 88.003C13.295 87.3879 13.9361 87.0241 14.5685 87.1627L17.6181 87.7951C18.3198 87.9424 18.7703 88.6268 18.6317 89.3285C18.4844 90.0303 17.8 90.4894 17.0983 90.3422L15.1577 89.9436L14.4646 91.9362C14.274 92.4734 13.7715 92.8112 13.2344 92.8112V92.7939Z" fill="#00A542"/>
<path d="M39.0899 109.983H7.26906C6.61064 109.983 6.06485 109.498 5.97821 108.848L0.00909563 61.1209C-0.0342216 60.7483 0.0783971 60.3758 0.320974 60.0986C0.56355 59.8213 0.918754 59.6567 1.29128 59.6567H45.0417C45.4142 59.6567 45.7694 59.8127 46.012 60.0986C46.2546 60.3758 46.3759 60.7483 46.3239 61.1209L40.3548 108.848C40.2768 109.498 39.7223 109.983 39.0639 109.983H39.0899ZM8.42131 107.384H37.9463L43.5862 62.2558H2.7814L8.42131 107.384Z" fill="#00A542"/>
<path d="M1.30703 62.256C1.09045 62.256 0.865197 62.2041 0.657274 62.0828C0.0335055 61.7276 -0.17442 60.9305 0.180782 60.3068L20.0634 25.8609C20.4186 25.2371 21.2156 25.0292 21.8394 25.3844C22.4632 25.7396 22.6711 26.5366 22.3159 27.1604L2.43328 61.6063C2.1907 62.0221 1.75753 62.256 1.30703 62.256Z" fill="#00A542"/>
<path d="M11.2513 44.3565C11.052 44.3565 10.8614 44.3132 10.6708 44.2179L6.69431 42.234C6.05321 41.9134 5.7933 41.1337 6.11385 40.4926C6.4344 39.8516 7.21411 39.5916 7.85521 39.9122L11.8317 41.8961C12.4728 42.2167 12.7327 42.9964 12.4122 43.6375C12.1869 44.0966 11.7278 44.3565 11.2513 44.3565Z" fill="#00A542"/>
<path d="M39.0869 54.3025H25.1647C24.6362 54.3025 24.1684 53.9819 23.9605 53.4968C23.7525 53.0116 23.8738 52.4485 24.2464 52.0847L27.8417 48.4893V43.4559L24.0818 37.8159C23.8132 37.4174 23.7872 36.9063 24.0211 36.4818C24.2464 36.0573 24.6882 35.7974 25.1647 35.7974H37.0943C37.5448 35.7974 37.9606 36.0313 38.2032 36.4125C38.4371 36.7937 38.4631 37.2702 38.2638 37.6773L36.5658 41.0734L38.2638 44.4695C38.4458 44.8333 38.4458 45.2665 38.2638 45.6304L36.6957 48.7666L40.0138 52.0847C40.3864 52.4572 40.499 53.0116 40.2997 53.4968C40.1005 53.9819 39.624 54.3025 39.0955 54.3025H39.0869ZM28.3009 51.7035H35.9507L34.192 49.9448C33.7935 49.5463 33.6982 48.9485 33.9494 48.446L35.6475 45.0499L33.9494 41.6539C33.7675 41.29 33.7675 40.8568 33.9494 40.493L34.9977 38.3964H27.5991L30.2328 42.3383C30.3714 42.5549 30.4494 42.8061 30.4494 43.0573V49.0265C30.4494 49.373 30.3108 49.7022 30.0682 49.9448L28.3095 51.7035H28.3009Z" fill="#00A542"/>
<path d="M31.1328 38.3881C30.9941 38.3881 30.8555 38.3708 30.7256 38.3188C30.0412 38.0935 29.6773 37.3571 29.9025 36.6727L31.8951 30.7036C32.1204 30.0192 32.8568 29.6553 33.5412 29.8806C34.2256 30.1058 34.5895 30.8422 34.3642 31.5266L32.3716 37.4957C32.1897 38.0415 31.6872 38.3881 31.1414 38.3881H31.1328Z" fill="#00A542"/>
<path d="M82.8463 18.5051C77.7435 18.5051 73.5938 14.3553 73.5938 9.25256C73.5938 4.14979 77.7435 0 82.8463 0C87.9491 0 92.0989 4.14979 92.0989 9.25256C92.0989 14.3553 87.9491 18.5051 82.8463 18.5051ZM82.8463 2.59904C79.173 2.59904 76.1928 5.57926 76.1928 9.25256C76.1928 12.9259 79.1817 15.9061 82.8463 15.9061C86.511 15.9061 89.4998 12.9172 89.4998 9.25256C89.4998 5.58792 86.5196 2.59904 82.8463 2.59904Z" fill="#00A542"/>
<path d="M102.721 72.2006H74.8855C74.1664 72.2006 73.586 71.6202 73.586 70.9011V49.4244C71.7493 51.1398 70.034 52.318 68.9164 52.318C68.8211 52.318 68.7344 52.3093 68.6478 52.292C65.8842 51.7029 63.4497 51.2004 61.3099 50.7586C49.4756 48.3242 45.9062 47.5878 45.9062 42.9355C45.9062 41.3414 46.5473 40.0332 47.7689 39.1409C51.8407 36.1607 61.7777 38.7857 64.6626 39.6347C65.9968 38.2832 70.0426 33.0418 74.9201 26.3103L74.9375 26.293C77.1986 22.3425 82.0069 21.8833 85.4376 21.8833C100.807 21.8833 104.029 48.5407 104.029 70.9098C104.029 71.6288 103.449 72.2093 102.73 72.2093L102.721 72.2006ZM76.185 69.6016H101.422C101.318 52.1534 99.0045 24.4737 85.4289 24.4737C80.9932 24.4737 78.3595 25.47 77.164 27.6185C77.164 27.6185 77.138 27.6618 77.1293 27.6791C77.1293 27.6791 77.0947 27.7311 77.0773 27.7571L77.0254 27.8264C70.5278 36.7931 66.6639 41.636 65.5463 42.2251C65.2431 42.3897 64.8792 42.4157 64.55 42.3117C60.0363 40.8822 51.91 39.3228 49.3023 41.2288C48.7565 41.6273 48.5053 42.1558 48.5053 42.9268C48.5053 45.3093 50.1773 45.8118 61.8297 48.2115C63.9262 48.6447 66.3 49.1299 68.9943 49.7103C71.1255 49.2685 79.4685 39.3488 79.5464 37.0963C79.5724 36.3859 80.1702 35.8401 80.8719 35.8228C81.5823 35.8401 82.1455 36.3946 82.1455 37.0963C82.1455 38.881 79.3125 43.1867 76.1504 46.7647C76.1677 46.8514 76.1763 46.9467 76.1763 47.042V69.6016H76.185Z" fill="#00A542"/>
<path d="M74.1827 109.982C71.7483 109.982 69.7904 108.388 68.6728 105.495C65.8225 98.1308 68.5515 81.2371 80.9402 69.9399C81.4687 69.4548 82.2917 69.4981 82.7769 70.0265C83.262 70.555 83.2187 71.378 82.6902 71.8632C75.205 78.69 67.1653 94.4228 71.0899 104.559C71.5924 105.85 72.528 107.383 74.1741 107.383C76.3832 107.383 77.3102 104.498 78.7484 99.3956C80.2645 94.033 82.1444 87.3534 87.3598 82.2074C87.871 81.7049 88.694 81.7049 89.1965 82.216C89.699 82.7272 89.699 83.5502 89.1878 84.0527C84.4662 88.7223 82.6816 95.0293 81.2521 100.097C79.7533 105.399 78.4625 109.982 74.1741 109.982H74.1827Z" fill="#00A542"/>
<path d="M105.001 109.983C104.109 109.983 103.199 109.775 102.281 109.359C95.3411 106.188 89.7012 91.6335 86.9549 83.2386C85.6641 79.2707 84.5205 75.2249 83.5588 71.205C83.3942 70.5033 83.8187 69.8016 84.5205 69.637C85.2136 69.4724 85.924 69.8969 86.0886 70.5986C87.0329 74.5491 88.1591 78.5343 89.4327 82.4329C93.8077 95.8266 99.0231 105.01 103.363 106.994C104.403 107.47 105.347 107.514 106.266 107.124C108.076 106.361 107.704 104.802 105.174 97.8711C103.104 92.1966 99.9761 83.6111 97.8189 71.1271C97.6976 70.4167 98.1741 69.7496 98.8758 69.6283C99.5949 69.507 100.253 69.9835 100.375 70.6852C102.497 82.944 105.573 91.3909 107.617 96.9875C110.06 103.693 111.533 107.739 107.271 109.532C106.526 109.844 105.772 110 105.001 110V109.983Z" fill="#00A542"/>
</svg>
