<svg width="107" height="110" viewBox="0 0 107 110" fill="none" xmlns="http://www.w3.org/2000/svg">
<path d="M13.2097 18.4517C12.5101 18.4517 11.9453 17.8869 11.9453 17.1873V9.23019C11.9453 8.53057 12.5101 7.96582 13.2097 7.96582C13.9093 7.96582 14.4741 8.53057 14.4741 9.23019V17.1873C14.4741 17.8869 13.9093 18.4517 13.2097 18.4517Z" fill="#00A542"/>
<path d="M17.187 46.3096H1.26437C0.564752 46.3096 0 45.7449 0 45.0453V1.26437C0 0.564752 0.564752 0 1.26437 0H39.0774C39.7771 0 40.3418 0.564752 40.3418 1.26437C40.3418 6.35556 36.2031 10.4858 31.1203 10.4858H2.52874V15.9142H56.9893C59.8805 15.9142 62.2323 18.2659 62.2323 21.1571V25.1357C62.2323 25.8353 61.6675 26.4 60.9679 26.4H18.4514V45.0368C18.4514 45.7365 17.8866 46.3012 17.187 46.3012V46.3096ZM2.52874 43.7809H15.9226V25.1441C15.9226 24.4445 16.4874 23.8797 17.187 23.8797H59.7035V21.1655C59.7035 19.6652 58.4813 18.4514 56.9893 18.4514H2.52874V43.7893V43.7809ZM2.52874 7.9571H31.1203C34.3824 7.9571 37.105 5.6138 37.6951 2.52874H2.52874V7.9571Z" fill="#00A542"/>
<path d="M60.9682 34.374H45.0456C44.346 34.374 43.7812 33.8093 43.7812 33.1097V25.1526C43.7812 24.4529 44.346 23.8882 45.0456 23.8882C45.7452 23.8882 46.31 24.4529 46.31 25.1526V31.8453H59.7039V25.1526C59.7039 24.4529 60.2686 23.8882 60.9682 23.8882C61.6679 23.8882 62.2326 24.4529 62.2326 25.1526V33.1097C62.2326 33.8093 61.6679 34.374 60.9682 34.374Z" fill="#00A542"/>
<path d="M56.5534 97.1708C51.4623 97.1708 41.1113 90.6383 39.9481 89.8965C39.4592 89.5846 39.2484 88.9777 39.4339 88.4298C39.9396 86.9042 41.9542 84.0298 45.9412 84.0298C49.3381 84.0298 54.7833 85.3195 56.4102 85.7241L66.4071 80.7256C67.5197 79.5793 73.7489 73.6367 82.8692 73.6367C94.0799 73.6367 105.324 89.4245 105.796 90.0988C106.201 90.672 106.058 91.4559 105.493 91.8605C104.928 92.2567 104.136 92.1218 103.731 91.557C103.622 91.4053 92.7734 76.1739 82.8692 76.1739C74.1282 76.1739 68.1604 82.5547 68.1013 82.6222C68.0002 82.7317 67.8738 82.8329 67.7389 82.9003L57.1266 88.2107C56.8485 88.3455 56.5366 88.3793 56.2416 88.3034C56.1741 88.2865 49.5657 86.5754 45.9496 86.5754C43.9603 86.5754 42.8561 87.6122 42.3082 88.3961C45.8822 90.5877 53.2324 94.659 56.5703 94.659C59.4784 94.659 67.4776 92.1555 70.3182 91.1862C70.9757 90.9586 71.7006 91.3126 71.9197 91.9785C72.1389 92.6444 71.7933 93.3609 71.1274 93.58C70.6975 93.7233 60.4899 97.1877 56.5703 97.1877L56.5534 97.1708Z" fill="#00A542"/>
<path d="M90.8247 110C90.3695 110 89.9312 109.755 89.7036 109.317C89.6699 109.241 85.8262 102.034 79.5465 102.034C77.0599 102.034 72.9549 102.911 68.6055 103.847C63.6239 104.917 58.4737 106.013 54.7733 106.013C49.5894 106.013 34.6277 97.9378 32.9419 97.0106C32.8154 96.9431 32.6974 96.842 32.5963 96.7324L20.2139 82.5799C19.8093 82.1247 19.7924 81.442 20.1717 80.9615C20.2476 80.8688 21.984 78.7109 24.6982 78.7109C27.6062 78.7109 31.2392 81.3914 34.7541 83.9876C36.912 85.5807 39.5925 87.5615 40.6208 87.5615C41.3204 87.5615 41.8852 88.1263 41.8852 88.8259C41.8852 89.5255 41.3204 90.0903 40.6208 90.0903C38.8591 90.0903 36.676 88.5477 33.2538 86.0274C30.371 83.8949 26.7718 81.2481 24.6982 81.2481C23.9901 81.2481 23.3748 81.5431 22.9281 81.855L34.3495 94.9033C38.9434 97.3899 50.9802 103.484 54.7733 103.484C58.204 103.484 63.2193 102.405 68.0745 101.368C72.5503 100.408 76.7818 99.5056 79.5465 99.5056C87.3772 99.5056 91.7603 107.791 91.9458 108.145C92.2661 108.769 92.0216 109.528 91.4063 109.848C91.2209 109.941 91.0186 109.991 90.8247 109.991V110Z" fill="#00A542"/>
<path d="M40.6352 89.273C40.1884 89.273 39.7501 89.037 39.5225 88.6071L34.2459 78.8631C31.9532 75.4071 30.8152 74.4293 28.0336 74.2186L29.3486 80.7933C29.4834 81.4761 29.0451 82.142 28.3539 82.2769C27.6796 82.4117 27.0053 81.9734 26.8704 81.2822L25.2436 73.1481C25.1677 72.7772 25.2689 72.3895 25.5049 72.0945C25.7409 71.7994 26.1033 71.6309 26.4826 71.6309C31.6666 71.6309 33.4198 73.0217 36.3869 77.506C36.4037 77.5397 36.429 77.5734 36.4459 77.5987L41.7478 87.3933C42.085 88.0087 41.849 88.7757 41.2421 89.1044C41.0482 89.2056 40.8459 89.2562 40.6436 89.2562L40.6352 89.273Z" fill="#00A542"/>
<path d="M55.0004 74.1762C47.2541 74.1762 43.7812 68.5456 43.7812 62.957C43.7812 59.2904 46.7989 54.4858 49.7154 49.8413C51.4096 47.144 53.0111 44.5984 53.8203 42.5838C54.0142 42.1034 54.4778 41.7915 54.992 41.7915C55.5062 41.7915 55.9782 42.1034 56.1636 42.5838C56.9728 44.5984 58.5744 47.144 60.2686 49.8413C63.1851 54.4858 66.2027 59.2819 66.2027 62.9486C66.2027 68.5287 62.7384 74.1678 54.992 74.1678L55.0004 74.1762ZM55.0004 45.9808C54.1238 47.6076 53.0111 49.3693 51.8648 51.1984C49.2602 55.3371 46.3184 60.0237 46.3184 62.9655C46.3184 66.9693 48.5943 71.6559 55.0088 71.6559C61.4234 71.6559 63.6909 66.9777 63.6909 62.9655C63.6909 60.0237 60.7407 55.3371 58.1445 51.1984C56.9981 49.3693 55.8855 47.6076 55.0088 45.9808H55.0004Z" fill="#00A542"/>
</svg>
