<svg width="218" height="99" viewBox="0 0 218 99" fill="none" xmlns="http://www.w3.org/2000/svg">
<path d="M217.367 90.9131H0.4375V98.0061H217.367V90.9131Z" fill="#C2C2C2"/>
<path d="M217.367 98.4428H0.437397C0.199947 98.4428 0 98.243 0 98.0057V90.9126C0 90.6754 0.199947 90.4756 0.437397 90.4756H217.367C217.604 90.4756 217.804 90.6754 217.804 90.9126V98.0057C217.804 98.243 217.604 98.4428 217.367 98.4428ZM0.874812 97.5686H216.929V91.3497H0.874812V97.5686Z" fill="#333333"/>
<path d="M94.2558 43.8091L84.1328 3.3877H135.148L125.249 43.8091H94.2558Z" fill="#C2C2C2"/>
<path d="M125.247 44.2457H94.2532C94.0532 44.2457 93.8783 44.1083 93.8283 43.921L83.7178 3.48715C83.6803 3.36228 83.7178 3.21243 83.7928 3.11253C83.8803 3.01263 84.0053 2.9502 84.1427 2.9502H135.145C135.282 2.9502 135.407 3.01263 135.495 3.11253C135.582 3.21243 135.607 3.34979 135.57 3.48715L125.672 43.921C125.622 44.1208 125.447 44.2582 125.247 44.2582V44.2457ZM94.5906 43.3716H124.897L134.583 3.81182H84.6926L94.5906 43.3716Z" fill="#333333"/>
<path d="M59.8268 33.3701H45.6172V43.8224H59.8268V33.3701Z" fill="#C2C2C2"/>
<path d="M59.8189 44.2473H45.6093C45.3718 44.2473 45.1719 44.0475 45.1719 43.8102V33.358C45.1719 33.1207 45.3718 32.9209 45.6093 32.9209H59.8189C60.0564 32.9209 60.2563 33.1207 60.2563 33.358V43.8102C60.2563 44.0475 60.0564 44.2473 59.8189 44.2473ZM46.0467 43.3732H59.3815V33.795H46.0467V43.3732Z" fill="#333333"/>
<path d="M35.2891 5.74856C35.2891 5.74856 49.9236 -6.28921 71.2318 5.74856V33.358C71.2318 33.358 53.5854 44.8463 35.2891 33.358V5.74856Z" fill="#C2C2C2"/>
<path d="M52.6808 38.8647C47.2819 38.8647 41.1956 37.5785 35.0593 33.7324C34.9343 33.6575 34.8594 33.5076 34.8594 33.3578V5.74836C34.8594 5.62349 34.9218 5.49862 35.0218 5.41121C35.1718 5.28633 50.1313 -6.67651 71.452 5.37374C71.5895 5.44867 71.6769 5.59851 71.6769 5.74836V33.3578C71.6769 33.5076 71.6019 33.645 71.477 33.7199C71.352 33.7948 63.3911 38.8647 52.6808 38.8647ZM35.7342 33.1205C52.4933 43.485 68.8275 34.3068 70.8021 33.1205V6.0106C60.0418 0.00420322 51.0686 0.316383 45.4197 1.65253C39.9708 2.93872 36.4965 5.38623 35.7342 5.97313V33.133V33.1205Z" fill="#333333"/>
<path d="M172.381 33.3701H158.172V43.8224H172.381V33.3701Z" fill="#C2C2C2"/>
<path d="M172.374 44.2473H158.164C157.926 44.2473 157.727 44.0475 157.727 43.8102V33.358C157.727 33.1207 157.926 32.9209 158.164 32.9209H172.374C172.611 32.9209 172.811 33.1207 172.811 33.358V43.8102C172.811 44.0475 172.611 44.2473 172.374 44.2473ZM158.601 43.3732H171.936V33.795H158.601V43.3732Z" fill="#333333"/>
<path d="M147.859 5.74856C147.859 5.74856 162.494 -6.28921 183.802 5.74856V33.358C183.802 33.358 166.156 44.8463 147.859 33.358V5.74856Z" fill="#C2C2C2"/>
<path d="M165.243 38.8647C159.844 38.8647 153.758 37.5785 147.622 33.7324C147.497 33.6575 147.422 33.5076 147.422 33.3578V5.74836C147.422 5.62349 147.484 5.49862 147.584 5.41121C147.734 5.28633 162.706 -6.67651 184.014 5.37374C184.152 5.44867 184.239 5.59851 184.239 5.74836V33.3578C184.239 33.5076 184.164 33.645 184.039 33.7199C183.914 33.7948 175.954 38.8647 165.243 38.8647ZM148.297 33.1205C165.043 43.485 181.39 34.3068 183.365 33.1205V6.0106C172.604 0.00420322 163.631 0.316383 157.982 1.65253C152.533 2.93872 149.059 5.38623 148.297 5.97313V33.133V33.1205Z" fill="#333333"/>
<path d="M21.5077 42.2118C21.2703 42.2118 21.0703 42.012 21.0703 41.7747V25.4782C21.0703 22.4187 23.5573 19.9336 26.6191 19.9336H192.459C195.521 19.9336 198.008 22.4187 198.008 25.4782V41.5125C198.008 41.7497 197.808 41.9495 197.571 41.9495C197.333 41.9495 197.133 41.7497 197.133 41.5125V25.4782C197.133 22.9057 195.034 20.8077 192.459 20.8077H26.6191C24.0447 20.8077 21.9451 22.9057 21.9451 25.4782V41.7747C21.9451 42.012 21.7452 42.2118 21.5077 42.2118Z" fill="#666666"/>
<path d="M197.558 32.8582H21.5077C21.2703 32.8582 21.0703 32.6583 21.0703 32.4208C21.0703 32.1834 21.2703 31.9834 21.5077 31.9834H197.558C197.796 31.9834 197.996 32.1834 197.996 32.4208C197.996 32.6583 197.796 32.8582 197.558 32.8582Z" fill="#666666"/>
<path d="M52.7109 42.3117C52.4734 42.3117 52.2734 42.1119 52.2734 41.8746V20.3707C52.2734 20.1334 52.4734 19.9336 52.7109 19.9336C52.9483 19.9336 53.1483 20.1334 53.1483 20.3707V41.8746C53.1483 42.1119 52.9483 42.3117 52.7109 42.3117Z" fill="#666666"/>
<path d="M80.2734 42.5863C80.0359 42.5863 79.8359 42.3865 79.8359 42.1492V20.4205C79.8359 20.1832 80.0359 19.9834 80.2734 19.9834C80.5108 19.9834 80.7108 20.1832 80.7108 20.4205V42.1492C80.7108 42.3865 80.5108 42.5863 80.2734 42.5863Z" fill="#666666"/>
<path d="M109.641 42.5863C109.403 42.5863 109.203 42.3865 109.203 42.1492V20.4205C109.203 20.1832 109.403 19.9834 109.641 19.9834C109.878 19.9834 110.078 20.1832 110.078 20.4205V42.1492C110.078 42.3865 109.878 42.5863 109.641 42.5863Z" fill="#666666"/>
<path d="M138.812 42.5863C138.575 42.5863 138.375 42.3865 138.375 42.1492V20.4205C138.375 20.1832 138.575 19.9834 138.812 19.9834C139.05 19.9834 139.25 20.1832 139.25 20.4205V42.1492C139.25 42.3865 139.05 42.5863 138.812 42.5863Z" fill="#666666"/>
<path d="M168.5 42.5863C168.262 42.5863 168.062 42.3865 168.062 42.1492V20.4205C168.062 20.1832 168.262 19.9834 168.5 19.9834C168.737 19.9834 168.937 20.1832 168.937 20.4205V42.1492C168.937 42.3865 168.737 42.5863 168.5 42.5863Z" fill="#666666"/>
<path d="M209.411 41.874H8.39062V90.9117H209.411V41.874Z" fill="#C2C2C2"/>
<path d="M209.403 91.3485H8.38273C8.14528 91.3485 7.94531 91.1487 7.94531 90.9114V41.8863C7.94531 41.649 8.14528 41.4492 8.38273 41.4492H209.403C209.64 41.4492 209.84 41.649 209.84 41.8863V90.9114C209.84 91.1487 209.64 91.3485 209.403 91.3485ZM8.82012 90.4744H208.966V42.3108H8.82012V90.4744Z" fill="#333333"/>
</svg>
